<?xml version="1.0" encoding="UTF-8" standalone="no"?>
<!DOCTYPE svg PUBLIC "-//W3C//DTD SVG 1.1//EN" "http://www.w3.org/Graphics/SVG/1.1/DTD/svg11.dtd">
<svg width="100%" height="100%" viewBox="0 0 360 360" version="1.1" xmlns="http://www.w3.org/2000/svg" xmlns:xlink="http://www.w3.org/1999/xlink" xml:space="preserve" xmlns:serif="http://www.serif.com/" style="fill-rule:evenodd;clip-rule:evenodd;stroke-linecap:round;stroke-linejoin:round;stroke-miterlimit:2;">
    <g>
        <path d="M176.026,23.935C262.358,23.935 332.449,94.025 332.449,180.358C332.449,266.69 262.358,336.78 176.026,336.78C89.694,336.78 19.603,266.69 19.603,180.358C19.603,94.025 89.694,23.935 176.026,23.935Z" style="fill:rgb(255,167,57);"/>
        <path d="M217.464,278.401C222.851,278.877 228.243,278.22 233.517,277.138C240.08,275.791 248.258,274.345 252.681,268.771C255.438,265.295 256.351,259.583 252.556,256.489C249.844,254.278 246.357,242.954 241.056,243.772C235.499,244.63 228.112,257.708 224.843,258.532C222.675,259.078 217.858,259.558 216.488,261.548C214.158,264.932 216.28,271.872 216.304,275.758" style="fill:rgb(247,212,173);"/>
        <path d="M217.464,278.401C222.851,278.877 228.243,278.22 233.517,277.138C240.08,275.791 248.258,274.345 252.681,268.771C255.438,265.295 256.351,259.583 252.556,256.489C249.844,254.278 246.357,242.954 241.056,243.772C235.499,244.63 228.112,257.708 224.843,258.532C222.675,259.078 217.858,259.558 216.488,261.548C214.158,264.932 216.28,271.872 216.304,275.758" style="fill:none;stroke:rgb(0,30,56);stroke-width:6.16px;"/>
        <path d="M145.214,334.094C144.054,336.796 143.567,339.799 143.388,342.718C143.233,345.251 143.334,348.037 144.824,350.205C146.773,353.042 153.592,354.495 156.498,352.367C159.296,350.319 159.665,345.23 159.817,342.174C159.927,339.967 159.852,337.526 158.628,335.609C157.461,333.781 155.428,331.935 153.362,331.221C150.647,330.283 148.282,330.362 145.625,331.226" style="fill:rgb(254,225,192);"/>
        <path d="M145.214,334.094C144.054,336.796 143.567,339.799 143.388,342.718C143.233,345.251 143.334,348.037 144.824,350.205C146.773,353.042 153.592,354.495 156.498,352.367C159.296,350.319 159.665,345.23 159.817,342.174C159.927,339.967 159.852,337.526 158.628,335.609C157.461,333.781 155.428,331.935 153.362,331.221C150.647,330.283 148.282,330.362 145.625,331.226" style="fill:none;stroke:rgb(0,30,56);stroke-width:6.16px;"/>
        <path d="M199.954,334.289C198.795,336.991 198.308,339.994 198.129,342.913C197.974,345.446 198.075,348.232 199.564,350.4C201.514,353.237 208.333,354.69 211.239,352.562C214.036,350.514 214.406,345.425 214.558,342.369C214.667,340.162 214.593,337.721 213.368,335.804C212.201,333.977 210.169,332.131 208.103,331.416C205.388,330.478 203.023,330.557 200.366,331.421" style="fill:rgb(254,225,192);"/>
        <path d="M199.954,334.289C198.795,336.991 198.308,339.994 198.129,342.913C197.974,345.446 198.075,348.232 199.564,350.4C201.514,353.237 208.333,354.69 211.239,352.562C214.036,350.514 214.406,345.425 214.558,342.369C214.667,340.162 214.593,337.721 213.368,335.804C212.201,333.977 210.169,332.131 208.103,331.416C205.388,330.478 203.023,330.557 200.366,331.421" style="fill:none;stroke:rgb(0,30,56);stroke-width:6.16px;"/>
        <path d="M214.478,330.471C215.849,331.263 217.305,331.916 218.511,332.959C220.929,335.047 223.506,338.901 227.1,338.669C229.564,338.51 231.247,334.885 232.359,333.078C233.043,331.965 233.945,330.871 234.24,329.569C234.832,326.96 233.921,324.022 233.105,321.565C231.309,316.162 228.712,311.385 224.655,307.345C221.269,303.972 216.926,302.751 212.319,303.861C211.033,304.171 208.715,304.131 208.117,305.603C207.225,307.802 209.312,313.109 209.998,315.336C211.372,319.796 212.606,324.292 213.45,328.886" style="fill:rgb(135,80,52);"/>
        <path d="M214.478,330.471C215.849,331.263 217.305,331.916 218.511,332.959C220.929,335.047 223.506,338.901 227.1,338.669C229.564,338.51 231.247,334.885 232.359,333.078C233.043,331.965 233.945,330.871 234.24,329.569C234.832,326.96 233.921,324.022 233.105,321.565C231.309,316.162 228.712,311.385 224.655,307.345C221.269,303.972 216.926,302.751 212.319,303.861C211.033,304.171 208.715,304.131 208.117,305.603C207.225,307.802 209.312,313.109 209.998,315.336C211.372,319.796 212.606,324.292 213.45,328.886" style="fill:none;stroke:rgb(0,30,56);stroke-width:6.16px;"/>
        <path d="M192.797,331.506C193.342,332.541 193.971,333.501 194.729,334.395C195.552,335.365 196.688,336.099 197.652,336.919C200.143,339.035 203.966,342.664 207.62,341.636C210.035,340.956 211.557,338.669 213.223,336.968C214.303,335.866 215.798,334.7 216.382,333.225C217.049,331.538 216.266,329.418 215.872,327.752C215.089,324.435 214.573,321.057 214.24,317.667C214.083,316.076 214.475,313.7 213.807,312.226C213.361,311.242 210.976,310.617 210.133,310.061C206.273,307.516 199.98,305.418 196.002,308.894C192.338,312.093 191.835,316.262 191.697,320.813C191.635,322.841 191.272,324.882 191.545,326.904" style="fill:rgb(135,80,52);"/>
        <path d="M192.797,331.506C193.342,332.541 193.971,333.501 194.729,334.395C195.552,335.365 196.688,336.099 197.652,336.919C200.143,339.035 203.966,342.664 207.62,341.636C210.035,340.956 211.557,338.669 213.223,336.968C214.303,335.866 215.798,334.7 216.382,333.225C217.049,331.538 216.266,329.418 215.872,327.752C215.089,324.435 214.573,321.057 214.24,317.667C214.083,316.076 214.475,313.7 213.807,312.226C213.361,311.242 210.976,310.617 210.133,310.061C206.273,307.516 199.98,305.418 196.002,308.894C192.338,312.093 191.835,316.262 191.697,320.813C191.635,322.841 191.272,324.882 191.545,326.904" style="fill:none;stroke:rgb(0,30,56);stroke-width:6.16px;"/>
        <path d="M175.981,311.57C174.433,315.378 174.704,320.514 174.672,324.583C174.617,331.438 177.607,334.975 182.376,339.483C183.937,340.959 185.994,343.233 188.357,343.22C191.319,343.204 195.066,339.346 196.588,336.999C198.585,333.921 196.87,325.031 196.745,321.305C196.65,318.446 196.779,315.562 197.03,312.713C197.117,311.727 197.72,309.98 196.475,309.485C192.275,307.814 183.803,310.718 178.79,310.083" style="fill:rgb(135,80,52);"/>
        <path d="M175.981,311.57C174.433,315.378 174.704,320.514 174.672,324.583C174.617,331.438 177.607,334.975 182.376,339.483C183.937,340.959 185.994,343.233 188.357,343.22C191.319,343.204 195.066,339.346 196.588,336.999C198.585,333.921 196.87,325.031 196.745,321.305C196.65,318.446 196.779,315.562 197.03,312.713C197.117,311.727 197.72,309.98 196.475,309.485C192.275,307.814 183.803,310.718 178.79,310.083" style="fill:none;stroke:rgb(0,30,56);stroke-width:6.16px;"/>
        <path d="M157.679,330.442C157.615,331.899 158.095,333.374 158.875,334.596C160.964,337.871 164.601,344.794 169.314,344.442C172.401,344.211 175.22,340.7 176.997,338.48C179.466,335.398 178.644,330.196 179.021,326.517C179.662,320.25 182.429,314.272 182.965,308.045C183.143,305.974 180.68,305.447 179.196,304.981C176.225,304.047 173.589,304.141 170.522,304.18C168.897,304.201 167.255,303.9 165.837,304.888C163.993,306.172 163.402,308.585 162.626,310.564C160.577,315.792 158.682,321.746 158.265,327.376" style="fill:rgb(135,80,52);"/>
        <path d="M157.679,330.442C157.615,331.899 158.095,333.374 158.875,334.596C160.964,337.871 164.601,344.794 169.314,344.442C172.401,344.211 175.22,340.7 176.997,338.48C179.466,335.398 178.644,330.196 179.021,326.517C179.662,320.25 182.429,314.272 182.965,308.045C183.143,305.974 180.68,305.447 179.196,304.981C176.225,304.047 173.589,304.141 170.522,304.18C168.897,304.201 167.255,303.9 165.837,304.888C163.993,306.172 163.402,308.585 162.626,310.564C160.577,315.792 158.682,321.746 158.265,327.376" style="fill:none;stroke:rgb(0,30,56);stroke-width:6.16px;"/>
        <path d="M143.022,325.311C142.32,326.785 142.838,328.57 143.164,330.067C143.861,333.268 145.199,336.282 147.059,338.975C148.563,341.152 149.688,342.503 152.52,341.355C154.778,340.44 158.288,338.111 159.53,335.897C161.444,332.484 161.47,327.999 162.789,324.326C164.121,320.616 166.882,316.953 167.561,313.074C167.809,311.661 166.423,310.824 165.338,310.206C164.007,309.448 162.49,309.26 161.086,308.685C159.117,307.878 156.028,305.741 153.796,306.392C152.123,306.88 151.083,308.573 150.061,309.847C146.91,313.772 144.237,318.808 143.029,323.719" style="fill:rgb(135,80,52);"/>
        <path d="M143.022,325.311C142.32,326.785 142.838,328.57 143.164,330.067C143.861,333.268 145.199,336.282 147.059,338.975C148.563,341.152 149.688,342.503 152.52,341.355C154.778,340.44 158.288,338.111 159.53,335.897C161.444,332.484 161.47,327.999 162.789,324.326C164.121,320.616 166.882,316.953 167.561,313.074C167.809,311.661 166.423,310.824 165.338,310.206C164.007,309.448 162.49,309.26 161.086,308.685C159.117,307.878 156.028,305.741 153.796,306.392C152.123,306.88 151.083,308.573 150.061,309.847C146.91,313.772 144.237,318.808 143.029,323.719" style="fill:none;stroke:rgb(0,30,56);stroke-width:6.16px;"/>
        <path d="M135.757,310.697C130.651,315.037 127.226,323.203 129.009,329.579C129.645,331.858 132.546,337.897 133.254,338.19C134.606,338.751 141.369,336.277 142.139,335.695C143.813,334.43 144.069,331.016 144.71,329.16C146.17,324.925 148.233,320.874 150.603,317.078C151.449,315.723 152.388,314.441 153.329,313.153C153.668,312.689 154.433,311.96 154.422,311.333C154.398,310.052 151.638,309.318 150.746,309.018C146.464,307.579 141.903,306.674 137.867,309.256" style="fill:rgb(135,80,52);"/>
        <path d="M135.757,310.697C130.651,315.037 127.226,323.203 129.009,329.579C129.645,331.858 132.546,337.897 133.254,338.19C134.606,338.751 141.369,336.277 142.139,335.695C143.813,334.43 144.069,331.016 144.71,329.16C146.17,324.925 148.233,320.874 150.603,317.078C151.449,315.723 152.388,314.441 153.329,313.153C153.668,312.689 154.433,311.96 154.422,311.333C154.398,310.052 151.638,309.318 150.746,309.018C146.464,307.579 141.903,306.674 137.867,309.256" style="fill:none;stroke:rgb(0,30,56);stroke-width:6.16px;"/>
        <path d="M131.306,293.889C127.572,297.561 124.338,302.056 122.023,306.745C118.953,312.963 114.162,319.145 116.841,326.238C117.66,328.408 118.605,333.545 120.712,333.405C121.984,333.32 126.8,330.057 127.381,328.969C133.991,316.597 139.937,307.217 139.607,304.496C139.107,300.371 136.76,297.243 134.26,294.068" style="fill:rgb(135,80,52);"/>
        <path d="M131.306,293.889C127.572,297.561 124.338,302.056 122.023,306.745C118.953,312.963 114.162,319.145 116.841,326.238C117.66,328.408 118.605,333.545 120.712,333.405C121.984,333.32 126.8,330.057 127.381,328.969C133.991,316.597 139.937,307.217 139.607,304.496C139.107,300.371 136.76,297.243 134.26,294.068" style="fill:none;stroke:rgb(0,30,56);stroke-width:6.16px;"/>
        <path d="M144.005,255.991C137.698,263.515 132.839,273.403 129.466,282.598C128.47,285.316 126.487,288.838 126.59,291.795C126.74,296.092 129.261,300.982 131.089,304.819C132.744,308.293 133.923,312.99 137.475,315.001C148.033,320.981 174.707,319.938 187.119,319.585C196.42,319.32 215.775,320.698 223.961,315.083C235.067,307.465 226.053,280.218 222.654,270.152C221.843,267.75 219.29,258.44 217.21,256.96C214.704,255.175 198.185,256.085 194.483,255.898C178.382,255.085 161.85,256.996 145.822,255.155" style="fill:rgb(119,154,150);"/>
        <g>
            <clipPath id="_clip1">
                <path d="M144.005,255.991C137.698,263.515 132.839,273.403 129.466,282.598C128.47,285.316 126.487,288.838 126.59,291.795C126.74,296.092 129.261,300.982 131.089,304.819C132.744,308.293 133.923,312.99 137.475,315.001C148.033,320.981 174.707,319.938 187.119,319.585C196.42,319.32 215.775,320.698 223.961,315.083C235.067,307.465 226.053,280.218 222.654,270.152C221.843,267.75 219.29,258.44 217.21,256.96C214.704,255.175 198.185,256.085 194.483,255.898C178.382,255.085 161.85,256.996 145.822,255.155L144.005,255.991Z"/>
            </clipPath>
            <g clip-path="url(#_clip1)">
                <path d="M125.57,283.651C125.57,283.651 131.727,297.633 137.196,304.877C142.315,311.658 170.178,311.176 179.741,310.874C185.205,310.702 190.643,310.109 196.106,309.91C202.871,309.663 209.859,309.819 216.572,308.782C219.484,308.332 222.414,307.528 225.03,306.126C226.43,305.375 228.133,303.572 229.861,303.823C233.584,304.365 233.824,310.689 232.966,313.244C231.885,316.464 231.272,324.577 228.383,325.721C221.123,328.597 212.035,329.672 204.309,329.994C197.391,330.282 189.063,326.914 182.141,326.56C176.018,326.248 145.838,323.144 137.505,319.607C125.532,314.526 118.287,295.108 125.57,283.651Z" style="fill:rgb(180,200,194);"/>
                <path d="M129.255,286.286C132.978,289.097 138.704,289.534 142.715,287.156C146.801,284.733 148.622,278.441 153.122,276.872C159.114,274.783 166.69,277.875 172.792,278.3C181.878,278.932 190.355,277.395 199.345,276.554C207.49,275.792 220.228,274.363 225.415,281.915C227.043,284.286 230.2,293.81 232.663,295.379C235.273,297.04 232.921,291.256 233.604,288.518C234.389,285.366 233.795,281.818 233.473,278.643C232.513,269.185 229.754,258.197 218.798,256.463C209.106,254.928 197.134,260.099 186.414,259.215C178.252,258.541 170.696,255.52 162.681,254.162C153.358,252.582 142.801,253.569 134.556,258.57C131.652,260.332 129.8,263.368 127.73,265.966" style="fill:rgb(75,116,111);"/>
                <path d="M129.255,286.286C132.978,289.097 138.704,289.534 142.715,287.156C146.801,284.733 148.622,278.441 153.122,276.872C159.114,274.783 166.69,277.875 172.792,278.3C181.878,278.932 190.355,277.395 199.345,276.554C207.49,275.792 220.228,274.363 225.415,281.915C227.043,284.286 230.2,293.81 232.663,295.379C235.273,297.04 232.921,291.256 233.604,288.518C234.389,285.366 233.795,281.818 233.473,278.643C232.513,269.185 229.754,258.197 218.798,256.463C209.106,254.928 197.134,260.099 186.414,259.215C178.252,258.541 170.696,255.52 162.681,254.162C153.358,252.582 142.801,253.569 134.556,258.57C131.652,260.332 129.8,263.368 127.73,265.966" style="fill:none;stroke:rgb(75,116,111);stroke-width:6.15px;"/>
            </g>
        </g>
        <path d="M144.005,255.991C137.698,263.515 132.839,273.403 129.466,282.598C128.47,285.316 126.487,288.838 126.59,291.795C126.74,296.092 129.261,300.982 131.089,304.819C132.744,308.293 133.923,312.99 137.475,315.001C148.033,320.981 174.707,319.938 187.119,319.585C196.42,319.32 215.775,320.698 223.961,315.083C235.067,307.465 226.053,280.218 222.654,270.152C221.843,267.75 219.29,258.44 217.21,256.96C214.704,255.175 198.185,256.085 194.483,255.898C178.382,255.085 161.85,256.996 145.822,255.155" style="fill:none;stroke:rgb(0,30,56);stroke-width:6.16px;"/>
        <path d="M82.748,153.739C78.374,161.668 60.789,262.3 174.657,270.468C277.59,277.851 302.817,143.55 253.622,146.401C233.826,147.548 211.633,156.877 191.685,157.019C157.138,157.265 122.762,157.739 88.617,151.906" style="fill:rgb(147,112,81);"/>
        <g>
            <clipPath id="_clip2">
                <path d="M82.748,153.739C78.374,161.668 60.789,262.3 174.657,270.468C277.59,277.851 302.817,143.55 253.622,146.401C233.826,147.548 211.633,156.877 191.685,157.019C157.138,157.265 122.762,157.739 88.617,151.906L82.748,153.739Z"/>
            </clipPath>
            <g clip-path="url(#_clip2)">
                <path d="M67.87,176.643C128.56,203.743 201.343,191.415 241.819,181.475C252.607,178.826 287.248,172.131 284.289,155.581C283.162,149.273 276.4,147.843 270.968,147.547C258.325,146.856 246.165,148.558 233.648,150.037C215.604,152.17 197.744,154.126 179.585,155.186C159.073,156.383 82.566,151.034 67.381,167.833C64.683,170.818 67.87,176.643 67.87,176.643Z" style="fill:rgb(124,97,73);"/>
                <path d="M67.87,176.643C128.56,203.743 201.343,191.415 241.819,181.475C252.607,178.826 287.248,172.131 284.289,155.581C283.162,149.273 276.4,147.843 270.968,147.547C258.325,146.856 246.165,148.558 233.648,150.037C215.604,152.17 197.744,154.126 179.585,155.186C159.073,156.383 82.566,151.034 67.381,167.833C64.683,170.818 67.87,176.643 67.87,176.643Z" style="fill:none;stroke:rgb(124,97,73);stroke-width:6.15px;"/>
                <path d="M110.083,171.429C102.147,203.608 131.679,251.302 168.76,234.944C188.627,226.18 195.354,200.805 219.42,198.995C225.95,198.504 232.866,200.514 237.759,204.993C245.546,212.122 250.823,239.783 267.878,231.577C270.559,230.286 274.399,228.599 276.134,226.101C278.634,222.5 279.514,217.576 281.288,213.585C283.954,207.587 287.141,202.097 288.764,195.67C290.541,188.633 291.676,181.223 291.905,173.968C292.073,168.64 290.628,163.065 288.955,158.044C287.001,152.178 284.417,146.363 279.425,142.443C258.312,125.865 205.898,138.633 180.615,141.335C160.33,143.503 122.568,141.168 116.372,167.349" style="fill:rgb(254,225,192);"/>
            </g>
        </g>
        <g>
            <clipPath id="_clip3">
                <path d="M82.748,153.739C78.374,161.668 60.789,262.3 174.657,270.468C277.59,277.851 302.817,143.55 253.622,146.401C233.826,147.548 211.633,156.877 191.685,157.019C157.138,157.265 122.762,157.739 88.617,151.906L82.748,153.739Z"/>
            </clipPath>
            <g clip-path="url(#_clip3)">
                <clipPath id="_clip4">
                    <path d="M110.083,171.429C102.147,203.608 131.679,251.302 168.76,234.944C188.627,226.18 195.354,200.805 219.42,198.995C225.95,198.504 232.866,200.514 237.759,204.993C245.546,212.122 250.823,239.783 267.878,231.577C270.559,230.286 274.399,228.599 276.134,226.101C278.634,222.5 279.514,217.576 281.288,213.585C283.954,207.587 287.141,202.097 288.764,195.67C290.541,188.633 291.676,181.223 291.905,173.968C292.073,168.64 290.628,163.065 288.955,158.044C287.001,152.178 284.417,146.363 279.425,142.443C258.312,125.865 205.898,138.633 180.615,141.335C160.33,143.503 122.568,141.168 116.372,167.349L110.083,171.429Z"/>
                </clipPath>
                <g clip-path="url(#_clip4)">
                    <path d="M67.87,176.643C128.56,203.743 201.343,191.415 241.819,181.475C252.607,178.826 287.248,172.131 284.289,155.581C283.162,149.273 276.4,147.843 270.968,147.547C258.325,146.856 246.165,148.558 233.648,150.037C215.604,152.17 197.744,154.126 179.585,155.186C159.073,156.383 82.566,151.034 67.381,167.833C64.683,170.818 67.87,176.643 67.87,176.643Z" style="fill:rgb(247,212,173);"/>
                    <path d="M67.87,176.643C128.56,203.743 201.343,191.415 241.819,181.475C252.607,178.826 287.248,172.131 284.289,155.581C283.162,149.273 276.4,147.843 270.968,147.547C258.325,146.856 246.165,148.558 233.648,150.037C215.604,152.17 197.744,154.126 179.585,155.186C159.073,156.383 82.566,151.034 67.381,167.833C64.683,170.818 67.87,176.643 67.87,176.643Z" style="fill:none;stroke:rgb(247,212,173);stroke-width:6.15px;"/>
                </g>
            </g>
        </g>
        <g>
            <clipPath id="_clip5">
                <path d="M82.748,153.739C78.374,161.668 60.789,262.3 174.657,270.468C277.59,277.851 302.817,143.55 253.622,146.401C233.826,147.548 211.633,156.877 191.685,157.019C157.138,157.265 122.762,157.739 88.617,151.906L82.748,153.739Z"/>
            </clipPath>
            <g clip-path="url(#_clip5)">
                <path d="M110.083,171.429C102.147,203.608 131.679,251.302 168.76,234.944C188.627,226.18 195.354,200.805 219.42,198.995C225.95,198.504 232.866,200.514 237.759,204.993C245.546,212.122 250.823,239.783 267.878,231.577C270.559,230.286 274.399,228.599 276.134,226.101C278.634,222.5 279.514,217.576 281.288,213.585C283.954,207.587 287.141,202.097 288.764,195.67C290.541,188.633 291.676,181.223 291.905,173.968C292.073,168.64 290.628,163.065 288.955,158.044C287.001,152.178 284.417,146.363 279.425,142.443C258.312,125.865 205.898,138.633 180.615,141.335C160.33,143.503 122.568,141.168 116.372,167.349" style="fill:none;stroke:rgb(0,30,56);stroke-width:6.15px;"/>
                <path d="M151.471,215.916C159.841,215.916 166.636,220.049 166.636,225.14C166.636,230.231 159.841,234.364 151.471,234.364C143.102,234.364 136.307,230.231 136.307,225.14C136.307,220.049 143.102,215.916 151.471,215.916Z" style="fill:rgb(255,193,170);"/>
                <path d="M264.968,198.919C273.337,198.919 280.132,203.053 280.132,208.143C280.132,213.234 273.337,217.367 264.968,217.367C256.597,217.367 249.803,213.234 249.803,208.143C249.803,203.053 256.597,198.919 264.968,198.919Z" style="fill:rgb(255,193,170);"/>
            </g>
        </g>
        <path d="M82.748,153.739C78.374,161.668 60.789,262.3 174.657,270.468C277.59,277.851 302.817,143.55 253.622,146.401C233.826,147.548 211.633,156.877 191.685,157.019C157.138,157.265 122.762,157.739 88.617,151.906" style="fill:none;stroke:rgb(0,30,56);stroke-width:6.16px;"/>
        <path d="M211.141,217.788C217.602,223.837 226.218,222.747 232.269,216.761" style="fill:none;stroke:rgb(0,30,56);stroke-width:6.16px;"/>
        <path d="M158.947,195.414C162.325,195.414 165.067,198.546 165.067,202.405C165.067,206.263 162.325,209.396 158.947,209.396C155.569,209.396 152.827,206.263 152.827,202.405C152.827,198.546 155.569,195.414 158.947,195.414Z" style="fill:rgb(0,30,56);"/>
        <path d="M158.947,195.414C162.325,195.414 165.067,198.546 165.067,202.405C165.067,206.263 162.325,209.396 158.947,209.396C155.569,209.396 152.827,206.263 152.827,202.405C152.827,198.546 155.569,195.414 158.947,195.414Z" style="fill:none;stroke:rgb(0,30,56);stroke-width:6.16px;"/>
        <path d="M256.066,180.724C259.445,180.724 262.187,183.857 262.187,187.715C262.187,191.574 259.445,194.706 256.066,194.706C252.689,194.706 249.947,191.574 249.947,187.715C249.947,183.857 252.689,180.724 256.066,180.724Z" style="fill:rgb(0,30,56);"/>
        <path d="M256.066,180.724C259.445,180.724 262.187,183.857 262.187,187.715C262.187,191.574 259.445,194.706 256.066,194.706C252.689,194.706 249.947,191.574 249.947,187.715C249.947,183.857 252.689,180.724 256.066,180.724Z" style="fill:none;stroke:rgb(0,30,56);stroke-width:6.16px;"/>
        <path d="M72.297,154.147C73.349,138.028 77.811,118.515 88.238,105.667C116.438,70.92 194.775,49.234 235.017,75.847C247.551,84.136 270.602,114.019 259.669,129.702C251.433,141.517 231.241,144.603 218.181,146.427C203.509,148.477 188.708,148.747 173.96,149.977C146.281,152.287 118.461,152.535 90.731,153.702" style="fill:rgb(119,154,150);"/>
        <g>
            <clipPath id="_clip6">
                <path d="M72.297,154.147C73.349,138.028 77.811,118.515 88.238,105.667C116.438,70.92 194.775,49.234 235.017,75.847C247.551,84.136 270.602,114.019 259.669,129.702C251.433,141.517 231.241,144.603 218.181,146.427C203.509,148.477 188.708,148.747 173.96,149.977C146.281,152.287 118.461,152.535 90.731,153.702L72.297,154.147Z"/>
            </clipPath>
            <g clip-path="url(#_clip6)">
                <path d="M203.624,54.221C205.538,59.286 204.495,63.807 205.197,69.18C207.098,83.718 211.284,106.334 194.707,104.241C189.649,103.603 185.088,101.076 180.37,99.339C163.031,92.959 148.879,87.917 130.369,94.774C116.165,100.037 103.995,111.678 95.996,124.369C92.207,130.38 89.867,139.799 84.283,144.272C78.341,149.032 71.161,146.733 67.438,140.288C59.996,127.406 67.582,110.249 74.569,99.013C90.616,73.209 144.39,56.875 172.988,55.939C177.161,55.802 181.371,55.818 185.459,56.771C188.596,57.503 192.076,59.256 195.387,59.143C199.575,59 189.872,47.159 194.016,46.66C196.986,46.302 200.046,46.973 201.722,49.549" style="fill:rgb(75,116,111);"/>
                <path d="M203.624,54.221C205.538,59.286 204.495,63.807 205.197,69.18C207.098,83.718 211.284,106.334 194.707,104.241C189.649,103.603 185.088,101.076 180.37,99.339C163.031,92.959 148.879,87.917 130.369,94.774C116.165,100.037 103.995,111.678 95.996,124.369C92.207,130.38 89.867,139.799 84.283,144.272C78.341,149.032 71.161,146.733 67.438,140.288C59.996,127.406 67.582,110.249 74.569,99.013C90.616,73.209 144.39,56.875 172.988,55.939C177.161,55.802 181.371,55.818 185.459,56.771C188.596,57.503 192.076,59.256 195.387,59.143C199.575,59 189.872,47.159 194.016,46.66C196.986,46.302 200.046,46.973 201.722,49.549" style="fill:none;stroke:rgb(75,116,111);stroke-width:6.15px;"/>
                <path d="M196.502,70.673C213.022,73.045 232.075,84.219 243.564,95.941C247.178,99.628 250.821,104.036 253.188,108.65C253.834,109.909 254.622,114.121 255.032,114.273C257.51,115.192 261.409,109.949 262.32,108.269C269.319,95.356 261.741,80.699 252.398,71.517C247.765,66.965 242.78,62.631 236.715,60.084C227.232,56.101 212.172,55.049 202.543,59C199.497,60.25 197.22,62.237 194.489,63.951" style="fill:rgb(142,166,163);"/>
                <path d="M196.502,70.673C213.022,73.045 232.075,84.219 243.564,95.941C247.178,99.628 250.821,104.036 253.188,108.65C253.834,109.909 254.622,114.121 255.032,114.273C257.51,115.192 261.409,109.949 262.32,108.269C269.319,95.356 261.741,80.699 252.398,71.517C247.765,66.965 242.78,62.631 236.715,60.084C227.232,56.101 212.172,55.049 202.543,59C199.497,60.25 197.22,62.237 194.489,63.951" style="fill:none;stroke:rgb(142,166,163);stroke-width:6.15px;"/>
            </g>
        </g>
        <path d="M72.297,154.147C73.349,138.028 77.811,118.515 88.238,105.667C116.438,70.92 194.775,49.234 235.017,75.847C247.551,84.136 270.602,114.019 259.669,129.702C251.433,141.517 231.241,144.603 218.181,146.427C203.509,148.477 188.708,148.747 173.96,149.977C146.281,152.287 118.461,152.535 90.731,153.702" style="fill:none;stroke:rgb(0,30,56);stroke-width:6.16px;"/>
        <path d="M80.451,118.387C81.454,118.433 107.655,64.296 169.623,75.947C175.572,77.065 181.051,81.059 186.077,84.408C190.402,87.29 196.79,97.448 202.706,96.361C209.742,95.068 208.356,83.426 207.763,78.505C205.632,60.809 200.018,43.558 188.748,29.415C145.624,-24.698 100.091,28.896 69.466,65.514C66.806,68.695 39.792,94.82 39.76,95.115C38.561,106.117 68.407,117.825 80.451,118.387Z" style="fill:rgb(215,79,65);"/>
        <clipPath id="_clip7">
            <path d="M80.451,118.387C81.454,118.433 107.655,64.296 169.623,75.947C175.572,77.065 181.051,81.059 186.077,84.408C190.402,87.29 196.79,97.448 202.706,96.361C209.742,95.068 208.356,83.426 207.763,78.505C205.632,60.809 200.018,43.558 188.748,29.415C145.624,-24.698 100.091,28.896 69.466,65.514C66.806,68.695 39.792,94.82 39.76,95.115C38.561,106.117 68.407,117.825 80.451,118.387Z"/>
        </clipPath>
        <g clip-path="url(#_clip7)">
            <path d="M41.512,113.293C31.627,105.139 31.561,84.222 40.629,86.564C45.944,87.937 57.551,125.066 123.099,72.656C156.07,46.294 201.231,84.885 196.696,96.003C192.942,105.205 86.82,122.206 74.711,124.59C63.778,126.742 49.851,120.171 41.512,113.293Z" style="fill:rgb(153,37,25);"/>
            <path d="M41.512,113.293C31.627,105.139 31.561,84.222 40.629,86.564C45.944,87.937 57.551,125.066 123.099,72.656C156.07,46.294 201.231,84.885 196.696,96.003C192.942,105.205 86.82,122.206 74.711,124.59C63.778,126.742 49.851,120.171 41.512,113.293Z" style="fill:none;stroke:rgb(153,37,25);stroke-width:10.85px;"/>
            <path d="M54.598,77.302C59.067,74.902 63.914,69.779 67.986,66.016C122.787,15.371 142.686,6.063 167.695,23.036C183.905,34.038 195.78,49.01 202.874,66.579C205.11,72.118 207.841,86.239 210.572,90.073C212.335,92.547 215.153,89.277 215.901,87.637C219.258,80.268 217.394,62.665 215.893,54.732C210.753,27.551 197.342,2.937 170.492,-9.552C151.607,-18.336 120.837,-8.4 108.544,7.691C104.394,13.125 54.598,77.302 54.598,77.302Z" style="fill:rgb(233,126,116);"/>
            <path d="M54.598,77.302C59.067,74.902 63.914,69.779 67.986,66.016C122.787,15.371 142.686,6.063 167.695,23.036C183.905,34.038 195.78,49.01 202.874,66.579C205.11,72.118 207.841,86.239 210.572,90.073C212.335,92.547 215.153,89.277 215.901,87.637C219.258,80.268 217.394,62.665 215.893,54.732C210.753,27.551 197.342,2.937 170.492,-9.552C151.607,-18.336 120.837,-8.4 108.544,7.691C104.394,13.125 54.598,77.302 54.598,77.302Z" style="fill:none;stroke:rgb(233,126,116);stroke-width:6.15px;"/>
        </g>
        <path d="M80.451,118.387C81.454,118.433 107.655,64.296 169.623,75.947C175.572,77.065 181.051,81.059 186.077,84.408C190.402,87.29 196.79,97.448 202.706,96.361C209.742,95.068 208.356,83.426 207.763,78.505C205.632,60.809 200.018,43.558 188.748,29.415C145.624,-24.698 100.091,28.896 69.466,65.514C66.806,68.695 39.792,94.82 39.76,95.115C38.561,106.117 68.407,117.825 80.451,118.387Z" style="fill:none;stroke:rgb(0,30,56);stroke-width:6.16px;"/>
        <path d="M61.619,144.658C61.619,144.658 56.814,154.328 58.055,158.902C61.479,171.522 93.99,178.673 104.941,181.532C147.268,192.584 199.607,186.659 241.736,176.233C250.307,174.112 279.951,166.098 283.413,156.733C286.934,147.21 277.385,119.998 270.13,113.089C266.995,110.102 263.165,108.913 258.85,108.832C253.885,108.739 249.238,109.965 244.35,110.521C220.472,113.236 197.654,119.807 174.366,125.567C153.597,130.704 112.245,142.938 74.833,142.28C71.121,142.215 63.546,139.763 61.619,144.658Z" style="fill:rgb(119,154,150);"/>
        <clipPath id="_clip8">
            <path d="M61.619,144.658C61.619,144.658 56.814,154.328 58.055,158.902C61.479,171.522 93.99,178.673 104.941,181.532C147.268,192.584 199.607,186.659 241.736,176.233C250.307,174.112 279.951,166.098 283.413,156.733C286.934,147.21 277.385,119.998 270.13,113.089C266.995,110.102 263.165,108.913 258.85,108.832C253.885,108.739 249.238,109.965 244.35,110.521C220.472,113.236 197.654,119.807 174.366,125.567C153.597,130.704 112.245,142.938 74.833,142.28C71.121,142.215 63.546,139.763 61.619,144.658Z"/>
        </clipPath>
        <g clip-path="url(#_clip8)">
            <path d="M56.389,142.264C74.714,155.796 98.514,151.024 119.279,147.369C153.712,141.308 186.798,129.545 221.08,122.539C231.214,120.468 241.741,117.789 252.108,117.266C272.488,116.238 274.121,129.417 276.056,146.645C276.787,153.16 274.354,166.456 284.309,164.358C291.905,162.756 293.456,151.271 294.176,144.833C296.159,127.087 295.096,104.668 276.212,96.283C265.071,91.335 251.151,95.802 240.165,98.87C221.033,104.214 201.749,109.694 182.122,112.899C166.529,115.446 151.138,117.459 135.358,118.559C119.726,119.647 104.322,119.646 88.745,121.574C76.888,123.041 62.032,125.876 58.117,138.876" style="fill:rgb(142,166,163);"/>
            <path d="M56.389,142.264C74.714,155.796 98.514,151.024 119.279,147.369C153.712,141.308 186.798,129.545 221.08,122.539C231.214,120.468 241.741,117.789 252.108,117.266C272.488,116.238 274.121,129.417 276.056,146.645C276.787,153.16 274.354,166.456 284.309,164.358C291.905,162.756 293.456,151.271 294.176,144.833C296.159,127.087 295.096,104.668 276.212,96.283C265.071,91.335 251.151,95.802 240.165,98.87C221.033,104.214 201.749,109.694 182.122,112.899C166.529,115.446 151.138,117.459 135.358,118.559C119.726,119.647 104.322,119.646 88.745,121.574C76.888,123.041 62.032,125.876 58.117,138.876" style="fill:none;stroke:rgb(142,166,163);stroke-width:6.15px;"/>
        </g>
        <path d="M61.619,144.658C61.619,144.658 56.814,154.328 58.055,158.902C61.479,171.522 93.99,178.673 104.941,181.532C147.268,192.584 199.607,186.659 241.736,176.233C250.307,174.112 279.951,166.098 283.413,156.733C286.934,147.21 277.385,119.998 270.13,113.089C266.995,110.102 263.165,108.913 258.85,108.832C253.885,108.739 249.238,109.965 244.35,110.521C220.472,113.236 197.654,119.807 174.366,125.567C153.597,130.704 112.245,142.938 74.833,142.28C71.121,142.215 63.546,139.763 61.619,144.658Z" style="fill:none;stroke:rgb(0,30,56);stroke-width:6.16px;"/>
        <path d="M276.48,122.691C285.637,120.875 288.903,141.433 281.128,143.061C275.308,144.28 267.422,140.388 266.83,134.476C266.239,128.564 270.646,123.848 276.48,122.691Z" style="fill:rgb(215,79,65);"/>
        <path d="M276.48,122.691C285.637,120.875 288.903,141.433 281.128,143.061C275.308,144.28 267.422,140.388 266.83,134.476C266.239,128.564 270.646,123.848 276.48,122.691Z" style="fill:none;stroke:rgb(0,30,56);stroke-width:6.16px;"/>
        <path d="M230.798,136.355C235.951,135.839 240.553,139.6 241.068,144.748C241.583,149.896 237.818,154.494 232.665,155.01C227.513,155.526 222.911,151.765 222.396,146.617C221.88,141.469 225.645,136.871 230.798,136.355Z" style="fill:rgb(215,79,65);"/>
        <path d="M230.798,136.355C235.951,135.839 240.553,139.6 241.068,144.748C241.583,149.896 237.818,154.494 232.665,155.01C227.513,155.526 222.911,151.765 222.396,146.617C221.88,141.469 225.645,136.871 230.798,136.355Z" style="fill:none;stroke:rgb(0,30,56);stroke-width:6.16px;"/>
        <path d="M169.731,148.512C174.498,148.035 178.756,151.515 179.233,156.278C179.71,161.041 176.226,165.296 171.459,165.773C166.691,166.251 162.433,162.771 161.956,158.008C161.479,153.244 164.963,148.99 169.731,148.512Z" style="fill:rgb(215,79,65);"/>
        <path d="M169.731,148.512C174.498,148.035 178.756,151.515 179.233,156.278C179.71,161.041 176.226,165.296 171.459,165.773C166.691,166.251 162.433,162.771 161.956,158.008C161.479,153.244 164.963,148.99 169.731,148.512Z" style="fill:none;stroke:rgb(0,30,56);stroke-width:6.16px;"/>
        <path d="M100.411,154.747C104.291,154.359 107.757,157.191 108.145,161.067C108.533,164.944 105.698,168.406 101.817,168.795C97.937,169.183 94.472,166.351 94.084,162.475C93.696,158.598 96.531,155.136 100.411,154.747Z" style="fill:rgb(215,79,65);"/>
        <path d="M100.411,154.747C104.291,154.359 107.757,157.191 108.145,161.067C108.533,164.944 105.698,168.406 101.817,168.795C97.937,169.183 94.472,166.351 94.084,162.475C93.696,158.598 96.531,155.136 100.411,154.747Z" style="fill:none;stroke:rgb(0,30,56);stroke-width:6.16px;"/>
        <path d="M130.335,284.385C125.433,282.1 122.042,279.183 118.019,275.606C113.011,271.155 106.655,265.81 105.617,258.77C104.969,254.381 107.039,248.979 111.873,248.201C118.949,247.061 137.509,263.339 138.716,265.432C140.562,268.633 143.465,273.135 141.019,277.922C136.363,287.036 130.335,284.385 130.335,284.385Z" style="fill:rgb(180,200,194);"/>
        <path d="M130.335,284.385C125.433,282.1 122.042,279.183 118.019,275.606C113.011,271.155 106.655,265.81 105.617,258.77C104.969,254.381 107.039,248.979 111.873,248.201C118.949,247.061 137.509,263.339 138.716,265.432C140.562,268.633 143.465,273.135 141.019,277.922C136.363,287.036 130.335,284.385 130.335,284.385Z" style="fill:none;stroke:rgb(0,30,56);stroke-width:6.16px;"/>
        <path d="M116.203,262.326C121.058,266.208 122.351,272.671 119.09,276.749C115.829,280.828 109.24,280.987 104.385,277.105C99.531,273.223 98.237,266.76 101.498,262.682C104.76,258.603 111.349,258.444 116.203,262.326Z" style="fill:rgb(254,225,192);"/>
        <path d="M116.203,262.326C121.058,266.208 122.351,272.671 119.09,276.749C115.829,280.828 109.24,280.987 104.385,277.105C99.531,273.223 98.237,266.76 101.498,262.682C104.76,258.603 111.349,258.444 116.203,262.326Z" style="fill:none;stroke:rgb(0,30,56);stroke-width:6.15px;"/>
        <path d="M286.691,198.409C260.478,198.409 239.197,225.494 239.197,258.856C239.197,292.218 260.478,319.303 286.691,319.303C312.904,319.303 334.185,292.218 334.185,258.856C334.185,225.494 312.904,198.409 286.691,198.409Z" style="fill:rgb(180,200,194);"/>
        <clipPath id="_clip9">
            <path d="M286.691,198.409C260.478,198.409 239.197,225.494 239.197,258.856C239.197,292.218 260.478,319.303 286.691,319.303C312.904,319.303 334.185,292.218 334.185,258.856C334.185,225.494 312.904,198.409 286.691,198.409Z"/>
        </clipPath>
        <g clip-path="url(#_clip9)">
            <path d="M287.308,194.284C297.127,197.576 305.806,210.944 309.094,220.295C316.6,241.64 317.011,267.893 309.069,289.229C305.415,299.045 298.314,306.681 289.768,312.507C286.032,315.054 282.381,317.726 278.643,320.275C277.515,321.044 275.167,322.052 274.643,323.418C273.894,325.37 278.954,325.815 279.79,325.85C285.523,326.089 291.257,324.998 296.838,323.857C312.047,320.747 326.74,311.568 334.511,297.794C350.017,270.313 347.192,228.857 327.311,204.374C319.28,194.484 309.072,185.143 295.702,184.81C292.482,184.73 280.603,186.15 281.183,191.57" style="fill:rgb(218,234,229);"/>
            <path d="M287.308,194.284C297.127,197.576 305.806,210.944 309.094,220.295C316.6,241.64 317.011,267.893 309.069,289.229C305.415,299.045 298.314,306.681 289.768,312.507C286.032,315.054 282.381,317.726 278.643,320.275C277.515,321.044 275.167,322.052 274.643,323.418C273.894,325.37 278.954,325.815 279.79,325.85C285.523,326.089 291.257,324.998 296.838,323.857C312.047,320.747 326.74,311.568 334.511,297.794C350.017,270.313 347.192,228.857 327.311,204.374C319.28,194.484 309.072,185.143 295.702,184.81C292.482,184.73 280.603,186.15 281.183,191.57" style="fill:none;stroke:rgb(218,234,229);stroke-width:6.15px;"/>
            <path d="M304.184,215.066C301.827,213.727 299.009,213.349 296.388,212.819C280.622,209.627 267.668,216.196 260.297,230.769C251.769,247.626 252.394,270.134 262.478,286.158C267.421,294.011 274.037,300.398 283.262,302.657C286.397,303.425 291.977,304.574 293.562,300.775C295.081,297.131 294.209,292.371 293.796,288.6C293.234,283.459 293.133,278.19 292.864,273.024C292.431,264.694 293.235,256.794 294,248.534C294.553,242.575 295.326,231.538 297.39,226.116C298.159,224.094 299.317,222.246 300.3,220.327" style="fill:rgb(152,181,172);"/>
            <path d="M304.184,215.066C301.827,213.727 299.009,213.349 296.388,212.819C280.622,209.627 267.668,216.196 260.297,230.769C251.769,247.626 252.394,270.134 262.478,286.158C267.421,294.011 274.037,300.398 283.262,302.657C286.397,303.425 291.977,304.574 293.562,300.775C295.081,297.131 294.209,292.371 293.796,288.6C293.234,283.459 293.133,278.19 292.864,273.024C292.431,264.694 293.235,256.794 294,248.534C294.553,242.575 295.326,231.538 297.39,226.116C298.159,224.094 299.317,222.246 300.3,220.327" style="fill:none;stroke:rgb(152,181,172);stroke-width:6.03px;"/>
        </g>
        <path d="M286.691,198.409C260.478,198.409 239.197,225.494 239.197,258.856C239.197,292.218 260.478,319.303 286.691,319.303C312.904,319.303 334.185,292.218 334.185,258.856C334.185,225.494 312.904,198.409 286.691,198.409Z" style="fill:none;stroke:rgb(0,30,56);stroke-width:6.16px;"/>
        <path d="M297.772,212.548C277.69,212.548 261.387,233.298 261.387,258.856C261.387,284.414 277.69,305.164 297.772,305.164C317.853,305.164 334.157,284.414 334.157,258.856C334.157,233.298 317.853,212.548 297.772,212.548Z" style="fill:rgb(215,79,65);"/>
        <clipPath id="_clip10">
            <path d="M297.772,212.548C277.69,212.548 261.387,233.298 261.387,258.856C261.387,284.414 277.69,305.164 297.772,305.164C317.853,305.164 334.157,284.414 334.157,258.856C334.157,233.298 317.853,212.548 297.772,212.548Z"/>
        </clipPath>
        <g clip-path="url(#_clip10)">
            <path d="M287.308,194.284C297.127,197.576 305.806,210.944 309.094,220.295C316.6,241.64 317.011,267.893 309.069,289.229C305.415,299.045 298.314,306.681 289.768,312.507C286.032,315.054 282.381,317.726 278.643,320.275C277.515,321.044 275.167,322.052 274.643,323.418C273.894,325.37 278.954,325.815 279.79,325.85C285.523,326.089 291.257,324.998 296.838,323.857C312.047,320.747 326.74,311.568 334.511,297.794C350.017,270.313 347.192,228.857 327.311,204.374C319.28,194.484 309.072,185.143 295.702,184.81C292.482,184.73 280.603,186.15 281.183,191.57" style="fill:rgb(232,127,116);"/>
            <path d="M287.308,194.284C297.127,197.576 305.806,210.944 309.094,220.295C316.6,241.64 317.011,267.893 309.069,289.229C305.415,299.045 298.314,306.681 289.768,312.507C286.032,315.054 282.381,317.726 278.643,320.275C277.515,321.044 275.167,322.052 274.643,323.418C273.894,325.37 278.954,325.815 279.79,325.85C285.523,326.089 291.257,324.998 296.838,323.857C312.047,320.747 326.74,311.568 334.511,297.794C350.017,270.313 347.192,228.857 327.311,204.374C319.28,194.484 309.072,185.143 295.702,184.81C292.482,184.73 280.603,186.15 281.183,191.57" style="fill:none;stroke:rgb(232,127,116);stroke-width:6.15px;"/>
        </g>
        <path d="M297.772,212.548C277.69,212.548 261.387,233.298 261.387,258.856C261.387,284.414 277.69,305.164 297.772,305.164C317.853,305.164 334.157,284.414 334.157,258.856C334.157,233.298 317.853,212.548 297.772,212.548Z" style="fill:none;stroke:rgb(0,30,56);stroke-width:6.16px;"/>
        <path d="M98.049,245.898C91.416,244.547 38.497,208.943 35.957,202.149C34.499,198.251 29.953,185.978 30.807,182.256C31.579,178.893 48.302,180.97 51.22,183.017C64.253,192.157 104.463,237.024 105.344,239.12C106.701,242.349 101.786,246.66 98.049,245.898Z" style="fill:rgb(180,200,194);"/>
        <path d="M98.049,245.898C91.416,244.547 38.497,208.943 35.957,202.149C34.499,198.251 29.953,185.978 30.807,182.256C31.579,178.893 48.302,180.97 51.22,183.017C64.253,192.157 104.463,237.024 105.344,239.12C106.701,242.349 101.786,246.66 98.049,245.898Z" style="fill:none;stroke:rgb(0,30,56);stroke-width:6.16px;"/>
        <path d="M32.154,182.018C39.065,186.894 85.49,228.58 100.094,240.112" style="fill:none;stroke:rgb(0,30,56);stroke-width:6.16px;"/>
        <path d="M89.151,256.277C89.151,256.277 102.631,240.461 108.355,233.318C110.42,230.741 112.982,226.294 116.444,225.361C118.552,224.794 120.191,226.536 121.48,227.947C123.485,230.142 125.873,231.213 124.768,234.672C124.549,235.359 124.179,236.002 123.85,236.64C119.678,244.722 113.257,251.788 107.099,258.408C104.699,260.987 102.57,263.811 99.945,266.178C96.331,269.436 92.872,266.307 89.998,263.828C88.917,262.896 87.017,261.683 86.914,260.104C86.831,258.847 88.495,257.223 89.151,256.277Z" style="fill:rgb(180,200,194);"/>
        <path d="M89.151,256.277C89.151,256.277 102.631,240.461 108.355,233.318C110.42,230.741 112.982,226.294 116.444,225.361C118.552,224.794 120.191,226.536 121.48,227.947C123.485,230.142 125.873,231.213 124.768,234.672C124.549,235.359 124.179,236.002 123.85,236.64C119.678,244.722 113.257,251.788 107.099,258.408C104.699,260.987 102.57,263.811 99.945,266.178C96.331,269.436 92.872,266.307 89.998,263.828C88.917,262.896 87.017,261.683 86.914,260.104C86.831,258.847 88.495,257.223 89.151,256.277Z" style="fill:none;stroke:rgb(0,30,56);stroke-width:6.16px;"/>
        <path d="M123.1,316.927C122.399,317.966 121.934,319.517 122.194,320.764C122.475,322.11 123.609,322.558 124.46,321.328C125.412,319.95 126.033,318.352 127.013,316.976C127.371,316.474 128.32,315.485 128.306,314.825C128.292,314.123 127.068,314.364 126.704,314.457C125.387,314.792 123.903,315.778 123.178,316.929" style="fill:none;stroke:rgb(166,102,69);stroke-width:3.72px;"/>
        <path d="M136.211,326.358C135.853,327.207 135.716,328.238 135.842,329.153C135.932,329.809 136.352,330.104 136.972,329.703C138.166,328.931 138.742,326.995 139.144,325.715C139.267,325.324 139.359,324.914 139.431,324.51C139.607,323.522 139.721,321.768 138.121,322.68C137.896,322.808 137.686,322.993 137.504,323.174C136.713,323.957 136.224,325.142 135.954,326.204" style="fill:none;stroke:rgb(166,102,69);stroke-width:3.72px;"/>
        <path d="M153.439,328.508C152.74,329.729 152.266,330.938 152.116,332.353C151.978,333.663 152.99,333.609 153.778,332.722C154.036,332.432 154.272,332.075 154.475,331.745C154.827,331.172 155.084,330.543 155.322,329.916C155.684,328.962 155.954,327.832 155.765,326.808C155.534,325.561 154.5,325.936 153.922,326.843C153.828,326.99 153.611,327.425 153.545,327.577C153.226,328.301 153.081,329.085 152.95,329.861" style="fill:none;stroke:rgb(166,102,69);stroke-width:3.72px;"/>
        <path d="M169.63,328.85C168.502,330.05 167.977,332.016 167.975,333.622C167.974,334.345 168.127,335.778 169.164,335.101C170.502,334.226 171.19,332.352 171.341,330.828C171.538,328.845 170.032,328.594 169.274,330.429" style="fill:none;stroke:rgb(166,102,69);stroke-width:3.72px;"/>
        <path d="M187.193,327.885C186.568,329.355 186.251,331.336 186.538,332.908C186.807,334.376 187.95,334.395 188.695,333.107C189.738,331.302 188.967,324.355 187.29,329.279C187.143,329.71 187.093,330.005 186.998,330.45" style="fill:none;stroke:rgb(166,102,69);stroke-width:3.72px;"/>
        <path d="M204.456,327.001C204.121,327.876 203.948,328.8 203.918,329.735C203.899,330.34 203.928,330.933 204.01,331.533C204.213,333.033 205.395,334.759 206.093,332.195C206.477,330.786 206.241,329.142 205.352,327.975" style="fill:none;stroke:rgb(166,102,69);stroke-width:3.72px;"/>
        <path d="M224.185,323.071C223.881,323.995 223.72,325.028 223.693,325.998C223.676,326.626 223.687,327.257 223.768,327.881C224.007,329.733 225.895,331.224 226.439,328.523C226.753,326.967 226.147,324.999 225.268,323.681" style="fill:none;stroke:rgb(166,102,69);stroke-width:3.72px;"/>
        <path d="M45.017,189.613C45.534,188.734 46.477,188.195 47.496,188.195C48.515,188.195 49.459,188.734 49.976,189.613C50.366,190.275 51.013,190.745 51.762,190.911L51.763,190.911C52.758,191.131 53.562,191.862 53.877,192.831C54.192,193.8 53.971,194.864 53.295,195.627L53.295,195.628C52.786,196.203 52.539,196.963 52.613,197.728C52.71,198.742 52.264,199.733 51.44,200.332C50.615,200.931 49.535,201.049 48.601,200.643L48.6,200.643C47.896,200.337 47.096,200.337 46.392,200.643C45.457,201.049 44.377,200.931 43.553,200.332C42.728,199.733 42.282,198.742 42.38,197.728C42.453,196.963 42.206,196.203 41.698,195.628C41.697,195.628 41.697,195.628 41.697,195.627C41.022,194.864 40.801,193.8 41.116,192.831C41.431,191.862 42.235,191.131 43.23,190.911C43.98,190.745 44.627,190.275 45.016,189.613L45.017,189.613Z" style="fill:white;"/>
        <path d="M45.017,189.613C45.534,188.734 46.477,188.195 47.496,188.195C48.515,188.195 49.459,188.734 49.976,189.613C50.366,190.275 51.013,190.745 51.762,190.911L51.763,190.911C52.758,191.131 53.562,191.862 53.877,192.831C54.192,193.8 53.971,194.864 53.295,195.627L53.295,195.628C52.786,196.203 52.539,196.963 52.613,197.728C52.71,198.742 52.264,199.733 51.44,200.332C50.615,200.931 49.535,201.049 48.601,200.643L48.6,200.643C47.896,200.337 47.096,200.337 46.392,200.643C45.457,201.049 44.377,200.931 43.553,200.332C42.728,199.733 42.282,198.742 42.38,197.728C42.453,196.963 42.206,196.203 41.698,195.628C41.697,195.628 41.697,195.628 41.697,195.627C41.022,194.864 40.801,193.8 41.116,192.831C41.431,191.862 42.235,191.131 43.23,190.911C43.98,190.745 44.627,190.275 45.016,189.613L45.017,189.613Z" style="fill:none;stroke:rgb(0,30,56);stroke-width:4.12px;"/>
        <path d="M97.758,241.973C97.88,240.961 98.527,240.089 99.461,239.68C100.394,239.271 101.475,239.387 102.301,239.984C102.924,240.433 103.705,240.604 104.458,240.456C105.458,240.259 106.488,240.605 107.165,241.366C107.843,242.128 108.067,243.191 107.754,244.161L107.754,244.162C107.519,244.892 107.598,245.688 107.972,246.359C108.469,247.249 108.457,248.335 107.942,249.215C107.427,250.095 106.486,250.636 105.467,250.639L105.466,250.639C104.698,250.641 103.966,250.962 103.444,251.525L103.443,251.525C102.75,252.272 101.714,252.597 100.718,252.379C99.722,252.161 98.916,251.433 98.599,250.465L98.599,250.464C98.36,249.735 97.828,249.137 97.131,248.815L97.131,248.814C96.206,248.386 95.577,247.501 95.476,246.486C95.376,245.472 95.819,244.481 96.642,243.879L96.643,243.879C97.263,243.426 97.667,242.736 97.758,241.974L97.758,241.973Z" style="fill:white;"/>
        <path d="M97.758,241.973C97.88,240.961 98.527,240.089 99.461,239.68C100.394,239.271 101.475,239.387 102.301,239.984C102.924,240.433 103.705,240.604 104.458,240.456C105.458,240.259 106.488,240.605 107.165,241.366C107.843,242.128 108.067,243.191 107.754,244.161L107.754,244.162C107.519,244.892 107.598,245.688 107.972,246.359C108.469,247.249 108.457,248.335 107.942,249.215C107.427,250.095 106.486,250.636 105.467,250.639L105.466,250.639C104.698,250.641 103.966,250.962 103.444,251.525L103.443,251.525C102.75,252.272 101.714,252.597 100.718,252.379C99.722,252.161 98.916,251.433 98.599,250.465L98.599,250.464C98.36,249.735 97.828,249.137 97.131,248.815L97.131,248.814C96.206,248.386 95.577,247.501 95.476,246.486C95.376,245.472 95.819,244.481 96.642,243.879L96.643,243.879C97.263,243.426 97.667,242.736 97.758,241.974L97.758,241.973Z" style="fill:none;stroke:rgb(0,30,56);stroke-width:4.12px;"/>
        <path d="M129.53,275.34C130.121,274.51 131.107,274.054 132.122,274.142C133.138,274.23 134.031,274.848 134.47,275.768L134.471,275.768C134.802,276.461 135.406,276.985 136.138,277.215L136.139,277.215C137.111,277.521 137.849,278.318 138.079,279.311C138.31,280.303 137.998,281.344 137.259,282.046L137.259,282.047C136.702,282.576 136.39,283.312 136.398,284.08C136.408,285.099 135.878,286.048 135.005,286.573C134.132,287.099 133.045,287.124 132.149,286.638C131.474,286.272 130.677,286.203 129.949,286.448C128.983,286.772 127.917,286.561 127.147,285.893C126.377,285.225 126.018,284.2 126.203,283.198L126.203,283.197C126.342,282.442 126.162,281.663 125.704,281.047L125.704,281.046C125.097,280.228 124.968,279.149 125.366,278.21C125.763,277.272 126.627,276.613 127.638,276.479C128.399,276.378 129.084,275.966 129.529,275.34L129.53,275.34Z" style="fill:white;"/>
        <path d="M129.53,275.34C130.121,274.51 131.107,274.054 132.122,274.142C133.138,274.23 134.031,274.848 134.47,275.768L134.471,275.768C134.802,276.461 135.406,276.985 136.138,277.215L136.139,277.215C137.111,277.521 137.849,278.318 138.079,279.311C138.31,280.303 137.998,281.344 137.259,282.046L137.259,282.047C136.702,282.576 136.39,283.312 136.398,284.08C136.408,285.099 135.878,286.048 135.005,286.573C134.132,287.099 133.045,287.124 132.149,286.638C131.474,286.272 130.677,286.203 129.949,286.448C128.983,286.772 127.917,286.561 127.147,285.893C126.377,285.225 126.018,284.2 126.203,283.198L126.203,283.197C126.342,282.442 126.162,281.663 125.704,281.047L125.704,281.046C125.097,280.228 124.968,279.149 125.366,278.21C125.763,277.272 126.627,276.613 127.638,276.479C128.399,276.378 129.084,275.966 129.529,275.34L129.53,275.34Z" style="fill:none;stroke:rgb(0,30,56);stroke-width:4.12px;"/>
        <path d="M184.319,261.067C184.91,260.237 185.896,259.781 186.912,259.869C187.927,259.957 188.82,260.575 189.26,261.495C189.591,262.188 190.195,262.712 190.928,262.942C191.9,263.247 192.639,264.045 192.869,265.037C193.099,266.03 192.787,267.071 192.048,267.773C191.491,268.302 191.18,269.039 191.187,269.806L191.187,269.807C191.197,270.826 190.667,271.774 189.794,272.3C188.921,272.826 187.835,272.851 186.939,272.365L186.938,272.365C186.263,271.999 185.466,271.93 184.739,272.175L184.738,272.175C183.772,272.499 182.706,272.288 181.936,271.62C181.167,270.952 180.808,269.927 180.992,268.925L180.992,268.924C181.132,268.169 180.951,267.39 180.494,266.773L180.493,266.773C179.886,265.954 179.758,264.876 180.155,263.937C180.552,262.999 181.417,262.34 182.427,262.206C183.188,262.105 183.874,261.693 184.319,261.067Z" style="fill:white;"/>
        <path d="M184.319,261.067C184.91,260.237 185.896,259.781 186.912,259.869C187.927,259.957 188.82,260.575 189.26,261.495C189.591,262.188 190.195,262.712 190.928,262.942C191.9,263.247 192.639,264.045 192.869,265.037C193.099,266.03 192.787,267.071 192.048,267.773C191.491,268.302 191.18,269.039 191.187,269.806L191.187,269.807C191.197,270.826 190.667,271.774 189.794,272.3C188.921,272.826 187.835,272.851 186.939,272.365L186.938,272.365C186.263,271.999 185.466,271.93 184.739,272.175L184.738,272.175C183.772,272.499 182.706,272.288 181.936,271.62C181.167,270.952 180.808,269.927 180.992,268.925L180.992,268.924C181.132,268.169 180.951,267.39 180.494,266.773L180.493,266.773C179.886,265.954 179.758,264.876 180.155,263.937C180.552,262.999 181.417,262.34 182.427,262.206C183.188,262.105 183.874,261.693 184.319,261.067Z" style="fill:none;stroke:rgb(0,30,56);stroke-width:4.12px;"/>
        <path d="M225.262,276.35C225.853,275.519 226.839,275.064 227.855,275.152C228.87,275.239 229.763,275.858 230.203,276.777L230.203,276.778C230.534,277.47 231.138,277.995 231.871,278.225C232.843,278.53 233.582,279.327 233.812,280.32C234.042,281.313 233.73,282.354 232.991,283.056C232.434,283.585 232.123,284.322 232.13,285.089L232.13,285.09C232.14,286.109 231.61,287.057 230.737,287.583C229.864,288.109 228.778,288.134 227.882,287.648L227.881,287.648C227.206,287.282 226.41,287.213 225.682,287.457C225.681,287.457 225.681,287.458 225.681,287.458C224.715,287.782 223.649,287.571 222.879,286.903C222.11,286.235 221.751,285.21 221.935,284.208L221.935,284.207C222.075,283.452 221.894,282.673 221.437,282.056L221.436,282.056C220.829,281.237 220.701,280.159 221.098,279.22C221.495,278.281 222.36,277.623 223.37,277.489C224.131,277.388 224.817,276.976 225.262,276.35Z" style="fill:white;"/>
        <path d="M225.262,276.35C225.853,275.519 226.839,275.064 227.855,275.152C228.87,275.239 229.763,275.858 230.203,276.777L230.203,276.778C230.534,277.47 231.138,277.995 231.871,278.225C232.843,278.53 233.582,279.327 233.812,280.32C234.042,281.313 233.73,282.354 232.991,283.056C232.434,283.585 232.123,284.322 232.13,285.089L232.13,285.09C232.14,286.109 231.61,287.057 230.737,287.583C229.864,288.109 228.778,288.134 227.882,287.648L227.881,287.648C227.206,287.282 226.41,287.213 225.682,287.457C225.681,287.457 225.681,287.458 225.681,287.458C224.715,287.782 223.649,287.571 222.879,286.903C222.11,286.235 221.751,285.21 221.935,284.208L221.935,284.207C222.075,283.452 221.894,282.673 221.437,282.056L221.436,282.056C220.829,281.237 220.701,280.159 221.098,279.22C221.495,278.281 222.36,277.623 223.37,277.489C224.131,277.388 224.817,276.976 225.262,276.35Z" style="fill:none;stroke:rgb(0,30,56);stroke-width:4.12px;"/>
        <path d="M324.418,228.753C324.612,227.752 325.32,226.928 326.281,226.587C327.241,226.246 328.31,226.439 329.091,227.093L329.092,227.093C329.68,227.587 330.447,227.813 331.209,227.719L331.21,227.719C332.221,227.593 333.223,228.013 333.845,228.821C334.466,229.629 334.613,230.705 334.232,231.65L334.232,231.651C333.945,232.363 333.967,233.162 334.292,233.858C334.723,234.782 334.634,235.864 334.058,236.705C333.481,237.545 332.503,238.018 331.487,237.948L331.486,237.948C330.72,237.895 329.967,238.162 329.405,238.687C328.66,239.383 327.603,239.633 326.626,239.344C325.648,239.055 324.896,238.271 324.649,237.282C324.462,236.537 323.975,235.903 323.303,235.532L323.303,235.531C322.411,235.038 321.847,234.11 321.819,233.091C321.791,232.072 322.305,231.116 323.169,230.575C323.82,230.166 324.272,229.507 324.418,228.753Z" style="fill:white;"/>
        <path d="M324.418,228.753C324.612,227.752 325.32,226.928 326.281,226.587C327.241,226.246 328.31,226.439 329.091,227.093L329.092,227.093C329.68,227.587 330.447,227.813 331.209,227.719L331.21,227.719C332.221,227.593 333.223,228.013 333.845,228.821C334.466,229.629 334.613,230.705 334.232,231.65L334.232,231.651C333.945,232.363 333.967,233.162 334.292,233.858C334.723,234.782 334.634,235.864 334.058,236.705C333.481,237.545 332.503,238.018 331.487,237.948L331.486,237.948C330.72,237.895 329.967,238.162 329.405,238.687C328.66,239.383 327.603,239.633 326.626,239.344C325.648,239.055 324.896,238.271 324.649,237.282C324.462,236.537 323.975,235.903 323.303,235.532L323.303,235.531C322.411,235.038 321.847,234.11 321.819,233.091C321.791,232.072 322.305,231.116 323.169,230.575C323.82,230.166 324.272,229.507 324.418,228.753Z" style="fill:none;stroke:rgb(0,30,56);stroke-width:4.12px;"/>
        <path d="M332.171,251.817C332.874,251.078 333.914,250.766 334.907,250.996C335.9,251.226 336.697,251.964 337.003,252.937C337.233,253.67 337.757,254.274 338.45,254.605C339.37,255.044 339.988,255.938 340.076,256.953C340.164,257.968 339.708,258.955 338.878,259.546C338.252,259.991 337.84,260.676 337.739,261.437L337.739,261.438C337.605,262.448 336.947,263.312 336.008,263.71C335.07,264.107 333.991,263.979 333.172,263.372L333.172,263.371C332.555,262.914 331.776,262.734 331.021,262.873C330.018,263.058 328.993,262.699 328.325,261.929C327.657,261.159 327.446,260.094 327.77,259.127C328.015,258.399 327.946,257.602 327.58,256.927C327.094,256.031 327.119,254.945 327.644,254.072C328.17,253.198 329.118,252.668 330.138,252.678C330.906,252.686 331.642,252.374 332.171,251.817Z" style="fill:white;"/>
        <path d="M332.171,251.817C332.874,251.078 333.914,250.766 334.907,250.996C335.9,251.226 336.697,251.964 337.003,252.937C337.233,253.67 337.757,254.274 338.45,254.605C339.37,255.044 339.988,255.938 340.076,256.953C340.164,257.968 339.708,258.955 338.878,259.546C338.252,259.991 337.84,260.676 337.739,261.437L337.739,261.438C337.605,262.448 336.947,263.312 336.008,263.71C335.07,264.107 333.991,263.979 333.172,263.372L333.172,263.371C332.555,262.914 331.776,262.734 331.021,262.873C330.018,263.058 328.993,262.699 328.325,261.929C327.657,261.159 327.446,260.094 327.77,259.127C328.015,258.399 327.946,257.602 327.58,256.927C327.094,256.031 327.119,254.945 327.644,254.072C328.17,253.198 329.118,252.668 330.138,252.678C330.906,252.686 331.642,252.374 332.171,251.817Z" style="fill:none;stroke:rgb(0,30,56);stroke-width:4.12px;"/>
        <path d="M214.004,305.163C214.595,304.333 215.581,303.877 216.597,303.965C217.612,304.053 218.505,304.671 218.945,305.591C219.276,306.284 219.88,306.808 220.613,307.038C221.586,307.344 222.324,308.141 222.554,309.134C222.784,310.127 222.472,311.167 221.733,311.869L221.733,311.87C221.177,312.399 220.865,313.135 220.872,313.903C220.882,314.922 220.352,315.871 219.479,316.397C218.606,316.922 217.52,316.947 216.624,316.462C216.624,316.461 216.624,316.461 216.623,316.461C215.948,316.096 215.152,316.027 214.424,316.271L214.423,316.271C213.457,316.595 212.391,316.385 211.622,315.717C210.852,315.049 210.493,314.023 210.677,313.021L210.678,313.021C210.817,312.266 210.636,311.487 210.179,310.87L210.179,310.869C209.572,310.051 209.443,308.972 209.84,308.034C210.238,307.095 211.102,306.437 212.112,306.303C212.874,306.202 213.559,305.789 214.004,305.164L214.004,305.163Z" style="fill:white;"/>
        <path d="M214.004,305.163C214.595,304.333 215.581,303.877 216.597,303.965C217.612,304.053 218.505,304.671 218.945,305.591C219.276,306.284 219.88,306.808 220.613,307.038C221.586,307.344 222.324,308.141 222.554,309.134C222.784,310.127 222.472,311.167 221.733,311.869L221.733,311.87C221.177,312.399 220.865,313.135 220.872,313.903C220.882,314.922 220.352,315.871 219.479,316.397C218.606,316.922 217.52,316.947 216.624,316.462C216.624,316.461 216.624,316.461 216.623,316.461C215.948,316.096 215.152,316.027 214.424,316.271L214.423,316.271C213.457,316.595 212.391,316.385 211.622,315.717C210.852,315.049 210.493,314.023 210.677,313.021L210.678,313.021C210.817,312.266 210.636,311.487 210.179,310.87L210.179,310.869C209.572,310.051 209.443,308.972 209.84,308.034C210.238,307.095 211.102,306.437 212.112,306.303C212.874,306.202 213.559,305.789 214.004,305.164L214.004,305.163Z" style="fill:none;stroke:rgb(0,30,56);stroke-width:4.12px;"/>
        <path d="M148.215,332.485C148.806,331.655 149.792,331.199 150.807,331.287C151.823,331.375 152.716,331.993 153.156,332.913C153.487,333.606 154.091,334.13 154.824,334.36C155.796,334.666 156.534,335.463 156.765,336.455C156.995,337.448 156.683,338.489 155.944,339.191C155.387,339.72 155.076,340.457 155.083,341.225C155.093,342.244 154.563,343.193 153.69,343.718C152.817,344.244 151.731,344.269 150.835,343.784L150.834,343.784C150.159,343.417 149.362,343.348 148.634,343.593C147.668,343.917 146.602,343.706 145.832,343.038C145.062,342.37 144.703,341.345 144.888,340.343L144.888,340.342C145.028,339.587 144.847,338.808 144.39,338.192C144.39,338.191 144.389,338.191 144.389,338.191C143.782,337.373 143.654,336.294 144.051,335.355C144.448,334.417 145.312,333.758 146.323,333.624C147.084,333.523 147.769,333.111 148.215,332.485Z" style="fill:white;"/>
        <path d="M148.215,332.485C148.806,331.655 149.792,331.199 150.807,331.287C151.823,331.375 152.716,331.993 153.156,332.913C153.487,333.606 154.091,334.13 154.824,334.36C155.796,334.666 156.534,335.463 156.765,336.455C156.995,337.448 156.683,338.489 155.944,339.191C155.387,339.72 155.076,340.457 155.083,341.225C155.093,342.244 154.563,343.193 153.69,343.718C152.817,344.244 151.731,344.269 150.835,343.784L150.834,343.784C150.159,343.417 149.362,343.348 148.634,343.593C147.668,343.917 146.602,343.706 145.832,343.038C145.062,342.37 144.703,341.345 144.888,340.343L144.888,340.342C145.028,339.587 144.847,338.808 144.39,338.192C144.39,338.191 144.389,338.191 144.389,338.191C143.782,337.373 143.654,336.294 144.051,335.355C144.448,334.417 145.312,333.758 146.323,333.624C147.084,333.523 147.769,333.111 148.215,332.485Z" style="fill:none;stroke:rgb(0,30,56);stroke-width:4.12px;"/>
        <path d="M204.989,332.194C205.58,331.364 206.567,330.908 207.582,330.996C208.597,331.084 209.491,331.702 209.93,332.622C210.261,333.315 210.865,333.839 211.598,334.069C212.571,334.375 213.309,335.172 213.539,336.165C213.769,337.157 213.457,338.198 212.719,338.9C212.718,338.9 212.718,338.9 212.718,338.901C212.162,339.43 211.85,340.166 211.857,340.934C211.867,341.953 211.337,342.902 210.464,343.427C209.591,343.953 208.505,343.979 207.609,343.492C206.934,343.126 206.137,343.057 205.409,343.302C204.442,343.626 203.377,343.415 202.607,342.747C201.837,342.079 201.478,341.054 201.663,340.052L201.663,340.051C201.802,339.296 201.621,338.517 201.164,337.901L201.164,337.9C200.557,337.082 200.428,336.003 200.825,335.064C201.223,334.126 202.087,333.467 203.097,333.333L203.098,333.333C203.859,333.233 204.544,332.82 204.989,332.194Z" style="fill:white;"/>
        <path d="M204.989,332.194C205.58,331.364 206.567,330.908 207.582,330.996C208.597,331.084 209.491,331.702 209.93,332.622C210.261,333.315 210.865,333.839 211.598,334.069C212.571,334.375 213.309,335.172 213.539,336.165C213.769,337.157 213.457,338.198 212.719,338.9C212.718,338.9 212.718,338.9 212.718,338.901C212.162,339.43 211.85,340.166 211.857,340.934C211.867,341.953 211.337,342.902 210.464,343.427C209.591,343.953 208.505,343.979 207.609,343.492C206.934,343.126 206.137,343.057 205.409,343.302C204.442,343.626 203.377,343.415 202.607,342.747C201.837,342.079 201.478,341.054 201.663,340.052L201.663,340.051C201.802,339.296 201.621,338.517 201.164,337.901L201.164,337.9C200.557,337.082 200.428,336.003 200.825,335.064C201.223,334.126 202.087,333.467 203.097,333.333L203.098,333.333C203.859,333.233 204.544,332.82 204.989,332.194Z" style="fill:none;stroke:rgb(0,30,56);stroke-width:4.12px;"/>
        <path d="M180.888,314.829C181.479,313.999 182.465,313.543 183.48,313.631C184.496,313.719 185.389,314.337 185.829,315.257C186.16,315.95 186.764,316.474 187.497,316.704C188.469,317.01 189.207,317.807 189.438,318.8C189.668,319.793 189.356,320.833 188.617,321.535L188.617,321.536C188.06,322.065 187.749,322.801 187.756,323.569C187.766,324.588 187.236,325.537 186.363,326.063C185.49,326.588 184.404,326.613 183.508,326.127L183.507,326.127C182.832,325.762 182.035,325.693 181.308,325.937L181.307,325.937C180.341,326.261 179.275,326.051 178.505,325.383C177.736,324.715 177.376,323.689 177.561,322.687C177.701,321.932 177.52,321.153 177.063,320.536C177.063,320.536 177.062,320.536 177.062,320.535C176.455,319.717 176.327,318.638 176.724,317.699C177.121,316.761 177.985,316.103 178.996,315.969C179.757,315.868 180.442,315.455 180.888,314.83L180.888,314.829Z" style="fill:white;"/>
        <path d="M180.888,314.829C181.479,313.999 182.465,313.543 183.48,313.631C184.496,313.719 185.389,314.337 185.829,315.257C186.16,315.95 186.764,316.474 187.497,316.704C188.469,317.01 189.207,317.807 189.438,318.8C189.668,319.793 189.356,320.833 188.617,321.535L188.617,321.536C188.06,322.065 187.749,322.801 187.756,323.569C187.766,324.588 187.236,325.537 186.363,326.063C185.49,326.588 184.404,326.613 183.508,326.127L183.507,326.127C182.832,325.762 182.035,325.693 181.308,325.937L181.307,325.937C180.341,326.261 179.275,326.051 178.505,325.383C177.736,324.715 177.376,323.689 177.561,322.687C177.701,321.932 177.52,321.153 177.063,320.536C177.063,320.536 177.062,320.536 177.062,320.535C176.455,319.717 176.327,318.638 176.724,317.699C177.121,316.761 177.985,316.103 178.996,315.969C179.757,315.868 180.442,315.455 180.888,314.83L180.888,314.829Z" style="fill:none;stroke:rgb(0,30,56);stroke-width:4.12px;"/>
        <path d="M300.901,308.994C301.492,308.164 302.478,307.708 303.493,307.796C304.509,307.884 305.402,308.502 305.841,309.421L305.842,309.422C306.173,310.115 306.777,310.639 307.509,310.869L307.51,310.869C308.482,311.174 309.22,311.971 309.45,312.964C309.681,313.957 309.369,314.998 308.63,315.7C308.073,316.229 307.761,316.966 307.769,317.733L307.769,317.734C307.779,318.753 307.249,319.701 306.376,320.227C305.503,320.753 304.416,320.778 303.52,320.292C302.845,319.926 302.048,319.857 301.32,320.102C300.354,320.426 299.288,320.215 298.518,319.547C297.748,318.879 297.389,317.854 297.574,316.852L297.574,316.851C297.713,316.096 297.533,315.317 297.075,314.7C296.468,313.881 296.339,312.803 296.737,311.864C297.134,310.926 297.998,310.267 299.009,310.133C299.77,310.032 300.455,309.62 300.9,308.994L300.901,308.994Z" style="fill:white;"/>
        <path d="M300.901,308.994C301.492,308.164 302.478,307.708 303.493,307.796C304.509,307.884 305.402,308.502 305.841,309.421L305.842,309.422C306.173,310.115 306.777,310.639 307.509,310.869L307.51,310.869C308.482,311.174 309.22,311.971 309.45,312.964C309.681,313.957 309.369,314.998 308.63,315.7C308.073,316.229 307.761,316.966 307.769,317.733L307.769,317.734C307.779,318.753 307.249,319.701 306.376,320.227C305.503,320.753 304.416,320.778 303.52,320.292C302.845,319.926 302.048,319.857 301.32,320.102C300.354,320.426 299.288,320.215 298.518,319.547C297.748,318.879 297.389,317.854 297.574,316.852L297.574,316.851C297.713,316.096 297.533,315.317 297.075,314.7C296.468,313.881 296.339,312.803 296.737,311.864C297.134,310.926 297.998,310.267 299.009,310.133C299.77,310.032 300.455,309.62 300.9,308.994L300.901,308.994Z" style="fill:none;stroke:rgb(0,30,56);stroke-width:4.12px;"/>
        <path d="M328.576,288.029C329.569,287.798 330.609,288.109 331.313,288.847C332.016,289.584 332.276,290.639 331.997,291.619L331.997,291.62C331.787,292.358 331.893,293.151 332.29,293.808L332.29,293.809C332.817,294.681 332.843,295.767 332.358,296.664C331.874,297.561 330.951,298.134 329.933,298.172L329.932,298.172C329.165,298.2 328.444,298.546 327.941,299.126L327.941,299.127C327.274,299.897 326.249,300.258 325.247,300.074C324.244,299.89 323.414,299.19 323.063,298.233C322.799,297.512 322.247,296.933 321.54,296.634L321.539,296.634C320.6,296.238 319.941,295.375 319.806,294.364C319.671,293.354 320.08,292.348 320.882,291.719L320.882,291.718C321.486,291.245 321.866,290.541 321.932,289.776C322.018,288.76 322.636,287.866 323.555,287.425C324.474,286.985 325.557,287.063 326.403,287.631C326.404,287.631 326.404,287.631 326.404,287.632C327.041,288.06 327.828,288.204 328.575,288.029L328.576,288.029Z" style="fill:white;"/>
        <path d="M328.576,288.029C329.569,287.798 330.609,288.109 331.313,288.847C332.016,289.584 332.276,290.639 331.997,291.619L331.997,291.62C331.787,292.358 331.893,293.151 332.29,293.808L332.29,293.809C332.817,294.681 332.843,295.767 332.358,296.664C331.874,297.561 330.951,298.134 329.933,298.172L329.932,298.172C329.165,298.2 328.444,298.546 327.941,299.126L327.941,299.127C327.274,299.897 326.249,300.258 325.247,300.074C324.244,299.89 323.414,299.19 323.063,298.233C322.799,297.512 322.247,296.933 321.54,296.634L321.539,296.634C320.6,296.238 319.941,295.375 319.806,294.364C319.671,293.354 320.08,292.348 320.882,291.719L320.882,291.718C321.486,291.245 321.866,290.541 321.932,289.776C322.018,288.76 322.636,287.866 323.555,287.425C324.474,286.985 325.557,287.063 326.403,287.631C326.404,287.631 326.404,287.631 326.404,287.632C327.041,288.06 327.828,288.204 328.575,288.029L328.576,288.029Z" style="fill:none;stroke:rgb(0,30,56);stroke-width:4.12px;"/>
        <path d="M308.043,210.908C307.464,210.069 307.373,208.987 307.802,208.062C308.231,207.138 309.118,206.51 310.132,206.411L310.132,206.41C310.897,206.336 311.595,205.947 312.062,205.337C312.681,204.527 313.682,204.106 314.694,204.228C315.706,204.351 316.577,205 316.985,205.934C317.293,206.638 317.878,207.182 318.602,207.437C318.603,207.437 318.603,207.437 318.603,207.438C319.564,207.776 320.275,208.598 320.471,209.598C320.667,210.598 320.319,211.628 319.557,212.304L319.556,212.304C318.982,212.814 318.645,213.539 318.626,214.307C318.601,215.326 318.039,216.256 317.148,216.751C316.258,217.247 315.171,217.234 314.292,216.718C313.63,216.329 312.836,216.233 312.1,216.452C311.123,216.743 310.065,216.496 309.319,215.802C308.572,215.108 308.249,214.071 308.468,213.076L308.468,213.075C308.633,212.325 308.479,211.541 308.043,210.909L308.043,210.908Z" style="fill:white;"/>
        <path d="M308.043,210.908C307.464,210.069 307.373,208.987 307.802,208.062C308.231,207.138 309.118,206.51 310.132,206.411L310.132,206.41C310.897,206.336 311.595,205.947 312.062,205.337C312.681,204.527 313.682,204.106 314.694,204.228C315.706,204.351 316.577,205 316.985,205.934C317.293,206.638 317.878,207.182 318.602,207.437C318.603,207.437 318.603,207.437 318.603,207.438C319.564,207.776 320.275,208.598 320.471,209.598C320.667,210.598 320.319,211.628 319.557,212.304L319.556,212.304C318.982,212.814 318.645,213.539 318.626,214.307C318.601,215.326 318.039,216.256 317.148,216.751C316.258,217.247 315.171,217.234 314.292,216.718C313.63,216.329 312.836,216.233 312.1,216.452C311.123,216.743 310.065,216.496 309.319,215.802C308.572,215.108 308.249,214.071 308.468,213.076L308.468,213.075C308.633,212.325 308.479,211.541 308.043,210.909L308.043,210.908Z" style="fill:none;stroke:rgb(0,30,56);stroke-width:4.12px;"/>
        <path d="M291.652,195.033C292.243,194.202 293.229,193.747 294.244,193.835C295.26,193.922 296.153,194.541 296.592,195.46L296.593,195.461C296.924,196.154 297.528,196.678 298.26,196.908L298.261,196.908C299.233,197.213 299.971,198.01 300.201,199.003C300.432,199.996 300.12,201.037 299.381,201.739C298.824,202.268 298.512,203.005 298.52,203.772L298.52,203.773C298.53,204.792 298,205.74 297.127,206.266C296.254,206.792 295.167,206.817 294.271,206.331C293.596,205.965 292.799,205.896 292.071,206.14L292.071,206.141C291.105,206.465 290.039,206.254 289.269,205.586C288.499,204.918 288.14,203.893 288.325,202.891L288.325,202.89C288.464,202.135 288.284,201.356 287.826,200.739C287.219,199.92 287.09,198.842 287.488,197.903C287.885,196.964 288.749,196.306 289.76,196.172C290.521,196.071 291.206,195.659 291.651,195.033L291.652,195.033Z" style="fill:white;"/>
        <path d="M291.652,195.033C292.243,194.202 293.229,193.747 294.244,193.835C295.26,193.922 296.153,194.541 296.592,195.46L296.593,195.461C296.924,196.154 297.528,196.678 298.26,196.908L298.261,196.908C299.233,197.213 299.971,198.01 300.201,199.003C300.432,199.996 300.12,201.037 299.381,201.739C298.824,202.268 298.512,203.005 298.52,203.772L298.52,203.773C298.53,204.792 298,205.74 297.127,206.266C296.254,206.792 295.167,206.817 294.271,206.331C293.596,205.965 292.799,205.896 292.071,206.14L292.071,206.141C291.105,206.465 290.039,206.254 289.269,205.586C288.499,204.918 288.14,203.893 288.325,202.891L288.325,202.89C288.464,202.135 288.284,201.356 287.826,200.739C287.219,199.92 287.09,198.842 287.488,197.903C287.885,196.964 288.749,196.306 289.76,196.172C290.521,196.071 291.206,195.659 291.651,195.033L291.652,195.033Z" style="fill:none;stroke:rgb(0,30,56);stroke-width:4.12px;"/>
        <path d="M139.801,306.951C140.392,306.12 141.378,305.664 142.394,305.752C143.409,305.84 144.302,306.459 144.742,307.378L144.742,307.379C145.073,308.071 145.677,308.595 146.41,308.825L146.41,308.826C147.382,309.131 148.121,309.928 148.351,310.921C148.581,311.914 148.269,312.954 147.53,313.657C146.973,314.186 146.662,314.922 146.669,315.69L146.669,315.691C146.679,316.71 146.149,317.658 145.276,318.184C144.403,318.71 143.317,318.734 142.421,318.249L142.42,318.249C141.745,317.883 140.949,317.814 140.221,318.058L140.22,318.058C139.254,318.383 138.188,318.172 137.418,317.504C136.649,316.836 136.29,315.811 136.474,314.808C136.614,314.053 136.433,313.274 135.976,312.657C135.368,311.838 135.24,310.759 135.637,309.821C136.034,308.882 136.899,308.224 137.909,308.09C138.671,307.989 139.356,307.576 139.801,306.951Z" style="fill:white;"/>
        <path d="M139.801,306.951C140.392,306.12 141.378,305.664 142.394,305.752C143.409,305.84 144.302,306.459 144.742,307.378L144.742,307.379C145.073,308.071 145.677,308.595 146.41,308.825L146.41,308.826C147.382,309.131 148.121,309.928 148.351,310.921C148.581,311.914 148.269,312.954 147.53,313.657C146.973,314.186 146.662,314.922 146.669,315.69L146.669,315.691C146.679,316.71 146.149,317.658 145.276,318.184C144.403,318.71 143.317,318.734 142.421,318.249L142.42,318.249C141.745,317.883 140.949,317.814 140.221,318.058L140.22,318.058C139.254,318.383 138.188,318.172 137.418,317.504C136.649,316.836 136.29,315.811 136.474,314.808C136.614,314.053 136.433,313.274 135.976,312.657C135.368,311.838 135.24,310.759 135.637,309.821C136.034,308.882 136.899,308.224 137.909,308.09C138.671,307.989 139.356,307.576 139.801,306.951Z" style="fill:none;stroke:rgb(0,30,56);stroke-width:4.12px;"/>
    </g>
</svg>
