<?xml version="1.0" encoding="utf-8"?>
<!-- Generator: Adobe Illustrator 23.0.1, SVG Export Plug-In . SVG Version: 6.00 Build 0)  -->
<svg version="1.1" id="Layer_1" xmlns="http://www.w3.org/2000/svg" xmlns:xlink="http://www.w3.org/1999/xlink" x="0px" y="0px"
	 viewBox="0 0 500 500" style="enable-background:new 0 0 500 500;" xml:space="preserve">
<style type="text/css">
	.st0{fill:#92E3A9;}
	.st1{opacity:0.7;fill:#FFFFFF;enable-background:new    ;}
	.st2{fill:none;stroke:#263238;stroke-linecap:round;stroke-linejoin:round;stroke-miterlimit:10;}
	.st3{opacity:0.2;clip-path:url(#SVGID_2_);enable-background:new    ;}
	.st4{fill:#263238;}
	.st5{fill:#92E3A9;stroke:#263238;stroke-linecap:round;stroke-linejoin:round;stroke-miterlimit:10;}
	.st6{opacity:0.2;enable-background:new    ;}
	.st7{fill:#FFFFFF;}
	.st8{opacity:0.2;clip-path:url(#SVGID_4_);enable-background:new    ;}
	.st9{opacity:0.4;}
	.st10{fill:#999999;stroke:#263238;stroke-linecap:round;stroke-linejoin:round;stroke-miterlimit:10;}
	.st11{fill:#757575;}
	.st12{opacity:0.2;clip-path:url(#SVGID_6_);enable-background:new    ;}
	.st13{opacity:0.2;clip-path:url(#SVGID_8_);enable-background:new    ;}
	.st14{opacity:0.2;fill:#FFFFFF;enable-background:new    ;}
	.st15{opacity:0.7;clip-path:url(#SVGID_10_);}
	.st16{opacity:0.2;clip-path:url(#SVGID_12_);enable-background:new    ;}
	.st17{opacity:0.2;clip-path:url(#SVGID_14_);enable-background:new    ;}
	.st18{opacity:0.2;clip-path:url(#SVGID_16_);enable-background:new    ;}
	.st19{opacity:0.2;clip-path:url(#SVGID_18_);enable-background:new    ;}
	.st20{opacity:0.2;clip-path:url(#SVGID_20_);fill:#FFFFFF;enable-background:new    ;}
	.st21{opacity:0.2;fill-opacity:0.7;enable-background:new    ;}
	.st22{opacity:0.4;fill:#92E3A9;enable-background:new    ;}
	.st23{fill:#FFFFFF;stroke:#263238;stroke-linecap:round;stroke-linejoin:round;stroke-miterlimit:10;}
</style>
<g id="Discount">
</g>
<g id="Gift">
</g>
<g id="Update">
</g>
<g id="Heart">
</g>
<g id="Character">
	<g>
		<g>
			<path class="st0" d="M230.4,37.6c124-11,124.2,58.9,180.1,124.1s67.8,94.8,46.8,169.9c-21.1,75.2-92.1,134.1-179.9,100.7
				s-138.1-1.3-193.5-31c-55.4-29.6-76-86.9-35.4-154.4S77.4,51.3,230.4,37.6z"/>
			<path class="st1" d="M230.4,37.6c124-11,124.2,58.9,180.1,124.1s67.8,94.8,46.8,169.9c-21.1,75.2-92.1,134.1-179.9,100.7
				s-138.1-1.3-193.5-31c-55.4-29.6-76-86.9-35.4-154.4S77.4,51.3,230.4,37.6z"/>
		</g>
		<g>
			<g>
				<path class="st2" d="M424.6,332.5l-0.8,7l13.6-15.9c1.7,0.2,3.3,0.3,4.9,0.3"/>
				<path class="st2" d="M407.6,284.2c-1.8,2.7-2.9,5.7-3.3,9c-1.3,11.6,7.8,22.6,21.6,27.7l-0.7,6.3"/>
				<path class="st2" d="M412.8,278.4c-0.9,0.7-1.7,1.5-2.5,2.3"/>
				<path class="st2" d="M463.9,278.4c-5.6-4-12.8-6.8-20.9-7.7c-8.6-1-16.7,0.4-23.3,3.4"/>
				<path class="st2" d="M451.8,322.9c13-2.7,22.8-11,24-21.8c0.8-7.5-2.7-14.8-9-20.4"/>
				<path class="st2" d="M419.7,286.2c2.2,0.4,4.6-0.1,6.4-1.4c1.6,1.3,3.2,2.5,4.9,3.8c-0.3,0.1-0.3-0.6,0.1-0.6s0.6,0.3,0.9,0.6
					c1.1,1.2,3.1,1.2,4.7,0.9s3.2-1,4.9-0.9c1,0.1,1.9,0.4,2.9,0.7c6.7,2.1,13.6,3.1,20.6,4.1"/>
				<path class="st2" d="M414,293.3c1-0.1,6.6,0,7.4-0.7c0.5,0.8,0.9,1.6,1.4,2.4c0.5-0.5,1-1,1.5-1.5c0.3,1,0.5,2,0.8,2.9
					c1.1,0.3,1-1.9,1.9-2.6c0.6-0.4,1.4,0,1.8,0.5c0.4,0.6,0.4,1.3,0.5,2c2.3,0.2,4.6,0.4,6.8,0.6c0.4,0,0.9,0.1,1.3,0.1
					c0.5-0.7,1.2-1.3,2-1.6c-0.2,1.6,1.7,2.5,3.3,2.8c7.8,1.6,15.6,3,23.5,4.1"/>
				<path class="st2" d="M417,304.1c0.6,0.4,1.4-0.4,2.2-0.5c0.8-0.1,1.4,0.5,2.1,0.8s1.8,0.2,1.8-0.6c0.2,1,1.4,1.4,2.4,1.5
					c8.8,1.2,17.5,2.5,26.3,3.7"/>
			</g>
			<g>
				<path class="st2" d="M65.7,270l10.5,14.2l-2.1-18.5c0,0,3.6-1.7,7.2-4.3c10.8-7.8,15.1-20.3,11.2-30.5
					C89.7,223.8,83.2,219,75,217"/>
				<path class="st2" d="M24.1,247.6c-0.3,3.2,0.1,6.4,1.3,9.4c4.3,10.9,17.4,16.4,32,14.5"/>
				<path class="st2" d="M26.1,240.1c-0.5,1.1-0.8,2.1-1.2,3.2"/>
				<path class="st2" d="M71.3,216.3c-6.8-0.9-14.5,0-22.1,2.9c-8,3.1-14.6,8.1-19,13.8"/>
				<path class="st2" d="M35.8,243.7c2.1-0.6,4-2.2,5-4.2c2,0.4,4,0.7,6.1,1.1c-0.3,0.3-0.6-0.4-0.3-0.6c0.3-0.2,0.7,0,1,0.1
					c1.6,0.5,3.3-0.3,4.6-1.4c1.3-1.1,2.4-2.4,3.9-3.1c0.9-0.4,1.9-0.6,2.9-0.8c6.9-1.3,13.5-3.6,20.1-5.9"/>
				<path class="st2" d="M34,252.7c0.9-0.5,5.8-3.1,6.2-4c0.8,0.5,1.5,1,2.3,1.5c0.2-0.7,0.4-1.3,0.7-2c0.7,0.8,1.4,1.5,2,2.3
					c1.1-0.3,0-2.2,0.5-3.2c0.3-0.6,1.2-0.7,1.8-0.4s1,0.9,1.3,1.5c2.1-0.9,4.2-1.8,6.3-2.7c0.4-0.2,0.8-0.3,1.2-0.5
					c0.1-0.9,0.5-1.7,1-2.3c0.5,1.5,2.7,1.4,4.2,0.9c7.6-2.2,15.2-4.6,22.7-7.3"/>
				<path class="st2" d="M41.8,260.9c0.8,0.1,1.1-1,1.7-1.4c0.6-0.4,1.5-0.2,2.2-0.2c0.8,0,1.7-0.7,1.4-1.3c0.6,0.8,1.9,0.6,2.8,0.2
					c8.3-3,16.6-6,25-8.9"/>
			</g>
		</g>
		<g>
			<g>
				<g>
					<g>
						<path id="XMLID_89_" class="st0" d="M370.6,340.6H121.3c-4.9,0-8.8-3.9-8.8-8.8V107.2c0-4.9,3.9-8.8,8.8-8.8h249.3
							c4.9,0,8.8,3.9,8.8,8.8v224.6C379.4,336.7,375.5,340.6,370.6,340.6z"/>
					</g>
					<g>
						<defs>
							<path id="SVGID_1_" d="M370.6,340.6H121.3c-4.9,0-8.8-3.9-8.8-8.8V107.2c0-4.9,3.9-8.8,8.8-8.8h249.3c4.9,0,8.8,3.9,8.8,8.8
								v224.6C379.4,336.7,375.5,340.6,370.6,340.6z"/>
						</defs>
						<clipPath id="SVGID_2_">
							<use xlink:href="#SVGID_1_"  style="overflow:visible;"/>
						</clipPath>
						<path class="st3" d="M379.4,231.1v101c0,4.7-3.8,8.5-8.5,8.5H121c-4.7,0-8.5-3.8-8.5-8.5v-20h0.5v13.5c0,5.4,4.4,9.8,9.8,9.8
							h241.4c5.4,0,9.8-4.4,9.8-9.8v-79.5c0-3.8-3-6.8-6.8-6.8H112.5v-8.2H379.4z"/>
					</g>
					<g>
						<path class="st2" d="M370.6,340.6H121.3c-4.9,0-8.8-3.9-8.8-8.8V107.2c0-4.9,3.9-8.8,8.8-8.8h249.3c4.9,0,8.8,3.9,8.8,8.8
							v224.6C379.4,336.7,375.5,340.6,370.6,340.6z"/>
					</g>
				</g>
				<path class="st4" d="M356.2,259.8v-11.6c0-2.4-1.9-4.3-4.3-4.3H140c-2.4,0-4.3,1.9-4.3,4.3v11.6c0,2.4-1.9,4.3-4.3,4.3l0,0
					c-2.4,0-4.3,1.9-4.3,4.3v22.8c0,11,8.9,19.9,19.9,19.9l0,0c1.8,0,3.2,1.4,3.2,3.2v6.8c0,5.3,4.3,9.5,9.5,9.5h172.5
					c5.3,0,9.5-4.3,9.5-9.5v-6.8c0-1.8,1.4-3.2,3.2-3.2l0,0c11,0,19.9-8.9,19.9-19.9v-22.8c0-2.4-1.9-4.3-4.3-4.3l0,0
					C358.1,264.1,356.2,262.2,356.2,259.8z"/>
				<g>
					<path class="st5" d="M151.9,250.6h-7.4c-1.9,0-3.4,1.5-3.4,3.4v1.9c0,3.9,3.2,8.9,7.1,8.9c3.9,0,7.1-5,7.1-8.9V254
						C155.4,252.1,153.8,250.6,151.9,250.6z"/>
					<path class="st5" d="M169.7,250.6h-7.4c-1.9,0-3.4,1.5-3.4,3.4v1.9c0,3.9,3.2,8.9,7.1,8.9c3.9,0,7.1-5,7.1-8.9V254
						C173.1,252.1,171.6,250.6,169.7,250.6z"/>
					<path class="st5" d="M187.5,250.6h-7.4c-1.9,0-3.4,1.5-3.4,3.4v1.9c0,3.9,3.2,8.9,7.1,8.9c3.9,0,7.1-5,7.1-8.9V254
						C190.9,252.1,189.4,250.6,187.5,250.6z"/>
					<path class="st5" d="M205.2,250.6h-7.4c-1.9,0-3.4,1.5-3.4,3.4v1.9c0,3.9,3.2,8.9,7.1,8.9c3.9,0,7.1-5,7.1-8.9V254
						C208.7,252.1,207.1,250.6,205.2,250.6z"/>
					<path class="st5" d="M223,250.6h-7.4c-1.9,0-3.4,1.5-3.4,3.4v1.9c0,3.9,3.2,8.9,7.1,8.9c3.9,0,7.1-5,7.1-8.9V254
						C226.4,252.1,224.9,250.6,223,250.6z"/>
					<path class="st5" d="M240.8,250.6h-7.4c-1.9,0-3.4,1.5-3.4,3.4v1.9c0,3.9,3.2,8.9,7.1,8.9c3.9,0,7.1-5,7.1-8.9V254
						C244.2,252.1,242.6,250.6,240.8,250.6z"/>
					<path class="st5" d="M258.5,250.6h-7.4c-1.9,0-3.4,1.5-3.4,3.4v1.9c0,3.9,3.2,8.9,7.1,8.9c3.9,0,7.1-5,7.1-8.9V254
						C261.9,252.1,260.4,250.6,258.5,250.6z"/>
					<path class="st5" d="M276.3,250.6h-7.4c-1.9,0-3.4,1.5-3.4,3.4v1.9c0,3.9,3.2,8.9,7.1,8.9s7.1-5,7.1-8.9V254
						C279.7,252.1,278.2,250.6,276.3,250.6z"/>
					<path class="st5" d="M294,250.6h-7.4c-1.9,0-3.4,1.5-3.4,3.4v1.9c0,3.9,3.2,8.9,7.1,8.9s7.1-5,7.1-8.9V254
						C297.5,252.1,295.9,250.6,294,250.6z"/>
					<path class="st5" d="M311.8,250.6h-7.4c-1.9,0-3.4,1.5-3.4,3.4v1.9c0,3.9,3.2,8.9,7.1,8.9s7.1-5,7.1-8.9V254
						C315.2,252.1,313.7,250.6,311.8,250.6z"/>
					<path class="st5" d="M329.6,250.6h-7.4c-1.9,0-3.4,1.5-3.4,3.4v1.9c0,3.9,3.2,8.9,7.1,8.9s7.1-5,7.1-8.9V254
						C333,252.1,331.5,250.6,329.6,250.6z"/>
					<path class="st5" d="M347.3,250.6h-7.4c-1.9,0-3.4,1.5-3.4,3.4v1.9c0,3.9,3.2,8.9,7.1,8.9s7.1-5,7.1-8.9V254
						C350.8,252.1,349.2,250.6,347.3,250.6z"/>
					<path class="st5" d="M151.9,288.2h-7.4c-1.9,0-3.4,1.5-3.4,3.4v1.9c0,3.9,3.2,8.9,7.1,8.9c3.9,0,7.1-5,7.1-8.9v-1.9
						C155.4,289.7,153.8,288.2,151.9,288.2z"/>
					<path class="st5" d="M169.7,288.2h-7.4c-1.9,0-3.4,1.5-3.4,3.4v1.9c0,3.9,3.2,8.9,7.1,8.9c3.9,0,7.1-5,7.1-8.9v-1.9
						C173.1,289.7,171.6,288.2,169.7,288.2z"/>
					<path class="st5" d="M187.5,288.2h-7.4c-1.9,0-3.4,1.5-3.4,3.4v1.9c0,3.9,3.2,8.9,7.1,8.9c3.9,0,7.1-5,7.1-8.9v-1.9
						C190.9,289.7,189.4,288.2,187.5,288.2z"/>
					<path class="st5" d="M205.2,288.2h-7.4c-1.9,0-3.4,1.5-3.4,3.4v1.9c0,3.9,3.2,8.9,7.1,8.9c3.9,0,7.1-5,7.1-8.9v-1.9
						C208.7,289.7,207.1,288.2,205.2,288.2z"/>
					<path class="st5" d="M223,288.2h-7.4c-1.9,0-3.4,1.5-3.4,3.4v1.9c0,3.9,3.2,8.9,7.1,8.9c3.9,0,7.1-5,7.1-8.9v-1.9
						C226.4,289.7,224.9,288.2,223,288.2z"/>
					<path class="st5" d="M240.8,288.2h-7.4c-1.9,0-3.4,1.5-3.4,3.4v1.9c0,3.9,3.2,8.9,7.1,8.9c3.9,0,7.1-5,7.1-8.9v-1.9
						C244.2,289.7,242.6,288.2,240.8,288.2z"/>
					<path class="st5" d="M258.5,288.2h-7.4c-1.9,0-3.4,1.5-3.4,3.4v1.9c0,3.9,3.2,8.9,7.1,8.9c3.9,0,7.1-5,7.1-8.9v-1.9
						C261.9,289.7,260.4,288.2,258.5,288.2z"/>
					<path class="st5" d="M276.3,288.2h-7.4c-1.9,0-3.4,1.5-3.4,3.4v1.9c0,3.9,3.2,8.9,7.1,8.9s7.1-5,7.1-8.9v-1.9
						C279.7,289.7,278.2,288.2,276.3,288.2z"/>
					<path class="st5" d="M294,288.2h-7.4c-1.9,0-3.4,1.5-3.4,3.4v1.9c0,3.9,3.2,8.9,7.1,8.9s7.1-5,7.1-8.9v-1.9
						C297.5,289.7,295.9,288.2,294,288.2z"/>
					<path class="st5" d="M311.8,288.2h-7.4c-1.9,0-3.4,1.5-3.4,3.4v1.9c0,3.9,3.2,8.9,7.1,8.9s7.1-5,7.1-8.9v-1.9
						C315.2,289.7,313.7,288.2,311.8,288.2z"/>
					<path class="st5" d="M329.6,288.2h-7.4c-1.9,0-3.4,1.5-3.4,3.4v1.9c0,3.9,3.2,8.9,7.1,8.9s7.1-5,7.1-8.9v-1.9
						C333,289.7,331.5,288.2,329.6,288.2z"/>
					<path class="st5" d="M347.3,288.2h-7.4c-1.9,0-3.4,1.5-3.4,3.4v1.9c0,3.9,3.2,8.9,7.1,8.9s7.1-5,7.1-8.9v-1.9
						C350.8,289.7,349.2,288.2,347.3,288.2z"/>
					<path class="st5" d="M143.1,270h-7.4c-1.9,0-3.4,1.5-3.4,3.4v1.9c0,3.9,3.2,8.9,7.1,8.9s7.1-5,7.1-8.9v-1.9
						C146.5,271.5,145,270,143.1,270z"/>
					<path class="st5" d="M160.8,270h-7.4c-1.9,0-3.4,1.5-3.4,3.4v1.9c0,3.9,3.2,8.9,7.1,8.9s7.1-5,7.1-8.9v-1.9
						C164.2,271.5,162.7,270,160.8,270z"/>
					<path class="st5" d="M178.6,270h-7.4c-1.9,0-3.4,1.5-3.4,3.4v1.9c0,3.9,3.2,8.9,7.1,8.9s7.1-5,7.1-8.9v-1.9
						C182,271.5,180.5,270,178.6,270z"/>
					<path class="st5" d="M196.4,270H189c-1.9,0-3.4,1.5-3.4,3.4v1.9c0,3.9,3.2,8.9,7.1,8.9s7.1-5,7.1-8.9v-1.9
						C199.8,271.5,198.2,270,196.4,270z"/>
					<path class="st5" d="M214.1,270h-7.4c-1.9,0-3.4,1.5-3.4,3.4v1.9c0,3.9,3.2,8.9,7.1,8.9s7.1-5,7.1-8.9v-1.9
						C217.5,271.5,216,270,214.1,270z"/>
					<path class="st5" d="M231.9,270h-7.4c-1.9,0-3.4,1.5-3.4,3.4v1.9c0,3.9,3.2,8.9,7.1,8.9s7.1-5,7.1-8.9v-1.9
						C235.3,271.5,233.8,270,231.9,270z"/>
					<path class="st5" d="M249.6,270h-7.4c-1.9,0-3.4,1.5-3.4,3.4v1.9c0,3.9,3.2,8.9,7.1,8.9s7.1-5,7.1-8.9v-1.9
						C253.1,271.5,251.5,270,249.6,270z"/>
					<path class="st5" d="M267.4,270H260c-1.9,0-3.4,1.5-3.4,3.4v1.9c0,3.9,3.2,8.9,7.1,8.9s7.1-5,7.1-8.9v-1.9
						C270.8,271.5,269.3,270,267.4,270z"/>
					<path class="st5" d="M285.2,270h-7.4c-1.9,0-3.4,1.5-3.4,3.4v1.9c0,3.9,3.2,8.9,7.1,8.9s7.1-5,7.1-8.9v-1.9
						C288.6,271.5,287.1,270,285.2,270z"/>
					<path class="st5" d="M302.9,270h-7.4c-1.9,0-3.4,1.5-3.4,3.4v1.9c0,3.9,3.2,8.9,7.1,8.9s7.1-5,7.1-8.9v-1.9
						C306.3,271.5,304.8,270,302.9,270z"/>
					<path class="st5" d="M320.7,270h-7.4c-1.9,0-3.4,1.5-3.4,3.4v1.9c0,3.9,3.2,8.9,7.1,8.9s7.1-5,7.1-8.9v-1.9
						C324.1,271.5,322.6,270,320.7,270z"/>
					<path class="st5" d="M338.5,270H331c-1.9,0-3.4,1.5-3.4,3.4v1.9c0,3.9,3.2,8.9,7.1,8.9s7.1-5,7.1-8.9v-1.9
						C341.9,271.5,340.3,270,338.5,270z"/>
					<path class="st5" d="M356.2,270h-7.4c-1.9,0-3.4,1.5-3.4,3.4v1.9c0,3.9,3.2,8.9,7.1,8.9s7.1-5,7.1-8.9v-1.9
						C359.6,271.5,358.1,270,356.2,270z"/>
					<path class="st5" d="M313.8,323.3H178.1c-1.8,0-3.2-1.4-3.2-3.2v-9.7c0-1.8,1.4-3.2,3.2-3.2h135.7c1.8,0,3.2,1.4,3.2,3.2v9.7
						C317,321.9,315.5,323.3,313.8,323.3z"/>
					<path class="st5" d="M331.9,308.1h-7.4c-1.9,0-3.4,1.5-3.4,3.4v1.9c0,3.9,3.2,8.9,7.1,8.9s7.1-5,7.1-8.9v-1.9
						C335.4,309.6,333.8,308.1,331.9,308.1z"/>
					<path class="st5" d="M167.3,308.1h-7.4c-1.9,0-3.4,1.5-3.4,3.4v1.9c0,3.9,3.2,8.9,7.1,8.9s7.1-5,7.1-8.9v-1.9
						C170.8,309.6,169.2,308.1,167.3,308.1z"/>
				</g>
				<g>
					<path class="st6" d="M152.4,256c0.4,0,0.7,0,1.1,0.1c0-0.1,0-0.1,0-0.2V254c0-0.8-0.7-1.5-1.5-1.5h-7.4c-0.8,0-1.5,0.7-1.5,1.5
						v1.9c0,2.7,2,6.2,4.4,6.9C146.7,259.7,148.3,256,152.4,256z"/>
					<path class="st6" d="M170.5,255.5c0.2,0,0.5,0,0.7,0V254c0-0.8-0.7-1.5-1.5-1.5h-7.4c-0.8,0-1.5,0.7-1.5,1.5v1.9
						c0,3,2.4,6.8,5,7C164.6,259.7,166.2,255.5,170.5,255.5z"/>
					<path class="st6" d="M188.8,255.2c0.1,0,0.1,0,0.1,0V254c0-0.8-0.7-1.5-1.5-1.5H180c-0.8,0-1.5,0.7-1.5,1.5v1.9
						c0,3.1,2.5,7,5.2,7c0.1,0,0.3,0,0.4,0C182.8,259.7,184.4,255.2,188.8,255.2z"/>
					<path class="st6" d="M205.4,254.7c0.5,0,0.9,0.1,1.3,0.1V254c0-0.8-0.7-1.5-1.5-1.5h-7.4c-0.8,0-1.5,0.7-1.5,1.5v1.9
						c0,2.9,2.2,6.5,4.7,6.9C199.3,259.7,200.8,254.7,205.4,254.7z"/>
					<path class="st6" d="M224.1,254.7c0.1,0,0.2,0,0.4,0V254c0-0.8-0.7-1.5-1.5-1.5h-7.4c-0.8,0-1.5,0.7-1.5,1.5v1.9
						c0,3.1,2.5,7,5.2,7c0.1,0,0.3,0,0.4,0C218,259.7,219.4,254.7,224.1,254.7z"/>
					<path class="st6" d="M242,254.8c0.1,0,0.2,0,0.2,0V254c0-0.8-0.7-1.5-1.5-1.5h-7.4c-0.8,0-1.5,0.7-1.5,1.5v1.9
						c0,3.1,2.5,7,5.2,7c0.2,0,0.3,0,0.5,0C235.9,259.7,237.4,254.8,242,254.8z"/>
					<path class="st6" d="M259.2,254.7c0.3,0,0.6,0,0.8,0.1V254c0-0.8-0.7-1.5-1.5-1.5h-7.4c-0.8,0-1.5,0.7-1.5,1.5v1.9
						c0,3,2.5,6.9,5.1,7C253,259.7,254.5,254.7,259.2,254.7z"/>
					<path class="st6" d="M277.8,255v-1c0-0.8-0.7-1.5-1.5-1.5h-7.4c-0.8,0-1.5,0.7-1.5,1.5v1.9c0,3.1,2.5,7,5.2,7
						c0.3,0,0.5,0,0.8-0.1C271.9,259.6,273.4,255.1,277.8,255z"/>
					<path class="st6" d="M294.1,254.6c0.5,0,1,0.1,1.5,0.2V254c0-0.8-0.7-1.5-1.5-1.5h-7.4c-0.8,0-1.5,0.7-1.5,1.5v1.9
						c0,2.8,2.1,6.4,4.6,6.9C287.9,259.7,289.3,254.6,294.1,254.6z"/>
					<path class="st6" d="M312.2,254.6c0.4,0,0.7,0,1.1,0.1V254c0-0.8-0.7-1.5-1.5-1.5h-7.4c-0.8,0-1.5,0.7-1.5,1.5v1.9
						c0,3,2.4,6.8,5,7C306,259.7,307.5,254.6,312.2,254.6z"/>
					<path class="st6" d="M330.3,255.1c0.3,0,0.5,0,0.8,0.1V254c0-0.8-0.7-1.5-1.5-1.5h-7.4c-0.8,0-1.5,0.7-1.5,1.5v1.9
						c0,3,2.4,6.8,5,7C324.2,259.7,325.8,255.1,330.3,255.1z"/>
					<path class="st6" d="M348.8,254.9V254c0-0.8-0.7-1.5-1.5-1.5h-7.4c-0.8,0-1.5,0.7-1.5,1.5v1.9c0,3.1,2.5,7,5.2,7
						c0.4,0,0.8-0.1,1.1-0.2C343.3,259.6,344.7,255.2,348.8,254.9z"/>
					<path class="st6" d="M152.9,291.8c0.2,0,0.4,0,0.6,0v-0.2c0-0.8-0.7-1.5-1.5-1.5h-7.4c-0.8,0-1.5,0.7-1.5,1.5v1.9
						c0,3.1,2.5,7,5.2,7c0.2,0,0.4,0,0.6-0.1C146.5,297.4,147.9,291.8,152.9,291.8z"/>
					<path class="st6" d="M170.3,291.8c0.3,0,0.6,0,0.9,0.1v-0.3c0-0.8-0.7-1.5-1.5-1.5h-7.4c-0.8,0-1.5,0.7-1.5,1.5v1.9
						c0,3.1,2.5,7,5.2,7c0.1,0,0.1,0,0.2,0C163.9,297.4,165.3,291.8,170.3,291.8z"/>
					<path class="st6" d="M187.9,292c0.4,0,0.7,0,1,0.1v-0.5c0-0.8-0.7-1.5-1.5-1.5H180c-0.8,0-1.5,0.7-1.5,1.5v1.9
						c0,3,2.5,6.9,5.1,7C181.7,297.4,183.1,292,187.9,292z"/>
					<path class="st6" d="M205.9,292.2c0.3,0,0.5,0,0.8,0.1v-0.6c0-0.8-0.7-1.5-1.5-1.5h-7.4c-0.8,0-1.5,0.7-1.5,1.5v1.9
						c0,3.1,2.5,7,5.2,7h0.1C199.7,297.4,201.2,292.2,205.9,292.2z"/>
					<path class="st6" d="M223.3,291.8c0.4,0,0.8,0,1.1,0.1v-0.3c0-0.8-0.7-1.5-1.5-1.5h-7.4c-0.8,0-1.5,0.7-1.5,1.5v1.9
						c0,3.1,2.5,7,5.2,7l0,0C217,297.5,218.4,291.8,223.3,291.8z"/>
					<path class="st6" d="M241.4,291.9c0.3,0,0.6,0,0.9,0.1v-0.4c0-0.8-0.7-1.5-1.5-1.5h-7.4c-0.8,0-1.5,0.7-1.5,1.5v1.9
						c0,3.1,2.5,7,5.2,7c0.1,0,0.1,0,0.2,0C235.1,297.4,236.5,291.9,241.4,291.9z"/>
					<path class="st6" d="M259.8,292.3c0.1,0,0.1,0,0.2,0v-0.7c0-0.8-0.7-1.5-1.5-1.5h-7.4c-0.8,0-1.5,0.7-1.5,1.5v1.9
						c0,3.1,2.5,7,5.2,7c0.2,0,0.4,0,0.6-0.1C253.6,297.3,255.1,292.3,259.8,292.3z"/>
					<path class="st6" d="M277.7,291.9L277.7,291.9l0.1-0.3c0-0.8-0.7-1.5-1.5-1.5h-7.4c-0.8,0-1.5,0.7-1.5,1.5v1.9
						c0,3.1,2.5,7,5.2,7c0.3,0,0.6-0.1,0.9-0.2C271.5,297.3,272.9,291.9,277.7,291.9z"/>
					<path class="st6" d="M295,291.5c0.2,0,0.4,0,0.6,0c0-0.8-0.7-1.4-1.5-1.4h-7.4c-0.8,0-1.5,0.7-1.5,1.5v1.9c0,3.1,2.5,7,5.2,7
						c0.2,0,0.5,0,0.7-0.1C288.6,297.4,289.9,291.5,295,291.5z"/>
					<path class="st6" d="M313.3,291.8L313.3,291.8v-0.2c0-0.8-0.7-1.5-1.5-1.5h-7.4c-0.8,0-1.5,0.7-1.5,1.5v1.9c0,3.1,2.5,7,5.2,7
						c0.3,0,0.7-0.1,1-0.2C307,297.2,308.4,291.8,313.3,291.8z"/>
					<path class="st6" d="M330.7,291.8c0.1,0,0.3,0,0.4,0v-0.2c0-0.8-0.7-1.5-1.5-1.5h-7.4c-0.8,0-1.5,0.7-1.5,1.5v1.9
						c0,3.1,2.5,7,5.2,7c0.2,0,0.5,0,0.7-0.1C324.3,297.3,325.7,291.8,330.7,291.8z"/>
					<path class="st6" d="M348.2,292.6c0.2,0,0.4,0,0.6,0v-1c0-0.8-0.7-1.5-1.5-1.5h-7.4c-0.8,0-1.5,0.7-1.5,1.5v1.9
						c0,3.1,2.5,7,5.2,7l0,0C342.1,297.4,343.6,292.6,348.2,292.6z"/>
					<path class="st6" d="M144.4,273.9h0.1v-0.5c0-0.8-0.7-1.5-1.5-1.5h-7.4c-0.8,0-1.5,0.7-1.5,1.5v1.9c0,3.1,2.5,7,5.2,7
						c0.3,0,0.5,0,0.8-0.1C138.2,279.1,139.7,273.9,144.4,273.9z"/>
					<path class="st6" d="M161.8,273.9c0.2,0,0.3,0,0.5,0v-0.5c0-0.8-0.7-1.5-1.5-1.5h-7.4c-0.8,0-1.5,0.7-1.5,1.5v1.9
						c0,3.1,2.5,7,5.2,7c0.1,0,0.3,0,0.4,0C155.6,279.1,157,273.9,161.8,273.9z"/>
					<path class="st6" d="M180,273.9L180,273.9l0.1-0.5c0-0.8-0.7-1.5-1.5-1.5h-7.4c-0.8,0-1.5,0.7-1.5,1.5v1.9c0,3.1,2.5,7,5.2,7
						c0.3,0,0.5,0,0.8-0.1C173.8,279.1,175.2,273.9,180,273.9z"/>
					<path class="st6" d="M197.4,273.8c0.2,0,0.3,0,0.5,0v-0.4c0-0.8-0.7-1.5-1.5-1.5H189c-0.8,0-1.5,0.7-1.5,1.5v1.9
						c0,3.1,2.5,7,5.2,7c0.2,0,0.4,0,0.5-0.1C191.1,279.1,192.5,273.8,197.4,273.8z"/>
					<path class="st6" d="M214.6,273.9c0.3,0,0.7,0,1,0.1v-0.6c0-0.8-0.7-1.5-1.5-1.5h-7.4c-0.8,0-1.5,0.7-1.5,1.5v1.9
						c0,3.1,2.5,7,5.2,7l0,0C208.4,279.2,209.8,273.9,214.6,273.9z"/>
					<path class="st6" d="M232.5,273.2c0.3,0,0.5,0,0.8,0.1c-0.1-0.8-0.7-1.4-1.5-1.4h-7.4c-0.8,0-1.5,0.7-1.5,1.5v1.9
						c0,3.1,2.5,7,5.2,7c0.2,0,0.4,0,0.6-0.1C226.1,279.3,227.4,273.2,232.5,273.2z"/>
					<path class="st6" d="M250.5,274c0.2,0,0.5,0,0.7,0v-0.6c0-0.8-0.7-1.5-1.5-1.5h-7.4c-0.8,0-1.5,0.7-1.5,1.5v1.9
						c0,3.1,2.5,7,5.2,7c0.1,0,0.1,0,0.2,0C244.3,279.2,245.7,274,250.5,274z"/>
					<path class="st6" d="M268.9,273.4c0-0.8-0.7-1.5-1.5-1.5H260c-0.8,0-1.5,0.7-1.5,1.5v1.9c0,3.1,2.5,7,5.2,7
						c0.5,0,1-0.2,1.5-0.4C263.2,278.9,264.4,273.8,268.9,273.4z"/>
					<path class="st6" d="M286.6,273.8v-0.4c0-0.8-0.7-1.5-1.5-1.5h-7.4c-0.8,0-1.5,0.7-1.5,1.5v1.9c0,3.1,2.5,7,5.2,7
						c0.4,0,0.8-0.1,1.2-0.3C280.9,279,282.2,274.1,286.6,273.8z"/>
					<path class="st6" d="M303.8,273.5c0.2,0,0.4,0,0.6,0v-0.1c0-0.8-0.7-1.5-1.5-1.5h-7.4c-0.8,0-1.5,0.7-1.5,1.5v1.9
						c0,3.1,2.5,7,5.2,7c0.2,0,0.4,0,0.6-0.1C297.5,279.2,298.8,273.5,303.8,273.5z"/>
					<path class="st6" d="M322.2,274.1v-0.7c0-0.8-0.7-1.5-1.5-1.5h-7.4c-0.8,0-1.5,0.7-1.5,1.5v1.9c0,3.1,2.5,7,5.2,7
						c0.3,0,0.6-0.1,0.9-0.1C316.2,279,317.7,274.3,322.2,274.1z"/>
					<path class="st6" d="M339.1,273.6c0.3,0,0.6,0,0.8,0.1v-0.3c0-0.8-0.7-1.5-1.5-1.5H331c-0.8,0-1.5,0.7-1.5,1.5v1.9
						c0,3.1,2.5,7,5.2,7c0.1,0,0.2,0,0.3,0C332.8,279.2,334.1,273.6,339.1,273.6z"/>
					<path class="st6" d="M357,274.4c0.2,0,0.5,0,0.7,0v-1c0-0.8-0.7-1.5-1.5-1.5h-7.4c-0.8,0-1.5,0.7-1.5,1.5v1.9c0,3,2.5,7,5.2,7
						C350.9,279.2,352.4,274.4,357,274.4z"/>
					<path class="st6" d="M176.8,320.2v-9.9c0-0.7,0.5-1.2,1.2-1.2h135.8c0.7,0,1.2,0.5,1.2,1.2v9.9c0,0.7-0.5,1.2-1.2,1.2H178
						C177.4,321.4,176.8,320.8,176.8,320.2z"/>
					<path class="st6" d="M333.4,312.5v-1c0-0.8-0.7-1.5-1.5-1.5h-7.4c-0.8,0-1.5,0.7-1.5,1.5v1.9c0,3.1,2.5,7,5.2,7
						c0.2,0,0.4,0,0.7-0.1C327.4,317.2,328.9,312.5,333.4,312.5z"/>
					<path class="st6" d="M168,311.9c0.3,0,0.6,0,0.9,0.1v-0.4c0-0.8-0.7-1.5-1.5-1.5H160c-0.8,0-1.5,0.7-1.5,1.5v1.9
						c0,3.1,2.5,7,5.2,7c0.1,0,0.1,0,0.2,0C161.7,317.3,163.1,311.9,168,311.9z"/>
				</g>
				<path class="st6" d="M374.8,165.7H117v-56c0-3.5,2.8-6.4,6.4-6.4h245.1c3.5,0,6.4,2.8,6.4,6.4v56H374.8z"/>
				<g>
					<g>
						<path id="XMLID_86_" class="st7" d="M348.5,113.9h-205c0,0-1.9-19.3-9-41.9h223.1C350.5,93.6,348.5,113.9,348.5,113.9z"/>
					</g>
					<g>
						<defs>
							<path id="SVGID_3_" d="M348.5,113.9h-205c0,0-1.9-19.3-9-41.9h223.1C350.5,93.6,348.5,113.9,348.5,113.9z"/>
						</defs>
						<clipPath id="SVGID_4_">
							<use xlink:href="#SVGID_3_"  style="overflow:visible;"/>
						</clipPath>
						<path class="st8" d="M350.5,100.4c-1.5,8.1-2,13.5-2,13.5h-205c0,0-0.5-5.3-2-13.5H350.5z"/>
					</g>
					<g>
						<path class="st2" d="M348.5,113.9h-205c0,0-1.9-19.3-9-41.9h223.1C350.5,93.6,348.5,113.9,348.5,113.9z"/>
					</g>
				</g>
				<rect x="144.5" y="149.1" class="st4" width="201.1" height="82.7"/>
				<g class="st9">
					<path class="st7" d="M240.1,224.5c0.4,0,0.7,0,1.1,0.1c1.3-20.6,2.6-41.3,3.9-62C243.4,183.3,241.8,203.9,240.1,224.5z"/>
					<path class="st7" d="M236.7,224.3c0.4,0,0.7,0.1,1.1,0.1c2.3-20.5,4.6-41.1,6.9-61.8C242,183.3,239.4,203.8,236.7,224.3z"/>
					<path class="st7" d="M233.3,223.9c0.4,0,0.7,0.1,1.1,0.1c3.3-20.3,6.6-40.7,9.9-61.4C240.6,183.3,237,203.7,233.3,223.9z"/>
					<path class="st7" d="M230,223.4c0.4,0.1,0.7,0.1,1.1,0.2c4.2-20,8.5-40.3,12.9-61C239.2,183.2,234.6,203.5,230,223.4z"/>
					<path class="st7" d="M226.6,222.7c0.4,0.1,0.7,0.1,1.1,0.2c5.2-19.6,10.5-39.7,15.8-60.4C237.8,183.2,232.2,203.3,226.6,222.7z
						"/>
					<path class="st7" d="M223.3,222c0.4,0.1,0.7,0.2,1.1,0.3c6.1-19.2,12.4-39.1,18.7-59.7C236.4,183.2,229.7,203,223.3,222z"/>
					<path class="st7" d="M219.9,221.1c0.4,0.1,0.7,0.2,1.1,0.3c7-18.6,14.3-38.3,21.7-58.9C235,183.1,227.3,202.7,219.9,221.1z"/>
					<path class="st7" d="M216.6,220.1c0.4,0.1,0.7,0.2,1.1,0.4c7.9-18,16.2-37.3,24.6-57.9C233.6,183.1,224.9,202.3,216.6,220.1z"
						/>
					<path class="st7" d="M213.4,218.9c0.4,0.1,0.7,0.3,1.1,0.4c8.8-17.3,18.1-36.2,27.4-56.8C232.1,183.1,222.4,201.8,213.4,218.9z
						"/>
					<path class="st7" d="M210.1,217.6c0.4,0.2,0.7,0.3,1.1,0.5c9.6-16.5,19.9-35,30.3-55.6C230.7,183,220,201.3,210.1,217.6z"/>
					<path class="st7" d="M206.9,216.1c0.4,0.2,0.7,0.4,1.1,0.5c10.3-15.7,21.7-33.7,33.1-54.2C229.2,182.9,217.5,200.8,206.9,216.1
						z"/>
					<path class="st7" d="M203.7,214.5c0.4,0.2,0.7,0.4,1.1,0.6c11-14.7,23.4-32.2,35.9-52.6C227.8,182.8,215.1,200.2,203.7,214.5z"
						/>
					<path class="st7" d="M200.6,212.7c0.4,0.2,0.7,0.4,1.1,0.7c11.7-13.6,25-30.6,38.6-50.9C226.3,182.7,212.6,199.5,200.6,212.7z"
						/>
					<path class="st7" d="M197.6,210.7c0.4,0.3,0.7,0.5,1.1,0.7c12.3-12.4,26.6-28.8,41.2-49C224.9,182.6,210.1,198.7,197.6,210.7z"
						/>
					<path class="st7" d="M239.5,162.4c-16.1,20.2-31.9,35.5-44.8,46.1c0.4,0.3,0.7,0.6,1.1,0.8
						C208.5,198.2,223.9,182.5,239.5,162.4z"/>
					<path class="st7" d="M239.1,162.3c-17.1,20-33.9,34.6-47.3,43.8c0.3,0.3,0.7,0.6,1.1,0.9C206.1,197.3,222.4,182.4,239.1,162.3z
						"/>
					<path class="st7" d="M238.7,162.3c-18.2,19.9-35.9,33.6-49.6,41.3c0.3,0.3,0.7,0.7,1,1C203.7,196.3,221,182.2,238.7,162.3z"/>
					<path class="st7" d="M238.3,162.3c-19.2,19.6-37.8,32.5-51.7,38.6c0.3,0.4,0.6,0.7,1,1.1C201.4,195.2,219.6,182,238.3,162.3z"
						/>
					<path class="st7" d="M184.3,197.9c0.3,0.4,0.6,0.8,0.9,1.2c14-5.2,33-17.4,52.7-36.9C217.8,181.6,198.3,193.5,184.3,197.9z"/>
					<path class="st7" d="M182.3,194.9c0.3,0.4,0.5,0.8,0.8,1.3c14-3.5,33.9-14.8,54.4-34C216.5,181.2,196.3,192.1,182.3,194.9z"/>
					<path class="st7" d="M180.5,191.8c0.2,0.4,0.4,0.9,0.7,1.3c14-1.9,34.6-12.2,55.9-31C215.4,180.7,194.5,190.6,180.5,191.8z"/>
					<path class="st7" d="M179.1,188.6c0.2,0.4,0.4,0.9,0.6,1.3c13.9-0.3,35-9.6,57-27.9C214.4,180.1,193,189,179.1,188.6z"/>
					<path class="st7" d="M243.5,224.7c0.4,0,0.7,0,1.1,0c0.3-20.7,0.6-41.4,1-62.1C244.8,183.3,244.2,204,243.5,224.7z"/>
					<path class="st7" d="M246.9,224.7c0.4,0,0.7,0,1.1,0c-0.7-20.7-1.3-41.4-2-62.1C246.2,183.3,246.5,204,246.9,224.7z"/>
					<path class="st7" d="M250.2,224.6c0.4,0,0.7,0,1.1-0.1c-1.7-20.6-3.3-41.3-5-62C247.6,183.3,248.9,204,250.2,224.6z"/>
					<path class="st7" d="M253.6,224.4c0.4,0,0.7-0.1,1.1-0.1c-2.7-20.4-5.3-41-8-61.7C249,183.3,251.3,203.9,253.6,224.4z"/>
					<path class="st7" d="M257,224.1c0.4,0,0.7-0.1,1.1-0.1c-3.6-20.2-7.3-40.7-11-61.4C250.4,183.3,253.7,203.8,257,224.1z"/>
					<path class="st7" d="M260.4,223.6c0.4-0.1,0.7-0.1,1.1-0.2c-4.6-19.9-9.3-40.2-13.9-60.9C251.8,183.3,256.1,203.6,260.4,223.6z
						"/>
					<path class="st7" d="M263.7,223c0.4-0.1,0.7-0.1,1.1-0.2c-5.6-19.5-11.2-39.6-16.9-60.3C253.2,183.2,258.5,203.4,263.7,223z"/>
					<path class="st7" d="M267.1,222.3c0.4-0.1,0.7-0.2,1.1-0.3c-6.5-19-13.2-38.9-19.9-59.5C254.6,183.2,260.9,203.1,267.1,222.3z"
						/>
					<path class="st7" d="M270.4,221.5c0.4-0.1,0.7-0.2,1.1-0.3c-7.4-18.5-15.1-38-22.8-58.7C256,183.2,263.4,202.8,270.4,221.5z"/>
					<path class="st7" d="M273.7,220.5c0.4-0.1,0.7-0.2,1.1-0.4c-8.3-17.8-17-37-25.7-57.7C257.5,183.2,265.8,202.5,273.7,220.5z"/>
					<path class="st7" d="M277,219.4c0.4-0.1,0.7-0.3,1.1-0.4c-9.1-17.1-18.8-35.9-28.6-56.5C258.9,183.1,268.2,202.1,277,219.4z"/>
					<path class="st7" d="M280.3,218.2c0.4-0.2,0.7-0.3,1.1-0.5c-9.9-16.3-20.6-34.7-31.5-55.3C260.3,183.1,270.7,201.6,280.3,218.2
						z"/>
					<path class="st7" d="M283.5,216.8c0.4-0.2,0.7-0.3,1.1-0.5C274,201,262.2,183,250.3,162.5C261.8,183,273.1,201.1,283.5,216.8z"
						/>
					<path class="st7" d="M286.7,215.2c0.4-0.2,0.7-0.4,1.1-0.6c-11.3-14.3-24.1-31.7-37.1-52.2
						C263.2,182.9,275.6,200.5,286.7,215.2z"/>
					<path class="st7" d="M289.8,213.5c0.4-0.2,0.7-0.4,1.1-0.7c-12-13.2-25.8-30-39.8-50.4C264.7,182.8,278.1,199.9,289.8,213.5z"
						/>
					<path class="st7" d="M251.5,162.4c14.7,20.4,29.1,36.8,41.4,49.2c0.4-0.2,0.7-0.5,1.1-0.7C281.4,198.9,266.6,182.7,251.5,162.4
						z"/>
					<path class="st7" d="M251.9,162.4c15.7,20.3,31.2,36,44,47.2c0.4-0.3,0.7-0.6,1.1-0.8C283.9,198.1,268.1,182.6,251.9,162.4z"/>
					<path class="st7" d="M252.3,162.3c16.8,20.2,33.2,35.1,46.5,44.9c0.4-0.3,0.7-0.6,1.1-0.9C286.4,197.1,269.5,182.5,252.3,162.3
						z"/>
					<path class="st7" d="M252.7,162.3c17.9,20,35.3,34.2,48.8,42.5c0.4-0.3,0.7-0.7,1-1C288.8,196.1,271,182.3,252.7,162.3z"/>
					<path class="st7" d="M253.1,162.3c18.9,19.9,37.2,33.1,51,39.8c0.3-0.4,0.7-0.7,1-1.1C291.2,195,272.4,182.1,253.1,162.3z"/>
					<path class="st7" d="M306.6,199.3c0.3-0.4,0.6-0.8,0.9-1.2c-14-4.4-33.7-16.3-54-35.8C273.3,181.9,292.6,194.2,306.6,199.3z"/>
					<path class="st7" d="M308.7,196.2c0.3-0.4,0.6-0.8,0.8-1.3c-14.1-2.7-34.5-13.6-55.7-32.8C274.6,181.5,294.7,192.8,308.7,196.2
						z"/>
					<path class="st7" d="M310.6,193.1c0.2-0.4,0.5-0.9,0.7-1.3c-14-1-35.1-10.9-57-29.7C275.9,181.1,296.6,191.4,310.6,193.1z"/>
					<path class="st7" d="M254.7,162.1c22.2,18.5,43.6,27.7,57.5,27.9c0.2-0.4,0.4-0.9,0.6-1.4C298.9,189.2,277.2,180.4,254.7,162.1
						z"/>
				</g>
				<path class="st6" d="M216.6,164.1c-3.8,9.7,0.3,38,27.7,38c27.3,0,37.3-19.9,36.2-32.1l36.5-5.9c0,0,11.2,30.9-12.6,52.6
					c-23.8,21.6-106.1,20.2-123.5,3.8s-7.8-48.9-7.8-48.9L216.6,164.1z"/>
			</g>
			<g>
				<path class="st10" d="M376.9,122.1v-6.8c0-0.5,0.3-1,0.8-1.1l5-1.6v-6.8c0-1.7,1.4-3.1,3.1-3.1h6c0.6,0,1.1,0.5,1.1,1.1v2.2
					c0,0.6-0.5,1.1-1.1,1.1h-7.6v6.7c0,0.4-0.2,0.8-0.6,1l-4.3,2.6v4.8L376.9,122.1z"/>
				<g>
					<rect x="376.9" y="122.1" class="st4" width="6.6" height="19.7"/>
					<g>
						<g>
							<rect id="XMLID_93_" x="383.5" y="120.5" class="st11" width="8.2" height="23"/>
						</g>
						<g>
							<defs>
								<rect id="SVGID_5_" x="383.5" y="120.5" width="8.2" height="23"/>
							</defs>
							<clipPath id="SVGID_6_">
								<use xlink:href="#SVGID_5_"  style="overflow:visible;"/>
							</clipPath>
							<rect x="383.5" y="134.5" class="st12" width="8.2" height="9"/>
						</g>
						<g>
							<rect x="383.5" y="120.5" class="st2" width="8.2" height="23"/>
						</g>
					</g>
					<rect x="108.3" y="122.1" class="st4" width="6.6" height="19.7"/>
					<g>
						<g>
							<rect id="XMLID_95_" x="100.2" y="120.4" class="st11" width="8.2" height="23"/>
						</g>
						<g>
							<defs>
								<rect id="SVGID_7_" x="100.2" y="120.4" width="8.2" height="23"/>
							</defs>
							<clipPath id="SVGID_8_">
								<use xlink:href="#SVGID_7_"  style="overflow:visible;"/>
							</clipPath>
							<rect x="100.1" y="134.5" class="st13" width="8.2" height="8.8"/>
						</g>
						<g>
							<rect x="100.2" y="120.4" class="st2" width="8.2" height="23"/>
						</g>
					</g>
				</g>
				<path class="st5" d="M114,133.1L114,133.1c1.2-3.2,0.3-6.8-2.4-9l-4.8-4c-1.3-1.1-3.3-0.9-4.3,0.5l-19.2,26.5
					c-0.4,0.5-0.6,1.1-0.6,1.7v28.4c0,1.6,1.3,2.9,2.9,2.9l0,0c1.6,0,2.9-1.3,2.9-2.9v-23.1c0-0.6,0.2-1.1,0.5-1.6l14.4-20
					c0.5-0.7,1.6-0.9,2.3-0.3l2.6,2.2c0.7,0.6,1.5,0.9,2.3,0.9l0,0C112.1,135.4,113.4,134.5,114,133.1z"/>
				<circle class="st10" cx="110" cy="129.2" r="1.4"/>
				<rect x="121.1" y="112.6" class="st4" width="249.7" height="38.7"/>
				<path class="st14" d="M367.2,124.5H124.6c-0.8,0-1.4-0.6-1.4-1.4v-6.2c0-0.8,0.6-1.4,1.4-1.4h242.6c0.8,0,1.4,0.6,1.4,1.4v6.2
					C368.6,123.9,368,124.5,367.2,124.5z"/>
				<g>
					<g>
						<path id="XMLID_91_" class="st7" d="M348.5,159.1h-205c0,0-9-18.8-9-41.9h223.1C357.5,136.6,348.5,159.1,348.5,159.1z"/>
					</g>
					<g>
						<defs>
							<path id="SVGID_9_" d="M348.5,159.1h-205c0,0-9-18.8-9-41.9h223.1C357.5,136.6,348.5,159.1,348.5,159.1z"/>
						</defs>
						<clipPath id="SVGID_10_">
							<use xlink:href="#SVGID_9_"  style="overflow:visible;"/>
						</clipPath>
						<g class="st15">
							<path class="st2" d="M160,155.9c0,0,4.5-0.2,7-1.7s2.3,1.4,3.8,1.6c1.4,0.2,4.8-1,6.6-1s0.4,1.1,2.5,1c2-0.1,0.9,0.1,2-0.1
								c1.1-0.2,8.7-1.5,8.7-1.5s4.4-0.8,5.3-0.4c0.9,0.4,2.1,2.6,3.4,2c1.3-0.6,0.6-1,2.6-1s3.6,0.5,3.6,0.5s0.2-0.5,1.1-0.5
								c0.9,0,1.6,0,1.6,0s3.4,0.9,3.9,0.9s4.6-0.9,4.7-0.9c0.1,0,3.9-1,3.9-1s1.5,1.6,3,1.8s3-0.2,4.1,0.3s4.7-0.2,4.7-0.2
								s1.4,0,2.6,0.2c1.2,0.2,1.3,0.3,3.4-0.1c2.1-0.4,3-0.7,6.2-0.1s6.2-0.9,7.6-0.9c1.4,0,6.9,0.6,8.8,0.6s6.9,0.7,10.4,0.3
								s5.8,0.5,8.1,0.5c2.4,0,4.9-0.1,5.4-0.1s3.1-1.7,6.9-1.3c3.7,0.4,0.4-0.5,2.7,0c2.3,0.5,4.1,1,5.1,1.1s2.3-0.1,2.3-0.1l4-0.3
								c0,0,10.8,0,19.9,0"/>
							<path class="st2" d="M155.9,148.2c0,0,12.3,0,14.6-0.2c2.2-0.2,3.4-1.3,4.6-1.3s7.2,1.1,7.2,1.1s0.4-1.1,2-1.1
								s0.8,0.2,2.3,0.7s0.7,0,1.5,0.6s3.7,1.1,3.7,1.1s5.6,0.3,5.8-1.1c0.2-1.3,3,1.1,3,1.1s7.6-1.1,10.5-1.1s10.2-0.6,10.2-0.6
								s6,0.8,6.3,0.8s1.3,1.6,2.3,0.9c1.1-0.7,2.1-1.5,3.4-1.3c1.3,0.2,3.4,1.3,3.4,1.3l2.8-1.5l3.2,0.2c0,0,3.3,2.2,5.6,1.3
								s5.2-2.4,5.2-2.4l2.9,2.4h1.9l5.6-1.1c0,0,1.3,1.8,3.6,1.1c2.4-0.7,24.9,0,30.6,0s7-1.5,7-1.5l4.4,1.5h4.4h3h14.6"/>
						</g>
					</g>
					<g>
						<defs>
							<path id="SVGID_11_" d="M348.5,159.1h-205c0,0-9-18.8-9-41.9h223.1C357.5,136.6,348.5,159.1,348.5,159.1z"/>
						</defs>
						<clipPath id="SVGID_12_">
							<use xlink:href="#SVGID_11_"  style="overflow:visible;"/>
						</clipPath>
						<path class="st16" d="M350.5,153.3c-1.2,3.6-2.1,5.8-2.1,5.8h-205c0,0-1-2.1-2.4-5.8H350.5z"/>
					</g>
					<g>
						<defs>
							<path id="SVGID_13_" d="M348.5,159.1h-205c0,0-9-18.8-9-41.9h223.1C357.5,136.6,348.5,159.1,348.5,159.1z"/>
						</defs>
						<clipPath id="SVGID_14_">
							<use xlink:href="#SVGID_13_"  style="overflow:visible;"/>
						</clipPath>
						<path class="st17" d="M354.8,138.2c-0.7,3-1.5,5.9-2.2,8.5H138.9c-0.7-2.5-1.5-5.4-2.2-8.5H354.8z"/>
					</g>
					<g>
						<path class="st2" d="M348.5,159.1h-205c0,0-9-18.8-9-41.9h223.1C357.5,136.6,348.5,159.1,348.5,159.1z"/>
					</g>
				</g>
				<g>
					<g>
						<g>
							<rect id="XMLID_94_" x="114.9" y="110.6" class="st11" width="6.1" height="42.7"/>
						</g>
						<g>
							<defs>
								<rect id="SVGID_15_" x="114.9" y="110.6" width="6.1" height="42.7"/>
							</defs>
							<clipPath id="SVGID_16_">
								<use xlink:href="#SVGID_15_"  style="overflow:visible;"/>
							</clipPath>
							<rect x="114.9" y="140.6" class="st18" width="5.9" height="12.7"/>
						</g>
						<g>
							<rect x="114.9" y="110.6" class="st2" width="6.1" height="42.7"/>
						</g>
					</g>
					<g>
						<g>
							<rect id="XMLID_92_" x="370.9" y="110.6" class="st11" width="6.1" height="42.7"/>
						</g>
						<g>
							<defs>
								<rect id="SVGID_17_" x="370.9" y="110.6" width="6.1" height="42.7"/>
							</defs>
							<clipPath id="SVGID_18_">
								<use xlink:href="#SVGID_17_"  style="overflow:visible;"/>
							</clipPath>
							<rect x="370.8" y="140.6" class="st19" width="6.2" height="12.7"/>
						</g>
						<g>
							<rect x="370.9" y="110.6" class="st2" width="6.1" height="42.7"/>
						</g>
					</g>
				</g>
				<polygon class="st10" points="370.9,108.8 370.9,140 121,140 121,108.8 118.6,108.8 118.6,142.1 373.3,142.1 373.3,108.8 				
					"/>
			</g>
			<path class="st5" d="M385.7,161.3v69.8c0,2.5-2,4.4-4.4,4.4H110.6c-2.5,0-4.4-2-4.4-4.4v-69.8c0-2.5,2-4.4,4.4-4.4h124.7v4.4
				c0,0-21.3,18.5-58,25.3c5.3,23.8,34,42,68.7,42s63.4-18.2,68.7-42c-36.8-6.8-58-25.3-58-25.3v-4.4h124.7
				C383.7,156.8,385.7,158.8,385.7,161.3z"/>
			<g>
				<g>
					<path id="XMLID_90_" class="st0" d="M385.7,161.3v69.8c0,2.5-2,4.4-4.4,4.4H110.6c-2.4,0-4.4-2-4.4-4.4v-69.8
						c0-2.4,2-4.4,4.4-4.4h124.7v4.4c0,0-21.3,18.5-58,25.3c5.3,23.8,34,42,68.7,42s63.4-18.2,68.7-42
						c-36.8-6.8-58.1-25.3-58.1-25.3v-4.4h124.7C383.7,156.8,385.7,158.8,385.7,161.3z"/>
				</g>
				<g>
					<defs>
						<path id="SVGID_19_" d="M385.7,161.3v69.8c0,2.5-2,4.4-4.4,4.4H110.6c-2.4,0-4.4-2-4.4-4.4v-69.8c0-2.4,2-4.4,4.4-4.4h124.7
							v4.4c0,0-21.3,18.5-58,25.3c5.3,23.8,34,42,68.7,42s63.4-18.2,68.7-42c-36.8-6.8-58.1-25.3-58.1-25.3v-4.4h124.7
							C383.7,156.8,385.7,158.8,385.7,161.3z"/>
					</defs>
					<clipPath id="SVGID_20_">
						<use xlink:href="#SVGID_19_"  style="overflow:visible;"/>
					</clipPath>
					<path class="st20" d="M379.7,162.4v64.5c0,1.8-1.5,3.3-3.3,3.3H113.3c-1.8,0-3.3-1.5-3.3-3.3v-64.5c0-1.8,1.5-3.3,3.3-3.3h122
						v2.2c0,0-21.3,18.5-58,25.3c5.3,23.8,34,42,68.7,42s63.4-18.2,68.7-42c-36.8-6.8-58.1-25.3-58.1-25.3v-2.2h119.9
						C378.2,159.1,379.7,160.5,379.7,162.4z"/>
				</g>
				<g>
					<path class="st2" d="M385.7,161.3v69.8c0,2.5-2,4.4-4.4,4.4H110.6c-2.4,0-4.4-2-4.4-4.4v-69.8c0-2.4,2-4.4,4.4-4.4h124.7v4.4
						c0,0-21.3,18.5-58,25.3c5.3,23.8,34,42,68.7,42s63.4-18.2,68.7-42c-36.8-6.8-58.1-25.3-58.1-25.3v-4.4h124.7
						C383.7,156.8,385.7,158.8,385.7,161.3z"/>
				</g>
			</g>
		</g>
		<g>
			<path class="st21" d="M296.3,256.2l13.3,37.1c0,0,5.8-40.8,9.2-40.8c3.4,0,10.8,22.3,10.8,22.3s4.6-11.6,8.9-12.1
				c4.3-0.4,8.2,28.6,8.2,28.6l0.7,64.4L342,453c0,0-34.8-38.3-44.9-48.2c-10.1-9.9-19.8-31.6-22.6-36c-2.8-4.4-3.5-27.5-3.5-27.5
				s5.6-6.4,5.2-15.9c0,0,8.2-13.7,7.7-23.7C283.2,291.6,282,252.5,296.3,256.2z"/>
			<g>
				<path class="st7" d="M400.9,435.8l-52.6,27.7c0-0.3-6.9-11.5-15.3-24.2c-3.8-5.7-7.9-11.8-11.7-17.2
					c-6.3-8.9-14.4-16.6-15.1-18.3c-2-5-17.4-23.7-20.9-31c-3.4-7.3-4.2-29.9-5.8-35.3c-1.5-5.3,2.8-10.4,6.3-12.9s7.2-9,7.2-9
					s-3.9-15.1-3.9-22.8c0-7.7-2.6-34.4,0.5-36.9s5.9-1.4,6.7,0.3c2.6,5.7,4.9,19.9,6.8,26.5c2,6.6,5.7,25.6,7.5,27s5.1-3.8,5.1-3.8
					s0.3-16,1-22.6l-1-21c0,0-1.9-12.6,2.5-13.8c6-1.6,8.2,2.1,8.9,3.7c0.7,1.6,3.5,10.8,3.5,10.8s0.1,0.2,0.2,0.6
					c0,0.1,0,0.1,0.1,0.2v0.1c0,0.2,0.1,0.4,0.1,0.6c0.1,0.4,0.2,0.9,0.4,1.5c1.3,5.2,3.9,15.6,3.8,18.2c-0.2,3.5-1.4,22.7,0.3,26.7
					l2.7-26.6c0,0-4.4-20.4-3.1-23.4s7.1,0.3,7.8,1.5c0.7,1.2,6.4,8.2,7.4,10.9c1,2.7,1,2.7,1,2.7s1.4-6.3,4.7-4.7
					c3.3,1.6,3.7,9.7,4,13.2c0.2,3.5,2.6,26.2,3,26.2s4.2,11.8,3.7,19.6c-1.1,16.6,1.8,29,1.9,35.4s-4.7,21.2-4.7,21.2l0,0
					c0.2,0.3,3.3,5.6,4.2,10.3c0.6,3.4,11.8,15.9,21,25.8l0,0C395.3,429.6,400.6,435.2,400.9,435.8z"/>
				<path class="st22" d="M333,439.3L333,439.3c-3.8-5.7-7.9-11.8-11.7-17.2c-6.3-8.9-14.4-16.6-15.1-18.3c-2-5-17.4-23.7-20.9-31
					c-3.4-7.3-4.2-29.9-5.8-35.3c-1.5-5.3,2.8-10.4,6.3-12.9s7.2-9,7.2-9s-3.9-15.1-3.9-22.8c0-7.7-2.6-34.4,0.5-36.9
					s5.9-1.4,6.7,0.3c2.6,5.7,4.9,19.9,6.8,26.5c2,6.6,5.7,25.6,7.5,27s5.1-3.8,5.1-3.8s0.3-16,1-22.6l-1-21c0,0-1.9-12.6,2.5-13.8
					c6-1.6,8.2,2.1,8.9,3.7c0.7,1.6,3.5,10.8,3.5,10.8s0.1,0.2,0.2,0.6c0,0.1,0,0.1,0.1,0.2v0.1c0,0.2,0.1,0.4,0.1,0.6
					c0.1,0.4,0.2,0.9,0.4,1.5c-1.6-2.4-3.7-4.5-6.5-5.1c-8-1.6-6.3,7.3-5.5,12.7c0.8,5.3-0.3,10.7-0.3,10.7l2-1.2
					c-1.4,2.6-3.5,23.9-3.5,28.7c0,4.8-3.8,6.3-7.1,4.9c-3.4-1.4-4.6-23.2-7.1-27.1c-2.6-3.9-9.7,3.6-10,10.4s6,27.2,4.5,32.1
					c-1.5,4.8-1.5,23-1.5,23l-1.8-4.7c0.1,0.6,0,2.8-3.9,9.1c-4.9,8.2-2.1,15.6-2.1,15.6c2.3,5.1,14.2,18.8,16.2,20.2
					c0,0,1.5-5.9,6-4.4c0,0-2.4,3.6-3.3,8s8.5,7.1,11.5,11.3C320.7,412.7,321.9,420.4,333,439.3z"/>
				<path class="st22" d="M389,422.8c-9.4-9.4-25.8-18.4-24.8-20.8c1.3-3.2-0.4-9.9-3.2-15.4c-2.9-5.5,1-14.3,1-14.3l1.8,5.1
					c0,0,2.3-7.9,0.5-18.1s-3.2-6.6-3.2-6.6s0.4-9.2,2-14.2s3-17.2,0.8-24.4c-2.2-7.2-7-5.9-8.3-3.4s0.1,12.1,1.1,15.3
					c1,3.2-3.4,8.5-3.5,4.5s-1.8-15-1.8-15l3.4-22.2l-3.4-17.6c0,0,1.4-6.3,4.7-4.7c3.3,1.6,3.7,9.7,4,13.2c0.2,3.5,2.6,26.2,3,26.2
					s4.2,11.8,3.7,19.6c-1.1,16.6,1.8,29,1.9,35.4s-4.7,21.2-4.7,21.2l0,0c0.2,0.3,3.3,5.6,4.2,10.3
					C368.5,400.5,379.8,412.9,389,422.8L389,422.8z"/>
				<path class="st22" d="M350.2,273.2c0.2,0.5,0.3,0.9,0.5,1.2c-3.2-7.4-8.6-5.1-9.6-3c-1,2.2,2.3,15.1,3,17.1s-2.9,18.1-3.4,23.5
					c-0.5,5.3-1.9,6.4-1.9,6.4c-3.6,0.3-4-9.6-4-11c0.1,1.5,0.4,2.6,0.7,3.3l2.7-26.6c0,0-4.4-20.4-3.1-23.4s7.1,0.3,7.8,1.5
					C343.5,263.5,349.2,270.5,350.2,273.2z"/>
				<g>
					<path class="st2" d="M400.9,435.8c-0.7-1.5-31.9-33-33-38.8c-0.9-4.8-4.2-10.3-4.2-10.3s4.8-14.8,4.7-21.2
						c-0.1-6.4-3-18.8-1.9-35.4c0.5-7.8-3.3-19.5-3.7-19.6c-0.4,0-2.8-22.7-3-26.2s-0.6-11.6-3.9-13.2s-4.7,4.7-4.7,4.7s0,0-1-2.7
						s-6.7-9.7-7.4-10.9c-0.7-1.2-6.6-4.4-7.8-1.5c-1.3,3,3.1,23.4,3.1,23.4l-2.7,26.6c-1.7-4-0.5-23.2-0.4-26.7
						c0.2-3.5-4.6-21.2-4.6-21.2s-2.8-9.2-3.5-10.8s-2.9-5.4-8.9-3.7c-4.4,1.2-2.5,13.8-2.5,13.8l1,21c-0.7,6.7-1,22.6-1,22.6
						s-3.2,5.1-5.1,3.8c-1.8-1.4-5.5-20.4-7.5-27s-4.3-20.8-6.8-26.5c-0.8-1.7-3.6-2.8-6.7-0.3c-3.1,2.5-0.5,29.3-0.5,36.9
						c0,7.7,3.9,22.7,3.9,22.7s-3.7,6.5-7.2,9s-7.9,7.6-6.3,12.9c1.5,5.3,2.3,28,5.8,35.3c3.4,7.3,18.8,26,20.9,31
						c0.7,1.7,8.7,9.4,15.1,18.3c12.5,17.5,27,41,27,41.4"/>
					<path class="st2" d="M293,315.6c0,0,2.5,12.3,2.4,14.3c0,0-2.2,9.5-2.2,15.6c0,0-3.2,5-4.1,7.2c-0.8,2.2-2.3,7.7-1.7,10.7"/>
					<path class="st2" d="M288.5,333.7c0,0,6.1,0.1,5.7,2.6"/>
					<path class="st2" d="M293.2,345.6c0,0-3.9-1.7-5.3,0.6"/>
					<path class="st2" d="M315.6,305.9c0,0-0.3,9.4-2.8,8.7"/>
					<path class="st2" d="M335.4,310.8c0,0-0.7,5.2,1.2,6.7"/>
					<path class="st2" d="M351.2,275.9c0,0,2.7,13,3.3,16.1c0.6,3-3.1,18.8-3,22.9s1.8,9.9,1.6,12.7"/>
					<path class="st2" d="M362,374.6c0,0-0.9,8.5,1.7,12.1"/>
					<path class="st2" d="M309.6,391.4c0,0-5.8,5.3-3.7,11.8"/>
					<path class="st2" d="M347.8,325.3c0.1,3.7-2.1,8.1-2.3,13.3"/>
					<path class="st2" d="M329.3,322c1.2,3.1-1.5,9.7-1.9,12.2s0.6,5.8,0.6,5.8"/>
					<path class="st2" d="M364.1,332.5c-0.5,3.2-2.8,5.6-3.2,15.6"/>
					<path class="st2" d="M307.3,321c1.7,1.8,0.5,10.6,1,12"/>
					<path class="st2" d="M338.6,270.7c0,0,5.7-4.2,10.6,0.8"/>
					<path class="st2" d="M319,261c0,0,1-1.7,5.8-1.3c4.8,0.4,5.7,3.1,5.7,3.1"/>
					<path class="st23" d="M304.9,289.6c0,0-1.6-2.4-5.9-1.6s-6.2,6.8-6.2,6.8"/>
					<path class="st2" d="M362.9,310.6c0,0-3.6-5.2-7.8-3"/>
				</g>
			</g>
		</g>
		<g>
			<path class="st21" d="M211.2,272.7c6,4.7,0.9,33.2,0.9,33.2l0.5,9.3l10.3-4.4l4.6,19.9c0,0-0.1,7.3,3.7,10c0,0,0.9,16.3,0,28.2
				c-0.9,11.9-20,25.9-26.6,38.4c-6.5,12.5-49.4,49.3-49.4,49.3l-36.3-17.3l26.2-105.9l23.5-30.2l13.9-34.8c0,0,2.4,22.7,1,38
				L211.2,272.7z"/>
			<g>
				<path class="st7" d="M221.3,336.2c-0.9,4.4,1.3,28.4,0.9,31.6c-0.4,3.2-19.5,24.9-20.4,26.6c-1,1.7-13.7,9-16.7,12.5
					c-13.9,16.2-21.5,31.1-27.6,46.1l0,0c-1.2,2.9-2.3,5.8-3.4,8.7l-55.1-32c4.6-5.7,9-10.8,13-15.5c8.1-9.4,14.4-16.9,17.5-24
					c0.5-1.2,2-3.4,3.3-5.2c1.2-1.8,2.3-3.2,2.3-3.2s-4-11.3-3.1-14.8s-1.2-32.6-1.2-32.6s-2.7-19.8-5.4-24.8
					c-0.7-1.3-0.9-2.7-0.9-4.2c0.1-4.6,2.8-10.3,4.1-17.1c1.7-9,0.9-13.4,6.4-10.3s2.9,22,2.9,22l8.3,18.3c2.2-4.4,0-17.3-0.1-20.4
					c0-0.5,0-1.3-0.1-2.4c-0.2-5.3-0.5-16.2-0.1-20.5c0-0.2,0.1-0.5,0.1-0.7c0.7-4.5,3.1-18.6,4.6-20.2c2.3-2.3,5.8-4.3,9.2,1
					c1.9,3,1.1,26.8,1.1,26.8s7.8-9.5,10.2-11.8s9.6-6.5,11.5-1.6s-5.2,20-5.2,20c1.5,3.5,1.7,13.2,1.7,13.2s3.4,12.1,5.4,12h0.1
					c0.6-0.1,1.3-2.3,1.9-5.4c1.7-7.6,3.6-20.5,5-21.6c0.2-0.2,0.6-0.5,1-0.8c0-0.1,0.1-0.1,0.2-0.2c0.1-0.1,0.2-0.2,0.4-0.3
					c3.5-3.1,11-10.1,11-10.1s0.5-3.4,7.1-2.3c6.5,1-2.9,20.3-2.9,20.3c-1.3,6.1-3.3,21.9-3.3,21.9c-0.6,6.6-0.3,24.2-0.3,24.2
					s3.1-10.3,2.9-14c-0.2-3.7,6.1-12.9,8-15.3s10.2-1.5,7.9,3C221.2,317.4,222.2,331.8,221.3,336.2z"/>
				<path class="st22" d="M129.5,390.2c0.5-1.2,2-3.4,3.3-5.2c0,0-3.3,9-3.6,13.8c-0.2,3.2-8.5,8.6-17.2,15.5
					C120.1,404.9,126.4,397.3,129.5,390.2z"/>
				<path class="st22" d="M132.8,385c1.2-1.8,2.3-3.2,2.3-3.2s-4-11.3-3.1-14.8s-1.2-32.6-1.2-32.6s-2.7-19.8-5.4-24.8l6.2,10.9
					c0,0-0.6,8.6,1.2,13.3c1.8,4.7,4,19.1,4,19.1s-2.6,12.1-1.7,16.4c0.9,4.4,4.9,2.8,4.9,2.8S142.1,380,132.8,385z"/>
				<path class="st22" d="M147.3,303.2c4.3,25.1-3.1,18.2-5.8,12.8c-2.7-5.4-8.9-15.7-13.7-13.5c-1.5,0.7-2.5,1.7-3.2,2.9
					c0.1-4.6,2.8-10.3,4.1-17.1c1.7-9,0.9-13.4,6.4-10.3s2.9,22,2.9,22l8.3,18.3c2.2-4.4,0-17.3-0.1-20.4c0-0.5,0-1.3-0.1-2.4
					C146.4,297.8,146.8,300.4,147.3,303.2z"/>
				<path class="st22" d="M157.8,278.4c0,0-4.6-6.1-8.6-5.8c-1.3,0.1-2.4,0.7-3.1,2.3c0-0.2,0.1-0.5,0.1-0.7
					c0.7-4.5,3.1-18.6,4.6-20.2c2.3-2.3,5.8-4.3,9.2,1c1.9,3,1.1,26.8,1.1,26.8s7.8-9.5,10.2-11.8s9.6-6.5,11.5-1.6s-5.2,20-5.2,20
					c1.5,3.5,1.7,13.2,1.7,13.2s3.4,12.1,5.4,12c-4.6,8.6-7.6-10.4-7.6-10.4c0.7-3.9-1.7-12.4-1.5-14.7c0.3-2.2-4.2-10.2-11.7-8
					s-2.1,31.7-2.1,31.7c-2.5,4.1-2.5,7.7-2.5,7.8c-2.3-2.9,0-11,0-11C157.3,301.3,157.8,278.4,157.8,278.4z"/>
				<path class="st22" d="M192.7,285.7c-3.2,3.3-2.8,11.8-6,22.4c1.7-7.6,3.6-20.5,5-21.6C191.9,286.3,192.3,286,192.7,285.7z"/>
				<path class="st22" d="M221.3,336.2c-0.9,4.4,1.3,28.4,0.9,31.6c-0.4,3.2-19.5,24.9-20.4,26.6c-1,1.7-13.7,9-16.7,12.5
					c-13.9,16.2-21.5,31.1-27.6,46.1c1.8-5.9,4.6-14.5,8.3-22.8c6.6-14.8,9.3-17.4,13.2-21.6s3.5-13.2,3.5-13.2s3.9-1,8.9-1
					s19.8-21.1,24.9-24.8c5.1-3.7,6-3.7,0-11.9s-4.3,1.3-6.1,1c-1.8-0.4-2.8,3.6-2.8,3.6c-0.6-8.3-6-18-7.1-20.4
					c-1.2-2.4,2.7-16.6,1.9-20.6c-0.8-3.9,3.4-28,3.4-28s-0.5-9.2-8.9-9.3c-1.5,0-2.7,0.4-3.6,1.1c3.5-3.1,11-10.1,11-10.1
					s0.5-3.4,7.1-2.3c6.5,1-2.9,20.3-2.9,20.3c-1.3,6.1-3.3,21.9-3.3,21.9c-0.6,6.6-0.3,24.2-0.3,24.2s3.1-10.3,2.9-14
					c-0.2-3.7,6.1-12.9,8-15.3s10.2-1.5,7.9,3C221.2,317.4,222.2,331.8,221.3,336.2z"/>
				<g>
					<path class="st2" d="M154.1,461.7c6.8-17.9,14.4-35.4,30.9-54.8c3-3.5,15.7-10.8,16.7-12.5s20.1-23.4,20.4-26.7
						c0.4-3.2-1.8-27.2-0.9-31.6c0.9-4.4-0.1-18.8,2.2-23.3s-6-5.3-7.9-3c-1.8,2.4-8.2,11.6-8,15.3c0.2,3.7-2.9,14-2.9,14
						s-0.4-17.6,0.3-24.2c0,0,2-15.8,3.3-21.9c0,0,9.4-19.3,2.9-20.3S204,275,204,275s-10.4,9.8-12.5,11.4c-2,1.6-4.9,26.6-6.9,27.1
						c-2.1,0.5-5.5-12-5.5-12s-0.2-9.7-1.7-13.2c0,0,7.1-15.1,5.2-20c-1.9-4.9-9.1-0.7-11.5,1.6c-2.4,2.3-10.2,11.8-10.2,11.8
						s0.8-23.8-1.1-26.8c-3.4-5.3-7-3.4-9.2-1c-1.5,1.6-3.9,15.8-4.6,20.2c-0.7,4.5,0,20.5,0.1,23.6s2.3,15.9,0.1,20.4L138,300
						c0,0,2.6-18.9-2.9-22s-4.6,1.4-6.4,10.3c-1.7,9-5.9,16.3-3.2,21.3c2.7,5,5.4,24.8,5.4,24.8s2.1,29.1,1.1,32.6
						c-0.9,3.5,3.1,14.8,3.1,14.8s-4.6,6.1-5.6,8.4c-4.7,10.6-16.4,22.2-30.5,39.5"/>
					<path class="st2" d="M161,281.9c0,0-1.7,2-1.7,5.8s2.5,24.6,2.5,24.6s-1.8,2.1-1.9,4"/>
					<path class="st2" d="M204.8,339.1c0,0,0.3,5.5,2.7,10.1c2.3,4.6,1.6,7.2,0.8,9.9c-0.8,2.7-0.8,7.3-0.8,7.3"/>
					<path class="st2" d="M147.2,314.1c0,0,1.7,5.5-1.5,8.1"/>
					<path class="st2" d="M184.8,313.6c0,0,0.3,2.2-2.7,2.4"/>
					<path class="st2" d="M205.4,288.6c0,0-7.7-8.4-13.7-2.1"/>
					<path class="st2" d="M174.2,283.8c0,0-3.5-4.5-6.6-4.2s-7.2,2.1-7.7,4.6"/>
					<path class="st2" d="M208.9,356.5c0,0,2,2.7,2.7,5.9"/>
					<path class="st2" d="M188.9,322.3c-2.4,4.5-1.2,12-2.1,14.1"/>
					<path class="st2" d="M163.5,315c0.6,2.6-1.2,6.7-1.5,9.8c-0.3,3.1,2.2,7.8,1.8,12.1"/>
					<path class="st2" d="M147.3,325.4c0,0-2.1,4.8-2,8s1.2,10.1,1.2,10.1"/>
					<path class="st2" d="M131.9,325.2c0,0-0.8,5,1,8.5s3.5,11,3.5,11"/>
					<path class="st2" d="M135.1,381.8c0,0,2.8-0.5,3.5-4.1"/>
					<path class="st2" d="M185.4,397c0,0,1.9,7.1-1.8,11.6"/>
					<path class="st2" d="M124.7,304.5c0,0,5.4-5.3,9.5-0.8"/>
					<path class="st2" d="M146.1,274.3c0,0,4-4.2,8.7,0.3"/>
				</g>
			</g>
		</g>
	</g>
</g>
</svg>
