<?xml version="1.0" encoding="utf-8"?>
<!-- Generator: Adobe Illustrator 23.0.1, SVG Export Plug-In . SVG Version: 6.00 Build 0)  -->
<svg version="1.1" xmlns="http://www.w3.org/2000/svg" xmlns:xlink="http://www.w3.org/1999/xlink" x="0px" y="0px"
	 viewBox="0 0 500 500" style="enable-background:new 0 0 500 500;" xml:space="preserve">
<style type="text/css">
	.st0{opacity:0.7;fill:#FFFFFF;}
	.st1{fill:#92E3A9;}
	.st2{fill:#F2F2F2;stroke:#FFFFFF;stroke-width:2;stroke-miterlimit:10;}
	.st3{fill:#E3E3E3;}
	.st4{fill:#C2C2C2;}
	.st5{opacity:0.5;}
	.st6{opacity:0.3;}
	.st7{fill:#263238;stroke:#263238;stroke-linecap:round;stroke-linejoin:round;stroke-miterlimit:10;}
	.st8{fill:#FFFFFF;stroke:#263238;stroke-linecap:round;stroke-linejoin:round;stroke-miterlimit:10;}
	.st9{fill:#BFBFBF;stroke:#263238;stroke-linecap:round;stroke-linejoin:round;stroke-miterlimit:10;}
	.st10{fill:none;stroke:#263238;stroke-linecap:round;stroke-linejoin:round;stroke-miterlimit:10;}
	.st11{fill:#92E3A9;stroke:#263238;stroke-linecap:round;stroke-linejoin:round;stroke-miterlimit:10;}
	.st12{fill:#FFFFFF;stroke:#263238;stroke-width:2;stroke-linecap:round;stroke-linejoin:round;stroke-miterlimit:10;}
	.st13{fill:#263238;stroke:#A6A6A6;stroke-linecap:round;stroke-linejoin:round;stroke-miterlimit:10;}
	.st14{fill:#6B6B6B;stroke:#263238;stroke-linecap:round;stroke-linejoin:round;stroke-miterlimit:10;}
	.st15{fill:#263238;}
</style>
<g id="Background_Simple">
	<g>
		<path class="st0" d="M67.9,167.1c0,0-27.9,72,11.3,144.5c39.2,72.5,119.9,110.8,184.5,143.5c64.6,32.7,131.7,16.8,163.5-36.8
			c31.9-53.6-11.8-91.9-11.9-168.4c-0.1-76.5,11.4-96.7-30-161.4C344,23.9,242.3,9.6,165.5,57.5C88.6,105.5,67.9,167.1,67.9,167.1z"
			/>
	</g>
</g>
<g id="Discount">
</g>
<g id="Gift">
</g>
<g id="Update">
</g>
<g id="Heart">
</g>
<g id="Character">
	<g>
		<path class="st1" d="M282.9,26.3c0,0-82.8-13.2-150.9,44.9C63.8,129.4,41.5,223.8,21.4,299.9C1.3,375.9,33.5,443.5,97.8,465.2
			c64.2,21.6,95-33.5,176.2-51c81.2-17.5,105.4-9.9,164.6-68.6c59.2-58.7,51.3-169.9-17.1-240.7C353,34.3,282.9,26.3,282.9,26.3z"/>
		<path class="st0" d="M282.9,26.3c0,0-82.8-13.2-150.9,44.9C63.8,129.4,41.5,223.8,21.4,299.9C1.3,375.9,33.5,443.5,97.8,465.2
			c64.2,21.6,95-33.5,176.2-51c81.2-17.5,105.4-9.9,164.6-68.6c59.2-58.7,51.3-169.9-17.1-240.7C353,34.3,282.9,26.3,282.9,26.3z"/>
	</g>
	<g>
		<circle class="st2" cx="241.5" cy="110.4" r="78.6"/>
		<ellipse class="st3" cx="194.5" cy="107.8" rx="20.6" ry="21.8"/>
		
			<ellipse transform="matrix(0.7071 -0.7071 0.7071 0.7071 22.1983 181.1062)" class="st3" cx="229.7" cy="63.8" rx="17.2" ry="17.2"/>
		<ellipse class="st3" cx="229.7" cy="131.3" rx="8.8" ry="10.1"/>
		<ellipse class="st3" cx="197.8" cy="148.9" rx="7.1" ry="6.7"/>
		<ellipse class="st3" cx="255.7" cy="85.6" rx="9.7" ry="8.8"/>
		<circle class="st3" cx="259.5" cy="54.9" r="5"/>
		<path class="st3" d="M198.2,70.5c0,3.9-3.6,7.1-8,7.1c-4.4,0-8-3.2-8-7.1c0-3.9,3.6-7.1,8-7.1C194.7,63.3,198.2,66.5,198.2,70.5z"
			/>
		<ellipse class="st3" cx="230.8" cy="98.9" rx="10.7" ry="11.5"/>
		
			<ellipse transform="matrix(0.4357 -0.9001 0.9001 0.4357 -19.8659 290.5869)" class="st3" cx="221.8" cy="161.1" rx="10.5" ry="14.3"/>
	</g>
	<g>
		<g>
			<path class="st4" d="M350.4,83.1c-4-2.2-5.8-0.4-7.2-2.2c-1.4-1.8,4-6.5-6.9-11.2c0,0-0.7-10.1-15.5-10.5
				C306,58.9,310,69.4,306,71.9c-4,2.5-5.1-1.4-9,1.1c-4,2.5-2.2,7.6-5.4,8.3c-3.2,0.7-7.6-3.2-11.5-0.7c-4,2.5-4,4.7-5.8,4.7
				c-1.8,0-5.4-1.4-7.6,0c-2.2,1.4-4.7,3.2-4.7,3.2h91.3C353.3,88.5,354.4,85.3,350.4,83.1z"/>
		</g>
		<g class="st5">
			<path class="st4" d="M350.4,83.1c-4-2.2-5.8-0.4-7.2-2.2c-1.4-1.8,4-6.5-6.9-11.2c0,0-0.7-10.1-15.5-10.5
				C306,58.9,310,69.4,306,71.9c-4,2.5-5.1-1.4-9,1.1c-4,2.5-2.2,7.6-5.4,8.3c-3.2,0.7-7.6-3.2-11.5-0.7c-4,2.5-4,4.7-5.8,4.7
				c-1.8,0-5.4-1.4-7.6,0c-2.2,1.4-4.7,3.2-4.7,3.2h91.3C353.3,88.5,354.4,85.3,350.4,83.1z"/>
		</g>
	</g>
	<g>
		<g>
			<path class="st4" d="M376.1,64.8c-1.6-0.9-2.4-0.1-3-0.9c-0.6-0.7,1.6-2.7-2.8-4.6c0,0-0.3-4.1-6.4-4.3c-6.1-0.1-4.4,4.1-6.1,5.2
				c-1.6,1-2.1-0.6-3.7,0.4c-1.6,1-0.9,3.1-2.2,3.4c-1.3,0.3-3.1-1.3-4.7-0.3c-1.6,1-1.6,1.9-2.4,1.9c-0.7,0-2.2-0.6-3.1,0
				c-0.9,0.6-1.9,1.3-1.9,1.3h37.5C377.3,67,377.8,65.7,376.1,64.8z"/>
		</g>
		<g class="st5">
			<path class="st4" d="M376.1,64.8c-1.6-0.9-2.4-0.1-3-0.9c-0.6-0.7,1.6-2.7-2.8-4.6c0,0-0.3-4.1-6.4-4.3c-6.1-0.1-4.4,4.1-6.1,5.2
				c-1.6,1-2.1-0.6-3.7,0.4c-1.6,1-0.9,3.1-2.2,3.4c-1.3,0.3-3.1-1.3-4.7-0.3c-1.6,1-1.6,1.9-2.4,1.9c-0.7,0-2.2-0.6-3.1,0
				c-0.9,0.6-1.9,1.3-1.9,1.3h37.5C377.3,67,377.8,65.7,376.1,64.8z"/>
		</g>
	</g>
	<g>
		<g>
			<path class="st4" d="M214.4,115.4c-6.3-3.4-9.1-0.6-11.4-3.4c-2.3-2.8,6.3-10.2-10.8-17.6c0,0-1.1-15.9-24.5-16.5
				c-23.3-0.6-17.1,15.9-23.3,19.9c-6.3,4-8-2.3-14.2,1.7c-6.3,4-3.4,11.9-8.5,13.1c-5.1,1.1-11.9-5.1-18.2-1.1
				c-6.3,4-6.3,7.4-9.1,7.4c-2.8,0-8.5-2.3-11.9,0c-3.4,2.3-7.4,5.1-7.4,5.1h143.9C218.9,123.9,220.6,118.8,214.4,115.4z"/>
		</g>
		<g class="st5">
			<path class="st4" d="M214.4,115.4c-6.3-3.4-9.1-0.6-11.4-3.4c-2.3-2.8,6.3-10.2-10.8-17.6c0,0-1.1-15.9-24.5-16.5
				c-23.3-0.6-17.1,15.9-23.3,19.9c-6.3,4-8-2.3-14.2,1.7c-6.3,4-3.4,11.9-8.5,13.1c-5.1,1.1-11.9-5.1-18.2-1.1
				c-6.3,4-6.3,7.4-9.1,7.4c-2.8,0-8.5-2.3-11.9,0c-3.4,2.3-7.4,5.1-7.4,5.1h143.9C218.9,123.9,220.6,118.8,214.4,115.4z"/>
		</g>
	</g>
	<path class="st4" d="M39.2,387h403.2l15.1-167.7l-10-2l-0.8-44.1c-0.1-7.7-6.4-13.9-14.2-13.9l0,0c-8.2,0-14.6,6.9-14.1,15.1
		l6,94.9l-67.6,2.7c-3.6,0.1-6.5,3-6.5,6.6l-0.8,31.6l-16,1l-1-82l-18-1l1.5-31.1l-16.4,0.5l0.6-34.1c6.4-2.6,11.5-7.6,14.2-13.9
		l11.9,2.1L328,138l-11.9-2.7c-1.3-8.1-6.4-14.9-13.3-18.6l1.6-13.4l-18-2l-2,12.9c-9.2,2.2-16.6,9.3-19.1,18.5l-10.9-0.4l-2,11
		l12.4,0.9c1.6,8.6,7.3,15.7,15.1,19.2l-2.6,32h-13l-1,31l-11,1v22h-46l-1.2-15.2c-1.4-17.9-17.2-32.6-35.2-32.6h0
		c-16.5,0-28.8,13.4-27.2,29.9l2.6,28l-96,5.7c-12,0.7-21.1,11.2-20.1,23.2L39.2,387z M301.9,124.4c3.1,2.3,5.4,5.5,6.6,9.3L301,132
		L301.9,124.4z M300.5,147.3l6.8,1.2c-1.6,3-4,5.5-6.9,7.3L300.5,147.3z M283.3,121.9l-1.8,11.3l-8.8-0.3
		C274.5,128,278.4,124,283.3,121.9z M272.2,144.6l9.3,0.6l-0.8,10.4C276.6,153.3,273.5,149.3,272.2,144.6z"/>
	<g>
		<ellipse class="st6" cx="420" cy="434" rx="62" ry="10.5"/>
		<g>
			<path class="st7" d="M349,87.7c0,0-6.4,6.4-11,13.7c-4.6,7.3-2.2,18.6-2,21c0.2,2.4,0.7,6.8,0.7,6.8l3.4-6.4
				c0,0,1.7,12.7,1.7,15.6c0,2.9,1.2,14.7,1.2,14.7l4.9-7.3c0,0,2.7,6.4,2.9,8.8c0.2,2.4,2.2,7.6,2.2,7.6s11.2,9,11.5,10.8
				c0.2,1.7,2.2-4.2,2.2-4.2l7.8,5.6c0,0,2.2-8.1,4.4-13.7s13-13.2,14.7-23c1.7-9.8,4.6-17.3,1.7-26.6c-2.9-9.3-17.6-24.2-27.1-24.9
				C358.8,85.5,349,87.7,349,87.7z"/>
			<path class="st8" d="M368.6,209.5c0,0-1.6,13.4-1.6,14.8c0,1.4-0.7,3.2-2.5,3.9c-1.8,0.7-3.9,0.5-3.2,2.8c0.7,2.3,3,4.8,4.8,5.3
				c1.8,0.5,4.8-4.2,4.8-4.2s2.8,2.3,3,3c0.2,0.7,5.5-0.2,6-2.5c0.5-2.3,0.9-3.7-0.9-5.3c-1.8-1.6-4.2-1.8-4.6-3.2
				c-0.5-1.4,0.2-17.1,0.2-17.1l-5.5-1.2l-0.2,2.5L368.6,209.5z"/>
			<g>
				<path class="st7" d="M450.5,375.9c0,0,1.8,3.2,3.5,4.4c1.6,1.2,2.5,1.8,4.8,1.8c2.3,0,5.1,0,6-0.9c0.9-0.9,1.8,0,1.2,0.5
					c-0.7,0.5-2.1,1.6-2.8,3.9c-0.7,2.3-0.7,6.2-0.7,6.2H460c0,0,0,3.9,0,4.6c0,0.7,1.6,2.5,1.8,4.2c0.2,1.6,1.4,2.3,0.2,1.6
					c-1.2-0.7-6.7-6.9-8.8-7.2c-2.1-0.2-4.6-0.9-4.6-0.9s-5.1-14.1-7.8-19.4c-2.8-5.3-5.3-11.1-5.3-11.1s5.8-0.7,6.5-0.5
					c0.7,0.2,4.2,5.1,4.2,5.1L450.5,375.9z"/>
				<g>
					<path class="st9" d="M417.5,324.4c0,0-1.2,11.1-0.7,14.3c0.5,3.2,4.2,6.2,5.3,8.1c1.2,1.8,3,6.9,5.3,12.5
						c2.3,5.5,17.5,46.4,18,47.5c0.5,1.2-2.3,3.7-2.1,5.8c0.2,2.1,0.9,2.8,0.2,4.6c-0.7,1.8-3.5,8.3-6.2,10.8
						c-2.8,2.5-7.6,4.4-7.8,7.4c-0.2,3,3,4.2,5.1,4.8s7.4,0.9,8.8-1.4c1.4-2.3,1.2-2.8,1.8-3.5c0.7-0.7,1.8-1.6,1.8,0.2
						c0,1.8-0.7,3.7,0.7,4.4c1.4,0.7,4.6,0.5,5.5-0.2c0.9-0.7,1.8-1.8,1.8-1.8s1.8,1.6,4.4,1.4c2.5-0.2,3.5-3.2,3.5-3.2
						s0.9,2.5,4.2,0.9s2.3-4.8,2.3-4.8l-0.7,1.2c0,0,4.6,0.9,4.4-2.8c-0.2-3.7-6.7-5.3-6.7-5.3s-3.2-4.2-5.1-7.4
						c-1.8-3.2-3.7-7.2-3.7-7.2s0.7-1.6,0-3.5c-0.7-1.8-3.2-4.4-3.2-4.4s-6.7-27.2-9-31.6c-2.3-4.4-4.8-10.6-4.8-10.6
						s-2.8-10.2-2.5-14.1c0.2-3.9,1.2-5.1-0.7-7.2c-1.8-2.1-3.2-3.9-3.9-5.3c-0.7-1.4-1.6-2.8-2.5-4.4s-2.3-3.5-3.5-4.4
						c-1.2-0.9-2.5-2.5-4.8-2.8c-2.3-0.2-5.3,0.7-5.5,2.8"/>
					<g>
						<path class="st10" d="M443.1,433.8c0,0-5.1-3.5-8.5-1.8c-3.5,1.6-1.6,2.3,2.8,3C441.8,435.6,443.8,437.5,443.1,433.8z"/>
						<path class="st10" d="M452.6,435.2c0,0-5.8,0.5-3.9,1.4C450.5,437.5,454.7,437,452.6,435.2z"/>
						<path class="st10" d="M460.2,434.5c0,0.6-1,1.2-2.2,1.2c-1.2,0-2.2-0.5-2.2-1.2c0-0.6,1-1.2,2.2-1.2
							C459.2,433.3,460.2,433.8,460.2,434.5z"/>
						<path class="st10" d="M463.9,433.8c0,0.5,0.9,0.9,2,0.9s2-0.4,2-0.9c0-0.5-0.9-0.9-2-0.9S463.9,433.3,463.9,433.8z"/>
						<path class="st10" d="M469,429.7c0,0.3,0.4,0.6,0.9,0.6c0.5,0,0.9-0.3,0.9-0.6s-0.4-0.6-0.9-0.6
							C469.4,429.2,469,429.4,469,429.7z"/>
						<line class="st10" x1="455.1" y1="437.9" x2="453.8" y2="432.2"/>
						<line class="st10" x1="463" y1="436.1" x2="461.4" y2="431.2"/>
						<path class="st10" d="M445.2,426.2c0,0,7.8-0.5,11.3,0.5"/>
						<path class="st10" d="M453.3,423.4c0,0,6-0.5,9.2,0.9"/>
					</g>
				</g>
				<polygon class="st8" points="392,301.7 395.3,316.2 403.7,311.1 408.3,286 398.4,290 				"/>
				<g>
					<path class="st9" d="M377.6,386.9c0,0-0.5,8.1-2.1,11.8c-1.6,3.7-5.3,7.8-5.3,11.1c0,3.2,1.4,5.3,1.6,7.2
						c0.2,1.8-2.5,11.5-3.5,13.8c-0.9,2.3-2.3,5.8-1.2,7.4c1.2,1.6,1.8,2.5,3,1.6c1.2-0.9,1.2-2.3,1.2-2.3s0.5,2.1,1.6,2.1
						c1.2,0,3.5-2.1,3.5-2.1s0,1.8,1.6,1.8s3.9-2.5,3.9-2.5s1.2,3.7,3.5,3c2.3-0.7,3-2.5,3-2.5s3,2.1,5.1,2.1s4.6-1.2,4.4-4.2
						c-0.2-3-8.1-5.3-8.1-5.3s-1.4-4.8-3-8.3c-1.6-3.5-2.5-7.8-2.5-9.7c0-1.8-0.2-9.9-0.2-11.8c0-1.8,3.9-12.7,3.9-12.7
						s4.4-16.4,3.5-19.8c-0.9-3.5-8.8-4.6-10.8,1.8C378.5,375.9,377.6,386.9,377.6,386.9z"/>
					<g>
						<path class="st10" d="M396.1,434.2c0,0-0.7-2.3-4.8-1.2c-4.2,1.2-2.8,1.4-0.5,2.5C393.1,436.8,397.5,435.8,396.1,434.2z"/>
						<path class="st10" d="M386.8,435.4c0,0-5.8,0.5-3.7,1.4c2.1,0.9,3.9,0,3.9,0"/>
						<path class="st10" d="M380.4,435.2c0,0-3-1.4-2.3,0.2C378.8,437,381.5,435.8,380.4,435.2z"/>
						<path class="st10" d="M375.3,434.9c0,0-4.6-0.9-3,0.7c1.6,1.6,3.5-0.9,3-1.6"/>
						<path class="st10" d="M370.2,434.7c-0.6-0.4-3.7,1.2-2.3,1.8C369.3,437.2,372.1,436.1,370.2,434.7z"/>
						<line class="st10" x1="388.5" y1="437.2" x2="385.2" y2="431.5"/>
						<line class="st10" x1="382" y1="436.8" x2="381.3" y2="432.4"/>
						<line class="st10" x1="376.5" y1="437.5" x2="376.2" y2="433.3"/>
					</g>
				</g>
				<path class="st11" d="M393.3,251.9c0,0-1.6,10.8-1.6,15.2c0,4.4-1.2,21.5-1.2,24.7s0,5.3,0,7.6c0,2.3,0,6.9,0,6.9
					s1.8-1.4,4.4-3.9c2.5-2.5,7.4-6.5,8.1-7.6c0.7-1.2,3.2-3.5,3.2-3.5s-11.8,23.3-12.5,24.5c-0.7,1.2,0,2.8,0,2.8
					s3.9,10.8,3.5,11.8c-0.5,0.9-2.8,4.8-2.1,6.2c0.7,1.4,1.2,2.8,1.2,2.8s-2.5-2.3-3.9-0.2c-1.4,2.1-1.4,5.5-1.4,5.5
					s-4.6,3.5-7.2,8.5c-2.5,5.1-6,11.1-6,12.7s0.7,2.5-0.5,9.2c-1.2,6.7-0.7,20.8-1.8,23.5c-1.2,2.8,0.2-1.2,2.1-4.4
					c1.8-3.2,3.5-4.6,3.9-8.1c0.5-3.5,3.7-11.1,3.7-11.1s-0.5,5.5-0.5,9c0,3.5-1.2,6.5-1.6,8.3c-0.5,1.8-0.5,3.7,0,4.8
					c0.5,1.2,1.6,3.5,1.8,4.8c0.2,1.4,0.2,4.8,0.2,4.2c0-0.7,3.2-2.8,4.6-1.2c1.4,1.6,3.5,4.8,3.5,4.8s0.2,3.2,0.2,2.5
					s0.2-4.8,1.2-8.1s2.3-3.2,1.6-4.4c-0.7-1.2-4.8-5.1-5.8-7.4c-0.9-2.3-2.3-0.9-0.7-3.7c1.6-2.8,1.4-2.3,3.2-5.8
					c1.8-3.5,2.5-3.9,3.2-5.5c0.7-1.6,1.8,1.6,1.8,1.6s0,5.1,0,6c0,0.9,2.8,5.3,2.8,5.3s0.2-1.8,0.2-7.6c0-5.8-1.2-4.6,0-10.2
					c1.2-5.5,2.3-8.3,3.2-11.8c0.9-3.5,5.3-10.4,6.9-16.4s1.6-9.5,1.6-15s-0.2-11.3,0-15c0.2-3.7,1.6-18.7,1.8-23.5
					c0.2-4.8,1.8-13.2,1.8-14.5c0-1.4,0-3.2,0-3.2s4.4,1.6,6.7,7.6c2.3,6,1.8,13.4,0.5,16.2c-1.4,2.8-6.2,21-6.5,24.7
					c-0.2,3.7-0.7,6.2-0.7,6.2s3.2-1.2,4.8-0.7c1.6,0.5,3,0,3.9,2.1c0.9,2.1,1.8,5.5,1.8,5.5s2.5-2.1,3.7-0.7c1.2,1.4,2.5,2.3,3,3.2
					c0.5,0.9,0.5-0.2,0.5,1.8s0,5.1,0,6.5c0,1.4,2.1,2.5,1.8,3.2c-0.2,0.7-2.8,2.3-3.2,3c-0.5,0.7,0.7-1.4-2.5,1.8
					c-3.2,3.2-3,4.8-6,5.1c-3,0.2-4.4-0.5-4.2,0.2c0.2,0.7,6.5,8.1,7.8,12.7c1.4,4.6,3.9,9.5,3.9,11.8c0,2.3,4.6-2.1,5.3-2.8
					c0.7-0.7,2.5-3.7,3.2-4.2c0.7-0.5,2.1-0.2,2.1-1.2s0.5-4.8,0.7-6c0.2-1.2,2.3,0.5,2.8,1.8c0.5,1.4,1.6,0.9,2.3,2.5
					c0.7,1.6,3.2,4.2,3.2,4.2s-4.8-9.7-6.5-15.5c-1.6-5.8-2.1-16.6-1.4-18.5c0.7-1.8-3.7-2.1-3.7-2.1s2.3-2.8,1.4-4.6
					c-0.9-1.8-4.4-1.4-5.3-3c-0.9-1.6-3.2-5.8-3.2-5.8s4.2-3.9,14.3-29.1c10.2-25.2,9.2-31.4,9.2-41.8c0-10.4,0.6-23.4-6.1-27.6
					c-6.7-4.2-6.8,13.3-15.5,13.3c-8.8,0-26.1-0.5-30.7-0.5s-4.4,0.2-6.5,1.4C395.6,245.7,393.3,251.9,393.3,251.9z"/>
				<path class="st7" d="M427.2,335c0,0-1-2.6-1.2-6.3c-0.2-3.7,1.4-3.4,1.4-3.4s-1.8,0.4-3.1,0.4c-1.2,0-4.9-2.5-4.9-2.5
					s0.2,1.8-0.8,1.8c-1,0-3.7,1.2-3.7,1.2l-1.4,1.2l1.2,1.2c0,0-0.8,1.6-1.6,1.8c-0.8,0.2-0.4,1-1.2,1.8c-0.8,0.8-1.6,5.7-1.6,5.7
					s3.1-3.7,4.7-4.5c1.6-0.8,5.7,0.4,5.7,0.4s0.4-2,1.8-1C424,334.1,427.2,335,427.2,335z"/>
				<path class="st7" d="M436.2,349.1c0,0-0.4,1.9-1.2,3.2c-0.8,1.2-0.4,3.9-1.6,3.9c-1.2,0-1.8,1-2,1.8c-0.2,0.8-0.8,4.5-0.8,4.5
					s-2.5-2-3.7-1.8c-1.2,0.2-4.3-1-4.3-1l-1.6-0.6c0,0,4.8-1.9,7.2-3.5C430.4,353.9,433.5,349.2,436.2,349.1z"/>
				<line class="st10" x1="412.7" y1="266.1" x2="414.5" y2="266.9"/>
				<line class="st10" x1="400.7" y1="260.5" x2="410.1" y2="264.9"/>
				<path class="st7" d="M416.6,273.4c-2.3-2.3-9.5-5.3-9.5-5.3l9.2,9.9L416.6,273.4z"/>
				<path class="st10" d="M441.6,263.8c0.8-0.8,1.6-1.7,2.3-2.7"/>
				<path class="st10" d="M426.5,273.6c0,0,6.7-2.8,12.3-7.4"/>
				<path class="st10" d="M439.7,261.4c0,0-4.8,4.8-9.9,7.6"/>
				<path class="st7" d="M406.2,291.4c0,0-1.4,3.2-1.4,7.8c0,4.6,1.2,9.7,0.2,10.4c-0.9,0.7-1.8,0-1.4,2.8c0.5,2.8,1.4,6,1.4,6
					s-1.8-0.7-2.5-0.7c-0.7,0-2.5,1.6-2.5,1.6l-0.5,3.2c0,0-3.2-3.7-4.2-2.5c-0.9,1.2-0.9,2.5-1.6,3.2c-0.7,0.7-1.6,5.8-1.6,5.8
					s-0.7-6-0.7-7.2c0-1.2,0.9-5.5,0.9-5.5L406.2,291.4z"/>
				<path class="st7" d="M405.3,292.3c0,0-3.2,2.5-7.2,4.2s-8.5,2.3-8.5,2.3l-0.2,2.8c0,0-0.9,1.2-1.8,1.4c-0.9,0.2-2.3,1.4-2.3,1.4
					l-0.7,2.8l3.2,2.5l1.6,4.2l1.8-5.5l0.2-2.5L405.3,292.3z"/>
				<path class="st10" d="M396.3,339.4c0,0,2.8,3.5,3.5,5.1"/>
				<path class="st10" d="M391,344.7c0,0,1.2,6.9,2.3,10.8"/>
			</g>
			<path class="st7" d="M366.1,151.7c0,0-5.6,5.1-4.9,11c0.7,5.9,3.7,19.1,3.9,24.7c0.2,5.6,1.7,12.7,0.5,15.9
				c-1.2,3.2-2.7,8.3-2.7,8.3s3.7,0,4.9,0.7c1.2,0.7,2.9,2.2,2.9,2.2l2.2-4.4c0,0,1.7,5.4,1.7,4.6c0-0.7,2-6.1,2-6.1l5.9,1.5
				l0.7-3.7l2.2,2.7l1.5-2.9l-2.7-10.5c0,0,5.9,10.3,8.3,12.5c2.4,2.2,4.9,3.2,5.9,7.3c1,4.2,2.2,7.3,1,12.7
				c-1.2,5.4-3.4,11.5-5.4,15.1c-1.8,3.3-4.4,9.3-4.8,10.4c0,0.1-0.1,0.1-0.1,0.1l8.6,1l4.6-6.6v5.9c0,0,0.7,0,5.9,1.2
				c5.1,1.2,6.1,1.5,8.1,1c2-0.5,5.6-0.5,6.8-0.7c1.2-0.2,6.8-2.7,6.8-3.4s1.7-4.9,1.7-4.9l1.2,3.7l3.9-4.4c0,0,0,4.6,0,5.9
				c0,1.2,0,4.2,0,4.2l2.7-2.7l3.4,1.7l2.9,2.7c0,0-1.2-2.7,0.2-6.1c1.5-3.4,7.6-5.9,7.6-5.9s-0.5-4.2-0.5-4.9s0.5-2.4,0.5-2.4
				l0.5-1c0,0,1.7,0.7,2.2,3.7s2,10,2,10s0.5-4.9,1.5-7.6c1-2.7,3.9-5.1,3.9-5.1s-3.9-1.5-5.4-4.4c-1.5-2.9-4.4-9.3-5.4-14.2
				c-1-4.9-5.4-30.5-9.3-40.3c-3.9-9.8-6.6-18.1-10.3-23.5c-3.7-5.4-12.5-14.7-23.2-22c-10.8-7.3-17.6-2.2-20.5,2.7
				c-2.9,4.9-3.7,10-6.4,12C380.5,151.2,371.7,146.1,366.1,151.7z"/>
			<path class="st10" d="M375.9,151.4c0,0,6.8,5.9,8.3,8.3c1.5,2.4,3.4,8.1,4.4,6.8c1-1.2,2.7-7.6,2.2-14.2
				c-0.5-6.6-1.7-11.7-3.9-14.4c-2.2-2.7-4.2-4.4-4.2-4.4s-1,5.6-3.9,8.8c-2.9,3.2-4.2,5.1-4.2,5.1L375.9,151.4z"/>
			<g>
				<path class="st9" d="M346.8,106.5c0,0,1.7,9.3,1.5,12c-0.2,2.7-2.9,6.4-0.5,9.5c2.4,3.2,6.4,2.9,7.1,5.9
					c0.7,2.9,0.5,6.1,1.7,8.6c1.2,2.4,2.7,1.2,4.2,6.4c1.5,5.1,2.7,7.8,4.9,8.6c2.2,0.7,4.9,1.7,7.1,0c2.2-1.7,6.6-6.1,8.3-7.8
					c1.7-1.7,3.9-6.4,4.2-9.8c0.2-3.4,0-4.9,2.4-7.8c2.4-2.9,5.1-4.4,6.8-9.8c1.7-5.4-2.9-7.8-4.9-19.3c-2-11.5-0.2-18.1-7.8-20.8
					c-7.6-2.7-10-6.1-18.6-0.5c-8.6,5.6-9.5,9-11.5,12.7C349.7,97.9,346.8,106.5,346.8,106.5z"/>
				<path class="st8" d="M365,145c0,0,0.8,1.8,1.4,3.7c0.6,2,0.2,3.1,0.8,4.7c0.6,1.6,0.6,4.3,0.6,4.3s-0.6,5.5,0,6.9
					c0.6,1.4,2.4,0.6,2.4-1c0-1.6-0.2-3.3,0.2-4.5c0.4-1.2,1.8-1.8,1.8-1.8s0,3.7,1,2.2c1-1.6,0.8-6.3,0.8-6.3l0.2-1
					c0,0,0.8,0,0.6-1.4c-0.2-1.4,0.6-1.4-0.6-2.9c-1.2-1.6-5.3-3.5-7.1-4.9C365.2,141.6,364.2,143.4,365,145z"/>
				<path class="st12" d="M381.7,117.7c0,3.4-2.7,6.1-6.1,6.1c-3.4,0-6.1-2.7-6.1-6.1c0-3.4,2.7-6.1,6.1-6.1
					C379,111.6,381.7,114.4,381.7,117.7z"/>
				<circle class="st12" cx="357.2" cy="117.6" r="3.3"/>
				<path class="st7" d="M363.4,126.8c0,0,1,2-0.2,2.9s-3.2,1.2-1.2,2.2c2,1,2.7,2.9,3.9,2.9c1.2,0,5.4-2.2,5.1-3.7
					c-0.2-1.5-2.2-1.5-2.9-3.4C367.3,125.8,364.6,124.8,363.4,126.8z"/>
				<path class="st10" d="M361.2,113.6c0,0,2.9,2.4,1.2,8.6c-1.7,6.1-6.4,6.6-8.3,4.9"/>
				<path class="st10" d="M368.3,119.2c0,0,0.5,10.3,8.6,10"/>
				<path class="st10" d="M351,113.3c0,0,4.6-2.4,8.8-3.9"/>
				<path class="st10" d="M369,108.7c0,0,7.1,0,11.2,3.2"/>
				<path class="st7" d="M360.7,139.7c0,0,8.3,3.4,11.2,6.8s3.2,4.4,0.2,5.4s-4.9-2.9-6.8-6.4C365.4,145.6,364.2,143.1,360.7,139.7z
					"/>
				<path class="st10" d="M386.4,129.7c0,0-5.6,2.4-7.8,2.9c-2.2,0.5-2.7,2.7-1.5,5.1c1.2,2.4,3.9,6.8,1.5,10.3"/>
				<path class="st10" d="M364.9,109.7c-0.7-0.2-2.2-0.5-2.7-2.9c-0.5-2.4-1.2-6.1-1.2-6.1"/>
			</g>
			<path class="st7" d="M363.7,89.9c0,0,0.5,7.6,1.2,10.5c0.7,2.9,1,9.3,1,9.3s2.2-5.4,2.9-8.3c0.7-2.9,6.6-15.4,6.6-15.4
				s-1,10.5,0.2,13.4c1.2,2.9,3.9,6.1,4.2,7.1c0.2,1,0-3.4,0.2-4.6c0.2-1.2,3.2-7.3,3.2-7.3s1.2,10.3,2.4,15.6
				c1.2,5.4,3.4,11,3.7,13.2c0.2,2.2,0.2,11.5,0.2,11.5l1.5,8.8l4.9-5.1c0,0,2,5.1,2.2,4.2c0.2-1,5.1-5.1,5.6-7.6s2-5.4,2-5.4
				l0.2-8.3v-2.2l3.4,4.6c0,0,0-11.2-1-18.1c-1-6.8-2.4-12-6.6-16.9c-4.2-4.9-17.1-15.4-18.1-16.4c-1-1-13-1.7-19.3,0
				c-6.4,1.7-9.5,3.4-14.9,8.3c-5.4,4.9-1.5,11-2.2,11.5c-0.7,0.5-2.2,8.3-2.7,9.8c-0.5,1.5-0.7,7.8-0.7,9c0,1.2,0,8.1,0,8.1
				s3.7-10,4.4-11.5c0.7-1.5,8.1-9,9.3-10.5C358.8,95.7,363.7,89.9,363.7,89.9z"/>
			<path class="st7" d="M398.4,174.7l11.7,1c0,0,3.7-5.1,5.1-5.9c1.5-0.7,4.9,0.2,6.4,2c1.5,1.7,4.2,4.4,5.1,5.1
				c1,0.7,0.5,1.2,1,0.7c0.5-0.5,1.2-4.6,2-6.1c0.7-1.5,3.2-0.7,3.2-0.7l-2.4-7.1c0,0-5.1-5.9-13.2-7.1c-8.1-1.2-15.1,1.5-15.9,5.4
				s-1,6.6-1.5,7.8C399.3,171,398.4,174.7,398.4,174.7z"/>
			<g>
				<path class="st9" d="M343.9,170.8c0,0-4.2,2.7-6.4,2.7c-2.2,0-7.3-1.7-9.5-1.7c-2.2,0-4.6,1.7-6.8,2.2c-2.2,0.5-1.5,3.2,0,3.4
					c1.5,0.2,5.6-1.5,6.6-1.7c1-0.2,4.4,2,5.1,2s2.2,0.2,5.1-0.5C340.9,176.4,343.9,170.8,343.9,170.8z"/>
				<path class="st9" d="M402,166.6l7.8,15.9c0,0-14.7-4.4-33-12.2c-18.3-7.8-22.2-12-27.9-9.3c-5.6,2.7-6.1,9-8.3,12
					c-2.2,2.9-5.9,3.7-11,3.7c-5.1,0-8.3-1.2-8.6,0.7c-0.2,2-1,8.3-1,10.8s1.5,7.1,2.9,7.3c1.5,0.2,4.2-1.5,2.9-3.2
					c-1.2-1.7-1.7-3.4-1.7-3.4l2-7.1l4.2,1c0,0-1.5,8.1-1.5,8.8c0,0.7,2.4,5.6,3.2,6.4c0.7,0.7,4.4,0.2,4.6-2.4c0.2-2.7-2-2.9-2-2.9
					l0.5-6.4c0,0,5.9-3.2,6.8-2.9c1,0.2,2.4,3.4,1.2,4.9c-1.2,1.5-2.4,2.4-2.4,4.6c0,2.2,1.2,6.1,1.5,7.6c0.2,1.5,3.2,2.4,3.9,1.2
					c0.7-1.2,0-3.9,0-3.9s-0.7,0-0.7-1.2c0-1.2,1.7-6.1,1.7-6.1s2.7-4.4,2.9-5.6c0.2-1.2,2-2.9,2-2.9s2.4-2.7,3.2-5.6
					c0.7-2.9,2-8.1,2-8.1s14.4,10.3,21.5,15.4c7.1,5.1,29.1,14.7,33.5,18.6c4.4,3.9,15.1,0.5,18.6,1.5c3.4,1,6.6,2.2,7.1-1.5
					c0.5-3.7-0.7-6.8-2-8.8c-1.2-2-3.4-6.6-5.6-11.7c-2.2-5.1-10-25.9-10-25.9s-11-1-15.4,2.7C400.6,162,402,166.6,402,166.6z"/>
				<path class="st10" d="M320.2,189c0,0,2.5-9.9,3-10.8c0.5-0.9,1.4-1.6,2.3-1.6"/>
				<path class="st10" d="M330.4,182.7c0,0,1-2.2,2-2.2c1,0,4.6-0.5,5.6-1c1-0.5,3.2-2,3.2-2"/>
				<path class="st10" d="M409.8,182.5c0,0,8.3,1.5,12.7,2.9c4.4,1.5,11.2,6.6,11.2,6.6"/>
				<path class="st10" d="M413.5,194c0.7,0,17.3,5.4,18.6,3.2c1.2-2.2,0-4.4,0-4.4"/>
			</g>
			<path class="st13" d="M409.6,136.5c0,0-7.8-9-16.4-5.9c-8.6,3.2-7.8,14.4-2.4,21.7c5.4,7.3,5.9,11,6.4,14.4
				c0.5,3.4,1.2,7.8,1.2,7.8s2.9-2,4.6-2s1.2-2,2.2-4.9c1-2.9,1.7-4.6,4.2-5.1c2.4-0.5,3.7-1.7,7.1-0.5c3.4,1.2,5.6,3.2,5.6,3.2
				l-0.5-4.6c0,0,4.6,2.7,4.9,3.4c0.2,0.7,3.9,4.2,3.9,4.2v-4.6l4.2,4.2c0,0-11-13.9-15.1-19.3C415.2,143.1,409.6,136.5,409.6,136.5
				z"/>
		</g>
	</g>
	<g>
		<path class="st7" d="M347.9,379.5c-1.2-2.9-4.2,0-4.2,0s0-6.7-2.1-8.7c-2.1-2.1-7.1,2.5-7.1,2.5s-1.2-7.9-9.2-8.3
			c-0.3,0-0.5,0-0.7,0c-0.2-0.5-0.5-0.9-0.8-1.2c-2.3-2.3-7.9,2.8-7.9,2.8s-1.4-8.9-10.3-9.3c-8.9-0.5-9.3,7-9.3,7
			c-3.3-7.5-11.9-8.1-14.4-2.4c-1.4,3.3-1,5.7-1,5.7s-2.8-1.4-5.1-0.9c-2.3,0.5-4.7,6.1-4.7,6.1s-1.3-1.5-3.1-3.1
			c-0.4-0.5-0.9-1-1.5-1.3c-0.1,0-0.2-0.1-0.2-0.1c-1.3-1-2.7-1.8-4.1-2.1c-3.8-0.8-5.7,3.2-6,4c0,0-0.1,0-0.1-0.1
			c-0.2-0.7-1-3-4.1-5.4c-3.7-2.8-7.9,3.7-7.9,3.7s-0.9-5.6-4.2-7.5c-3.3-1.9-8.4,4.7-8.4,4.7s-3.7-5.1-9.8-2.8
			c-6.1,2.3-4.2,8.4-4.2,8.4s-7-5.6-9.3-1.9c-1.6,2.6-0.5,7,0.3,9.4h29.1c0,1.9,0.5,4,1,5.4h109.7
			C348.6,382.9,348.6,381.1,347.9,379.5z"/>
		<path class="st7" d="M314.4,378.8c-1.2-2.9-4.2,0-4.2,0s0-6.7-2.1-8.7c-2.1-2.1-7.1,2.5-7.1,2.5s-1.2-7.9-9.2-8.3
			c-0.3,0-0.5,0-0.7,0c-0.2-0.5-0.5-0.9-0.8-1.2c-2.3-2.3-7.9,2.8-7.9,2.8s-1.4-8.9-10.3-9.3c-8.9-0.5-9.3,7-9.3,7
			c-3.3-7.5-11.9-8.1-14.4-2.4c-1.4,3.3-1,5.7-1,5.7s-2.8-1.4-5.1-0.9c-2.3,0.5-4.7,6.1-4.7,6.1s-1.3-1.5-3.1-3.1
			c-0.4-0.5-0.9-1-1.5-1.3c-0.1,0-0.2-0.1-0.2-0.1c-1.3-1-2.7-1.8-4.1-2.1c-3.8-0.8-5.7,3.2-6,4c0,0-0.1,0-0.1-0.1
			c-0.2-0.7-1-3-4.1-5.4c-3.7-2.8-7.9,3.7-7.9,3.7s-0.9-5.6-4.2-7.5c-3.3-1.9-8.4,4.7-8.4,4.7s-3.7-5.1-9.8-2.8
			c-6.1,2.3-4.2,8.4-4.2,8.4s-7-5.6-9.3-1.9c-1.6,2.6-0.5,7,0.3,9.4h29.1c0,1.9,0.5,4,1,5.4h109.7
			C315,382.2,315.1,380.4,314.4,378.8z"/>
		<g>
			<path class="st14" d="M315.4,396l-123.3-12.9l9.4-90.5c3.6-34.1,34-58.8,68.1-55.2h0c34.1,3.6,58.8,34,55.2,68.1L315.4,396z"/>
			<path class="st14" d="M304.7,381.5l-99.1-10.3l7.9-76.1c2.9-27.4,27.4-47.2,54.7-44.4h0c27.4,2.9,47.2,27.4,44.4,54.7
				L304.7,381.5z"/>
			<g>
				<g>
					<path class="st7" d="M239.8,314c-0.2-0.9-0.3-1.4,0-4.1l0.5-5.2c0.3-3.1-0.6-4.3-3-4.6l-1.8-0.2l-1.4,13.5l-5.2-0.5l3.5-33.2
						l7.9,0.8c5.4,0.6,7.5,3.3,6.9,8.4l-0.3,2.6c-0.4,3.4-1.7,5.5-4.1,6.4c2.5,1.4,3.1,4,2.7,7.4l-0.5,5.1c-0.2,1.6-0.2,2.8,0.1,4.1
						L239.8,314z M237.1,284.9l-1.1,10.2l2,0.2c1.9,0.2,3.2-0.5,3.5-3.2l0.3-3.3c0.2-2.4-0.5-3.5-2.3-3.7L237.1,284.9z"/>
					<path class="st7" d="M253.5,310.3l-0.5,5l-5-0.5l0.5-5L253.5,310.3z"/>
					<path class="st7" d="M260.2,282.5l5.2,0.5l-3.5,33.2l-5.2-0.5L260.2,282.5z"/>
					<path class="st7" d="M271.3,312.2l-0.5,5l-5-0.5l0.5-5L271.3,312.2z"/>
					<path class="st7" d="M292.7,294.2l-0.5,4.3c-0.6,5.3-3.4,7.9-8.6,7.4l-2.5-0.3l-1.3,12.5l-5.2-0.5l3.5-33.2l7.7,0.8
						C291,285.7,293.2,288.9,292.7,294.2z M282.8,289.7l-1.2,11.2l2.5,0.3c1.7,0.2,2.6-0.5,2.9-2.9l0.5-5c0.2-2.4-0.6-3.2-2.2-3.4
						L282.8,289.7z"/>
					<path class="st7" d="M294.5,314.6l-0.5,5l-5-0.5l0.5-5L294.5,314.6z"/>
				</g>
				<polygon class="st7" points="274.2,263.2 268.3,262.6 268.9,256.7 262.4,256 261.8,261.9 255.8,261.3 255.2,267.8 261.1,268.4 
					260.5,274.3 267,275 267.6,269.1 273.5,269.7 				"/>
			</g>
			<g>
				<g>
					<path class="st14" d="M240,312c-0.2-0.9-0.3-1.4,0-4.1l0.5-5.2c0.3-3.1-0.6-4.3-3-4.6l-1.8-0.2l-1.4,13.5l-5.2-0.5l3.5-33.2
						l7.9,0.8c5.4,0.6,7.5,3.3,6.9,8.4l-0.3,2.6c-0.4,3.4-1.7,5.5-4.1,6.4c2.5,1.4,3.1,4,2.7,7.4l-0.5,5.1c-0.2,1.6-0.2,2.8,0.1,4.1
						L240,312z M237.3,282.9l-1.1,10.2l2,0.2c1.9,0.2,3.2-0.5,3.5-3.2l0.3-3.3c0.2-2.4-0.5-3.5-2.3-3.7L237.3,282.9z"/>
					<path class="st14" d="M253.7,308.3l-0.5,5l-5-0.5l0.5-5L253.7,308.3z"/>
					<path class="st14" d="M260.4,280.5l5.2,0.5l-3.5,33.2l-5.2-0.5L260.4,280.5z"/>
					<path class="st14" d="M271.5,310.2l-0.5,5l-5-0.5l0.5-5L271.5,310.2z"/>
					<path class="st14" d="M292.9,292.2l-0.5,4.3c-0.6,5.3-3.4,7.9-8.6,7.4l-2.5-0.3l-1.3,12.5l-5.2-0.5l3.5-33.2l7.7,0.8
						C291.2,283.7,293.4,286.9,292.9,292.2z M283,287.7l-1.2,11.2l2.5,0.3c1.7,0.2,2.6-0.5,2.9-2.9l0.5-5c0.2-2.4-0.6-3.2-2.2-3.4
						L283,287.7z"/>
					<path class="st14" d="M294.7,312.6l-0.5,5l-5-0.5l0.5-5L294.7,312.6z"/>
				</g>
				<polygon class="st14" points="274.4,261.2 268.5,260.6 269.1,254.7 262.6,254 262,259.9 256.1,259.3 255.4,265.8 261.3,266.4 
					260.7,272.4 267.2,273 267.8,267.1 273.7,267.7 				"/>
			</g>
			<polyline class="st10" points="310.3,281.6 310.3,282.1 307.6,284.9 305.6,287.7 303,290.5 302.2,294.8 300.5,297.3 299,299.2 
				298.2,300.5 			"/>
			<path class="st7" d="M317.9,271l-1.9,4.9l-5.4,2.8l-0.3,2.9l2.3-1.8l1.4,0c0,0,1.8,1,2.3,0s1.4-2.7,1.8-3.3
				c0.3-0.5,0.9-1.5,0.9-1.5l0.4-1.4L317.9,271z"/>
			<polyline class="st10" points="305.6,287.7 306.7,291.9 309.8,296.9 307.9,303.1 307.7,308.1 			"/>
			<path class="st10" d="M207.9,271.5l2.8,5l4.5,8.2l-2.1,4.5c0,0,0.2,5,0.4,5.9c0.2,0.9,3,6.5,3,6.5l-0.3,6.3c0,0,0.2,4.4,1.7,6.2
				c1.5,1.8,3.5,4.7,4.1,5.8c0.6,1.1,2.8,5,2.7,6.3c-0.1,1.3,1.6,7.2,1.6,7.2"/>
			<polyline class="st10" points="219,315.9 218.9,323.9 216.3,329.7 218.1,337.6 219.9,343.5 			"/>
			<path class="st10" d="M255.1,237.2l-0.5,5l3.1,2.7l1.1,5.1l-3.1,4.4l-4.4,3.6c0,0-1.5,5.2-1.4,6.6c0.2,1.4-0.5,8-0.5,8l-4.5,4.2"
				/>
			<polygon class="st7" points="218.9,323.9 221.9,320.6 218.7,315.4 			"/>
		</g>
		<path class="st7" d="M362,406l-24.5-3.2l10.3-3.9l0,0h17.3c0.2-1.3,0.2-3.1-0.4-4.7c-1.2-2.9-4.2,0-4.2,0s0-6.7-2.1-8.7
			c-2.1-2.1-7.1,2.5-7.1,2.5s-1.2-7.9-9.2-8.3c-0.3,0-0.5,0-0.7,0c-0.2-0.5-0.5-0.9-0.8-1.2c-2.3-2.3-7.9,2.8-7.9,2.8
			s-1.4-8.9-10.3-9.3c-8.9-0.5-9.3,7-9.3,7c-3.3-7.5-11.9-8.1-14.4-2.4c-1.4,3.3-1,5.7-1,5.7s-2.8-1.4-5.1-0.9
			c-2.3,0.5-4.7,6.1-4.7,6.1s-1.3-1.5-3.1-3.1c-0.4-0.5-0.9-1-1.5-1.3c-0.1,0-0.2-0.1-0.2-0.1c-1.3-1-2.7-1.8-4.1-2.1
			c-2.4-0.5-4,0.9-5,2.2c-0.6-0.7-1.4-0.6-2.1-0.3c-0.4-0.6-1-1.3-1.8-2.1c-0.2-2-0.8-4.5-1.9-5.6c-2.1-2.1-7.1,2.5-7.1,2.5
			s-1.2-7.9-9.2-8.3c-7.9-0.4-8.3,6.2-8.3,6.2c-2.9-6.7-10.7-7.2-12.8-2.2c-1.2,2.9-0.9,5.1-0.9,5.1s-2.5-1.2-4.6-0.8
			c-2.1,0.4-4.2,5.4-4.2,5.4s-4.2-5-7.9-5.8c-3.7-0.8-5.4,3.7-5.4,3.7s-0.4-2.5-3.7-5c-3.3-2.5-7.1,3.3-7.1,3.3s-0.8-5-3.7-6.7
			c-2.9-1.7-7.5,4.2-7.5,4.2s-3.3-4.6-8.7-2.5c-5.4,2.1-3.7,7.5-3.7,7.5s-6.2-5-8.3-1.7c-1.4,2.2-0.6,5.8,0.1,8l-18.6,5.2l76.5-1.4
			l-20.6,6.8h40.2l-14.6,7.5H362z M254.4,393.5C254.4,393.5,254.4,393.5,254.4,393.5h-0.6H254.4z"/>
		<path class="st7" d="M337.5,411.6c-1.2-2.9-4.2,0-4.2,0s0-6.7-2.1-8.7c-2.1-2.1-7.1,2.5-7.1,2.5s-1.2-7.9-9.2-8.3
			c-0.3,0-0.5,0-0.7,0c-0.2-0.5-0.5-0.9-0.8-1.2c-2.3-2.3-7.9,2.8-7.9,2.8s-1.4-8.9-10.3-9.3c-8.9-0.5-9.3,7-9.3,7
			c-3.3-7.5-11.9-8.1-14.4-2.4c-1.4,3.3-1,5.7-1,5.7s-2.8-1.4-5.1-0.9c-2.3,0.5-4.7,6.1-4.7,6.1s-1.3-1.5-3.1-3.1
			c-0.4-0.5-0.9-1-1.5-1.3c-0.1,0-0.2-0.1-0.2-0.1c-1.3-1-2.7-1.8-4.1-2.1c-3.8-0.8-5.7,3.2-6,4c0,0-0.1,0-0.1-0.1
			c-0.2-0.7-1-3-4.1-5.4c-3.7-2.8-7.9,3.7-7.9,3.7s-0.9-5.6-4.2-7.5c-3.3-1.9-8.4,4.7-8.4,4.7s-3.7-5.1-9.8-2.8
			c-6.1,2.3-4.2,8.4-4.2,8.4s-7-5.6-9.3-1.9c-1.6,2.6-0.5,7,0.3,9.4h29.1c0,1.9,0.5,4,1,5.4h109.7
			C338.1,415,338.1,413.2,337.5,411.6z"/>
		<path class="st7" d="M261.8,407.2c-0.2-1.9-0.6-4-1.4-5c-1.7-2.1-5.6,2.5-5.6,2.5s-1-7.9-7.3-8.3c-0.2,0-0.4,0-0.6,0
			c-0.2-0.5-0.4-0.9-0.6-1.2c-1.9-2.3-6.3,2.8-6.3,2.8s-1.1-8.9-8.2-9.3c-7-0.5-7.4,7-7.4,7c-2.6-7.5-9.5-8.1-11.4-2.4
			c-1.1,3.3-0.8,5.7-0.8,5.7s-2.2-1.4-4.1-0.9c-1.9,0.5-3.7,6.1-3.7,6.1s-1-1.5-2.4-3.1c-0.3-0.5-0.7-1-1.2-1.3
			c-0.1,0-0.1-0.1-0.2-0.1c-1-1-2.2-1.8-3.3-2.1c-3-0.8-4.5,3.2-4.8,4c0,0-0.1,0-0.1-0.1c-0.2-0.7-0.8-3-3.3-5.4
			c-3-2.8-6.3,3.7-6.3,3.7s-0.7-5.6-3.3-7.5c-2.6-1.9-6.7,4.7-6.7,4.7s-3-5.1-7.8-2.8c-4.8,2.3-3.3,8.4-3.3,8.4s-5.6-5.6-7.4-1.9
			c-0.9,1.7-0.8,4.2-0.4,6.4H261.8z"/>
		<g>
			<path class="st11" d="M244.3,372.6c0,0-10.9-3.1-19.1,7.5c-8.1,10.6,0,20.3,1.2,23.4c1.2,3.1,2.8,8.1,2.8,8.1v10.6h88.7
				c0,0-5.6-9.4-14.1-17.5c-8.4-8.1-10.3-8.1-15.9-8.1c-5.6,0-12.5-1.6-12.5-1.6s-5.3-4.4-16.9-14.7
				C247.2,370.2,244.3,372.6,244.3,372.6z"/>
			<path class="st6" d="M227.2,410.9c0,0-74.3,26.8-68.9,32.1c5.3,5.3,60,15.3,64,17.3c4,2-2,5.3,1.3,9.3c3.3,4,13.5,8.9,13.5,8.9
				l34.9-11.9c0,0,2.2-7.6-3.8-9c-6-1.3-24.7,1.3-24.7,1.3l-51.4-18l52.7-19.3"/>
			<path class="st7" d="M341.3,424.1l-15.3-9.3l-0.3,0c-0.3-2-0.8-4.3-1.8-5.3c-2.1-2.1-7.1,2.5-7.1,2.5s-1.2-7.9-9.2-8.3
				c-7.9-0.4-8.3,6.2-8.3,6.2c-2.9-6.7-10.7-7.2-12.8-2.2c-1.2,2.9-0.9,5.1-0.9,5.1s-2.5-1.2-4.6-0.8c-2.1,0.4-4.2,5.4-4.2,5.4
				s-4.2-5-7.9-5.8c-3.7-0.8-5.4,3.7-5.4,3.7s-0.4-2.5-3.7-5c-3.3-2.5-7.1,3.3-7.1,3.3s-0.8-5-3.7-6.7c-2.9-1.7-7.5,4.2-7.5,4.2
				s-3.3-4.6-8.7-2.5c-5.4,2.1-3.7,7.5-3.7,7.5s-6.2-5-8.3-1.7c-1.5,2.4-0.4,6.5,0.3,8.7h37.2l-18.5,4.2h65.5l-7.9-3.3H341.3z"/>
			<g>
				<path class="st9" d="M275.3,348.6c0,0,1.9-4.7,3.1-4.4c1.2,0.3,4.4,2.2,3.7,5.9c-0.6,3.7-2.8,5-2.8,7.8c0,2.8,1.2,3.1-1.2,3.7
					C275.6,362.3,275.3,354.2,275.3,348.6z"/>
				<path class="st10" d="M280.7,348.7c0,0-3.1,1.6-2.9,4.3"/>
			</g>
			<g>
				<path class="st9" d="M276.2,371.4c0,0,3.7,15.3,5.6,22.2c1.9,6.9,5.6,9.7,5.6,9.7s-7.8,5-12.2,6.2c-4.4,1.2-8.7-1.6-12.5-6.9
					c-3.7-5.3-5-7.8-5-7.8s8.4-2.8,12.2-10.9c3.7-8.1,4.4-14.4,4.4-14.4L276.2,371.4z"/>
				<path class="st7" d="M276.1,398c0,0,1-17,1-22.6c-0.6-2.4-1-3.9-1-3.9l-1.7-1.7c-0.1,0-0.1,0-0.2,0c-0.1,1-0.9,6.8-4.4,14.2
					c-3.7,8.1-12.2,10.9-12.2,10.9s1.2,2.5,5,7.8c3.7,5.2,8,8,12.3,6.9l-3.3-8.3l7.9,6.4c0.4-0.2,0.8-0.4,1.1-0.6L276.1,398z"/>
			</g>
			<g>
				<path class="st9" d="M277.8,353c0,0-3.5-10.6-8.4-18.2c-6.1-9.5-17.5-10.2-28.1-5.9c-10.6,4.4-10.9,9.4-10.9,16.6
					c0,7.2,0.3,9.4,1.9,11.6c1.6,2.2,1.6,0.3,2.2,4.1c0.6,3.7,0,5.3,2.8,7.5c2.8,2.2,1.9-0.9,3.7,3.4c1.9,4.4,15.3,22.5,15.9,25
					c0.6,2.5,3.7,4.4,9.1,2.5s9.1-2.2,9.1-8.1s-0.6-7.5,1.6-13.1c2.2-5.6,3.4-9.1,3.4-11.9c0-2.8-0.6-5.6-0.6-5.6
					S278.1,354.5,277.8,353z"/>
				<path class="st15" d="M272.2,356.6c0,0-2.9-2.6-2.9,0.8c0,3.3,5,10.3,5,10.3L272.2,356.6z"/>
				<path class="st15" d="M274.3,355.3l2.7,9.3C277,364.7,276.7,352.3,274.3,355.3z"/>
				<path class="st15" d="M276.2,371.4l-0.9-6.7l2.3,3.7C277.7,368.3,278.7,372.1,276.2,371.4z"/>
				<polygon class="st15" points="274.7,373 272.7,368.7 276.3,373.3 274.3,377.7 				"/>
				<path class="st10" d="M265.7,332c0,0-6.2,2.2-3.6,6.4"/>
				<path class="st10" d="M264.7,360.7c0,0,8.7,11,8.7,15s1.3,6.3-0.7,10.3"/>
				<path class="st10" d="M256.3,391c0,0,7,4,12-3.7"/>
				<path class="st10" d="M241.7,359.7c0,0-1.7,4.7,0.7,8.3c2.3,3.7,5.3,8.3,6.3,12.7"/>
				<path class="st10" d="M254.6,349.2c0,0,5.2,4,9.7,0"/>
				<path class="st10" d="M241.7,352.2c0,0,1,5.5-3,8"/>
				<path class="st10" d="M271.2,348.3c0,0,0.9,3.4-0.6,3.7c-1.6,0.3-5,1.6-5,3.7c0,2.2,1.2,4.4,2.5,6.2c1.2,1.9,3.4,5.6,3.4,5.6"/>
				<g>
					<path class="st7" d="M267.1,370.2c0,0-5-11.2-10.6-11.6c-5.6-0.3-11.9,0-11.6,7.5c0.3,7.5,4.1,7.8,5.6,12.8
						c1.6,5,2.8,8.4,8.4,8.4c5.6,0,11.2-6.2,10.6-10.9C269,371.7,267.1,370.2,267.1,370.2z"/>
					<path class="st11" d="M262.4,375.5c0,0-7.4,1.8-8.8,4c-1.4,2.2-1.7,4.2,4.6,3.9c6.2-0.3,9.6-3.7,8.8-5.7
						C266.2,375.7,263.6,374.9,262.4,375.5z"/>
					<path class="st8" d="M246.5,367.3l2.8,2.2c0,0,0.9-3.4-0.3-4.7C247.8,363.6,245.3,363.9,246.5,367.3z"/>
					<path class="st8" d="M251.5,360.8l0.3,4.7l3.1-0.3l-0.6-5C254.3,360.2,251.8,359.2,251.5,360.8z"/>
					<path class="st8" d="M257.8,361.7l0.3,3.4l2.5,0.6l-0.9-4.1C259.7,361.7,259,359.8,257.8,361.7z"/>
					<path class="st8" d="M255.3,385.5l-0.6-4.1l2.5-0.6l1.2,4.1C258.4,384.8,257.8,387,255.3,385.5z"/>
					<path class="st8" d="M261.5,384.2l-1.2-3.1l3.1-0.6l0.6,2.8C264,383.3,263.4,383.3,261.5,384.2z"/>
					<path class="st8" d="M265.6,380.1L264,378l2.2-1.9c0,0,2.5,1.6,2.5,2.5C268.7,379.5,267.1,380.8,265.6,380.1z"/>
				</g>
				<path class="st7" d="M243.7,350.5c0,0-2.2,5.3-0.6,6.9c1.6,1.6,3.4,1.6,3.1-1.2C245.9,353.3,246.2,348.9,243.7,350.5z"/>
				<path class="st7" d="M247.8,349.8c0,0,3.1,5.3,4.4,5.6c1.2,0.3,2.5-4.1,1.2-5C252.2,349.5,248.7,347.3,247.8,349.8z"/>
				<path class="st7" d="M248.8,345c4.5-1,10.1-0.5,15.5,1.6c0.8-1.7,0.4-4,0.4-4c-1.2-2.2-8.9-7.5-14-5c-5.7,2.7-4.7,4.4-2.8,6.6
					C248,344.5,248.3,344.8,248.8,345z"/>
				<path class="st10" d="M256.8,332c-5.6-2.2-5.9,2.5-9.4,4.7c-3.4,2.2-6.6,1.2-9.7,2.5c-3.1,1.2-3.7,3.7-3.7,3.7"/>
				<path class="st10" d="M253.7,329.2c-1.2,0.3-4.7,0-8.7,3.7"/>
				<path class="st7" d="M241.9,348.6c1.3-4.2-1.1-6.6-1.5-5.9c-2.2-0.9-6.7,4.4-8.6,7.9c-1.8,3.2,0.9,5.1,3.6,6.6
					C236.5,355,238.7,351.4,241.9,348.6z"/>
				<path class="st12" d="M260.1,344.5c0,2.2-1.8,3.9-3.9,3.9c-2.2,0-3.9-1.8-3.9-3.9c0-2.2,1.8-3.9,3.9-3.9
					C258.3,340.5,260.1,342.3,260.1,344.5z"/>
				<path class="st12" d="M240.8,351.7c0,1.8-1.4,3.2-3.2,3.2c-1.8,0-3.2-1.4-3.2-3.2c0-1.8,1.4-3.2,3.2-3.2
					C239.4,348.6,240.8,350,240.8,351.7z"/>
			</g>
			<g>
				<g>
					<path class="st9" d="M213.1,410.9c0,0,25.6-10.4,29.5-16.7c1-1.5,7.8-9.2,0.7-18.1c-7.1-8.9-8.5-7.7-19.5-2
						c-11,5.7-24.6,19.4-31,23c-2.2,1.2-13.2,7.8-23.1,11c-10,3.2-8.2,11-3.9,13.9c4.3,2.8,11,4.3,19.2,1.1S213.1,410.9,213.1,410.9
						z"/>
					<path class="st11" d="M201,391.6c0,0,12.1,3.9,18.6,12.1c6.4,8.2,9.3,10.3,9.3,10.3l3.6,2.5l2.1-13.9l2.5,2.9l2.5-5l2.5,5
						c0,0,1.4-10.7,2.5-13.6c1.1-2.9,2.5-2.9,1.4-11.1c-1.1-8.2-6.4-12.1-12.8-11.1C226.7,370.9,212.8,376.9,201,391.6z"/>
					<g>
						<g>
							<circle class="st15" cx="275.3" cy="462.6" r="3.7"/>
							<path class="st15" d="M281.6,464.8c9.6,4.8,15.9,8.5-2.7,2.7c-1.4-0.4-2.7-1.2-2.7-2.7c0-1.5,1.2-2.7,2.7-2.7
								C280.4,462.1,280.3,464.1,281.6,464.8z"/>
							<path class="st15" d="M297.5,469.5c0,1.4-11.4-2.5-12.8-2.5s-2.4-1.1-2.4-2.4c0-1.4,1.1-2.4,2.4-2.4S297.5,468.1,297.5,469.5
								z"/>
							<ellipse class="st15" cx="275.1" cy="466.7" rx="3" ry="2.6"/>
							<path class="st15" d="M262.3,476.3c0,2.1-1.7,3.8-3.8,3.8c-2.1,0-3.8-1.7-3.8-3.8c0-2.1,1.7-3.8,3.8-3.8
								C260.6,472.6,262.3,474.2,262.3,476.3z"/>
							<path class="st15" d="M265.4,477.9c3.9,3.1,15.3,9.7-2.4,2.4c-1.3-0.5-2.4-1.1-2.4-2.4c0-1.4,1.1-2.4,2.4-2.4
								C264.3,475.4,264.3,477.1,265.4,477.9z"/>
							<path class="st15" d="M253.5,479.5c0,1.5-6.7,1-8.2,1c-1.5,0-2.8-1.2-2.8-2.8c0-1.5,1.2-2.8,2.8-2.8
								C246.8,475,253.5,478,253.5,479.5z"/>
							<path class="st15" d="M256.5,475.2c0,1.2-1,2.2-2.2,2.2c-1.2,0-2.2-1-2.2-2.2s1-2.2,2.2-2.2C255.5,473,256.5,474,256.5,475.2
								z"/>
							<circle class="st15" cx="235.3" cy="478.6" r="1.8"/>
							<circle class="st15" cx="233.5" cy="478.6" r="2.6"/>
							<path class="st15" d="M245.8,490.1c0,1.5-10.4-4.4-11.9-4.4s-2.8-1.2-2.8-2.8c0-1.5,1.2-2.8,2.8-2.8S245.8,488.5,245.8,490.1
								z"/>
							<path class="st15" d="M262.3,484.8c0,1.5-10.4-4.4-11.9-4.4s-2.8-1.2-2.8-2.8c0-1.5,1.2-2.8,2.8-2.8S262.3,483.3,262.3,484.8
								z"/>
							<path class="st15" d="M299.7,481.2c1.4,0.6-21.5-7.4-23-7.4c-1.5,0-11.5-6.4-11.5-7.9c0-1.5,5.6,1.7,7.2,1.7
								C273.9,467.5,289.4,476.6,299.7,481.2z"/>
							<path class="st15" d="M294.6,489.1c1.4,0.6-21.5-7.4-23-7.4c-1.5,0-11.5-6.4-11.5-7.9c0-1.5,5.6,1.7,7.2,1.7
								C268.9,475.5,284.3,484.6,294.6,489.1z"/>
							<circle class="st15" cx="241.7" cy="471.9" r="3.3"/>
							<path class="st15" d="M268.5,464.8c0,2.6-2.1,4.7-4.7,4.7s-4.7-2.1-4.7-4.7c0-2.6,2.1-4.7,4.7-4.7S268.5,462.2,268.5,464.8z"
								/>
							<path class="st15" d="M258,468.4c0,2.6-2.1,4.8-4.8,4.8c-2.6,0-4.8-2.1-4.8-4.8c0-2.6,2.1-4.8,4.8-4.8
								C255.9,463.6,258,465.8,258,468.4z"/>
							<circle class="st15" cx="270.9" cy="465" r="3.3"/>
						</g>
						<path class="st9" d="M162.6,415.1c0,0-1.8,6.8,4.3,10c6,3.2,11.4,4.6,21.3,6.4c10,1.8,19.2,5.3,24.9,7.1
							c5.7,1.8,18.5,5,18.5,5s-1.1,14.9-0.7,16c0.4,1.1,3.6,5.7,3.9,8.2c0.4,2.5,0,13.2,2.1,13.5c2.1,0.4,4.6,2.5,4.6-0.7
							s0-5.3,0-6.8c0-1.4,2.1-3.9,2.1-3.9s3.2,0.7,3.2,2.8c0,2.1,1.1,7.1,2.1,7.1c1.1,0,4.6,1.1,4.6-1.4c0-2.5-0.7-5-1.1-7.5
							c-0.4-2.5-1.1-4.6-1.1-4.6s5,0.7,7.5,3.6c2.5,2.8,3.9,5.3,3.9,6.4c0,1.1,0.4,2.8,2.5,2.1c2.1-0.7,3.6-3.2,2.8-5.3
							c-0.7-2.1-2.1-6.8-2.1-6.8l-6.4-3.9c0,0,4.6-2.5,6-2.8c1.4-0.4,4.3-0.4,5.7,2.5c1.4,2.8,2.5,3.6,2.5,3.6s1.1-4.6,0-8.2
							c-1.1-3.6-3.9-3.9-7.8-3.9c-3.9,0-6,1.1-7.8,0c-1.8-1.1-5.7-3.9-7.8-6c-2.1-2.1-7.1-11-8.5-11.7c-1.4-0.7-13.2-9.2-25.2-16
							c-12.1-6.8-11-5-17.4-10c-6.4-5-6.4-6-11-6"/>
						<path class="st10" d="M181.4,411.2c6.1,0.7,15,1.8,18.1,2.9"/>
						<path class="st10" d="M175.4,410.6c0,0,0.9,0.1,2.3,0.2"/>
						<line class="st10" x1="205.9" y1="429.9" x2="203.1" y2="428.7"/>
						<line class="st10" x1="232.3" y1="441.1" x2="209" y2="431.2"/>
					</g>
				</g>
				<path class="st10" d="M248,458.3c0,0,2.9,0.2,2,2.9c-0.9,2.7-1.1,3.3-1.1,3.3l1.8,2.4"/>
				<path class="st10" d="M253.6,456.3c0,0,3.1-0.4,3.1,2c0,2.4,0,2.4,0,2.4l2.2,1.6"/>
				<path class="st10" d="M241.1,463.9c0,0,0.4,2.7,0,3.6c-0.4,0.9-1.3,1.8-1.3,1.8l0.2,4.9"/>
				<path class="st10" d="M236.2,464.1c0,0-0.9,2.9,0,3.8c0.9,0.9,2.2,1.3,2.2,1.3"/>
				<polyline class="st10" points="241.6,461.4 239.3,455.4 236.9,447.6 				"/>
				<line class="st10" x1="252" y1="454.3" x2="246" y2="447.6"/>
				<line class="st10" x1="244.7" y1="446.3" x2="242.9" y2="444.1"/>
			</g>
		</g>
	</g>
	<g>
		<ellipse class="st6" cx="103" cy="434" rx="62" ry="10.5"/>
		<g>
			<path class="st15" d="M31,177c0,0-2.3,5.3,2,9.5s5.8,7.3,5.8,8.5s1.3,4,1.5,5.8s1.5,5.5,1.5,5.5l2.5-3.5l1.8,4.8
				c0,0,0-6.5,0.8-10s0.3-6.8,0.3-7.5s1.5-2.8,1.5-2.8l2.3,4.5c0,0,1.8-10,2.5-11.3s4.5-7.5,2.8-11.3s-14.8-9-19.3-6.5
				S31,177,31,177z"/>
			<path class="st15" d="M156,195c0,0-1-6.5,1-9.3s5-4.8,5.5-6s5.8-8,5.8-8s1.3,1.8,3.3,4s4.8,3.3,4.5,6.5s3,6.8,3,6.8l1.3,4.5
				l1.3-10l2,2.5c0,0,0-5,0.3-7.8s0.8-6,0.8-6s-6-7.5-6.3-8.3s-19.8,2.5-21.3,2.5s-6.8,4.3-7.5,5.8s-0.5,3.3,0.5,7.5
				s1.5,7.3,1.8,8.8"/>
			<g>
				<path class="st14" d="M67,257v15.8c0,0-8,47-7,54s3.5,18.5,3.5,18.5s-3.8,9-3.8,13.5s0.8,8.5,0.8,10.5s1.3,5,0,7.3
					s-1.8,6.3-1.8,6.3s5.3-1,5.8-2.5s0.3-3,0.8-4.8s-0.3-2,0.5-1.8S70,378,70,378s3.5,2,3.5,4s1.5,9.5,1.8,10.3s0.8,3,0.8,3
					s-2.3,1.5-2.3,3s2.3,2.5,2.5,5s0.5,3.3,0.5,3.3s-0.8,6.3-1,8.5s-3,9-3,9s-4.8,9.3-5,11.3s4,4.8,6.5,5s10,1.8,10,1.8s5,0.3,7.3-2
					s4.5-5.8,4.8-10s-3.3-9.5-3.5-13.3s1.8-6.3,2.3-8.8s1-4.8-0.5-7.3S90,390.5,90,389s-2-10-1.8-11.3s0.3-6,0.3-6s2.5-0.3,3.5-0.3
					s3.5,5.5,3.5,5.5s1.8,2.5,1.8,3.8S99,387,99,387s0.8-6.3,1.7-8.5c1-2.3,2.3-4,3-4.8s0.8-1,0.8-3.5s0-4,0.5-5s0.5-3,0.5-3
					s-1.8-3.3-3.5-5.8s-5.7-9.3-6.2-10.5s-2-3.8-2-5.3s0-3,0-3s-1-3-0.3-9s9-42.5,9-42.5l3.3-4.5c0,0,5.3,11.3,6.8,14.5
					s8.5,21.3,9.8,24s3.5,5.8,3.3,7.8s-0.8,3.8-2.3,7.3s-1,5-3,7.3s-4,7.8-4.8,8.3s-1,2-1,4.3s0,3.3,0,8.3s-1,9.3-1.3,15.3
					s1.3,6.8-0.5,9.3s-2,4.8-3,5.8s-1-2.8-3.8-0.3s-6,3.3-6.5,7.8s-2.3,6.3-2,7s9.2,7.8,9.2,7.8l3.3-3c0,0,0.5-0.5,2,4
					s2.3,6.8,3.3,8s9.5,6,11.8,6.3c2.3,0.3,10.8,1.5,12,2s4.5,0,6-0.3s2.8-1.5,2.3-3.3s-1.5-3.8-3.8-4.8s-4.3-2-6-3.8
					s-1.3-1.3-4-4.5s-3.5-3.3-4.3-4.8S128,409,128,408s0.8-2.8,1.3-5.3s1-4,1-5s0.5-2.3-1-2.3c-1.5,0-1.8,0-3.3,0.3
					s-2.5,0.5-2.5,0.5l7.3-10.5c0,0,2-4,3-3.5s2.3,3.5,2.3,3.5s2.5,0,2.5,1.8s0.3,2.8,0,3.8S138,396,138,396s3-4.3,3.8-5.3
					s1.8-3,1.8-3s-1.3-1.8-1.3-3.8s-1.8-2.5,1-3.8s5-1.8,5-1.8s0.5,0,0.3-1.5s-2.5-1.3-2-7.8s-0.8-7.3,1-9.8s2.3-4,3.3-5.8
					s1-2.3,1.8-3.3s1-3,2.3-3s0.3-2.5,2.3-10s3-9,1.5-16.5s-8.3-30-11.3-37.3s-10.5-39-10.5-39s1.8-5.8-2.8-14.8s-14.8-4.8-26.3,0.8
					s-14.7,6-25.5,9.5s-15.5,7.5-15.5,10.5S67,257,67,257z"/>
				<path class="st15" d="M69,267.6c0,0,4.7-6.3,6.3-6.7c1.7-0.3,7,1,7,1s-2-2.7-2.3-3.7s3-4.7,5.3-6.3c2.3-1.7,6-3.3,6-3.3
					l0.9,15.7c0,0,6.1-4.3,6.8-5.3c0.7-1,3.7-1,3.7-2c0-1-0.7-6-0.7-7.3s-0.3-3,2.3-5.7c2.7-2.7,10.7-9.7,10.7-9.7s-1.7,11-1.7,13.4
					c0,2.3-0.3,9-1,10c-0.7,1-0.7,4.7-0.7,4.7s3.3-5.3,5-6c1.7-0.7,4.3-1.3,4.3-1.3l3.1-9.5l0.2,10.2l6.2-6l-0.9-7
					c0,0,2.3,3.3,4,6.3c1.7,3,3.7,6.7,3.7,6.7l0.7,3.3l1.7-7l-7-20.7c0,0-8.7-4.7-17.4-1s-33.1,13.4-36.1,14.7c-3,1.3-10,9.3-10,9.3
					l-2.3,5l0.7,10.4L69,267.6z"/>
				<g>
					<path class="st10" d="M105.7,281.7c0,0,7.3-3.8,14.8-7.5"/>
					<path class="st10" d="M130.4,275.2c1.7-0.3,3.2-0.4,4.4-0.4"/>
					<path class="st10" d="M112.5,279.7c0,0,7.8-2.5,14.6-3.9"/>
					<path class="st10" d="M83.5,270c4.4,1.7,10.1,4.3,13.5,7.2"/>
					<path class="st10" d="M77.2,267.7c0,0,1,0.3,2.6,0.9"/>
					<path class="st10" d="M84.7,272.7c0,0,11.3,6.5,13.3,8.5"/>
					<path class="st10" d="M92.2,264.2c0,0,5,5,7.3,10.8"/>
					<path class="st10" d="M128.2,262.4c-3,2.6-6.6,5.7-8.4,7.1"/>
					<path class="st10" d="M133.2,258c0,0-0.6,0.5-1.6,1.4"/>
				</g>
			</g>
			<g>
				<path class="st11" d="M88.6,109.8c0,0-3.2,3.5-10.9,6.4s-12.5,1.6-18.6,5.5c-6.1,3.8-7.7,12.5-9,14.7
					c-1.3,2.2-13.1,22.1-13.1,22.1s7.4,6.7,10.9,10.6c3.5,3.8,4.5,5.8,4.8,8c0.3,2.2,0.3,4.5,0.6,6.7c0.3,2.2,0,7.7,0,7.7
					s3.5-6.7,4.2-8.3s3.2-10.9,3.2-10.9s4.8,55.8,2.9,61.9s-5.1,13.8-8,16.4c-2.9,2.6-1.6,2.6-0.3,3.8c1.3,1.3,1.3,2.2,1.3,3.8
					c0,1.6-0.6,4.8-1,6.1c-0.3,1.3,0,8.7,0,8.7l0.3,6.4l0.6,6.4c0,0,3.2-8,3.8-9c0.6-1,4.5-5.1,4.5-5.1s0-4.2,0-6.4
					c0-2.2-0.6-2.6,3.5-4.2c4.2-1.6,5.5-1.9,5.5-1.9s1.9-0.3,2.9-2.6c1-2.2,5.1-5.1,6.1-5.8c1-0.6,5.5-2.2,6.7-3.8
					c1.3-1.6,1.3,2.9,1.3,4.8s-2.2,15.4-2.2,15.4l2.2-2.9c0,0,3.8-5.1,5.5-6.1c1.6-1,4.5,0,4.5-2.6s-1.6-5.1-1-6.7
					c0.6-1.6,2.9-2.6,3.8-3.8c1-1.3-1,3.5,1.9-1.6c2.9-5.1,6.1-5.8,7.1-6.7c1-1,5.1-1.3,5.1-1.3s-2.2,7.7-3.5,9.9
					c-1.3,2.2-4.2,9.6-4.2,9.6v7.1c0,0,4.5-5.8,5.5-6.7c1-1,4.5-1.3,4.5-1.3s2.2-3.8,2.2-5.5c0-1.6-1-7.1-1-7.1s2.6,2.6,2.9,3.8
					c0.3,1.3,0.3,3.5,0.6,5.1c0.3,1.6,0.6,5.1,1.6,3.8c1-1.3,4.2-4.8,4.2-4.8s-1-2.9-1-3.8c0-1,0-4.2,1.9-5.5
					c1.9-1.3,2.6,1.6,3.2,4.5s2.9,7.1,2.9,9.3c0,2.2,0,8.7,0,8.7s2.2-3.8,3.2-3.8c1,0,2.6-0.3,3.5,1c1,1.3,4.8,6.1,4.8,6.1
					s-1.9-5.8-3.5-9.3c-1.6-3.5-3.2-6.4-3.2-8.7c0-2.2,0-4.5,0-7.4c0-2.9-1-31.4-1-39.8c0-8.3-0.6-12.5,0-15.4
					c0.6-2.9,0.6-15.1,0.6-15.1s5.8,11.2,6.1,13.1c0.3,1.9-0.6,5.5-0.6,5.5l-1.3,1.9c0,0,3.5-1.3,4.8,1.3c1.3,2.6,2.9,6.4,2.9,6.4
					l3.2,1.3c0,0-0.3-6.7-1.3-9.9c-1-3.2-2.6-9.9-2.9-11.2c-0.3-1.3-1.6-0.6-0.6-3.2c1-2.6,1-3.8,2.6-5.8c1.6-1.9,5.8-31.7,5.8-31.7
					s-7.1-5.8-10.6-11.5c-3.5-5.8-7.7-9.9-13.5-12.2c-5.8-2.2-11.9-3.8-19.6-3.8c-7.7,0-27.3,0-27.3,0"/>
				<g>
					<path class="st10" d="M60.7,172.3c0,0,3-8.3,4.5-13.1s3.3-10.3,3.5-11"/>
					<path class="st10" d="M142.1,170.4c0,0,1.1-1.6-3.1-6.9s-8.8-7.3-10.3-9.3"/>
					<path class="st10" d="M92.7,191.1c5,2.1,10.6,4.5,14.6,5.9c8.5,3,19.8,0.3,23.3-3.8"/>
					<path class="st10" d="M82.2,186.5c0,0,1.8,0.8,4.5,2"/>
					<path class="st10" d="M106.1,206.9c-8.6,0.7-12.2-4.3-22.6-8.4"/>
					<path class="st10" d="M132.5,195c0,0-2,4-17.8,9.8c0,0-0.1,0-0.1,0"/>
					<path class="st10" d="M91.8,233.7c-2.1,1.4-3.7,2.5-4.3,3.1"/>
					<path class="st10" d="M123.5,209.5c-5.6,5.3-11.7,11.1-12.8,12c-1.1,1-7.6,5-13.5,8.7"/>
					<path class="st10" d="M133.2,200.2c0,0-2.3,2.2-5.4,5.1"/>
					<path class="st10" d="M78.5,218.2c4.2,1.5,8.9,2.9,11.3,2.7c5-0.3,22.7-11.5,22.7-11.5"/>
					<path class="st10" d="M70,215c0,0,1.5,0.6,3.8,1.5"/>
					<path class="st10" d="M141.2,166.5c0,0-12-5.5-12.8-6"/>
					<path class="st10" d="M61.2,170.5c0,0,4.8-9,6.3-10.5"/>
				</g>
			</g>
			<g>
				<path class="st9" d="M86.3,111.7c0,0,0,6.4,0,13.5c0,7.1,6.4,19.2,11.2,25.7s7.1,8,7.1,8s7.1-15.4,9-20.2
					c1.9-4.8,3.5-9,3.5-14.1c0-5.1-2.2-14.7-2.2-14.7s-6.4,3.2-14.4,2.9c-8-0.3-14.4-2.6-14.4-2.6L86.3,111.7z"/>
				<path class="st7" d="M87.1,114.6l3.4,12.4l2.8-1.5c0,0,1,1.3,2.8,3.1c1.8,1.8,5.2,4.4,5.2,4.4l1,4.1l2.8-7l5.2-2.3l2.6,3.4
					l3.9-11.6l-3.4-4.9l-28.1-3.9L87.1,114.6z"/>
				<path class="st10" d="M90.2,118.4c0,0,1.3,7.1,0,13.1"/>
				<path class="st10" d="M111.7,124.9c0,0,1.3,6.1,1.6,9.9"/>
				<path class="st10" d="M102.1,127.7c0,1,0,11.9,0,11.9"/>
				<path class="st10" d="M92.8,140.6c0,0,6.1-1,7.7,0.6c1.6,1.6,2.9,4.2,2.9,4.2s2.9-4.5,3.8-4.5c1,0,3.2,0,3.2,0"/>
			</g>
			<g>
				<path class="st9" d="M77,81.9c0,0-4.2-6.7-6.1-2.2c-1.9,4.5,5.1,13.5,5.1,13.5S77.7,86.7,77,81.9z"/>
				<path class="st9" d="M123.5,79c0,0,3.5-6.4,6.1-1.9c2.6,4.5-1.9,12.2-1.9,12.2S122.9,80.3,123.5,79z"/>
				<path class="st9" d="M123.5,76.4c0,0-1-13.1-2.9-19.9c-1.9-6.7-13.1-9.9-26.6-8c-13.5,1.9-17.6,9.9-17.6,16.4
					c0,6.4,1.3,17,0.3,21.2c-1,4.2-3.2,9.6-0.3,13.1c2.9,3.5,6.4,3.5,6.4,3.5s0,9.6,2.9,11.2c2.9,1.6,6.4,5.5,8.7,9.3
					c2.2,3.8,6.4,5.1,13.1,3.2c6.7-1.9,8.7-5.1,10.3-8.3c1.6-3.2,3.2-3.5,3.5-8.7c0.3-5.1,0.3-9.3,0.3-9.3s4.8-1.3,6.1-5.8
					c1.3-4.5,1.9-7.4,0.3-9.9C126.4,81.9,123.5,79.3,123.5,76.4z"/>
				<path class="st12" d="M95.3,79c0,2.5-2,4.5-4.5,4.5c-2.5,0-4.5-2-4.5-4.5s2-4.5,4.5-4.5C93.3,74.5,95.3,76.5,95.3,79z"/>
				<circle class="st12" cx="112" cy="79" r="6.4"/>
				<path class="st7" d="M100.8,85.4c0,0-4.5,4.8-2.9,6.1C99.5,92.8,100.5,91.2,100.8,85.4z"/>
				<path class="st7" d="M102.7,85.4c0,0,4.5,4.8,2.9,6.1C104,92.8,103,91.2,102.7,85.4z"/>
				<path class="st10" d="M96,82.2c0,0-0.3,11.5-10.9,8"/>
				<path class="st10" d="M106.2,83.8c0,0,2.2,7.1,9.9,7.1"/>
				<path class="st10" d="M95.6,88.9c0,0-0.3,6.1-7.4,7.7"/>
				<path class="st10" d="M104.3,70.7c0,0,1.3,1,3.5,0s4.8-2.9,8-2.2c3.2,0.6,4.8,3.2,4.8,3.2"/>
				<path class="st10" d="M100.1,66.2c0,0-0.6,3.8,1.9,5.5"/>
				<path class="st10" d="M114.9,88c0,0,5.1,0.3,5.8-4.5"/>
				<path class="st10" d="M84.4,83.8c0,0,1.6,4.5,7.7,3.2"/>
				<path class="st10" d="M83.1,100.5c0,0,7.4,1,7.4,3.2c0,2.2,1,11.2,1.6,12.8"/>
				<path class="st7" d="M92.8,107.9c0,0,2.2-4.8,9.9-5.8c7.7-1,11.9,5.5,10.3,6.7c-1.6,1.3-2.9-2.9-9.3-1
					C97.3,109.8,91.2,111.7,92.8,107.9z"/>
				<path class="st10" d="M121.6,100.2c-1.3,0-6.4,2.2-6.4,5.5c0,3.2,1.9,9.3,1,12.2"/>
				<path class="st10" d="M107.2,88.3c0,0,2.9,8.3,9.9,9"/>
				<path class="st10" d="M81.2,76.4c0,0,3.5-2.6,8.7-3.8c5.1-1.3,7.7,1.6,8.3-3.2"/>
				<path class="st10" d="M91.5,64.3c0,0,4.5-1.9,8.3-2.2c3.8-0.3,8-0.3,8-0.3"/>
				<path class="st10" d="M92.4,58.8c0,0,6.7-0.6,10.3,0.3"/>
				<path class="st15" d="M118.1,64.8c0.8-0.5,1.5-0.7,2.3-0.8c0.8-0.1,1.5,0.2,2.3,0.3c0.8,0.1,1.5,0.3,2.3,0.6
					c0.7,0.3,1.5,0.5,2.2,0.9l-0.1,0.2c-0.7-0.1-1.5-0.1-2.2-0.1c-0.7,0-1.5,0-2.2,0c-0.7,0-1.5,0.2-2.2,0.1c-0.7-0.2-1.5-0.4-2.2-1
					V64.8z"/>
				<path class="st15" d="M116.8,58.4c0.6-0.8,1.3-1.2,2-1.6c0.7-0.4,1.6-0.3,2.4-0.4c0.8-0.1,1.6-0.2,2.4-0.2
					c0.8,0,1.6,0.1,2.4,0.2v0.2c-0.8,0.2-1.6,0.3-2.3,0.6c-0.8,0.2-1.5,0.5-2.2,0.7c-0.7,0.3-1.4,0.7-2.2,0.8
					c-0.8,0.1-1.6,0.1-2.5-0.2L116.8,58.4z"/>
				<path class="st15" d="M112.9,50.1c0-0.8,0.3-1.3,0.6-1.8c0.3-0.5,0.9-0.7,1.3-1c0.5-0.3,0.9-0.6,1.4-0.9c0.5-0.3,1-0.6,1.5-0.8
					l0.1,0.1c-0.3,0.5-0.6,0.9-0.9,1.4c-0.3,0.5-0.7,0.9-1,1.3c-0.3,0.4-0.6,1-1.1,1.3c-0.5,0.3-1,0.5-1.8,0.5L112.9,50.1z"/>
				<path class="st15" d="M92.7,51.8c-0.9-1.8-0.3-4.2,1-5.8c0.6-0.8,1.5-1.5,2.4-2c0.9-0.5,1.8-0.8,2.7-1.2
					c1.8-0.7,3.6-1.2,5.5-1.6c1.9-0.4,3.7-0.7,5.6-0.8l0,0.2c-1.8,0.4-3.6,0.9-5.3,1.6c-1.7,0.6-3.5,1.3-5.1,2.1
					c-1.7,0.8-3,1.8-4.2,3c-1.2,1.1-2,2.6-2.3,4.5L92.7,51.8z"/>
				<path class="st15" d="M99.1,49.1c0.1-0.8,0.4-1.3,0.8-1.8c0.4-0.5,1-0.6,1.5-0.9c0.5-0.3,1-0.5,1.5-0.8c0.5-0.2,1.1-0.5,1.6-0.7
					l0.1,0.2c-0.4,0.5-0.7,0.9-1.1,1.4c-0.4,0.4-0.8,0.9-1.2,1.3c-0.4,0.4-0.7,1-1.2,1.2c-0.5,0.2-1.1,0.4-1.9,0.3L99.1,49.1z"/>
				<path class="st15" d="M80.9,55.4c-0.7,0.6-1.3,0.8-2,0.9c-0.7,0.1-1.3-0.1-2-0.2c-0.7-0.1-1.3-0.2-2-0.3c-0.7-0.1-1.3-0.2-2-0.4
					v-0.2c0.7-0.2,1.3-0.3,2-0.4c0.7-0.1,1.3-0.2,2-0.3c0.7-0.1,1.3-0.3,2-0.2c0.7,0.1,1.3,0.3,2,0.9V55.4z"/>
				<path class="st15" d="M79,59.5c-0.7,1.1-1.8,1.9-2.9,2.6c-1.1,0.7-2.4,0.9-3.6,1.1c-1.1,0.2-2.3,0.6-3.4,1.1
					c-1.1,0.5-2.2,1-3.3,1.6l-0.1-0.2c0.9-0.9,1.9-1.6,2.9-2.4c1-0.7,2.2-1.3,3.4-1.8c1.2-0.4,2.1-1,3.3-1.4
					c1.1-0.4,2.3-0.7,3.6-0.9L79,59.5z"/>
				<path class="st15" d="M78.3,70.4c-0.5,0.6-1,0.9-1.6,1.1c-0.5,0.2-1.1,0-1.7,0c-0.6,0-1.1,0-1.7-0.1c-0.6-0.1-1.2-0.1-1.7-0.2
					l0-0.2c0.5-0.2,1.1-0.4,1.6-0.6c0.5-0.2,1.1-0.4,1.6-0.5c0.5-0.2,1.1-0.5,1.7-0.4c0.6,0.1,1.2,0.2,1.8,0.7L78.3,70.4z"/>
			</g>
			<g>
				<path class="st9" d="M40.5,136.1c0,0-5,11.9-10,17.9s-8.8,10.5-7.5,14s5,11.5,7.3,14s5.5,1.5,6.8,1s4.5-3,6.8-3.5
					s8.3-4.8,8.3-8.3s-2.3-12.3-1.8-14.5s10.3-23.3,10.3-23.3l-17.5-2L40.5,136.1z"/>
				<line class="st10" x1="51.5" y1="144.4" x2="44.2" y2="159.2"/>
				<line class="st10" x1="37.5" y1="180.7" x2="41.5" y2="170.7"/>
			</g>
			<g>
				<path class="st9" d="M164,136.1c0,0,5,11.9,10,17.9s8.8,10.5,7.5,14s-5,11.5-7.3,14s-5.5,1.5-6.8,1s-4.5-3-6.8-3.5
					s-8.3-4.8-8.3-8.3s2.3-12.3,1.8-14.5S144,133.5,144,133.5l17.5-2L164,136.1z"/>
				<line class="st10" x1="153" y1="144.4" x2="160.3" y2="159.2"/>
				<line class="st10" x1="167" y1="180.7" x2="163" y2="170.7"/>
			</g>
			<g>
				<path class="st9" d="M52.8,118c0,0-2.9-3.2-5.3-5.6c-2.4-2.4-5.8-0.8-6.3-0.6c-0.5,0.2,1.9,6.8,2.4,7.1c0.5,0.3-1.1,6.1-1.1,7.1
					c0,1,0.8,2.3,0,2.3c-0.8,0-3.8-0.9-5-1.1c-1.2-0.2-2.9,1.3-3.5,1.6c-0.6,0.3,1.8,4.7,1.8,4.7s5.6,6.9,7.3,8.4
					c1.6,1.5,6.3,4.2,8.5,2.7c2.3-1.5,4.2-7.1,6.9-7.4s5.5,0.6,8.1-0.8c2.6-1.5,6.1-6.6,6.1-6.6s-1.3,5.2-1.6,6
					c-0.3,0.8,0.6,2.7,1.8,2.9c1.1,0.2,3.7,1.3,4.4,0.5c0.6-0.8,2.6-9.7,3.7-12.6c1.1-2.9,0.2-6-2.6-6.1c-2.7-0.2-7.6,0.2-8.5,0.2
					c-1,0-3.5,0-6.6-3.4c-3.1-3.4-6.8-7.4-6.8-7.4l-5.3,0.2L52.8,118z"/>
				<path class="st9" d="M56.5,102.7c0,0,3.8,15.7,3.8,18c0,2.2-7.7,2.9-7.7,2.9s-2.2-10.3-2.9-12.5c-0.6-2.2-3.2-9.9,0.3-11.2
					C53.6,98.6,55.2,98.9,56.5,102.7z"/>
				<path class="st9" d="M44.7,111.4c-1.6,0-7.1,0.6-8,3.8c-1,3.2,3.5,8.3,3.8,12.2c0.3,3.8,0,7.4,4.2,8.7c4.2,1.3,6.1,0.6,5.1-2.9
					c-1-3.5-3.8-18.9-3.8-18.9"/>
				<path class="st9" d="M34.1,137.4c0,0-1.3,2.9-3.2,4.8c-1.9,1.9-2.9,2.9-1.6,5.5c1.3,2.6,2.6,7.7,4.5,5.5
					c1.9-2.2,2.9-1.9,1.9-4.5c-1-2.6-1.3-4.5-1.3-4.5l3.5-4.2L34.1,137.4z"/>
				<path class="st9" d="M37.5,127c0,0-7.9,3.3-7.3,4.6c0.6,1.3,2.9,3.8,3.8,5.8c1,1.9,2.6,6.4,4.5,7.7c1.9,1.3,7.1-1.9,5.8-3.5
					c-1.3-1.6-2.9-2.9-3.8-5.5c-1-2.6-2.2-6.7-2.2-8"/>
			</g>
			<g>
				<path class="st9" d="M157.7,118c0,0,2.9-3.2,5.3-5.6c2.4-2.4,5.8-0.8,6.3-0.6c0.5,0.2-1.9,6.8-2.4,7.1c-0.5,0.3,1.1,6.1,1.1,7.1
					c0,1-0.8,2.3,0,2.3c0.8,0,3.8-0.9,5-1.1c1.2-0.2,2.9,1.3,3.5,1.6c0.6,0.3-1.8,4.7-1.8,4.7s-5.6,6.9-7.3,8.4
					c-1.6,1.5-6.3,4.2-8.5,2.7c-2.3-1.5-4.2-7.1-6.9-7.4c-2.7-0.3-5.5,0.6-8.1-0.8c-2.6-1.5-6.1-6.6-6.1-6.6s1.3,5.2,1.6,6
					c0.3,0.8-0.6,2.7-1.8,2.9c-1.1,0.2-3.7,1.3-4.4,0.5c-0.6-0.8-2.6-9.7-3.7-12.6c-1.1-2.9-0.2-6,2.6-6.1c2.7-0.2,7.6,0.2,8.5,0.2
					s3.5,0,6.6-3.4c3.1-3.4,6.8-7.4,6.8-7.4l5.3,0.2L157.7,118z"/>
				<path class="st9" d="M154,102.7c0,0-3.8,15.7-3.8,18c0,2.2,7.7,2.9,7.7,2.9s2.2-10.3,2.9-12.5c0.6-2.2,3.2-9.9-0.3-11.2
					C156.8,98.6,155.2,98.9,154,102.7z"/>
				<path class="st9" d="M165.8,111.4c1.6,0,7.1,0.6,8,3.8c1,3.2-3.5,8.3-3.8,12.2c-0.3,3.8,0,7.4-4.2,8.7c-4.2,1.3-6.1,0.6-5.1-2.9
					c1-3.5,3.8-18.9,3.8-18.9"/>
				<path class="st9" d="M176.4,137.4c0,0,1.3,2.9,3.2,4.8c1.9,1.9,2.9,2.9,1.6,5.5c-1.3,2.6-2.6,7.7-4.5,5.5
					c-1.9-2.2-2.9-1.9-1.9-4.5c1-2.6,1.3-4.5,1.3-4.5l-3.5-4.2L176.4,137.4z"/>
				<path class="st9" d="M173,127c0,0,7.9,3.3,7.3,4.6c-0.6,1.3-2.9,3.8-3.8,5.8c-1,1.9-2.6,6.4-4.5,7.7c-1.9,1.3-7.1-1.9-5.8-3.5
					c1.3-1.6,2.9-2.9,3.8-5.5c1-2.6,2.2-6.7,2.2-8"/>
			</g>
			<g>
				<path class="st15" d="M84.2,442c0,0,5,0.3,7.3-2s4.5-5.8,4.8-10s-3.3-9.5-3.5-13.3s1.8-6.3,2.3-8.8s1-4.8-0.5-7.3
					S90,390.5,90,389s-2-10-1.8-11.3s0.3-6,0.3-6s2.5-0.3,3.5-0.3s3.5,5.5,3.5,5.5s1.8,2.5,1.8,3.8S99,387,99,387s0.8-6.3,1.7-8.5
					c1-2.3,2.3-4,3-4.8s0.8-1,0.8-3.5s0-4,0.5-5s0.5-3,0.5-3s-1.8-3.3-3.5-5.8s-5.7-9.3-6.2-10.5s-2-3.8-2-5.3s0-3,0-3s-1-3-0.3-9
					C91,331.5,90,325,88,328s-2.5,7.5-2.5,12.5s-4.5,5-7.5,5s-8.5-1.5-11.5-3.5s-4.5-5-4.5-5l-0.2,0.2c0.9,4.4,1.7,8.1,1.7,8.1
					s-3.8,9-3.8,13.5s0.8,8.5,0.8,10.5s1.3,5,0,7.3s-1.8,6.3-1.8,6.3s5.3-1,5.8-2.5c0.5-1.5,0.3-3,0.8-4.8s-0.3-2,0.5-1.8
					S70,378,70,378s3.5,2,3.5,4s1.5,9.5,1.8,10.3s0.8,3,0.8,3s-2.3,1.5-2.3,3s2.3,2.5,2.5,5s0.5,3.3,0.5,3.3s-0.8,6.3-1,8.5
					s-3,9-3,9s-4.8,9.3-5,11.3s4,4.8,6.5,5S84.2,442,84.2,442z"/>
				<path class="st8" d="M97.5,408c0-0.2,0.1-0.4,0.1-0.7C97.5,407.6,97.4,407.8,97.5,408z"/>
			</g>
			<path class="st15" d="M139,433c1.3,0.5,4.5,0,6-0.3s2.8-1.5,2.3-3.3s-1.5-3.8-3.8-4.8s-4.3-2-6-3.8s-1.3-1.3-4-4.5
				s-3.5-3.3-4.3-4.8S128,409,128,408s0.8-2.8,1.3-5.3s1-4,1-5s0.5-2.3-1-2.3s-1.8,0-3.3,0.3s-2.5,0.5-2.5,0.5l7.3-10.5
				c0,0,2-4,3-3.5s2.3,3.5,2.3,3.5s2.5,0,2.5,1.8s0.3,2.8,0,3.8S138,396,138,396s3-4.3,3.8-5.3s1.8-3,1.8-3s-1.3-1.8-1.3-3.8
				s-1.8-2.5,1-3.8s5-1.8,5-1.8s0.5,0,0.3-1.5s-2.5-1.3-2-7.8s-0.8-7.3,1-9.8s2.3-4,3.3-5.8s1-2.3,1.8-3.3s1-3,2.3-3s0.3-2.5,2.3-10
				c1.7-6.3,2.6-8.4,2-13.3c-0.8,1.1-1.7,2.1-2.5,2.8c-3.5,3-6.5-6-10-9s-23-23-23-23l14,24.5c0,0-7.5-5-9.5-7.5
				c-1.7-2.1-15.6-19.7-19.8-25c1.6,3.4,3.5,7.5,4.3,9.2c1.5,3.3,8.5,21.3,9.8,24s3.5,5.8,3.3,7.8s-0.8,3.8-2.3,7.3s-1,5-3,7.3
				s-4,7.8-4.8,8.3s-1,2-1,4.3s0,3.3,0,8.3s-1,9.3-1.3,15.3s1.3,6.8-0.5,9.3s-2,4.8-3,5.8s-1-2.8-3.8-0.3s-6,3.3-6.5,7.8
				s-2.3,6.3-2,7s9.2,7.8,9.2,7.8l3.3-3c0,0,0.5-0.5,2,4s2.3,6.8,3.3,8s9.5,6,11.8,6.3S137.7,432.5,139,433z"/>
		</g>
	</g>
</g>
</svg>
