<?xml version="1.0" encoding="utf-8"?>
<!-- Generator: Adobe Illustrator 23.0.1, SVG Export Plug-In . SVG Version: 6.00 Build 0)  -->
<svg version="1.1" xmlns="http://www.w3.org/2000/svg" xmlns:xlink="http://www.w3.org/1999/xlink" x="0px" y="0px"
	 viewBox="0 0 500 500" style="enable-background:new 0 0 500 500;" xml:space="preserve">
<style type="text/css">
	.st0{fill:#92E3A9;}
	.st1{opacity:0.7;fill:#FFFFFF;}
	.st2{fill:none;stroke:#263238;stroke-linecap:round;stroke-linejoin:round;stroke-miterlimit:10;}
	.st3{fill:#263238;}
	.st4{clip-path:url(#XMLID_4_);}
	.st5{fill:#92E3A9;stroke:#263238;stroke-linecap:round;stroke-linejoin:round;stroke-miterlimit:10;}
	.st6{opacity:0.6;clip-path:url(#XMLID_5_);fill:#FFFFFF;}
	.st7{fill:#757575;stroke:#263238;stroke-linecap:round;stroke-linejoin:round;stroke-miterlimit:10;}
	.st8{fill:#FFFFFF;stroke:#263238;stroke-linecap:round;stroke-linejoin:round;stroke-miterlimit:10;}
	.st9{opacity:0.5;clip-path:url(#XMLID_4_);fill:#263238;}
	.st10{opacity:0.4;clip-path:url(#XMLID_4_);}
	.st11{fill:#263238;stroke:#FFFFFF;stroke-linecap:round;stroke-linejoin:round;stroke-miterlimit:10;}
	.st12{fill:#FFFFFF;}
	.st13{opacity:0.3;clip-path:url(#XMLID_4_);}
	.st14{opacity:0.3;clip-path:url(#XMLID_4_);fill-opacity:0.7;}
	.st15{opacity:0.3;clip-path:url(#XMLID_6_);fill-opacity:0.7;}
	.st16{opacity:0.3;fill-opacity:0.7;}
	.st17{opacity:0.3;}
	.st18{fill:none;stroke:#FFFFFF;stroke-linecap:round;stroke-linejoin:round;stroke-miterlimit:10;}
</style>
<g id="Background_Simple">
	<g>
		<path class="st0" d="M35.1,283.4c-4.4-20.6-3.2-42.3,5.8-64.5c11.6-28.6,36.4-48.8,64.2-60.7c40.4-17.2,80.1-17.5,112.9-51.2
			c10.1-10.4,18.6-22.3,29-32.5c30.5-30,75.2-26.4,108.5-2.6c69.6,49.7,94.6,148.1,90.7,229.5c-1.7,36.5-19.2,70.5-46.8,94.5
			c-62.4,54.2-168.4,45.1-240,16.8C106,391.5,47.7,342.3,35.1,283.4z"/>
		<path class="st1" d="M35.1,283.4c-4.4-20.6-3.2-42.3,5.8-64.5c11.6-28.6,36.4-48.8,64.2-60.7c40.4-17.2,80.1-17.5,112.9-51.2
			c10.1-10.4,18.6-22.3,29-32.5c30.5-30,75.2-26.4,108.5-2.6c69.6,49.7,94.6,148.1,90.7,229.5c-1.7,36.5-19.2,70.5-46.8,94.5
			c-62.4,54.2-168.4,45.1-240,16.8C106,391.5,47.7,342.3,35.1,283.4z"/>
	</g>
</g>
<g id="Graphics">
	<g>
		<g>
			<g>
				<path class="st2" d="M297.5,397.8c0,4.2-1,8.2-2.9,11.7h-5.4c-0.2,0-0.3,0-0.5,0c-1,0.2-1.7,1.1-1.7,2.1v6.6
					c-4.1,3-9.2,4.8-14.7,4.8c-8.4,0-15.8-4.1-20.3-10.3c-3.1-4.2-4.8-9.3-4.8-14.9c0-13.9,11.3-25.2,25.2-25.2
					S297.5,383.9,297.5,397.8z"/>
				<path class="st2" d="M278.5,407.1c4,0.5,7.5,1.5,10.3,2.5c-1,0.2-1.7,1.1-1.7,2.1v6.6c-4.1,3-9.2,4.8-14.7,4.8
					c-8.4,0-15.8-4.1-20.3-10.3c0.1-0.3,0.3-0.5,0.4-0.8c0.9-1.5,6.6-4,14.6-4.8c0.6-1.2,0.6-2.8,0.5-4c0-0.2-0.1-0.4-0.1-0.6
					c-0.5-0.5-0.9-1-1.1-1.4c-0.4-0.8-0.7-1.9-1-3.2c0,0.3-0.1,0.6-0.2,0.7c-0.6,0.6-1.1-0.4-1.2-1.2c-0.1-0.8-1.1-2.3-1.4-3.1
					s0.3-1.7,0.7-2.1c0.2-0.1,0.4-0.1,0.6,0.1c-0.3-1.3-0.5-2.9-0.3-4.4c0.4-3.4,2.5-4.6,2.5-4.6s1-2.9,6.6-2.9
					c6.1,0,6.7,3.3,6.7,3.3s3.1,2.1,1.9,8.6c0.2-0.1,0.4-0.2,0.6-0.1c0.4,0.3,0.9,1.2,0.7,2.1c-0.2,0.8-1.3,2.3-1.4,3.1
					c-0.1,0.8-0.6,1.8-1.2,1.2c-0.1-0.1-0.1-0.2-0.1-0.3c-0.3,1.2-0.7,2.3-1,3.1c-0.2,0.5-0.7,1-1.3,1.5c-0.1,1.1-0.1,2,0.1,2.6
					C277.9,406.2,278.2,406.7,278.5,407.1z"/>
			</g>
			<g>
				<path class="st2" d="M297.2,421.8h-8c-1.2,0-2.1-1-2.1-2.1v-8c0-1.2,1-2.1,2.1-2.1h8c1.2,0,2.1,1,2.1,2.1v8
					C299.3,420.8,298.4,421.8,297.2,421.8z"/>
				<polygon class="st3" points="296.3,414.9 293.9,414.9 293.9,412.6 292.5,412.6 292.5,414.9 290.1,414.9 290.1,416.3 
					292.5,416.3 292.5,418.7 293.9,418.7 293.9,416.3 296.3,416.3 				"/>
			</g>
		</g>
		<g>
			<g>
				<path class="st2" d="M140.5,195.1c0,5.9-1.5,11.4-4,16.3h-8.4c-1.2,0-2.1,1-2.1,2.1v10c-5.8,4.2-12.8,6.6-20.5,6.6
					c-11.6,0-21.9-5.7-28.3-14.4c-4.2-5.8-6.7-12.9-6.7-20.7c0-19.3,15.7-35,35-35S140.5,175.8,140.5,195.1z"/>
				<g>
					<path class="st2" d="M129.8,207.6l-42.2,8.2c-1.5,0.3-3-0.7-3.2-2.2L79,185.8c-0.3-1.5,0.7-3,2.2-3.2l42.2-8.2
						c1.5-0.3,3,0.7,3.2,2.2l5.4,27.8C132.3,205.9,131.3,207.3,129.8,207.6z"/>
					<path class="st2" d="M79.2,186.9l22.8,12.4c2.8,1.5,6.3,0.8,8.3-1.6l16.5-20.1"/>
					<line class="st2" x1="87.9" y1="213.1" x2="102" y2="199.3"/>
					<line class="st2" x1="128.3" y1="205.2" x2="110.3" y2="197.7"/>
				</g>
			</g>
			<g>
				<path class="st2" d="M140.9,228.4h-12.8c-1.2,0-2.1-1-2.1-2.1v-12.8c0-1.2,1-2.1,2.1-2.1h12.8c1.2,0,2.1,1,2.1,2.1v12.8
					C143,227.5,142.1,228.4,140.9,228.4z"/>
				<polygon class="st3" points="138.7,218.9 135.5,218.9 135.5,215.7 133.5,215.7 133.5,218.9 130.3,218.9 130.3,220.9 
					133.5,220.9 133.5,224.1 135.5,224.1 135.5,220.9 138.7,220.9 				"/>
			</g>
		</g>
		<g>
			<g>
				<g>
					<path class="st2" d="M415.6,335.3h-31.8l0.6-1c2.8-4.4,4-9.5,3.9-14.7v-0.1c0-6.7,5.7-12,12.6-11.3c5.1,0.5,9.3,4.6,10,9.7
						c0.1,0.6,0.1,1.2,0.1,1.7c-0.1,5,1,10,3.7,14.3L415.6,335.3z"/>
					<path class="st2" d="M397.2,307.9c-1.4-1.4-1.4-3.7,0-5.1c1.4-1.4,3.7-1.4,5.1,0c1.4,1.4,1.4,3.7,0,5.1"/>
					<path class="st2" d="M416.5,338.6H383c-0.7,0-1.4-0.6-1.4-1.4v-0.6c0-0.7,0.6-1.4,1.4-1.4h33.4c0.7,0,1.4,0.6,1.4,1.4v0.6
						C417.8,338,417.2,338.6,416.5,338.6z"/>
					<circle class="st2" cx="399.7" cy="344.1" r="2.8"/>
				</g>
				<path class="st2" d="M430.1,326.7c0,5.1-1.3,9.9-3.5,14.1h-7c-1.2,0-2.1,1-2.1,2.1v8.4c-5,3.6-11.1,5.7-17.8,5.7
					c-10.1,0-19-4.9-24.5-12.5c-3.7-5-5.9-11.2-5.9-17.9c0-16.8,13.6-30.4,30.4-30.4C416.5,296.3,430.1,309.9,430.1,326.7z"/>
			</g>
			<g>
				<path class="st2" d="M430.2,355.6h-10.6c-1.2,0-2.1-1-2.1-2.1v-10.6c0-1.2,1-2.1,2.1-2.1h10.6c1.2,0,2.1,1,2.1,2.1v10.6
					C432.4,354.7,431.4,355.6,430.2,355.6z"/>
				<polygon class="st3" points="428.6,347.4 425.8,347.4 425.8,344.5 424.1,344.5 424.1,347.4 421.3,347.4 421.3,349.1 
					424.1,349.1 424.1,351.9 425.8,351.9 425.8,349.1 428.6,349.1 				"/>
			</g>
		</g>
	</g>
</g>
<g id="Interface">
	<g>
		<defs>
			<path id="XMLID_332_" d="M425.9,78.1v218.3c0,3.8-3.1,6.9-7,6.9H194.7c-3.8,0-7-3.1-7-6.9V78.1c0-3.8,3.1-6.9,7-6.9h224.2
				C422.8,71.2,425.9,74.3,425.9,78.1z"/>
		</defs>
		<use xlink:href="#XMLID_332_"  style="overflow:visible;fill:#FFFFFF;"/>
		<clipPath id="XMLID_4_">
			<use xlink:href="#XMLID_332_"  style="overflow:visible;"/>
		</clipPath>
		<g class="st4">
			<path class="st5" d="M389,285h-55.2c-7.2,0-13-5.8-13-13l0,0c0-7.2,5.8-13,13-13H389c7.2,0,13,5.8,13,13l0,0
				C402,279.2,396.2,285,389,285z"/>
			<g>
				<path class="st3" d="M347.3,278.4h-2.1l-0.4-2.4h-2.6l-0.4,2.4H340l2.1-13.3h3.1L347.3,278.4z M342.5,274.2h2l-1-6.7h0
					L342.5,274.2z"/>
				<path class="st3" d="M354.3,273.4v1.8c0,2.1-1.1,3.3-3.1,3.3c-2.1,0-3.1-1.2-3.1-3.3v-6.9c0-2.1,1.1-3.3,3.1-3.3
					c2.1,0,3.1,1.2,3.1,3.3v1.3h-2v-1.4c0-1-0.4-1.3-1.1-1.3c-0.7,0-1.1,0.4-1.1,1.3v7.2c0,0.9,0.4,1.3,1.1,1.3
					c0.7,0,1.1-0.3,1.1-1.3v-1.9H354.3z"/>
				<path class="st3" d="M361.6,273.4v1.8c0,2.1-1.1,3.3-3.1,3.3c-2.1,0-3.1-1.2-3.1-3.3v-6.9c0-2.1,1.1-3.3,3.1-3.3
					c2.1,0,3.1,1.2,3.1,3.3v1.3h-2v-1.4c0-1-0.4-1.3-1.1-1.3c-0.7,0-1.1,0.4-1.1,1.3v7.2c0,0.9,0.4,1.3,1.1,1.3
					c0.7,0,1.1-0.3,1.1-1.3v-1.9H361.6z"/>
				<path class="st3" d="M365,270.7h2.9v1.9H365v3.9h3.6v1.9h-5.7v-13.3h5.7v1.9H365V270.7z"/>
				<path class="st3" d="M376.1,268.4v1.7c0,2.1-1,3.3-3.1,3.3h-1v5h-2.1v-13.3h3.1C375.1,265.1,376.1,266.2,376.1,268.4z M372,267
					v4.5h1c0.7,0,1-0.3,1-1.3v-2c0-1-0.4-1.3-1-1.3H372z"/>
				<path class="st3" d="M376.5,265.1h6.5v1.9h-2.2v11.4h-2.1V267h-2.2V265.1z"/>
			</g>
		</g>
		<g class="st4">
			<g>
				<defs>
					<path id="XMLID_335_" d="M279.8,285h-55.2c-7.2,0-13-5.8-13-13l0,0c0-7.2,5.8-13,13-13h55.2c7.2,0,13,5.8,13,13l0,0
						C292.8,279.2,287,285,279.8,285z"/>
				</defs>
				<use xlink:href="#XMLID_335_"  style="overflow:visible;fill:#92E3A9;"/>
				<clipPath id="XMLID_5_">
					<use xlink:href="#XMLID_335_"  style="overflow:visible;"/>
				</clipPath>
				<path class="st6" d="M279.8,285h-55.2c-7.2,0-13-5.8-13-13l0,0c0-7.2,5.8-13,13-13h55.2c7.2,0,13,5.8,13,13l0,0
					C292.8,279.2,287,285,279.8,285z"/>
				
					<use xlink:href="#XMLID_335_"  style="overflow:visible;fill:none;stroke:#263238;stroke-linecap:round;stroke-linejoin:round;stroke-miterlimit:10;"/>
			</g>
			<g>
				<path class="st3" d="M229.4,265.1h3.3c2.1,0,3.1,1.2,3.1,3.3v6.7c0,2.1-1,3.3-3.1,3.3h-3.3V265.1z M231.5,267v9.5h1.2
					c0.7,0,1.1-0.3,1.1-1.3v-6.9c0-1-0.4-1.3-1.1-1.3H231.5z"/>
				<path class="st3" d="M239.2,270.7h2.9v1.9h-2.9v3.9h3.6v1.9h-5.7v-13.3h5.7v1.9h-3.6V270.7z"/>
				<path class="st3" d="M250.2,273.4v1.8c0,2.1-1.1,3.3-3.1,3.3c-2.1,0-3.1-1.2-3.1-3.3v-6.9c0-2.1,1.1-3.3,3.1-3.3
					c2.1,0,3.1,1.2,3.1,3.3v1.3h-2v-1.4c0-1-0.4-1.3-1.1-1.3s-1.1,0.4-1.1,1.3v7.2c0,0.9,0.4,1.3,1.1,1.3s1.1-0.3,1.1-1.3v-1.9
					H250.2z"/>
				<path class="st3" d="M251.5,265.1h2.1v11.4h3.4v1.9h-5.5V265.1z"/>
				<path class="st3" d="M257.9,265.1h2.1v13.3h-2.1V265.1z"/>
				<path class="st3" d="M263.4,268.7L263.4,268.7l0,9.6h-1.9v-13.3h2.6l2.1,8h0v-8h1.9v13.3H266L263.4,268.7z"/>
				<path class="st3" d="M271.7,270.7h2.9v1.9h-2.9v3.9h3.6v1.9h-5.7v-13.3h5.7v1.9h-3.6V270.7z"/>
			</g>
		</g>
		<g class="st4">
			<path class="st5" d="M361,175.9c0,11.2-3.4,21.6-9.2,30.2c-9.7,14.5-26.3,24-45,24c-18,0-33.9-8.8-43.8-22.3
				c-6.6-9-10.4-20-10.4-32c0-29.9,24.3-54.2,54.2-54.2S361,146,361,175.9z"/>
			<g>
				<path class="st7" d="M351.9,206.1c-9.7,14.5-26.3,24-45,24c-18,0-33.9-8.8-43.8-22.3c0.3-0.5,0.6-1.1,1-1.6
					c2-3.3,14.2-8.5,31.6-10.4c3.7-0.4,7.6-0.7,11.8-0.7c4.4,0,8.6,0.2,12.7,0.7C335.1,197.8,347.6,202.8,351.9,206.1z"/>
				<path class="st8" d="M321.3,197.2c0,0-3.8,7.7-13.5,7.8c-8,0-13.8-6.9-13.8-6.9c2.8-2.5,3-7.2,2.6-10.8c-0.3-3-1-5.3-1-5.3h23.9
					c-1.5,4.8-1.4,8.2-0.8,10.6C319.3,195.9,321.3,197.2,321.3,197.2z"/>
				<path class="st3" d="M318.5,192.4c-17.2,4.5-20.7-5.3-20.7-5.3l-1.3,0.1c-0.3-3-1-5.3-1-5.3h23.9
					C317.9,186.6,317.9,190,318.5,192.4z"/>
				<g>
					<g>
						<path class="st8" d="M324.5,165.1c0,0,1.9-2.1,2.9-1.4c0.9,0.7,2.1,2.6,1.5,4.4c-0.5,1.8-2.7,4.9-2.9,6.7
							c-0.2,1.8-1.3,3.8-2.6,2.7C322.2,176.2,324.5,165.1,324.5,165.1z"/>
						<path class="st8" d="M290.3,165.1c0,0-1.9-2.1-2.9-1.4c-0.9,0.7-2.1,2.6-1.5,4.4c0.5,1.8,2.7,4.9,2.9,6.7
							c0.2,1.8,1.3,3.8,2.6,2.7C292.7,176.2,290.3,165.1,290.3,165.1z"/>
					</g>
					<path class="st8" d="M307,141c24.2,0,18.4,32.2,14,42.5c-1.6,3.6-9.7,8.4-13.6,8.4c-3.6,0-12-5.7-13.4-9.1
						C289.5,172.4,284,141,307,141z"/>
					<g>
						<path class="st2" d="M311.1,160.8c0,0,6.3-1.9,8.2,1.9"/>
						<path class="st3" d="M315.8,166.1c0,0.7-0.4,1.3-0.8,1.3c-0.5,0-0.8-0.6-0.8-1.3c0-0.7,0.4-1.3,0.8-1.3
							C315.4,164.8,315.8,165.4,315.8,166.1z"/>
						<path class="st2" d="M303.7,160.8c0,0-6.3-1.9-8.2,1.9"/>
						<path class="st3" d="M299.1,166.1c0,0.7,0.4,1.3,0.8,1.3c0.5,0,0.8-0.6,0.8-1.3c0-0.7-0.4-1.3-0.8-1.3
							C299.4,164.8,299.1,165.4,299.1,166.1z"/>
					</g>
					<path class="st3" d="M317,149.2c0,0-8.7,3.3-18.6,0c0,0-3.3-0.2-4.5,1.4c-1.3,1.6,0,6.7,0.3,8.8c0.3,2.1-2.8,3.5-2.4,8.7
						l-1.2,1.8c0,0-3.4-8.4-2.6-15.6c0.9-7.2,5.4-10,5.4-10s2.1-6.2,14.2-6.2c13.1,0.1,14.4,7.1,14.4,7.1s8.9,5.9,2.3,25.2l-1.4-2.4
						c0,0,0.7-3.9-1.7-7.3c-1.1-1.7,0.7-6.7,0.3-9.3C321.1,148.9,317,149.2,317,149.2z"/>
					<path class="st2" d="M308.8,164.8c0,0,0.1,5.9,1.6,7.8c0.8,1-0.8,3.1-3.1,3.5"/>
					<path class="st8" d="M302.1,179.5c0,0,0.6,2.2,2.2,2.9s6.7,0.4,7.6-0.2c0.9-0.6,1.4-2.5,1.4-2.5"/>
					<path class="st2" d="M301.6,179.4c0,0,5,1.4,12.5,0"/>
					<path class="st3" d="M319.3,149.5c0,0-2.7,4-11.6,4.9c0,0,0.9-0.7,1.6-2.2c0,0-3.6,3.1-9.4,2.2s-9,3.7-9,3.7l-1.5,6.8
						c0,0-5.3-6-1.5-15.6l-1.4,1.1c0,0,1.5-12.9,17-13.4l-1.9-1.1c0,0,15.4-3.3,21.5,6.9c0,0,5.4,1,6.7,10.3l-1.5-1
						c0,0,2.4,7.7-2.6,14.2C325.7,166.1,319.3,155.9,319.3,149.5z"/>
				</g>
			</g>
		</g>
		<path class="st9" d="M365.8,105.5H247.9c-1.7,0-3-1.3-3-3l0,0c0-1.7,1.3-3,3-3h117.9c1.7,0,3,1.3,3,3l0,0
			C368.8,104.2,367.4,105.5,365.8,105.5z"/>
		<g class="st10">
			<path d="M357.3,238.7h-101c-0.7,0-1.2-0.5-1.2-1.2l0,0c0-0.7,0.5-1.2,1.2-1.2h101c0.7,0,1.2,0.5,1.2,1.2l0,0
				C358.5,238.1,358,238.7,357.3,238.7z"/>
			<path d="M347.3,245h-81c-0.7,0-1.2-0.5-1.2-1.2l0,0c0-0.7,0.5-1.2,1.2-1.2h81c0.7,0,1.2,0.5,1.2,1.2l0,0
				C348.5,244.5,348,245,347.3,245z"/>
		</g>
		<g class="st4">
			<path class="st11" d="M360.2,227.6h-16.8c-2.7,0-4.8-2.2-4.8-4.8v-16.8c0-2.7,2.2-4.8,4.8-4.8h16.8c2.7,0,4.8,2.2,4.8,4.8v16.8
				C365,225.4,362.8,227.6,360.2,227.6z"/>
			<polygon class="st12" points="358.3,212.8 353.3,212.8 353.3,207.8 350.3,207.8 350.3,212.8 345.2,212.8 345.2,215.8 
				350.3,215.8 350.3,220.9 353.3,220.9 353.3,215.8 358.3,215.8 			"/>
		</g>
		<path class="st13" d="M419.2,82.3c0,2.7-2.2,4.9-4.9,4.9c-2.7,0-4.9-2.2-4.9-4.9c0-2.7,2.2-4.9,4.9-4.9
			C417,77.4,419.2,79.6,419.2,82.3z"/>
		<path class="st13" d="M405.2,82.3c0,2.7-2.2,4.9-4.9,4.9c-2.7,0-4.9-2.2-4.9-4.9c0-2.7,2.2-4.9,4.9-4.9
			C403,77.4,405.2,79.6,405.2,82.3z"/>
		<path class="st14" d="M326.5,279c0,0,6.3,1.4,6.5,5.9c0.5,9.8,0.5,10.1-6.4,9.2c0,0-4.2,5.7-14.2,4.1c0,0-1.3,2-3.5,5.2H291
			c4.9-5.9,8.9-10.8,10.7-13.1c6.4-8.5,36.3-21,36.3-21S337.8,272.5,326.5,279z"/>
		
			<use xlink:href="#XMLID_332_"  style="overflow:visible;fill:none;stroke:#263238;stroke-linecap:round;stroke-linejoin:round;stroke-miterlimit:10;"/>
	</g>
</g>
<g id="Character">
	<g>
		<path class="st8" d="M101.2,444.1c0,0,1.8-12.8,3.1-18.1c1.3-5.3,9-25.7,10.7-37.2l-19.7-15.7c0,0-7.4,38.4-7.4,44.4l-4.1,13.1"/>
		<g>
			<defs>
				<path id="XMLID_3_" d="M120.8,403.4c-4.1-3.1-8.2-6.5-12.2-10c-5.8-5-11.5-10.4-16.9-16.1c1.3-5.9,2.9-12.7,4.9-18.9
					c2.3-7.2,7-11.4,11.1-13.9c0.1,0,0.1-0.1,0.2-0.1c0.3-0.2,0.6-0.4,0.9-0.5c0.6-0.3,1.1-0.6,1.7-0.8c3.2-1.4,5.6-1.8,5.6-1.8
					l4.3,55.9L120.8,403.4z"/>
			</defs>
			<use xlink:href="#XMLID_3_"  style="overflow:visible;fill:#92E3A9;"/>
			<clipPath id="XMLID_6_">
				<use xlink:href="#XMLID_3_"  style="overflow:visible;"/>
			</clipPath>
			<path class="st15" d="M120.8,403.4c-4.1-3.1-8.2-6.5-12.2-10c-5.8-5-11.5-10.4-16.9-16.1c1.3-5.9,2.9-12.7,4.9-18.9
				c2.3-7.2,7-11.4,11.1-13.9c0.1,0,0.1-0.1,0.2-0.1c0.3-0.2,0.6-0.4,0.9-0.5c0.6-0.3,1.1-0.6,1.7-0.8c3.2-1.4,5.6-1.8,5.6-1.8
				l4.3,55.9L120.8,403.4z"/>
			
				<use xlink:href="#XMLID_3_"  style="overflow:visible;fill:none;stroke:#263238;stroke-linecap:round;stroke-linejoin:round;stroke-miterlimit:10;"/>
		</g>
		<path class="st2" d="M100.2,372.3c0,0,2.3,15.6,12.9,21.6"/>
		<path class="st0" d="M206.1,385c0,8-6.5,40.4-6.5,40.4l-0.2,28.4c0,0-13.5,4.5-35.2,4.5c-26.6,0-38.4-7.1-39.5-7.8
			c0,0-0.1,0-0.1,0l4-19.7c0,0-21-49.6-21.4-51.3c-0.6-2.5-1.2-5.1-1.7-7.6c-1.1-6.3-1.5-12.5-0.9-17.8c0.4-3.6,1.4-6.9,2.9-9.6
			c0.1-0.2,0.2-0.4,0.4-0.6c0.5-0.9,1.2-1.7,1.9-2.4c0.1-0.1,0.1-0.1,0.2-0.2c0.7-0.7,1.4-1.3,2.1-1.8c0,0,0,0,0,0
			c0.3-0.2,0.5-0.4,0.8-0.5c0.2-0.1,0.4-0.3,0.7-0.4c0.1-0.1,0.3-0.2,0.4-0.3c0.2-0.1,0.4-0.2,0.5-0.3c0.3-0.2,0.6-0.3,0.8-0.5
			c15.8-8.8,45.2-7.4,45.2-7.4c0.3-0.1,0.6-0.2,1-0.2c0,0,0.1,0,0.1,0c0.5,0,1.1,0,1.8,0.1c7.3,1.4,20.7,13.4,30.6,27
			c3,4.2,5.7,8.5,7.8,12.8C204.4,375,206.1,380.4,206.1,385z"/>
		<path class="st16" d="M205.9,382.3c-8-2.3-14.8-7.4-14.8-7.4c-7.1,1.3-13.9-5.7-15.7-9.5l23.3-1.5c1.1,1.9,2.2,3.7,3.1,5.6
			C203.9,374,205.4,378.3,205.9,382.3z"/>
		<path class="st16" d="M133.3,435.8c0,0,5.2,22.4-8.6,14.7c0,0-0.1,0-0.1,0l4-19.7c0,0-21-49.6-21.4-51.3c-0.6-2.5-1.2-5.1-1.7-7.6
			c-1.1-6.3-1.5-12.5-0.9-17.8c0.4-3.6,1.4-6.9,2.9-9.6c0.1-0.2,0.2-0.4,0.4-0.6c0.5-0.9,1.2-1.7,1.9-2.4c0.1-0.1,0.1-0.1,0.2-0.2
			c0.7-0.7,1.4-1.3,2.1-1.8c0,0,0,0,0,0c0.3-0.2,0.5-0.4,0.8-0.5c0.2-0.1,0.4-0.3,0.7-0.4c0.1-0.1,0.3-0.2,0.4-0.3
			c0.2-0.1,0.4-0.2,0.5-0.3c0.3-0.2,0.6-0.3,0.8-0.5c14.5,1.1,30.7,8,33.8,22.1c0,0-1.3,21.6-6.1,29.5c-2.9,4.9-3.9,28,10.6,21.3
			C149.1,433.2,133.3,435.8,133.3,435.8z"/>
		<path id="XMLID_2_" class="st2" d="M124.6,450.4l4-19.7c0,0-21-49.6-21.4-51.3c-0.6-2.5-1.2-5.1-1.7-7.6
			c-1.1-6.3-1.5-12.5-0.9-17.8c0.4-3.6,1.4-6.9,2.9-9.6c0.1-0.2,0.2-0.4,0.4-0.6c0.5-0.9,1.2-1.7,1.9-2.4c0.1-0.1,0.1-0.1,0.2-0.2
			c0.7-0.7,1.4-1.3,2.1-1.8c0,0,0,0,0,0c14.6-11,48.4-9.5,48.4-9.5c0.3-0.1,0.6-0.2,1-0.2c0,0,0.1,0,0.1,0c0.5,0,1.1,0,1.8,0.1
			c7.3,1.4,20.7,13.4,30.6,27c3,4.2,5.7,8.5,7.8,12.8c2.7,5.5,4.4,10.9,4.4,15.5c0,8-6.5,40.4-6.5,40.4l-0.2,28.4"/>
		<g>
			<path class="st8" d="M175.1,284.6c-1.2-1.5-6.5-5-6.5-5c-1.1-6.9-1.6-16.1-8.8-23.3c-9.8-9.8-32.4-6.7-39.8,7.9
				c-14.8,29.1,13.1,56.5,47.3,50.7c2.9-0.5,4.9-3.3,5.3-16.9l0.9-1.9c0,0-0.9-3.2-1.2-4.9C174.1,289.6,176,285.6,175.1,284.6z"/>
			<path class="st2" d="M166.7,268.8c0,0-1.3,2-2,4.6"/>
			<path class="st2" d="M167.3,281.8c0,0,2.4,1.4,3.5,6"/>
			<path class="st2" d="M173.3,296.8c0,0-0.9,1.5-4.8,1.1"/>
			<path class="st3" d="M163.1,252.5c0,0,9-3.7,6.4,13.9c-2.6,17.6-15.6,38.5-26.6,34.6l0.2-1.6c0,0,9.6,3.8,17.7-12.9
				c8.1-16.7,7.4-32,2.8-29.3L163.1,252.5z"/>
			<path class="st3" d="M162.3,279.8c0,0-3.4,9.1-6.2,12c0,0-1.1-3.5-3.8-3.5c-2.7,0-5-7.1-5-7.1L162.3,279.8z"/>
			<path class="st3" d="M158.6,280.2c0,0-6.3,15.4-1.7,27.3c4.6,11.9,17.7,20.8,17.7,20.8l-4.2-1.9c0,0-11.1-7.3-14.9-19.9
				c-3.9-12.6-0.2-24.5-0.2-24.5L158.6,280.2z"/>
			<path class="st3" d="M106.5,259.7c0,0-10.6,4.3-10,19.9c0.6,15.6,11.3,29.2,13.4,49.1c1.9,17.3-17,32.5,2.1,52.8
				c0,0-8.4-13-5.8-27.5c2.6-14.5,11.3-12.4,4.8-36.1c-6.5-23.7-20.3-37.7-6-52.8L106.5,259.7z"/>
			<path class="st3" d="M167.9,324.4c-19.3-10.7-14-33.7-14-33.7c14.5-10.7,16.4-30.7,13.8-35.8c-2.7-5.1-8.5-3.4-8.5-3.4
				c-23.1-11-51.5-0.7-56.9,15.4c-6.9,20.7,4.9,36.6,10.7,54c5.2,15.6-6.8,18.5-6.8,34c-2.3,29,27.5,41.1,27.5,41.1
				s-2.6-1.4-2.6-4.5c0-3.2,8.1-3.2,13.5-12.1c4.4-7.4,4.8-25.5,6.3-34.2c2-7.9,4.5-14.2,9.7-15.4c13.6-3,25.4,10.2,25.4,10.2
				S187.2,335.1,167.9,324.4z"/>
			<g class="st17">
				<path class="st18" d="M162.3,254.6c2.1,3.7-13.7,23.2-19.4,40.1c-5.7,16.9,0.1,26.8,0.1,26.8"/>
				<path class="st18" d="M127,259.7c0,0-17.1,14.8-7.4,41.8c9.8,27,5.4,45.6,2.2,60.2c-3.2,14.6-0.6,19.6,3.3,23.5"/>
				<path class="st18" d="M148.6,304.3c0,0,9.2,10.4,2.9,25.3c-6.3,15-9.7,25.7-12.1,37.3c-2.4,11.7-7.6,14.5-7.6,14.5"/>
				<path class="st18" d="M149.1,252.2c0,0-9.5-0.4-14,11.7c-4.5,12.1-0.3,33.1-1.8,40.4"/>
				<path class="st18" d="M124.6,252.2c0,0-13.9,0.6-18.4,19.8c-4.4,19.3,8.9,35.4,10.4,50.4c1.4,15-7,28.9-6.5,39.2
					c0.5,10.3,6.5,15.8,6.5,15.8"/>
			</g>
		</g>
		<path class="st8" d="M211.6,331.4c0,0,30.5,2.3,34.8,2.3c4.4,0,44.7-40,51.8-47.9c7.1-7.9,38-17.8,38-17.8s-0.4,3.3-12.3,8.7
			c0,0,6.1,1.9,5.9,6.5c-0.4,9.8-0.4,10.1-7.2,8.6c0,0-4.6,5.3-14.5,2.8c0,0-23.7,29.5-34.2,43c-10.5,13.5-14.8,18-18.8,19.5
			c-4,1.5-52.2,4.6-52.2,4.6L211.6,331.4z"/>
		<path class="st5" d="M173.3,367.3c15.8,9.9,42.3-2.4,42.3-2.4s4.7-21.5,0-35.3c0,0-33.2-6.5-51.4-0.2c-1.9,0.6-3.3,2.1-4.2,4.1"/>
		<path class="st2" d="M211.4,328.9c0,0,4.3,15,0.6,33.8"/>
		<path class="st2" d="M206.1,342.7c0,0-10.9,17.9-25.1,20.6"/>
		<path class="st2" d="M195.9,370.6c0,0-7.3,8.7-16.3,8.7"/>
		<path class="st2" d="M188.8,371.1c0,0,1.2,2.7,0,5.3l0,0c0,0,1.2,5.2-1.1,12.7c-1.7,5.5-1.6,21.3-2.4,32.3c0,0,2.5,13.3,2.4,33.4"
			/>
		<path class="st2" d="M171.9,327.5c0,0,13.6-0.9,21.6,8.6"/>
		<path class="st2" d="M327.4,285.9c0,0-2,3.5-4.4,4.3c0,0-0.2,3.6-6.2,4.8"/>
		<path class="st2" d="M325.8,288.2c0,0,1,0.6,1.2,1.5"/>
		<path class="st2" d="M128.5,430.7c0,0,14.1,18.3,27.5,11.7"/>
		<path class="st2" d="M164.1,392.7c0,0-9.5,29.1-30.9,27.8"/>
	</g>
</g>
</svg>
