<?xml version="1.0" encoding="utf-8"?>
<!-- Generator: Adobe Illustrator 23.0.1, SVG Export Plug-In . SVG Version: 6.00 Build 0)  -->
<svg version="1.1" xmlns="http://www.w3.org/2000/svg" xmlns:xlink="http://www.w3.org/1999/xlink" x="0px" y="0px"
	 viewBox="0 0 500 500" style="enable-background:new 0 0 500 500;" xml:space="preserve">
<g id="Background_Simple">
	<g>
		<path style="fill:#92E3A9;" d="M41.13,279.33c-4.38-20.58-3.18-42.34,5.79-64.51c11.55-28.56,36.37-48.85,64.17-60.69
			c40.41-17.21,80.07-17.53,112.92-51.25c10.13-10.4,18.63-22.31,28.98-32.49c30.52-30.04,75.19-26.39,108.55-2.57
			c69.59,49.69,94.61,148.1,90.74,229.46c-1.74,36.51-19.17,70.49-46.76,94.45c-62.4,54.18-168.36,45.07-240.03,16.79
			C112.05,387.43,53.68,338.23,41.13,279.33z"/>
		<path style="opacity:0.7;fill:#FFFFFF;" d="M41.13,279.33c-4.38-20.58-3.18-42.34,5.79-64.51c11.55-28.56,36.37-48.85,64.17-60.69
			c40.41-17.21,80.07-17.53,112.92-51.25c10.13-10.4,18.63-22.31,28.98-32.49c30.52-30.04,75.19-26.39,108.55-2.57
			c69.59,49.69,94.61,148.1,90.74,229.46c-1.74,36.51-19.17,70.49-46.76,94.45c-62.4,54.18-168.36,45.07-240.03,16.79
			C112.05,387.43,53.68,338.23,41.13,279.33z"/>
	</g>
</g>
<g id="Line">
	<g>
		<g>
			<g>
				<line style="fill:none;stroke:#263238;stroke-linejoin:round;" x1="358.58" y1="105.45" x2="355.08" y2="105.45"/>
				
					<line style="fill:none;stroke:#263238;stroke-linejoin:round;stroke-dasharray:6.9903,6.9903;" x1="348.09" y1="105.45" x2="127.9" y2="105.45"/>
				<line style="fill:none;stroke:#263238;stroke-linejoin:round;" x1="124.4" y1="105.45" x2="120.9" y2="105.45"/>
			</g>
		</g>
		<g>
			<g>
				<line style="fill:none;stroke:#263238;stroke-linejoin:round;" x1="361" y1="390.34" x2="361" y2="386.84"/>
				
					<line style="fill:none;stroke:#263238;stroke-linejoin:round;stroke-dasharray:7.0633,7.0633;" x1="361" y1="379.78" x2="361" y2="114.9"/>
				<line style="fill:none;stroke:#263238;stroke-linejoin:round;" x1="361" y1="111.37" x2="361" y2="107.87"/>
			</g>
		</g>
		
			<rect x="358.58" y="103.03" style="fill:none;stroke:#263238;stroke-linejoin:round;stroke-miterlimit:10;" width="4.84" height="4.84"/>
	</g>
</g>
<g id="Cursor">
	<polygon style="fill:none;stroke:#263238;stroke-linecap:round;stroke-linejoin:round;stroke-miterlimit:10;" points="
		401.5,119.94 366.3,105.15 381.09,140.36 385.17,128.45 393.03,136.31 397.45,131.89 389.59,124.03 	"/>
</g>
<g id="Folders">
	<g>
		<g>
			<path style="fill:none;stroke:#263238;stroke-linecap:round;stroke-linejoin:round;stroke-miterlimit:10;" d="M333.65,430.21
				h-34.74c-2.46,0-4.77-1.99-5.16-4.44l-3.87-24.26c-0.39-2.45,1.29-4.44,3.74-4.44h34.74c2.46,0,4.77,1.99,5.16,4.44l3.87,24.26
				C337.79,428.22,336.11,430.21,333.65,430.21z"/>
			<path style="fill:none;stroke:#263238;stroke-linecap:round;stroke-linejoin:round;stroke-miterlimit:10;" d="M333.65,430.21
				c2.46,0,4.45-1.99,4.45-4.45V398.4c0-2.35-1.83-4.25-4.13-4.42l-1.08-2.78c-0.2-0.52-0.7-0.86-1.26-0.86h-11.36
				c-0.56,0-1.06,0.34-1.26,0.86l-1.07,2.75h-19.02c-1.96,0-3.62,1.27-4.22,3.02"/>
		</g>
		<g>
			<path style="fill:none;stroke:#263238;stroke-linecap:round;stroke-linejoin:round;stroke-miterlimit:10;" d="M202.98,430.21
				h-34.74c-2.46,0-4.77-1.99-5.16-4.44l-3.87-24.26c-0.39-2.45,1.29-4.44,3.74-4.44h34.74c2.46,0,4.77,1.99,5.16,4.44l3.87,24.26
				C207.12,428.22,205.44,430.21,202.98,430.21z"/>
			<path style="fill:none;stroke:#263238;stroke-linecap:round;stroke-linejoin:round;stroke-miterlimit:10;" d="M202.98,430.21
				c2.46,0,4.45-1.99,4.45-4.45V398.4c0-2.35-1.83-4.25-4.13-4.42l-1.08-2.78c-0.2-0.52-0.7-0.86-1.26-0.86H189.6
				c-0.56,0-1.06,0.34-1.26,0.86l-1.07,2.75h-19.02c-1.96,0-3.62,1.27-4.22,3.02"/>
		</g>
		<g>
			<path style="fill:none;stroke:#263238;stroke-linecap:round;stroke-linejoin:round;stroke-miterlimit:10;" d="M268.32,430.21
				h-34.74c-2.46,0-4.77-1.99-5.16-4.44l-3.87-24.26c-0.39-2.45,1.29-4.44,3.74-4.44h34.74c2.46,0,4.77,1.99,5.16,4.44l3.87,24.26
				C272.45,428.22,270.78,430.21,268.32,430.21z"/>
			<path style="fill:none;stroke:#263238;stroke-linecap:round;stroke-linejoin:round;stroke-miterlimit:10;" d="M268.32,430.21
				c2.46,0,4.45-1.99,4.45-4.45V398.4c0-2.35-1.83-4.25-4.13-4.42l-1.08-2.78c-0.2-0.52-0.7-0.86-1.26-0.86h-11.36
				c-0.56,0-1.06,0.34-1.26,0.86l-1.07,2.75h-19.02c-1.96,0-3.62,1.27-4.22,3.02"/>
		</g>
	</g>
</g>
<g id="Left_hand">
	<g>
		<path style="fill:#92E3A9;stroke:#263238;stroke-linecap:round;stroke-linejoin:round;stroke-miterlimit:10;" d="M287.42,159.54
			l9.42-11.64c2.15-2.66,2.98-6.14,2.26-9.48l-8.93-41.45c-0.69-3.18-3.5-5.45-6.75-5.45H266.1c-1.23,0-2.45,0.2-3.62,0.6
			L95.01,160.7l42.44,220.39c5.95,8.94,173.4-48.91,173.4-48.91c5.53-1.85,8.74-7.61,7.39-13.29l-34.26-144.24
			C282.73,169.36,284,163.78,287.42,159.54z"/>
		<path style="opacity:0.3;fill-opacity:0.7;" d="M262.93,96.42l53.01,227.18c0,0-179.23,66.76-170.78,46.11
			c0,0-42.65-202.95-39.06-203.7C109.7,165.25,262.93,96.42,262.93,96.42z"/>
		<g>
			<defs>
				<path id="XMLID_548_" d="M307.18,319.55l-154.57,49.07l-37.84-197.18l-2.15-11.22l137.7-66.63c2.76-1.34,6.25,0.37,7.04,3.46
					l2.85,11.13l51.69,202.59C312.88,314.62,310.85,318.38,307.18,319.55z"/>
			</defs>
			<use xlink:href="#XMLID_548_"  style="overflow:visible;fill:#FFFFFF;"/>
			<clipPath id="XMLID_2_">
				<use xlink:href="#XMLID_548_"  style="overflow:visible;"/>
			</clipPath>
			<path style="clip-path:url(#XMLID_2_);fill:#263238;" d="M260.21,108.18l-144.33,66.06l-3.26-14.03l137.7-66.63
				c2.76-1.34,6.25,0.37,7.04,3.46L260.21,108.18z"/>
			
				<path style="clip-path:url(#XMLID_2_);fill:#92E3A9;stroke:#263238;stroke-linecap:round;stroke-linejoin:round;stroke-miterlimit:10;" d="
				M252.97,103.3c0,2.02-1.43,3.55-3.2,3.43s-3.2-1.86-3.2-3.87c0-2.02,1.43-3.55,3.2-3.43S252.97,101.28,252.97,103.3z"/>
			
				<path style="clip-path:url(#XMLID_2_);fill:#92E3A9;stroke:#263238;stroke-linecap:round;stroke-linejoin:round;stroke-miterlimit:10;" d="
				M244.73,107.38c0,1.87-1.33,3.3-2.97,3.18c-1.64-0.11-2.97-1.72-2.97-3.6c0-1.87,1.33-3.3,2.97-3.18
				C243.4,103.9,244.73,105.51,244.73,107.38z"/>
			
				<path style="clip-path:url(#XMLID_2_);fill:#92E3A9;stroke:#263238;stroke-linecap:round;stroke-linejoin:round;stroke-miterlimit:10;" d="
				M236.94,110.91c0,1.75-1.24,3.08-2.78,2.98c-1.53-0.11-2.78-1.61-2.78-3.36s1.24-3.08,2.78-2.98
				C235.7,107.65,236.94,109.16,236.94,110.91z"/>
			<path style="opacity:0.3;clip-path:url(#XMLID_2_);fill-opacity:0.7;" d="M307.18,319.55l-154.57,49.07l-37.84-197.18
				l-2.15-11.22l137.7-66.63c2.76-1.34,6.25,0.37,7.04,3.46l2.85,11.13l51.69,202.59C312.88,314.62,310.85,318.38,307.18,319.55z"/>
			
				<use xlink:href="#XMLID_548_"  style="overflow:visible;fill:none;stroke:#263238;stroke-linecap:round;stroke-linejoin:round;stroke-miterlimit:10;"/>
		</g>
		<g>
			<path style="fill:#FFFFFF;stroke:#263238;stroke-linecap:round;stroke-linejoin:round;stroke-miterlimit:10;" d="M298.03,309.83
				L145.55,369.7l-37.33-194.54l-2.12-11.07l135.85-76.25c2.72-1.54,6.16-0.07,6.94,2.97l2.81,10.93l50.99,198.98
				C303.65,304.5,301.65,308.41,298.03,309.83z"/>
			<path style="fill:#263238;" d="M251.69,101.75L109.31,177.9l-3.21-13.8l135.85-76.25c2.72-1.54,6.16-0.07,6.94,2.97
				L251.69,101.75z"/>
			<path style="fill:#92E3A9;stroke:#263238;stroke-linecap:round;stroke-linejoin:round;stroke-miterlimit:10;" d="M244.56,97.37
				c0,2.02-1.41,3.65-3.15,3.65c-1.74,0-3.15-1.63-3.15-3.65s1.41-3.65,3.15-3.65C243.15,93.72,244.56,95.35,244.56,97.37z"/>
			<path style="fill:#92E3A9;stroke:#263238;stroke-linecap:round;stroke-linejoin:round;stroke-miterlimit:10;" d="M236.42,102.02
				c0,1.87-1.31,3.39-2.93,3.39c-1.62,0-2.93-1.52-2.93-3.39c0-1.87,1.31-3.39,2.93-3.39C235.11,98.64,236.42,100.15,236.42,102.02z
				"/>
			<path style="fill:#92E3A9;stroke:#263238;stroke-linecap:round;stroke-linejoin:round;stroke-miterlimit:10;" d="M228.74,106.1
				c0,1.75-1.23,3.17-2.74,3.17c-1.51,0-2.74-1.42-2.74-3.17c0-1.75,1.23-3.17,2.74-3.17C227.51,102.93,228.74,104.35,228.74,106.1z
				"/>
			<path style="opacity:0.3;fill-opacity:0.7;" d="M250.08,106.67l44.9,175.81c0.18,0.72-0.18,1.47-0.86,1.77l-4.1,1.81
				c-0.85,0.38-1.84-0.1-2.06-1.01l-43.7-174.8c-0.23-0.9,0.18-1.84,0.99-2.3l3.38-1.9C249.2,105.73,249.92,106.03,250.08,106.67z"
				/>
			<path style="fill:#BFBFBF;stroke:#263238;stroke-linecap:round;stroke-linejoin:round;stroke-miterlimit:10;" d="M246.23,111.75
				l2.48-1.37c1.02-0.56,2.29-0.01,2.57,1.12l4.59,18.42c0.23,0.92-0.2,1.88-1.04,2.33l-3.02,1.61c-0.73,0.39-1.64-0.01-1.84-0.82
				l-4.74-18.97C244.99,113.15,245.41,112.2,246.23,111.75z"/>
			
				<line style="opacity:0.4;fill:none;stroke:#000000;stroke-width:2;stroke-linecap:round;stroke-linejoin:round;stroke-miterlimit:10;" x1="268.65" y1="308.59" x2="170.43" y2="349.04"/>
			
				<line style="opacity:0.4;fill:none;stroke:#000000;stroke-width:2;stroke-linecap:round;stroke-linejoin:round;stroke-miterlimit:10;" x1="281.93" y1="296.26" x2="157.16" y2="349.04"/>
			<g>
				<polygon style="opacity:0.3;fill-opacity:0.7;" points="269.67,243.19 259.6,200.37 232.32,213.41 242.29,256.08 				"/>
				<polygon style="opacity:0.3;fill-opacity:0.7;" points="221.2,165.84 230.67,206.38 257.92,193.19 248.15,151.65 				"/>
				<polygon style="opacity:0.3;fill-opacity:0.7;" points="247.29,147.98 239.31,114.04 212.38,128.14 220.36,162.27 				"/>
				<polygon style="opacity:0.3;fill-opacity:0.7;" points="243.28,260.31 252.46,299.57 280.08,287.47 270.8,248 				"/>
			</g>
		</g>
		<g>
			<path style="fill:#92E3A9;stroke:#263238;stroke-linecap:round;stroke-linejoin:round;stroke-miterlimit:10;" d="M95.01,160.7
				l42.44,220.39c13.58-15.51,110.62-86.58,110.62-86.58c7.55-5.48,11.11-14.92,9.05-24.02L212.18,77.85
				c-1.66-7.34-10.58-10.21-16.21-5.21C195.97,72.64,105.74,129.33,95.01,160.7z"/>
			<g>
				<g style="opacity:0.7;">
					<path style="fill:#FFFFFF;" d="M249.42,277.37c-1.28,0-2.45-0.87-2.76-2.17c-0.77-3.15-1.52-6.31-2.25-9.47
						c-0.36-1.53,0.59-3.06,2.12-3.42c1.53-0.36,3.06,0.59,3.42,2.12c0.73,3.14,1.48,6.28,2.24,9.42c0.37,1.53-0.57,3.06-2.09,3.44
						C249.87,277.34,249.64,277.37,249.42,277.37z"/>
				</g>
				<g style="opacity:0.7;">
					<path style="fill:#FFFFFF;" d="M243.61,252.05c-1.3,0-2.47-0.89-2.77-2.21l-38.93-170.9c-0.01-0.05-0.04-0.18-0.21-0.25
						c-0.17-0.07-0.28,0.01-0.32,0.03c-9.99,6.65-43.82,29.33-59.49,41.87c-9.98,8.32-19.13,17.87-29.63,30.93
						c-0.98,1.23-2.77,1.42-4,0.44c-1.23-0.98-1.42-2.77-0.44-4c10.74-13.37,20.14-23.17,30.47-31.78
						c15.46-12.37,47.06-33.63,59.93-42.2c1.65-1.1,3.74-1.32,5.58-0.58c1.84,0.74,3.21,2.33,3.65,4.27l38.93,170.9
						c0.35,1.53-0.61,3.06-2.14,3.41C244.03,252.03,243.82,252.05,243.61,252.05z"/>
				</g>
			</g>
		</g>
	</g>
	<g>
		<path style="fill:#FFFFFF;" d="M130.19,462.39c-1.34-12.08-3.15-28.87-4.72-44.86c-2.28-23.34-4.06-44.96-3.09-47.69
			c2.2-6.21,1.76-10.68,1.76-10.68c4.75-0.53,6.88-7.02,6.88-7.02l-2.55-22.82c0,0,1.59-43.68-0.37-56.09
			c-1.97-12.42-9.92-20.73-10.09-24.03c-0.16-3.3,6.21-17.82,8.3-21.97c2.09-4.16,0.89-27.54-2.49-34.85
			c-0.99-2.12-2.36-3.33-3.82-3.97c-3.56-1.59-7.62,0.2-7.62,0.2c-0.93,13.71-4.97,22.85-8.72,29.37l0,0.01
			c-3.28,5.7-6.31,9.38-6.86,12.39c-1.17,6.44-15.38,23.07-18.07,31.67c-2.68,8.6-3.55,37.84-7.77,49.35
			c-1.98,5.43-9.13,22.7-11.01,75.39c-1.08,30.27-5.76,57.73-9.54,75.61H130.19z"/>
		<path style="opacity:0.4;fill:#92E3A9;" d="M126.31,227.23c-2.1,4.16-8.47,18.68-8.3,21.97c0.17,3.31,8.12,11.62,10.09,24.03
			c1.96,12.41,0.37,56.09,0.37,56.09l2.55,22.82c0,0-2.13,6.49-6.88,7.02c0,0,0.44,4.47-1.76,10.68
			c-0.97,2.73,0.81,24.35,3.09,47.69c-2.38-10.07-4.34-17.86-4.34-17.86s-1.05,12.41-2.39,22.19c-1.34,9.78-4.58,23.71-4.58,23.71
			s-7.15-67.39-5.49-78.65c1.65-11.26,5.76-9.42,2.59-14.8c-3.16-5.38-22.4-10.05-20.52-14.11c1.84-3.98,16.92,3.14,17.54,3.44
			c-0.51-0.41-8.86-7.1-8.8-10.2c0.07-3.19,13.41,4.99,13.41,4.99s5.56-3.3,9.64-7.98c4.08-4.68-1.97-49.45-3.11-52.67
			c-1.14-3.23-8.29-2.77-10.38-5.46c-2.09-2.69,3.59-3.89,2.5-8c-1.09-4.11-4.02-3.74-4.02-3.74s4.7-6.86,4.27-12.85
			c-0.41-6,7.36-13.21,6.8-17.53c-2.19-16.83-12.2-5.23-14.92-10.02l0-0.01c3.75-6.51,7.79-15.65,8.72-29.37c0,0,4.06-1.79,7.62-0.2
			c1.46,0.64,2.83,1.85,3.82,3.97C127.2,199.69,128.41,223.07,126.31,227.23z"/>
		<g>
			<path style="fill:none;stroke:#263238;stroke-linecap:round;stroke-linejoin:round;stroke-miterlimit:10;" d="M53.65,445.58
				c2.85-16.41,5.52-36.87,6.31-58.8c1.88-52.69,9.03-69.97,11.02-75.39c4.21-11.51,5.09-40.76,7.77-49.36
				c2.68-8.6,16.9-25.23,18.06-31.67c1.16-6.44,13.84-16.06,15.58-41.77c0,0,8.05-3.53,11.44,3.78c3.39,7.31,4.59,30.69,2.5,34.85
				c-2.1,4.16-8.47,18.67-8.31,21.97c0.17,3.3,8.12,11.62,10.08,24.03c1.96,12.41,0.37,56.1,0.37,56.1l2.55,22.81
				c0,0-2.12,6.5-6.88,7.02c0,0,0.45,4.47-1.76,10.68c-1.5,4.24,3.58,53.8,6.97,84.87"/>
			<path style="fill:none;stroke:#263238;stroke-linecap:round;stroke-linejoin:round;stroke-miterlimit:10;" d="M118.01,249.2
				c0,0-2.51,6.99-7.37,6.98"/>
			<path style="fill:none;stroke:#263238;stroke-linecap:round;stroke-linejoin:round;stroke-miterlimit:10;" d="M116.39,252.33
				c0,0,1.48,8.5-3.77,13.91"/>
			<path style="fill:none;stroke:#263238;stroke-linecap:round;stroke-linejoin:round;stroke-miterlimit:10;" d="M98.59,226.19
				c0,0,5.9-1.16,9.6,1.06"/>
			<path style="fill:none;stroke:#263238;stroke-linecap:round;stroke-linejoin:round;stroke-miterlimit:10;" d="M94.49,339.48
				c0,0,19.17,6.02,22.2,9.07c3.03,3.05,7.44,10.61,7.44,10.61"/>
			<path style="fill:none;stroke:#263238;stroke-linecap:round;stroke-linejoin:round;stroke-miterlimit:10;" d="M109.46,336.53
				c2.81,3.17,9.11,6.79,12.1,9.6c2.99,2.81,4.46,9.08,4.46,9.08"/>
			<path style="fill:none;stroke:#263238;stroke-linecap:round;stroke-linejoin:round;stroke-miterlimit:10;" d="M122.05,335.05
				c0,0,4.43-2.2,6.71-9.13"/>
			<path style="fill:none;stroke:#263238;stroke-linecap:round;stroke-linejoin:round;stroke-miterlimit:10;" d="M116.88,360.59
				c-4.2,2.11-4.31,26.2-2.1,53.46"/>
			<path style="fill:none;stroke:#263238;stroke-linecap:round;stroke-linejoin:round;stroke-miterlimit:10;" d="M119.08,365.58
				c0.04,2.67,3.61,22.99,5.26,40.06"/>
		</g>
	</g>
</g>
<g id="Right_hand">
	<g>
		<g>
			<g>
				<defs>
					<path id="XMLID_542_" d="M288.91,201.67c0,0-7.84,14.32-7.76,17.56s14.97,25.73,15.4,28.27c0.42,2.55,11.2,7.48,15.13,10.08
						c3.94,2.6,8.92-16.31,8.28-29.93S288.91,201.67,288.91,201.67z"/>
				</defs>
				<use xlink:href="#XMLID_542_"  style="overflow:visible;fill:#FFFFFF;"/>
				<clipPath id="XMLID_3_">
					<use xlink:href="#XMLID_542_"  style="overflow:visible;"/>
				</clipPath>
				<path style="opacity:0.5;clip-path:url(#XMLID_3_);fill:#92E3A9;" d="M288.91,201.67c0,0-7.84,14.32-7.76,17.56
					s14.97,25.73,15.4,28.27c0.42,2.55,11.2,7.48,15.13,10.08c3.94,2.6,8.92-16.31,8.28-29.93S288.91,201.67,288.91,201.67z"/>
				
					<use xlink:href="#XMLID_542_"  style="overflow:visible;fill:none;stroke:#263238;stroke-linecap:round;stroke-linejoin:round;stroke-miterlimit:10;"/>
			</g>
			<path style="fill:none;stroke:#263238;stroke-linecap:round;stroke-linejoin:round;stroke-miterlimit:10;" d="M294.27,228.28
				c0,0,7.7-3.5,16.07,5.83"/>
		</g>
		<g>
			<path style="fill:#FFFFFF;" d="M453.15,361.45l-47.02,53.08c0,0-7.73-9.63-17.4-21.39c-13.75-16.72-31.41-37.74-36.41-41.58
				c-6.1-4.68-45.76-31.8-56.71-45.23c-1.57-1.93-2.94-3.63-4.14-5.19v-0.01c-7.24-9.31-8.67-13.31-12.27-26.32
				c-4.19-15.2-8.8-23.59-9.97-29.21c-0.03-0.17-0.07-0.34-0.1-0.52c-1.21-6.24-3.33-25.01-6.08-29.78
				c-2.84-4.92,8.44-7.3,12.74-4.56c4.3,2.73,15.02,16.03,14.35,27.48c0,0,8.43,20.77,12.73,20.21c0,0-0.56-20.81-3.41-25.89
				c-1.7-3.02-2.14-5.82-2.2-7.59c-0.06-1.2,0.06-1.93,0.06-1.93s-13.26-14.3-17.15-23.93c-3.9-9.63-11.54-24.45-13.01-38.87
				c0,0-1.71-10.37,4.57-15.07c2.4-1.8,4.61-2.3,6.84,0.8c0.91,1.29,1.84,3.18,2.79,5.85c9.41,26.56,21.04,36.74,21.04,36.74
				s7.7,1.97,13.29,4.61c0.8,0.37,1.71,0.93,2.72,1.61c0.01,0,0.01,0,0.02,0c0,0.01,0,0.01,0,0.01c2.47,1.66,5.47,4.07,8.57,6.42
				c4.47,3.39,9.11,6.67,12.61,7.44c12.16,2.64,18.01,8.82,18.01,8.82s8.08-1.72,12.36,5.8c4.14,7.28,6.43,8.73,6.43,8.73
				c0.06,0,3.05,0.03,5.5,5.38c4.32,9.44,17.3,59.72,17.93,61.75c5.22,16.63,20.75,34.48,38.5,50.12c0,0,0,0.01,0.01,0.01
				C443.14,353.49,448.14,357.58,453.15,361.45z"/>
			<g>
				<path style="opacity:0.4;fill:#92E3A9;" d="M318.39,194.76c0,0-0.01,0-0.02-0.01C318.38,194.75,318.38,194.75,318.39,194.76
					C318.39,194.76,318.39,194.76,318.39,194.76z"/>
				<path style="opacity:0.4;fill:#92E3A9;" d="M331.47,215.14c0,0-14.06-2.54-16.83-8.91c-2.76-6.38-14.54-19.99-17.35-20.88
					c-2.81-0.89-4.58,1.09-4.58,1.09s-4.87-7.71-8.54-14.35c-3.48-6.32-20.71-25.27-5.63-26.13c0.91,1.29,1.84,3.18,2.79,5.85
					c9.41,26.56,21.04,36.74,21.04,36.74s7.7,1.97,13.29,4.61c0.8,0.37,1.71,0.93,2.72,1.61c-0.36-0.09-5.99-1.49-4.87,1.39
					c1.14,2.98,10.31,11.28,15.12,14.92C333.43,214.71,331.47,215.14,331.47,215.14z"/>
				<path style="opacity:0.4;fill:#92E3A9;" d="M438.3,349.22c-7.95-4.35-19.96-11.54-23.97-17.19
					c-6.19-8.71-10.77-13.06-14.89-18.11c-4.13-5.04-11.92-9.16-10.09-8.47c1.83,0.69,10.09,3.53,10.09,3.53s-6.19-7.65-11-20.49
					c-4.81-12.83-13.57-57.96-20.08-62.98c-6.51-5.01,0,44.29,0,44.29s-6.27-13.85-9.25-30.04c-2.98-16.2-5.7-24.15-9.22-26.34
					c-3.52-2.18-10.26,2.42-12.09,0c-1.83-2.42,0.23-3.31-10.83-12.25c4.47,3.39,9.11,6.67,12.61,7.44
					c12.16,2.64,18.01,8.82,18.01,8.82s8.08-1.72,12.36,5.8c4.14,7.28,6.43,8.73,6.43,8.73c0.06,0,3.05,0.03,5.5,5.38
					c4.32,9.44,17.3,59.72,17.93,61.75C405.02,315.73,420.54,333.58,438.3,349.22z"/>
				<path style="opacity:0.4;fill:#92E3A9;" d="M307.48,268c-0.51,3.04-4.3-5.86-4.64-4.48c-0.34,1.38-1.36,5.89-1.42,4.48
					c-0.05-1.41-8.08-5.86-9.46-12.5c-1.37-6.65-2.29-9.49-2.97-11.16c-0.69-1.68-1.91,1.11-1.99-2.92
					c-0.07-3.61-11.69-7.41-17.88,3.67c-1.21-6.24-3.33-25.01-6.08-29.78c-2.84-4.92,8.44-7.3,12.74-4.56
					c4.3,2.73,15.02,16.03,14.35,27.48c0,0,8.43,20.77,12.73,20.21c0,0-0.56-20.81-3.41-25.89c-1.7-3.02-2.14-5.82-2.2-7.59
					l4.19,0.56c1.13,2.49-1.08,6.01,0,7.8c1.09,1.78,7.85,14.82,5.61,21.57C304.78,261.62,307.99,264.96,307.48,268z"/>
				<path style="opacity:0.4;fill:#92E3A9;" d="M388.72,393.13c-13.75-16.72-31.41-37.74-36.41-41.58
					c-6.1-4.68-45.76-31.8-56.71-45.23c-1.57-1.93-2.94-3.63-4.14-5.19c5.83,7.12,12.96,10.87,16.08,12.56
					c5.5,2.97,21.43,5.54,32.54,17.6c5.4,5.86,8.48,10.12,15.13,17.46c6.64,7.33,16.27,7.79,21.99,17.88
					C380.07,371.7,384.84,383.09,388.72,393.13z"/>
			</g>
			<g>
				<path style="fill:none;stroke:#263238;stroke-linecap:round;stroke-linejoin:round;stroke-miterlimit:10;" d="M406.12,414.53
					c0,0-45.3-56.44-53.81-62.97c-6.1-4.68-45.76-31.8-56.72-45.23c-10.96-13.43-12.22-16.32-16.41-31.52
					c-4.19-15.2-8.8-23.59-9.98-29.21c-1.18-5.62-3.35-25.38-6.19-30.3c-2.84-4.91,8.44-7.29,12.74-4.56
					c4.3,2.73,15.02,16.04,14.35,27.49c0,0,8.43,20.77,12.73,20.21c0,0-0.56-20.81-3.42-25.89c-2.86-5.08-2.13-9.52-2.13-9.52
					s-13.26-14.3-17.16-23.93c-3.9-9.63-11.54-24.45-13.01-38.87c0,0-1.71-10.36,4.57-15.07c3.38-2.53,6.39-2.5,9.63,6.65
					c9.41,26.56,21.04,36.74,21.04,36.74s7.7,1.97,13.29,4.6c5.6,2.63,17.01,13.97,23.92,15.48c12.16,2.64,18.01,8.83,18.01,8.83
					s8.08-1.72,12.36,5.8c4.14,7.29,6.42,8.74,6.42,8.74s3.03-0.02,5.5,5.37c4.33,9.44,17.3,59.72,17.94,61.76
					c6.65,21.16,29.99,44.31,53.35,62.34"/>
				<path style="fill:none;stroke:#263238;stroke-linecap:round;stroke-linejoin:round;stroke-miterlimit:10;" d="M302.36,188.54
					c0,0,11.51,15.94,19.57,18.99"/>
				<path style="fill:none;stroke:#263238;stroke-linecap:round;stroke-linejoin:round;stroke-miterlimit:10;" d="M321.3,211.06
					c7.76,2.49,12.77,3.97,14.2,9.82c1.43,5.85,5.58,19.08,7.58,24.29c2,5.2,6.8,18.35,6.8,18.35"/>
				<path style="fill:none;stroke:#263238;stroke-linecap:round;stroke-linejoin:round;stroke-miterlimit:10;" d="M302.84,258.44
					c0,0,5.28,6.87,3.98,13.61"/>
				<path style="fill:none;stroke:#263238;stroke-linecap:round;stroke-linejoin:round;stroke-miterlimit:10;" d="M300.6,257.33
					c0,0-0.23,7.47,1.65,12.47"/>
				<path style="fill:none;stroke:#263238;stroke-linecap:round;stroke-linejoin:round;stroke-miterlimit:10;" d="M297.29,223.03
					c0,0,4.24,2.29,5.25,4.98"/>
				<path style="fill:none;stroke:#263238;stroke-linecap:round;stroke-linejoin:round;stroke-miterlimit:10;" d="M300.37,235.06
					c0,0,1.89,4.11,3.94,6.36c2.05,2.25,3.01,9.56,3.01,9.56"/>
				<path style="fill:none;stroke:#263238;stroke-linecap:round;stroke-linejoin:round;stroke-miterlimit:10;" d="M269.21,245.6
					c0,0,4.57-5.14,9.29-5.84"/>
				<path style="fill:none;stroke:#263238;stroke-linecap:round;stroke-linejoin:round;stroke-miterlimit:10;" d="M290.84,187.53
					c0,0,5.31-3.98,9.35-1.23"/>
				<path style="fill:none;stroke:#263238;stroke-linecap:round;stroke-linejoin:round;stroke-miterlimit:10;" d="M379.34,244.93
					c1.06,2.91,6.5,29.19,7.87,32.93"/>
				<path style="fill:none;stroke:#263238;stroke-linecap:round;stroke-linejoin:round;stroke-miterlimit:10;" d="M342.14,214.81
					c0,0,5-3.58,11.26,0.81c6.27,4.39,6.27,6.51,10.13,5.48c3.85-1.03,6.41,2.14,6.41,2.14"/>
				<path style="fill:none;stroke:#263238;stroke-linecap:round;stroke-linejoin:round;stroke-miterlimit:10;" d="M362.3,233.32
					c1,5.9,5.24,34.73,7.29,41.96"/>
			</g>
		</g>
	</g>
</g>
</svg>
