<?xml version="1.0" encoding="utf-8"?>
<!-- Generator: Adobe Illustrator 23.0.1, SVG Export Plug-In . SVG Version: 6.00 Build 0)  -->
<svg version="1.1" id="Layer_1" xmlns="http://www.w3.org/2000/svg" xmlns:xlink="http://www.w3.org/1999/xlink" x="0px" y="0px"
	 viewBox="0 0 500 500" style="enable-background:new 0 0 500 500;" xml:space="preserve">
<style type="text/css">
	.st0{fill:#92E3A9;}
	.st1{opacity:0.7;fill:#FFFFFF;enable-background:new    ;}
	.st2{fill:#263238;}
	.st3{fill:none;stroke:#263238;stroke-linecap:round;stroke-linejoin:round;stroke-miterlimit:10;}
	.st4{fill:none;stroke:#263238;stroke-linecap:round;stroke-linejoin:round;}
	.st5{fill:none;stroke:#263238;stroke-linecap:round;stroke-linejoin:round;stroke-dasharray:2.9194,2.9194;}
	.st6{fill:#FFFFFF;}
	.st7{opacity:0.4;clip-path:url(#SVGID_2_);fill:#92E3A9;enable-background:new    ;}
	.st8{opacity:0.2;enable-background:new    ;}
	.st9{fill:#92E3A9;stroke:#263238;stroke-linecap:round;stroke-linejoin:round;stroke-miterlimit:10;}
	.st10{fill:#FFFFFF;stroke:#263238;stroke-linecap:round;stroke-linejoin:round;stroke-miterlimit:10;}
	.st11{opacity:0.2;}
	.st12{fill:none;stroke:#FFFFFF;stroke-linecap:round;stroke-linejoin:round;stroke-miterlimit:10;}
	.st13{fill:#263238;stroke:#263238;stroke-linecap:round;stroke-linejoin:round;stroke-miterlimit:10;}
	.st14{opacity:0.4;clip-path:url(#SVGID_4_);fill:#92E3A9;enable-background:new    ;}
</style>
<g id="Discount">
</g>
<g id="Gift">
</g>
<g id="Update">
</g>
<g id="Heart">
</g>
<g id="Character">
	<g>
		<g>
			<path class="st0" d="M54.9,185.4c37-37,68.4-6,81.6-55.7C166.3,17.4,290.1,18.5,306.3,98.4c29.3,143.9,157,52.5,156.1,155.6
				c-1,110-81.9,195.7-227.1,204.3C105.2,465.9-6.5,246.7,54.9,185.4z"/>
			<path class="st1" d="M54.9,185.4c37-37,68.4-6,81.6-55.7C166.3,17.4,290.1,18.5,306.3,98.4c29.3,143.9,157,52.5,156.1,155.6
				c-1,110-81.9,195.7-227.1,204.3C105.2,465.9-6.5,246.7,54.9,185.4z"/>
		</g>
		<g>
			<g>
				<g>
					<path class="st2" d="M146.7,122.3c-0.2-2,0.7-3.2,2.6-3.4c1.9-0.2,3.1,0.8,3.3,2.8l0.7,6.4c0.2,2-0.7,3.2-2.6,3.4
						c-1.9,0.2-3.1-0.8-3.3-2.8L146.7,122.3z M149.4,128.6c0.1,0.9,0.5,1.2,1.1,1.1c0.6-0.1,1-0.5,0.9-1.3l-0.8-6.6
						c-0.1-0.9-0.5-1.2-1.1-1.1s-1,0.5-0.9,1.3L149.4,128.6z M157,118.1l1.8-0.2l-5.4,20.3l-1.8,0.2L157,118.1z M157.2,128.3
						c-0.2-2,0.7-3.2,2.6-3.4c1.9-0.2,3.1,0.8,3.3,2.8l0.7,6.4c0.2,2-0.7,3.2-2.6,3.4c-1.9,0.2-3.1-0.8-3.3-2.8L157.2,128.3z
						 M159.9,134.5c0.1,0.9,0.5,1.2,1.1,1.1c0.6-0.1,1-0.5,0.9-1.3l-0.8-6.6c-0.1-0.9-0.5-1.2-1.1-1.1s-1,0.5-0.9,1.3L159.9,134.5z"
						/>
				</g>
				<path class="st3" d="M168.3,141.8l-22.6,2.7c-1.1,0.1-2-0.6-2.2-1.7l-2.7-23.4c-0.1-0.9,0.2-1.8,0.8-2.4l9.4-9.3
					c0.9-0.9,2.4-1.1,3.5-0.4l11.3,6.9c0.8,0.5,1.3,1.2,1.4,2.1l2.7,23.4C170.2,140.7,169.4,141.6,168.3,141.8z"/>
				<path class="st3" d="M154.6,110.2c0.1,0.8-0.5,1.5-1.3,1.6s-1.5-0.5-1.6-1.3s0.5-1.5,1.3-1.6
					C153.8,108.8,154.5,109.4,154.6,110.2z"/>
				<path class="st3" d="M153.2,93.8c0,0,4.4,17,0,16.5"/>
				<path class="st3" d="M152.1,107c0.9-4.7,5.2-12.7,5.2-12.7"/>
				<path class="st3" d="M153.2,110.4c-0.6-0.1-0.9-0.4-1.1-0.9"/>
			</g>
			<g>
				<path class="st3" d="M172.9,100.2c3.9,3.1,7,7.3,8.8,12.2"/>
				<path class="st3" d="M127.1,115.3c2.8-10.8,11.9-19.5,23.6-21.2c7.1-1,13.9,0.6,19.5,4.2"/>
				<path class="st3" d="M136.1,144.1c-5-4.3-8.5-10.4-9.5-17.5"/>
				<path class="st3" d="M153.8,151.2c-5.4-0.2-10.4-1.9-14.7-4.7"/>
				<path class="st3" d="M183.3,118.3c2.3,15.7-8.6,30.3-24.2,32.6"/>
			</g>
		</g>
		<g>
			<g>
				<path class="st3" d="M112.6,244.1l-32.9-6.3c-0.9-0.2-1.5-1-1.3-1.9l4.2-21.7l36.1,7l-4.2,21.7
					C114.3,243.7,113.5,244.3,112.6,244.1z"/>
				<path class="st3" d="M84.7,206.9l34.7,6.7c0.9,0.2,1.5,1,1.3,1.9l-1.1,5.8l-38-7.3l1.1-5.8C82.9,207.4,83.8,206.8,84.7,206.9z"
					/>
				
					<rect x="83.6" y="223" transform="matrix(0.1893 -0.9819 0.9819 0.1893 -141.1485 280.2583)" class="st3" width="31.2" height="5.3"/>
				<path class="st3" d="M102,210.3c0,0,9-6.5,13.1-4.6c4.1,2,2.1,7.5,0,7.1"/>
				<path class="st3" d="M105.6,211c0,0,7.3-3.6,8.3-2c1.1,1.6-2.1,3.2-4.5,2.7"/>
				<path class="st3" d="M102.3,209.8c0,0,3.8-6.9,3.3-9.1h2.5c0,0,0.8,2.6-2.1,7.1"/>
				<path class="st3" d="M102,210.3c0,0-5.9-9.4-10.5-9.1c-4.6,0.3-4.7,6.2-2.6,6.6"/>
				<path class="st3" d="M98.5,209.6c0,0-5.4-6.1-7-4.9c-1.6,1.1,0.8,3.7,3.2,4.2"/>
				<path class="st3" d="M102,209.8c0,0-1-7.8,0.3-9.6l-2.3-0.9c0,0-1.7,2.1-0.7,7.3"/>
			</g>
			<g>
				<path class="st3" d="M128.7,199.3c4,5,6.6,11.1,7.5,17.7"/>
				<path class="st3" d="M67.4,205.2c6.6-12.7,20.3-20.9,35.4-19.7c9.1,0.7,17.2,4.7,23.1,10.7"/>
				<path class="st3" d="M70.3,243.6c-5-6.8-7.7-15.4-7-24.5"/>
				<path class="st3" d="M90.4,257.4c-6.6-1.8-12.4-5.3-17-10.1"/>
				<path class="st3" d="M136.5,224.8c-1.6,20.2-19.2,35.3-39.4,33.7"/>
			</g>
		</g>
		<g>
			<g>
				<g>
					<path class="st3" d="M281.5,127.2l-3.1-1.6c0.6-1.4,0.5-3.1,0.5-4.2c1,0.5,2,0.9,3,1.4C281.8,124.1,281.7,125.6,281.5,127.2z"
						/>
					<path class="st3" d="M286,124.9c1,0.5,2,0.9,3.1,1c0.7,4,1,10.7-2.5,17.7c-0.8,1.5-9.1-2.7-8.3-4.3c1.9-3.7,2.8-8.3,3.3-12.1
						c0.2-1.6,0.3-3.1,0.3-4.4C283.6,123.7,285.1,124.4,286,124.9z"/>
					<path class="st3" d="M295.9,105.5c2.7,1.4,4.6,3.7,5.4,6.4c0.9,2.6,0.7,5.6-0.7,8.3c-1.4,2.7-3.7,4.6-6.4,5.4
						c-1.7,0.5-3.5,0.7-5.2,0.4c-1.1-0.2-2.1-0.5-3.1-1c-0.9-0.4-2.4-1.2-4.1-2c-1-0.5-2-0.9-3-1.4c-2.4-1.1-4.7-2.1-5.9-2.5
						l10.5-20.6C285.7,100,293.4,104.2,295.9,105.5z"/>
					<path class="st3" d="M273.2,88.7c3,3.7,6.4,7,10.2,9.7L272.9,119c-4.5-1.5-9.1-2.4-13.8-2.6l-4.1-0.2l15.7-30.7L273.2,88.7z"/>
					<path class="st3" d="M250.2,117l18.4-35.9c0.3-0.6,1-0.8,1.6-0.5l1.4,0.7c0.6,0.3,0.8,1,0.5,1.6l-1.3,2.6L255,116.1l-1.3,2.6
						c-0.3,0.6-1,0.8-1.6,0.5l-1.4-0.7C250.2,118.3,249.9,117.6,250.2,117z"/>
				</g>
				<line class="st3" x1="250.8" y1="94.6" x2="243.7" y2="91"/>
				<line class="st3" x1="259.1" y1="83.3" x2="254.6" y2="75.5"/>
				<line class="st3" x1="246.4" y1="108" x2="237.5" y2="109"/>
			</g>
			<g>
				<path class="st3" d="M305.6,74.2c-6.1-5.6-13.6-9.7-22-11.5"/>
				<path class="st3" d="M291.9,152.6c17-7.2,28.9-24,28.9-43.6c0-11.8-4.3-22.6-11.5-30.9"/>
				<path class="st3" d="M242.6,145c8.3,7.1,19,11.4,30.8,11.4"/>
				<path class="st3" d="M226.9,117.7c1.6,8.7,5.6,16.6,11.3,22.9"/>
				<path class="st3" d="M273.4,61.6c-26.2,0-47.4,21.2-47.4,47.4"/>
			</g>
		</g>
		<g>
			<path class="st3" d="M189.6,185.2c-4-3.6-8.1-2-10.2-0.7c-0.4-2.4-1.9-6.6-7.2-7.3c-5.7-0.8-10.4,4.8-8.9,12.6
				c1.1,5.6,4.7,10.7,6.6,13.2c0.2,0.3,0.4,0.5,0.6,0.8c0.3,0,0.6,0,1,0c3.1-0.1,9.3-0.7,14.3-3.5
				C192.7,196.3,193.9,189.1,189.6,185.2z"/>
			<g>
				<g>
					<path class="st4" d="M167.3,207.4c0,0-0.3,0.5-0.6,1.4"/>
					<path class="st5" d="M165.6,211.5c-1.6,5.1-2.6,13.9,5.7,19.2c20.6,13.1,27.6-17.9,11.8-15.1c-10.9,1.9,0.6,30.6,17.6,24.9"/>
					<path class="st4" d="M202.1,239.9c0.4-0.2,0.9-0.4,1.3-0.7"/>
				</g>
			</g>
		</g>
		<g>
			<g>
				<g>
					<g>
						<path id="XMLID_4_" class="st6" d="M176.7,429.4c0,0-11.6,7.9-16.3,7.4c-0.6-0.1-1-0.2-1.4-0.6c-3.1-3.2-5.5-8.7-5.5-8.7
							s1.5-2,5.9,3.3l2.9-2.6l-5.9-5.9c0,0,3.3-2.6,9,0.7c-0.2-0.4-3.8-8.3-1.1-19.1l-13.7-13.2l12.2-10.6l0.9-0.8
							c0,0,0.8,0.8,2,1.9s2.8,2.7,4.6,4.2c4.3,3.8,9.5,7.8,11.7,7.8C186.1,393.2,176.7,429.4,176.7,429.4z"/>
					</g>
					<g>
						<defs>
							<path id="SVGID_1_" d="M176.7,429.4c0,0-11.6,7.9-16.3,7.4c-0.6-0.1-1-0.2-1.4-0.6c-3.1-3.2-5.5-8.7-5.5-8.7s1.5-2,5.9,3.3
								l2.9-2.6l-5.9-5.9c0,0,3.3-2.6,9,0.7c-0.2-0.4-3.8-8.3-1.1-19.1l-13.7-13.2l12.2-10.6l0.9-0.8c0,0,0.8,0.8,2,1.9
								s2.8,2.7,4.6,4.2c4.3,3.8,9.5,7.8,11.7,7.8C186.1,393.2,176.7,429.4,176.7,429.4z"/>
						</defs>
						<clipPath id="SVGID_2_">
							<use xlink:href="#SVGID_1_"  style="overflow:visible;"/>
						</clipPath>
						<path class="st7" d="M167.7,424.2c0,0-6.6,6.8-7.3,12.6c-0.6-0.1-1-0.2-1.4-0.6c-3.1-3.2-5.5-8.7-5.5-8.7s1.5-2,5.9,3.3
							l2.9-2.6l-5.9-5.9c0,0,3.3-2.6,9,0.7c-0.2-0.4-3.8-8.3-1.1-19.1l-13.7-13.2l12.2-10.6l2.9,1.1c1.2,1.1,2.8,2.7,4.6,4.2
							c-2.6,3.8-8.1,11.6-8.1,11.6l4.8,6.5C166.9,403.5,164,419.8,167.7,424.2z"/>
					</g>
					<g>
						<path class="st3" d="M176.7,429.4c0,0-11.6,7.9-16.3,7.4c-0.6-0.1-1-0.2-1.4-0.6c-3.1-3.2-5.5-8.7-5.5-8.7s1.5-2,5.9,3.3
							l2.9-2.6l-5.9-5.9c0,0,3.3-2.6,9,0.7c-0.2-0.4-3.8-8.3-1.1-19.1l-13.7-13.2l12.2-10.6l0.9-0.8c0,0,0.8,0.8,2,1.9
							s2.8,2.7,4.6,4.2c4.3,3.8,9.5,7.8,11.7,7.8C186.1,393.2,176.7,429.4,176.7,429.4z"/>
					</g>
				</g>
				<path class="st3" d="M162.3,428.2c0,0,1-3.2,3.1-5.2"/>
			</g>
			<path class="st0" d="M379.4,337.2c-1.7,2.5-3.9,4.9-6.6,7.1l0,0c-21.4,17.7-70.7,26.5-70.7,26.5s-1.6,2.5-4.2,6
				c-4.6,6.3-12,16.1-18.1,20.9l0,0c-2.6,2.1-4.9,3.3-6.7,2.9l9.3,34.2l4.1,14.8c0,0-42.5,18.6-115.3-2.7c0,0-0.8-9.5-0.2-11.5
				c0-0.1,0.1-0.2,0.1-0.3c0.7-1.6,2.9-3.6,2.9-3.6s-0.4-6.1-0.6-12.3c-0.2-4.8-0.2-9.7,0.1-11.9c0.5-3.1,2.8-10.7,4-14.4
				c0.4-1.3,0.7-2.2,0.7-2.2l-3.6-33.9l-1-9.8c0,0,0-0.2-0.1-0.5c0-0.1,0-0.1,0-0.2l-0.6-5.2l-18.7,5.7c0,0,1,2.2,2.3,5.3
				c2.5,5.6,6.1,14.2,6.9,17.6c0.1,0.3,0.1,0.5,0.2,0.8c1.7,4.9,8.3,9.4,8.3,9.4l-17.7,20.7l-5.2-3.7c0,0-0.8,0.6-2.1,1.3
				c-3.4,1.9-10.7,4.6-18.6,0.4c-2.9-1.5-5.9-4-8.8-7.7c-14-18.1-20-32.8-18-50.2c2-17.3,79.8-70.7,95.3-70.1l23,5.1
				c0.5-0.4,1.8-1.5,2.9-1.4c4.2,0.2,4.3,5.1,4.3,5.1l51.5,8.4c0,0,5.3-2.7,6.3-2.6c2.3,0.1,3.3,2.1,3.3,2.1s13.3-8,17.6-6.1
				C319.6,287.2,389.8,321.4,379.4,337.2z"/>
			<g>
				<path class="st8" d="M200.5,421.8c0,0-8,9.8-22.3,12.1c-2.7,0.4-5.1,0.9-7.2,1.3c0.7-1.6,2.9-3.6,2.9-3.6s-0.4-6.1-0.6-12.3
					C179.4,423.3,189.9,427.9,200.5,421.8z"/>
				<path class="st8" d="M177.4,393c0.4-1.3,0.7-2.2,0.7-2.2l-3.6-33.9c5.4,7.8,24.7,34.2,38,37.1
					C226.4,396.9,189.2,402.2,177.4,393z"/>
				<path class="st8" d="M282.4,434.9c-14.5-1.7-35.1-5.3-37.1-12.9c-3.2-11.9,12.4-19,34.5-24.2c-2.6,2.1-4.9,3.3-6.7,2.9
					L282.4,434.9z"/>
				<path class="st8" d="M372.8,344.3c-21.4,17.7-70.7,26.5-70.7,26.5s-1.6,2.5-4.2,6c-4.2-9.7-10.2-29.9-3.2-54.7
					c0,0,3.8,20.6,19.6,25.5c0,0-12.1-9-7.9-30.6c0,0,4.1,25.5,30.9,32.5C350.4,352.9,363.2,349.1,372.8,344.3z"/>
				<path class="st8" d="M173.4,346.6l-0.6-5.5l-18.7,5.7c0,0,1,2.2,2.3,5.3c-7.2-0.7-20.7,5.9-23.1-1.3c-2.9-8.7,14.7-5.7,14.7-5.7
					l16.6-9.6c-3.1-13.4,4.8-23.5,4.8-23.5l1.5,9.4c0.7-17.8,7.7-27.5,7.7-27.5C172.9,307.8,173,342.5,173.4,346.6z"/>
				<path class="st8" d="M171.9,380l-17.7,20.7L149,397c0,0-0.8,0.6-2.1,1.3c-3.4,1.9-10.7,4.6-18.6,0.4
					c5.7-7.9,17.6-19.6,31.7-24.2c0,0-5.8,8.5-9.4,16.1l3.6,3.6C154.2,394.3,163.2,383.9,171.9,380z"/>
				<path class="st8" d="M214.9,288.7c0,1.8-1.2,22.5,13.9,28c15.1,5.5,28.5-3.8,28.5-3.8s-23.1,22.3-37.2,10.4
					C206,311.4,214.9,288.7,214.9,288.7z"/>
			</g>
			<path class="st3" d="M171.2,447c0,0-0.8-9.5-0.2-11.5c0.5-1.7,2.9-3.9,2.9-3.9s-1.3-19.3-0.5-24.2c0.7-4.3,4.6-16.6,4.6-16.6
				l-5.3-49.7l-18.7,5.7c0,0,8,17.6,9.2,22.8s8.6,10.3,8.6,10.3l-17.7,20.7l-5.2-3.7c0,0-15.5,12.1-29.4-6c-14-18.1-20-32.8-18-50.2
				c2-17.3,79.8-70.7,95.3-70.1l23,5.1c0.5-0.4,1.8-1.5,2.9-1.4c4.2,0.2,4.3,5.1,4.3,5.1l51.5,8.4c0,0,5.3-2.7,6.3-2.6
				c2.3,0.1,3.3,2.1,3.3,2.1s13.3-8,17.6-6.1c14.1,6.1,84.3,40.2,73.9,56.1c-14.8,22.5-77.3,33.6-77.3,33.6s-20.8,31.4-29,29.9
				l13.4,49"/>
			<path class="st9" d="M325,340.6c23.6,15.6,42.7,12.7,57.6-7.4c0,0,12.4-16,11.5-33.3s-5-73.6-58.8-59.2
				c-8.9,2.4-29.5,30-31.3,37.6c-0.8,3.5-9.1,21.2-17.1,39.5"/>
			<path class="st2" d="M261.1,175.3c0,0,15-2.3,25.5,7.1c13.2,11.8,28.1,43.7,6.9,96.6c0,0-31.2-20.7-84.5-6.9
				c0,0,4.6-12.4-3.5-51.5C201.9,203,211,162.3,261.1,175.3z"/>
			<g>
				<path class="st10" d="M238.3,308c22.3,3.6,46-21.1,46-21.1s-12.1-1.5-13.2-7.2c-3.5-17.9,10.5-40.1,10.5-40.1
					s-54.1,1.5-44.6,13.7c2,2.6,3.4,5,4.3,7.3c3.3,8.1,1,14.1-0.7,15.6c-0.1,0.1-0.3,0.2-0.4,0.3c-3.3,1.5-16.7-0.7-16.7-0.7
					S217.9,304.7,238.3,308z"/>
				<path class="st3" d="M276.5,293.7c0,0-10.3,4.1-25.3,2.9l-6.8,3.3"/>
				<path class="st3" d="M237.7,299.4l-0.5-4.4c0,0-11.1-3.5-14.5-10.1"/>
				<path class="st2" d="M240.4,276.3c16.6,4.3,24.3-16.9,24.3-16.9s-13.3-4-23.6,1.3C244.4,268.8,242.2,274.8,240.4,276.3z"/>
			</g>
			<g>
				<path class="st10" d="M282.5,228.5c4-22.6-0.4-49.8-34.9-47.5c-24.6,1.6-24.4,28.6-22.8,36.6c2.7,13.5-1.2,18.9,3,30.2
					c3,8.2,10.1,17.3,18.4,20.7c5.1,2.1,25.7-12.4,27.3-19"/>
				<path class="st3" d="M239.2,221.8c-0.2,2.5-0.5,8.8-5.9,13.5c-3.5,3,4.5,6.1,4.5,6.1"/>
				<path class="st3" d="M233.5,212.8c0,0-7.6-3.7-12.7,2.4"/>
				<path class="st3" d="M246.2,212.3c0,0,7.3-2.6,16.2,0.6"/>
				<path class="st2" d="M254.1,223c0.2,2.2,1.7,3.8,3.3,3.6c1.6-0.2,2.7-2.1,2.4-4.3c-0.2-2.2-1.7-3.8-3.3-3.6
					C255,218.9,253.9,220.8,254.1,223z"/>
				<path class="st3" d="M238.2,248.5c9.6-1.2,17-6.2,17-6.2s0.7,9.5-7.2,11.5c-6.1,1.5-8.5-5.4-8.5-5.4"/>
				<path class="st2" d="M260.5,189.6c0,0-2.2,26.8,21.5,36.5l11.1-25.8l-16.8-18.6l-25.3-7.3c-37.8,2.4-54,25.8-33,88.3
					C218,262.8,212.2,188.3,260.5,189.6z"/>
				<path class="st10" d="M276.9,227.2c-0.3-3,7.3-10.7,9.9-5.8c4.4,8.4,1.2,15.7-3.4,18.6c-2,1.3-4.6,3.7-6.4,1.4"/>
				<path class="st2" d="M231.1,224c0.2,2.2,1.7,3.8,3.3,3.6s2.7-2.1,2.4-4.3c-0.2-2.2-1.7-3.8-3.3-3.6S230.8,221.8,231.1,224z"/>
				<g class="st11">
					<path class="st12" d="M214.7,219.6c-0.3,1.8-0.5,3.7-0.6,5.5"/>
					<path class="st12" d="M256.6,184.7c-19.1-0.5-36.9,11.7-41.1,30.8"/>
					<path class="st12" d="M253.2,179.2c0,0-27.6-6.5-37.9,11.8"/>
					<path class="st12" d="M275.6,211.1c1.7,2.3,3.6,4.5,5.9,6.3"/>
					<path class="st12" d="M264.6,182.8c1.5,8.6,4.3,17.4,8.7,24.9"/>
					<path class="st12" d="M292.4,265.8c-0.5,2.2-1.1,4.4-1.7,6.5"/>
					<path class="st12" d="M290.8,229.3c4.5,9.9,4.2,22.3,2.3,32.7"/>
					<path class="st12" d="M287.5,246.6c0,0,1.4,11.1-7.8,20.4"/>
					<path class="st12" d="M274.8,186c4.7,6.3,8.2,13.1,13.6,18.9c5.7,6.1,11.5,13.1,12.5,21.7"/>
					<path class="st12" d="M268.2,179.4c1.3,0.9,2.6,1.9,3.7,3.1"/>
				</g>
			</g>
			<path class="st13" d="M362.5,326.6c-0.5,0.1-1.1,0.2-1.7,0.3c-14.8,2.1-31.4-10.2-37-24.9c-4.4-11.6-0.6-24.8,1.6-30.5
				c0.7-1.8,1.2-2.8,1.2-2.8c8.9-12.8,60.8,12.2,61.4,25.9C388.6,308.4,377.7,323.3,362.5,326.6z"/>
			<g>
				<g>
					<path id="XMLID_3_" class="st6" d="M378.7,296.5c0,0-2.9,21.8-17.9,30.4c-14.8,2.1-31.4-10.2-37-24.9
						c-4.4-11.6-0.6-24.8,1.6-30.5l0,0C342.9,261.5,378.7,296.5,378.7,296.5z"/>
				</g>
				<g>
					<defs>
						<path id="SVGID_3_" d="M378.7,296.5c0,0-2.9,21.8-17.9,30.4c-14.8,2.1-31.4-10.2-37-24.9c-4.4-11.6-0.6-24.8,1.6-30.5l0,0
							C342.9,261.5,378.7,296.5,378.7,296.5z"/>
					</defs>
					<clipPath id="SVGID_4_">
						<use xlink:href="#SVGID_3_"  style="overflow:visible;"/>
					</clipPath>
					<path class="st14" d="M378.7,296.5c0,0-2.9,21.8-17.9,30.4c-14.8,2.1-31.4-10.2-37-24.9c-4.4-11.6-0.6-24.8,1.6-30.5l0,0
						C342.9,261.5,378.7,296.5,378.7,296.5z"/>
				</g>
				<g>
					<path class="st3" d="M378.7,296.5c0,0-2.9,21.8-17.9,30.4c-14.8,2.1-31.4-10.2-37-24.9c-4.4-11.6-0.6-24.8,1.6-30.5l0,0
						C342.9,261.5,378.7,296.5,378.7,296.5z"/>
				</g>
			</g>
			<path class="st3" d="M317.5,308c0,0,16.9,24.2,36.5,26.2c19.7,2,32.3-14.6,33.1-27.1"/>
			<path class="st10" d="M308.1,198.8c1.5-4.1,12.1-2.8,15.5,10.2c3.4,12.9,16.7,44.3,16.7,44.3s52.8-77.7,62.3-80.7
				s5.7,10.5-6.9,29.2c0,0,11.9-2.1,15,0s1.6,14.6,3.3,19c2.8,7.4-3.4,8.9-3.4,8.9s4.9,0,8.3,3.1c3.4,3.2,1.7,16.3,2.7,20
				s-5.5,6.9-5.5,6.9s15.6,8.5,12.1,10.6c-5.9,3.6-9.3-0.1-9.3-0.1s-23.9,30.1-42,36.7c-18,6.7-53.2-19.9-57-34.4s0.7-13.6-2.1-37.7
				C314.6,210.8,308.1,198.8,308.1,198.8z"/>
			<g>
				<path class="st10" d="M385.1,151.1l-69.6,18.1c-2.5,0.6-4,3.2-3.3,5.6L345.1,301c0.6,2.5,3.2,4,5.6,3.3l69.6-18.1
					c2.5-0.6,4-3.2,3.3-5.6l-32.9-126.2C390.1,151.9,387.6,150.4,385.1,151.1z"/>
				<g>
					<path class="st9" d="M345.3,165.5c0.2,0.6-0.2,1.2-0.8,1.4c-0.6,0.2-1.2-0.2-1.4-0.8c-0.2-0.6,0.2-1.2,0.8-1.4
						C344.5,164.6,345.1,164.9,345.3,165.5z"/>
					<path class="st9" d="M359.6,161.8c0.1,0.4-0.1,0.8-0.5,0.9c-0.4,0.1-0.8-0.1-0.9-0.5s0.1-0.8,0.5-0.9
						C359.1,161.2,359.5,161.4,359.6,161.8z"/>
					<path class="st9" d="M355.9,163.2l-8.4,2.2c-0.2,0-0.3-0.1-0.4-0.2V165c0-0.2,0.1-0.3,0.2-0.4l8.4-2.2c0.2,0,0.3,0.1,0.4,0.2
						v0.2C356.1,163,356,163.1,355.9,163.2z"/>
				</g>
				<path class="st9" d="M388.7,155.6l32.6,125.2c0.4,1.5-0.5,3-2,3.3L350.6,302c-1.5,0.4-3-0.5-3.3-2l-32.6-125.2
					c-0.4-1.5,0.5-3,2-3.3l14.1-3.7c0.9-0.2,1.9,0.1,2.5,0.9l1,1.5c0.6,0.8,1.5,1.1,2.5,0.9l31-8.1c0.9-0.2,1.6-1,1.7-2l0.2-1.8
					c0.1-1,0.8-1.7,1.7-2l14.1-3.7C386.8,153.3,388.3,154.2,388.7,155.6z"/>
				<g>
					<ellipse class="st10" cx="364.5" cy="214.4" rx="29" ry="29"/>
					<g>
						<path class="st9" d="M352.5,231c0.5,1.2,1.9,1.8,3.1,1.4l9.5-2.8c0,0.2,0.1,0.4,0.1,0.6c0.6,2.1,2.8,3.3,4.9,2.7
							s3.3-2.8,2.7-4.9c-0.1-0.2-0.1-0.4-0.2-0.6l9.5-2.8c1.3-0.4,2.1-1.6,1.9-2.9c-0.3-1.5-1.7-2.4-3.2-1.9l-0.8-0.5
							c-1.7-1-3-2.7-3.6-4.6l-1.8-6.3c-1.6-5.4-6.9-8.7-12.3-7.9c0.7-0.8,1-1.8,0.7-2.9c-0.5-1.6-2.1-2.5-3.7-2.1
							c-1.6,0.5-2.5,2.1-2.1,3.7c0.3,1.1,1.2,1.8,2.1,2.1c-5,2.2-7.7,7.9-6.2,13.3l1.8,6.4c0.6,2.2,0.3,4.7-1,6.6l0,0
							C352.7,228.1,351.9,229.6,352.5,231z M361.9,198.1c0.3,0.9-0.3,1.9-1.2,2.2c-0.9,0.3-1.9-0.3-2.2-1.2
							c-0.3-0.9,0.3-1.9,1.2-2.2S361.6,197.1,361.9,198.1z"/>
						<line class="st3" x1="370.9" y1="227.7" x2="366.7" y2="228.9"/>
						<line class="st3" x1="377.1" y1="221" x2="357.8" y2="226.5"/>
					</g>
				</g>
				<path class="st2" d="M397.3,259.9l-39.2,10.2c-4.7,1.2-9.5-1.6-10.7-6.3l0,0c-1.2-4.7,1.6-9.5,6.3-10.7l39.2-10.2
					c4.7-1.2,9.5,1.6,10.7,6.3l0,0C404.8,253.9,401.9,258.7,397.3,259.9z"/>
				<g>
					<path class="st6" d="M353.8,257.9c0.2-0.4,0.6-0.7,1.3-0.9c0.6-0.2,1.1-0.1,1.5,0.2c0.4,0.3,0.7,0.7,0.9,1.4l0.1,0.3l-1.2,0.3
						l-0.1-0.3c-0.1-0.3-0.2-0.5-0.3-0.6c-0.1-0.1-0.3-0.1-0.5-0.1c-0.2,0.1-0.4,0.2-0.4,0.3c-0.1,0.2-0.1,0.4,0,0.6
						c0.1,0.3,0.3,0.6,0.5,0.8c0.2,0.2,0.6,0.4,1,0.7c0.4,0.2,0.7,0.4,0.9,0.5c0.2,0.2,0.5,0.4,0.7,0.6c0.2,0.3,0.4,0.6,0.5,1
						c0.2,0.7,0.1,1.2-0.1,1.6s-0.7,0.7-1.3,0.9c-0.6,0.2-1.1,0.1-1.5-0.2c-0.4-0.3-0.7-0.7-0.9-1.4l-0.1-0.5l1.2-0.3l0.2,0.6
						c0.1,0.5,0.4,0.7,0.9,0.6c0.4-0.1,0.6-0.4,0.5-1c-0.1-0.3-0.3-0.6-0.5-0.8c-0.2-0.2-0.6-0.4-1-0.7c-0.4-0.2-0.7-0.4-0.9-0.5
						c-0.2-0.2-0.5-0.4-0.7-0.6c-0.2-0.3-0.4-0.6-0.5-1C353.5,258.9,353.5,258.4,353.8,257.9z"/>
					<path class="st6" d="M360.5,262.4c0.1,0.5,0.4,0.7,0.9,0.6c0.4-0.1,0.6-0.4,0.5-1l-1.6-6.2l1.2-0.3l1.6,6.2
						c0.2,0.7,0.1,1.2-0.1,1.6s-0.7,0.7-1.3,0.9c-0.6,0.2-1.1,0.1-1.5-0.2c-0.4-0.3-0.7-0.7-0.9-1.4l-1.6-6.2l1.3-0.3L360.5,262.4z"
						/>
					<path class="st6" d="M365.7,254.8c0.4,0.2,0.7,0.7,0.8,1.3l0.1,0.3c0.1,0.4,0.1,0.8,0.1,1.1c-0.1,0.3-0.2,0.6-0.5,0.8
						c0.7,0.1,1.2,0.6,1.4,1.5l0.2,0.7c0.2,0.6,0.1,1.1-0.1,1.6c-0.2,0.4-0.7,0.7-1.3,0.9l-2,0.5l-2.1-8.1l1.9-0.5
						C364.9,254.6,365.4,254.6,365.7,254.8z M364.4,258.2l0.5-0.1c0.3-0.1,0.4-0.2,0.5-0.3c0.1-0.2,0.1-0.4,0-0.7l-0.1-0.5
						c-0.1-0.3-0.2-0.5-0.3-0.6c-0.1-0.1-0.3-0.1-0.5-0.1l-0.6,0.2L364.4,258.2z M365.4,261.9l0.7-0.2c0.2-0.1,0.4-0.2,0.5-0.3
						c0.1-0.1,0.1-0.4,0-0.7l-0.2-0.7c-0.1-0.4-0.2-0.6-0.4-0.7c-0.2-0.1-0.4-0.1-0.7-0.1l-0.6,0.1L365.4,261.9z"/>
					<path class="st6" d="M367.4,254.4c0.2-0.4,0.6-0.7,1.3-0.9c0.6-0.2,1.1-0.1,1.5,0.2s0.7,0.7,0.9,1.4l0.1,0.3l-1.2,0.3l-0.1-0.3
						c-0.1-0.3-0.2-0.5-0.3-0.6c-0.1-0.1-0.3-0.1-0.5-0.1c-0.2,0.1-0.4,0.2-0.4,0.3c-0.1,0.2-0.1,0.4,0,0.6c0.1,0.3,0.3,0.6,0.5,0.8
						s0.6,0.4,1,0.7c0.4,0.2,0.7,0.4,0.9,0.5c0.2,0.2,0.5,0.4,0.7,0.6c0.2,0.3,0.4,0.6,0.5,1c0.2,0.7,0.1,1.2-0.1,1.6
						s-0.7,0.7-1.3,0.9c-0.6,0.2-1.1,0.1-1.5-0.2c-0.4-0.3-0.7-0.7-0.9-1.4l-0.1-0.5l1.2-0.3l0.2,0.6c0.1,0.5,0.4,0.7,0.9,0.6
						c0.4-0.1,0.6-0.4,0.5-1c-0.1-0.3-0.3-0.6-0.5-0.8c-0.2-0.2-0.6-0.4-1-0.7c-0.4-0.2-0.7-0.4-0.9-0.5c-0.2-0.2-0.5-0.4-0.7-0.6
						c-0.2-0.3-0.4-0.6-0.5-1C367.1,255.4,367.2,254.8,367.4,254.4z"/>
					<path class="st6" d="M376.6,258.1c0.2,0.7,0.1,1.2-0.1,1.6s-0.7,0.7-1.3,0.9c-0.6,0.2-1.1,0.1-1.5-0.2
						c-0.4-0.3-0.7-0.7-0.9-1.4l-1.1-4.2c-0.2-0.7-0.1-1.2,0.1-1.6c0.2-0.4,0.7-0.7,1.3-0.9c0.6-0.2,1.1-0.1,1.5,0.2
						s0.7,0.7,0.9,1.4l0.2,0.8l-1.2,0.3l-0.2-0.9c-0.1-0.5-0.4-0.7-0.9-0.6c-0.4,0.1-0.6,0.4-0.5,1l1.1,4.4c0.1,0.5,0.4,0.7,0.9,0.6
						c0.4-0.1,0.6-0.4,0.5-1l-0.3-1.2l1.2-0.3L376.6,258.1z"/>
					<path class="st6" d="M380.3,258.8c0-0.1-0.1-0.3-0.2-0.6l-0.3-1.3c-0.1-0.4-0.2-0.6-0.4-0.7c-0.2-0.1-0.4-0.1-0.7-0.1l-0.4,0.1
						l0.9,3.3l-1.3,0.3l-2.1-8.1l1.9-0.5c0.7-0.2,1.2-0.1,1.6,0.1c0.4,0.2,0.7,0.7,0.8,1.3l0.2,0.6c0.2,0.8,0.1,1.5-0.4,1.9
						c0.3,0,0.6,0.2,0.8,0.5c0.2,0.3,0.4,0.6,0.5,1.1l0.3,1.2c0.1,0.2,0.1,0.4,0.2,0.6s0.1,0.3,0.2,0.4l-1.3,0.3
						C380.4,259,380.4,258.9,380.3,258.8z M378,255l0.5-0.1c0.3-0.1,0.4-0.2,0.5-0.3c0.1-0.2,0.1-0.4,0-0.7l-0.2-0.8
						c-0.1-0.3-0.2-0.5-0.3-0.6c-0.1-0.1-0.3-0.1-0.5-0.1l-0.6,0.2L378,255z"/>
					<path class="st6" d="M381.7,250.2l2.1,8.1l-1.3,0.3l-2.1-8.1L381.7,250.2z"/>
					<path class="st6" d="M386.1,249.5c0.4,0.2,0.7,0.7,0.8,1.3l0.1,0.3c0.1,0.4,0.1,0.8,0.1,1.1c-0.1,0.3-0.2,0.6-0.5,0.8
						c0.7,0.1,1.2,0.6,1.4,1.5l0.2,0.7c0.2,0.6,0.1,1.1-0.1,1.6c-0.2,0.4-0.7,0.7-1.3,0.9l-2,0.5l-2.1-8.1l1.9-0.5
						C385.2,249.3,385.7,249.3,386.1,249.5z M384.7,252.9l0.5-0.1c0.3-0.1,0.4-0.2,0.5-0.3c0.1-0.2,0.1-0.4,0-0.7l-0.1-0.5
						c-0.1-0.3-0.2-0.5-0.3-0.6c-0.1-0.1-0.3-0.1-0.5-0.1l-0.6,0.2L384.7,252.9z M385.7,256.6l0.7-0.2c0.2-0.1,0.4-0.2,0.5-0.3
						c0.1-0.1,0.1-0.4,0-0.7l-0.2-0.7c-0.1-0.4-0.2-0.6-0.4-0.7c-0.2-0.1-0.4-0.1-0.7,0l-0.6,0.1L385.7,256.6z"/>
					<path class="st6" d="M391.2,251.3l0.3,1.2l-1.7,0.5l0.6,2.4l2.2-0.6l0.3,1.2l-3.5,0.9l-2.1-8.1l3.5-0.9l0.3,1.2l-2.2,0.6
						l0.6,2.3L391.2,251.3z"/>
					<path class="st6" d="M393.6,247.1c0.6-0.2,1.2-0.1,1.6,0.1c0.4,0.3,0.7,0.7,0.9,1.4l1.1,4.1c0.2,0.7,0.1,1.2-0.1,1.6
						c-0.2,0.4-0.7,0.7-1.3,0.9l-2,0.5l-2.1-8.1L393.6,247.1z M394.6,254.2l0.7-0.2c0.2-0.1,0.4-0.2,0.4-0.3c0.1-0.2,0.1-0.4,0-0.6
						l-1.1-4.2c-0.1-0.3-0.2-0.5-0.3-0.6c-0.1-0.1-0.3-0.1-0.5-0.1l-0.7,0.2L394.6,254.2z"/>
				</g>
			</g>
			<path class="st3" d="M302.1,370.8c0,0-11.9-27.7-5.8-61.2"/>
			<path class="st3" d="M273.1,400.7c0,0-24,7.3-26.5,12.9c-2.4,5.5,10.8,0.9,10.8,0.9"/>
			<path class="st3" d="M287.9,287.3c0,0-22.1,21.9-36.9,27.8"/>
			<path class="st3" d="M215.4,281.4c0,0-4,29.6,11,35.2"/>
			<path class="st3" d="M172.8,341.1c0,0-0.1-38.8,7.6-50.8"/>
			<path class="st3" d="M169.9,301.6c0,0-2.2,24.1,2.7,32"/>
			<path class="st3" d="M154.1,346.9c0,0-16.8-5.8-20.3,1.4c-3.5,7.2,10,0.8,10,0.8"/>
			<path class="st3" d="M164.2,372c0,0-16.5,9.3-17.4,14.6"/>
			<path class="st3" d="M191.2,346.3c0,0,31.6,47.8,49.1,43.4"/>
			<path class="st3" d="M212.8,413.3c0,0-24.8,18.2-28.4,16.6"/>
			<path class="st8" d="M386.5,335.8c1.7-1.4,2.8-2.3,3.1-2.6C389.3,333.5,388.2,334.5,386.5,335.8z"/>
		</g>
	</g>
</g>
</svg>
