<?xml version="1.0" encoding="utf-8"?>
<!-- Generator: Adobe Illustrator 23.0.1, SVG Export Plug-In . SVG Version: 6.00 Build 0)  -->
<svg version="1.1" xmlns="http://www.w3.org/2000/svg" xmlns:xlink="http://www.w3.org/1999/xlink" x="0px" y="0px"
	 viewBox="0 0 500 500" style="enable-background:new 0 0 500 500;" xml:space="preserve">
<g id="Background_Simple">
	<g>
		<path id="XMLID_965_" style="fill:#92E3A9;" d="M205.06,44.14c0,0,46.72-9.47,89.23,0c25.99,5.79,80.76,19.52,93.68,50.64
			c12.92,31.12-49.3,57.67-18.73,89.24c13.19,13.62,76.48,31.58,72.92,119.92c-3.56,88.34-96.3,142.19-225.18,139.79
			C88.1,441.33,13.73,324.14,63.57,266.43c49.85-57.71,71.3-57.88,48.71-104.87S121.05,57.59,205.06,44.14z"/>
		<path id="XMLID_964_" style="opacity:0.7;fill:#FFFFFF;" d="M205.06,44.14c0,0,46.72-9.47,89.23,0
			c25.99,5.79,80.76,19.52,93.68,50.64c12.92,31.12-49.3,57.67-18.73,89.24c13.19,13.62,76.48,31.58,72.92,119.92
			c-3.56,88.34-96.3,142.19-225.18,139.79C88.1,441.33,13.73,324.14,63.57,266.43c49.85-57.71,71.3-57.88,48.71-104.87
			S121.05,57.59,205.06,44.14z"/>
	</g>
</g>
<g id="Graphics">
	<g>
		<g>
			<polygon style="fill:none;stroke:#263238;stroke-linecap:round;stroke-linejoin:round;stroke-miterlimit:10;" points="
				115.94,188.19 124.65,213.63 82.92,227.9 72.6,197.71 114.32,183.44 			"/>
			<polygon style="fill:none;stroke:#263238;stroke-linecap:round;stroke-linejoin:round;stroke-miterlimit:10;" points="
				120.28,200.86 124.65,213.63 82.92,227.9 80.78,221.64 89.19,208.9 102.88,214.23 112.65,197.75 			"/>
			<path style="fill:none;stroke:#263238;stroke-linecap:round;stroke-linejoin:round;stroke-miterlimit:10;" d="M94.22,199.25
				c0.81,2.37-0.45,4.95-2.83,5.77c-2.37,0.81-4.95-0.45-5.77-2.83c-0.81-2.37,0.45-4.95,2.83-5.77
				C90.83,195.61,93.41,196.88,94.22,199.25z"/>
		</g>
		<g>
			<polygon style="fill:none;stroke:#263238;stroke-linecap:round;stroke-linejoin:round;stroke-miterlimit:10;" points="
				364.57,397 358.81,423.27 315.74,413.83 322.56,382.67 365.64,392.1 			"/>
			<g>
				
					<line style="fill:none;stroke:#263238;stroke-linecap:round;stroke-linejoin:round;stroke-miterlimit:10;" x1="324.28" y1="407.11" x2="353.87" y2="413.59"/>
				<path style="fill:none;stroke:#263238;stroke-linecap:round;stroke-linejoin:round;stroke-miterlimit:10;" d="M326.7,393.3
					c0,0-3.01,13.75,12.35,17.11c15.37,3.36,18.38-10.38,18.38-10.38"/>
				<path style="fill:#FFFFFF;stroke:#263238;stroke-linecap:round;stroke-linejoin:round;stroke-miterlimit:10;" d="M328,393.59
					c-0.16,0.71-0.86,1.17-1.58,1.01c-0.71-0.16-1.17-0.86-1.01-1.58c0.16-0.72,0.86-1.17,1.58-1.01
					C327.7,392.17,328.15,392.87,328,393.59z"/>
				<path style="fill:#FFFFFF;stroke:#263238;stroke-linecap:round;stroke-linejoin:round;stroke-miterlimit:10;" d="M358.73,400.32
					c-0.16,0.71-0.86,1.17-1.58,1.01c-0.71-0.16-1.17-0.86-1.01-1.58c0.16-0.71,0.86-1.17,1.58-1.01
					C358.43,398.9,358.89,399.6,358.73,400.32z"/>
				<g>
					
						<rect x="322.53" y="405.89" transform="matrix(0.9768 0.2139 -0.2139 0.9768 94.5727 -59.8228)" style="fill:#FFFFFF;stroke:#263238;stroke-linecap:round;stroke-linejoin:round;stroke-miterlimit:10;" width="2.33" height="2.33"/>
					
						<rect x="337.89" y="409.25" transform="matrix(0.9769 0.2139 -0.2139 0.9769 95.6443 -63.0299)" style="fill:#FFFFFF;stroke:#263238;stroke-linecap:round;stroke-linejoin:round;stroke-miterlimit:10;" width="2.33" height="2.33"/>
					
						<rect x="353.26" y="412.62" transform="matrix(0.9768 0.2139 -0.2139 0.9768 96.7238 -66.2411)" style="fill:#FFFFFF;stroke:#263238;stroke-linecap:round;stroke-linejoin:round;stroke-miterlimit:10;" width="2.33" height="2.33"/>
				</g>
			</g>
		</g>
		<g>
			<polygon style="fill:none;stroke:#263238;stroke-linecap:round;stroke-linejoin:round;stroke-miterlimit:10;" points="
				165.25,111.27 154.36,135.86 114.04,118 126.96,88.83 167.28,106.68 			"/>
			<g>
				<path style="fill:#263238;" d="M144.08,121.41c-0.77,1.75-3.56,2.2-6.22,1.03c-2.66-1.18-4.19-3.55-3.42-5.29
					c0.77-1.75,3.56-2.2,6.22-1.03C143.32,117.29,144.85,119.66,144.08,121.41z"/>
				<path style="fill:#263238;" d="M146.12,102.2l-10.76,15.35l-0.92-0.41l7.87-11.22l2.04-2.91
					C145.38,102.71,146.04,102.26,146.12,102.2L146.12,102.2z"/>
				<path style="fill:#263238;" d="M146.11,102.21l-2.62,3.7c0,0-0.46,0.07-1.19,0.01c-0.85-0.07-2.06-0.31-3.37-1.02
					c-2.38-1.3-4.41,0.22-4.53,0.31c0.13-0.16,2.67-3.33,6.17-2.22c1.46,0.47,2.78,0.31,3.77,0.01
					C145.38,102.71,146.04,102.26,146.11,102.21z"/>
			</g>
		</g>
		<g>
			<polygon style="fill:none;stroke:#263238;stroke-linecap:round;stroke-linejoin:round;stroke-miterlimit:10;" points="
				434.03,310.61 424.64,335.81 383.32,320.41 394.46,290.51 435.78,305.91 			"/>
			<g>
				<polyline style="fill:none;stroke:#263238;stroke-linecap:round;stroke-linejoin:round;stroke-miterlimit:10;" points="
					406.22,305.08 395.86,309.81 400.6,320.18 				"/>
				<polyline style="fill:none;stroke:#263238;stroke-linecap:round;stroke-linejoin:round;stroke-miterlimit:10;" points="
					411.73,324.32 422.09,319.59 417.36,309.22 				"/>
				
					<line style="fill:none;stroke:#263238;stroke-linecap:round;stroke-linejoin:round;stroke-miterlimit:10;" x1="413.6" y1="307.8" x2="404.35" y2="321.59"/>
			</g>
		</g>
		<g>
			<polygon style="fill:none;stroke:#263238;stroke-linecap:round;stroke-linejoin:round;stroke-miterlimit:10;" points="
				392.8,76.47 383.59,101.74 342.16,86.63 353.09,56.65 394.52,71.76 			"/>
			<g>
				<path style="fill:none;stroke:#263238;stroke-linecap:round;stroke-linejoin:round;stroke-miterlimit:10;" d="M363.45,78.37
					c0,0-0.49-2.83-4.68-2.21c-3.86,0.57-4.96,4.92-1.7,6.11c3.83,1.4,6.84-1.84,10.56-5.02c3.89-3.33,7.43-6.91,7.87-7.34
					c0,0-8.77,15.69-9.91,17.76c-1.14,2.07,2.29,1.31,2.91,0.39"/>
				<path style="fill:none;stroke:#263238;stroke-linecap:round;stroke-linejoin:round;stroke-miterlimit:10;" d="M378.26,83.04
					c0,0-3.82-2.59-6.97,1.18c-1.22,1.46-0.58,3.02,0.48,3.41c2.69,0.98,4.37-0.2,7.21-4.33c0,0-3.93,5.52-3.09,5.83
					c1.26,0.46,2.19-0.49,2.19-0.49"/>
				
					<line style="fill:none;stroke:#263238;stroke-linecap:round;stroke-linejoin:round;stroke-miterlimit:10;" x1="366.44" y1="78.73" x2="373.38" y2="81.26"/>
			</g>
		</g>
		<g>
			<polygon style="fill:none;stroke:#263238;stroke-linecap:round;stroke-linejoin:round;stroke-miterlimit:10;" points="
				119.36,368.44 76.28,359.02 82.15,332.15 125.38,341.6 			"/>
			<g>
				
					<line style="fill:none;stroke:#263238;stroke-linecap:round;stroke-linejoin:round;stroke-miterlimit:10;" x1="91.92" y1="338.87" x2="117.1" y2="344.38"/>
				
					<line style="fill:none;stroke:#263238;stroke-linecap:round;stroke-linejoin:round;stroke-miterlimit:10;" x1="87.85" y1="340.51" x2="116.57" y2="346.8"/>
				
					<line style="fill:none;stroke:#263238;stroke-linecap:round;stroke-linejoin:round;stroke-miterlimit:10;" x1="87.32" y1="342.93" x2="116.04" y2="349.21"/>
				
					<line style="fill:none;stroke:#263238;stroke-linecap:round;stroke-linejoin:round;stroke-miterlimit:10;" x1="86.79" y1="345.35" x2="115.51" y2="351.63"/>
				
					<line style="fill:none;stroke:#263238;stroke-linecap:round;stroke-linejoin:round;stroke-miterlimit:10;" x1="86.26" y1="347.76" x2="114.98" y2="354.04"/>
				
					<line style="fill:none;stroke:#263238;stroke-linecap:round;stroke-linejoin:round;stroke-miterlimit:10;" x1="85.74" y1="350.18" x2="114.46" y2="356.46"/>
				
					<line style="fill:none;stroke:#263238;stroke-linecap:round;stroke-linejoin:round;stroke-miterlimit:10;" x1="85.21" y1="352.59" x2="113.93" y2="358.87"/>
				
					<line style="fill:none;stroke:#263238;stroke-linecap:round;stroke-linejoin:round;stroke-miterlimit:10;" x1="84.68" y1="355.01" x2="109.86" y2="360.52"/>
			</g>
		</g>
	</g>
</g>
<g id="Drawer">
	<g>
		<polygon style="fill:#263238;" points="330.58,167.97 169.42,167.97 149.31,67.93 350.69,67.93 		"/>
		<g>
			<g>
				<defs>
					<polyline id="XMLID_957_" points="164.43,71.18 134.75,273.01 365.25,273.01 335.57,71.18 					"/>
				</defs>
				<use xlink:href="#XMLID_957_"  style="overflow:visible;fill:#92E3A9;"/>
				<clipPath id="XMLID_2_">
					<use xlink:href="#XMLID_957_"  style="overflow:visible;"/>
				</clipPath>
				<polygon style="opacity:0.3;clip-path:url(#XMLID_2_);fill-opacity:0.7;" points="365.25,273.01 134.75,273.01 147.16,188.61 
					352.84,188.61 				"/>
				
					<use xlink:href="#XMLID_957_"  style="overflow:visible;fill:none;stroke:#263238;stroke-linecap:round;stroke-linejoin:round;stroke-miterlimit:10;"/>
			</g>
			<polygon style="fill:#263238;" points="329.3,71.18 170.7,71.18 143.2,273.01 356.8,273.01 			"/>
		</g>
		<g>
			<path style="fill:#BFBFBF;stroke:#263238;stroke-linecap:round;stroke-linejoin:round;stroke-miterlimit:10;" d="M313.63,86.56
				h-86.09l-0.98-2.2c-0.54-1.22-1.75-2.01-3.09-2.01h-19.55c-1.09,0-1.97,0.88-1.97,1.97v2.25h-15.58c-1.2,0-2.09,1.1-1.86,2.27
				l12.72,63.25h105.55l12.72-63.25C315.72,87.66,314.83,86.56,313.63,86.56z"/>
			<g>
				<defs>
					<path id="XMLID_962_" d="M316.88,91.41l-1.1,5.46l-11.3,56.19c-0.34,1.73-1.86,2.98-3.63,2.98h-101.7
						c-1.77,0-3.29-1.25-3.63-2.98l-11.57-57.52l-0.83-4.13c-0.23-1.17,0.66-2.27,1.86-2.27h130.04
						C316.22,89.14,317.11,90.24,316.88,91.41z"/>
				</defs>
				<use xlink:href="#XMLID_962_"  style="overflow:visible;fill:#FFFFFF;"/>
				<clipPath id="XMLID_3_">
					<use xlink:href="#XMLID_962_"  style="overflow:visible;"/>
				</clipPath>
				<path style="opacity:0.4;clip-path:url(#XMLID_3_);fill:#92E3A9;" d="M315.78,96.87l-11.3,56.19c-0.34,1.73-1.86,2.98-3.63,2.98
					h-101.7c-1.77,0-3.29-1.25-3.63-2.98l-11.57-57.52L315.78,96.87z"/>
				
					<use xlink:href="#XMLID_962_"  style="overflow:visible;fill:none;stroke:#263238;stroke-linecap:round;stroke-linejoin:round;stroke-miterlimit:10;"/>
			</g>
			<path style="fill:#BFBFBF;stroke:#263238;stroke-linecap:round;stroke-linejoin:round;stroke-miterlimit:10;" d="M315.16,101.13
				h-88.15l-1-2.2c-0.55-1.22-1.8-2.01-3.17-2.01h-20.02c-1.11,0-2.02,0.88-2.02,1.96v2.24h-15.96c-1.22,0-2.14,1.09-1.9,2.26
				l13.02,63.06h108.08l13.02-63.06C317.3,102.23,316.38,101.13,315.16,101.13z"/>
			<g>
				<defs>
					<path id="XMLID_963_" d="M318.48,106.15l-1.1,5.34l-11.59,56.13c-0.36,1.72-1.91,2.96-3.72,2.96H197.93
						c-1.81,0-3.36-1.24-3.72-2.96l-11.63-56.32l-1.06-5.15c-0.24-1.17,0.68-2.27,1.9-2.27h133.16
						C317.8,103.88,318.72,104.98,318.48,106.15z"/>
				</defs>
				<use xlink:href="#XMLID_963_"  style="overflow:visible;fill:#FFFFFF;"/>
				<clipPath id="XMLID_4_">
					<use xlink:href="#XMLID_963_"  style="overflow:visible;"/>
				</clipPath>
				<path style="opacity:0.4;clip-path:url(#XMLID_4_);fill:#92E3A9;" d="M317.38,111.49l-11.59,56.13
					c-0.36,1.72-1.91,2.96-3.72,2.96H197.93c-1.81,0-3.36-1.24-3.72-2.96l-11.63-56.32L317.38,111.49z"/>
				
					<use xlink:href="#XMLID_963_"  style="overflow:visible;fill:none;stroke:#263238;stroke-linecap:round;stroke-linejoin:round;stroke-miterlimit:10;"/>
			</g>
			<path style="fill:#BFBFBF;stroke:#263238;stroke-linecap:round;stroke-linejoin:round;stroke-miterlimit:10;" d="M316.68,115.7
				h-90.21l-1.02-2.19c-0.57-1.22-1.84-2-3.24-2h-20.49c-1.14,0-2.06,0.88-2.06,1.96v2.24h-16.33c-1.25,0-2.19,1.09-1.95,2.25
				l13.33,62.87h110.6l13.33-62.87C318.87,116.79,317.93,115.7,316.68,115.7z"/>
			<path style="fill:#FFFFFF;stroke:#263238;stroke-linecap:round;stroke-linejoin:round;stroke-miterlimit:10;" d="M318.14,118.63
				H181.86c-1.25,0-2.19,1.09-1.95,2.25l12.99,61.29c0.36,1.72,1.96,2.96,3.81,2.96h106.58c1.85,0,3.44-1.24,3.81-2.96l12.99-61.29
				C320.33,119.72,319.39,118.63,318.14,118.63z"/>
			<path style="fill:#BFBFBF;stroke:#263238;stroke-linecap:round;stroke-linejoin:round;stroke-miterlimit:10;" d="M318.21,127.27
				h-92.28l-1.05-2.18c-0.58-1.21-1.88-2-3.32-2h-20.96c-1.17,0-2.11,0.87-2.11,1.95v2.23h-16.7c-1.28,0-2.24,1.09-1.99,2.25
				l13.63,62.68h113.13l13.63-62.68C320.45,128.36,319.49,127.27,318.21,127.27z"/>
			<path style="fill:#FFFFFF;stroke:#263238;stroke-linecap:round;stroke-linejoin:round;stroke-miterlimit:10;" d="M319.7,130.37
				H180.3c-1.28,0-2.24,1.09-1.99,2.25l13.29,61.11c0.37,1.71,2,2.95,3.89,2.95h109.02c1.89,0,3.52-1.23,3.89-2.95l13.29-61.11
				C321.94,131.46,320.98,130.37,319.7,130.37z"/>
			<path style="fill:#BFBFBF;stroke:#263238;stroke-linecap:round;stroke-linejoin:round;stroke-miterlimit:10;" d="M319.73,138.84
				h-94.34l-1.07-2.18c-0.59-1.21-1.92-1.99-3.39-1.99H199.5c-1.19,0-2.16,0.87-2.16,1.95v2.22h-17.08c-1.31,0-2.29,1.08-2.04,2.24
				l13.93,62.5h115.66l13.93-62.5C322.02,139.93,321.04,138.84,319.73,138.84z"/>
			<g>
				<defs>
					<path id="XMLID_958_" d="M321.25,142.12h-142.5c-1.31,0-2.3,1.08-2.04,2.24l3.34,14.99l10.24,45.93
						c0.39,1.71,2.05,2.94,3.98,2.94h111.46c1.93,0,3.59-1.23,3.98-2.94l5.02-22.53l8.56-38.39
						C323.55,143.2,322.56,142.12,321.25,142.12z"/>
				</defs>
				<use xlink:href="#XMLID_958_"  style="overflow:visible;fill:#FFFFFF;"/>
				<clipPath id="XMLID_5_">
					<use xlink:href="#XMLID_958_"  style="overflow:visible;"/>
				</clipPath>
				<path style="opacity:0.4;clip-path:url(#XMLID_5_);fill:#92E3A9;" d="M180.05,159.35l10.24,45.93c0.39,1.71,2.05,2.94,3.98,2.94
					h111.46c1.93,0,3.59-1.23,3.98-2.94l5.02-22.53L180.05,159.35z"/>
				
					<use xlink:href="#XMLID_958_"  style="overflow:visible;fill:none;stroke:#263238;stroke-linecap:round;stroke-linejoin:round;stroke-miterlimit:10;"/>
			</g>
			<g>
				<path style="fill:#BFBFBF;stroke:#263238;stroke-linecap:round;stroke-linejoin:round;stroke-miterlimit:10;" d="M221.77,210.39
					l-1.26-2.1c-0.7-1.16-2.18-1.87-3.77-1.79l-23.28,1.07c-1.29,0.06-2.3,0.97-2.26,2.03l0.1,2.19l-18.55,0.85
					c-1.42,0.07-2.44,1.18-2.11,2.31l17.97,60.99l125.65-5.77l12.3-62.38c0.23-1.16-0.89-2.18-2.31-2.11L221.77,210.39z"/>
			</g>
			<g>
				<defs>
					<path id="XMLID_960_" d="M328.4,211.67l-1.42,7.18l-10.57,53.63c-0.34,1.71-2.09,3-4.19,3.1l-121.07,5.56
						c-2.1,0.1-3.97-1.03-4.46-2.7l-16.71-56.7l-0.81-2.75c-0.33-1.13,0.69-2.25,2.11-2.31l154.81-7.12
						C327.52,209.5,328.63,210.52,328.4,211.67z"/>
				</defs>
				<use xlink:href="#XMLID_960_"  style="overflow:visible;fill:#FFFFFF;"/>
				<clipPath id="XMLID_6_">
					<use xlink:href="#XMLID_960_"  style="overflow:visible;"/>
				</clipPath>
				<path style="opacity:0.4;clip-path:url(#XMLID_6_);fill:#92E3A9;" d="M326.98,218.85l-10.57,53.63c-0.34,1.71-2.09,3-4.19,3.1
					l-121.07,5.56c-2.1,0.1-3.97-1.03-4.46-2.7l-16.71-56.7L326.98,218.85z"/>
				
					<use xlink:href="#XMLID_960_"  style="overflow:visible;fill:none;stroke:#263238;stroke-linecap:round;stroke-linejoin:round;stroke-miterlimit:10;"/>
			</g>
			<g>
				<path style="fill:#BFBFBF;stroke:#263238;stroke-linecap:round;stroke-linejoin:round;stroke-miterlimit:10;" d="M224.44,224.31
					l-1.07-2.2c-0.6-1.22-2.03-2.07-3.65-2.15l-23.74-1.24c-1.32-0.07-2.44,0.73-2.49,1.79l-0.11,2.19l-18.92-0.99
					c-1.45-0.08-2.6,0.93-2.37,2.09l12.22,62.28l128.13,6.7l18.65-60.67c0.35-1.12-0.69-2.25-2.14-2.32L224.44,224.31z"/>
			</g>
			<g>
				<defs>
					<path id="XMLID_961_" d="M332.56,236.32l-3.04,9.88l-15.14,49.26c-0.51,1.66-2.42,2.78-4.56,2.66l-123.47-6.45
						c-2.14-0.11-3.92-1.42-4.26-3.12l-10.45-53.27l-1.46-7.45c-0.23-1.15,0.92-2.16,2.37-2.08L330.42,234
						C331.87,234.08,332.91,235.2,332.56,236.32z"/>
				</defs>
				<use xlink:href="#XMLID_961_"  style="overflow:visible;fill:#FFFFFF;"/>
				<clipPath id="XMLID_7_">
					<use xlink:href="#XMLID_961_"  style="overflow:visible;"/>
				</clipPath>
				<path style="opacity:0.4;clip-path:url(#XMLID_7_);fill:#92E3A9;" d="M329.52,246.2l-15.14,49.26
					c-0.51,1.66-2.42,2.78-4.56,2.66l-123.47-6.45c-2.14-0.11-3.92-1.42-4.26-3.12l-10.45-53.27L329.52,246.2z"/>
				
					<use xlink:href="#XMLID_961_"  style="overflow:visible;fill:none;stroke:#263238;stroke-linecap:round;stroke-linejoin:round;stroke-miterlimit:10;"/>
			</g>
			<g>
				<path style="fill:#BFBFBF;stroke:#263238;stroke-linecap:round;stroke-linejoin:round;stroke-miterlimit:10;" d="M222.16,240.26
					l-1.21-2.14c-0.67-1.19-2.17-1.95-3.83-1.95h-24.24c-1.35,0-2.44,0.86-2.44,1.91v2.18h-19.32c-1.48,0-2.59,1.06-2.3,2.2
					l15.76,61.37h130.84l15.76-61.37c0.29-1.14-0.82-2.2-2.3-2.2H222.16z"/>
			</g>
			<g>
				<path style="fill:#FFFFFF;stroke:#263238;stroke-linecap:round;stroke-linejoin:round;stroke-miterlimit:10;" d="M313.04,309.49
					H186.96c-2.19,0-4.07-1.21-4.5-2.89l-15.37-59.83c-0.29-1.14,0.82-2.2,2.3-2.2h161.2c1.48,0,2.59,1.06,2.3,2.2l-15.37,59.83
					C317.11,308.28,315.22,309.49,313.04,309.49z"/>
			</g>
			<g>
				<path style="fill:#BFBFBF;stroke:#263238;stroke-linecap:round;stroke-linejoin:round;stroke-miterlimit:10;" d="M221.62,254.83
					l-1.23-2.13c-0.68-1.18-2.22-1.95-3.91-1.95h-24.71c-1.37,0-2.49,0.85-2.49,1.9v2.18H169.6c-1.51,0-2.64,1.06-2.35,2.19
					l16.07,61.18h133.37l16.07-61.18c0.3-1.13-0.84-2.19-2.35-2.19H221.62z"/>
			</g>
			<g>
				<path style="fill:#FFFFFF;stroke:#263238;stroke-linecap:round;stroke-linejoin:round;stroke-miterlimit:10;" d="M314.26,324.04
					H185.74c-2.23,0-4.15-1.2-4.59-2.88l-15.66-59.64c-0.3-1.13,0.84-2.19,2.35-2.19h164.32c1.51,0,2.64,1.06,2.35,2.19
					l-15.66,59.64C318.4,322.83,316.48,324.04,314.26,324.04z"/>
			</g>
		</g>
		<g>
			<g>
				<defs>
					<polygon id="XMLID_951_" points="340.37,392.97 159.63,392.97 120.07,280.78 379.93,280.78 					"/>
				</defs>
				<use xlink:href="#XMLID_951_"  style="overflow:visible;fill:#92E3A9;"/>
				<clipPath id="XMLID_8_">
					<use xlink:href="#XMLID_951_"  style="overflow:visible;"/>
				</clipPath>
				<polygon style="opacity:0.3;clip-path:url(#XMLID_8_);fill-opacity:0.7;" points="340.37,392.97 159.63,392.97 120.07,280.78 
					379.93,280.78 				"/>
				
					<use xlink:href="#XMLID_951_"  style="overflow:visible;fill:none;stroke:#263238;stroke-linecap:round;stroke-linejoin:round;stroke-miterlimit:10;"/>
			</g>
			<polygon style="fill:#92E3A9;stroke:#263238;stroke-linecap:round;stroke-linejoin:round;stroke-miterlimit:10;" points="
				376.49,266.01 123.51,266.01 120.07,280.78 379.93,280.78 			"/>
		</g>
		<g>
			<polygon style="fill:#BFBFBF;stroke:#263238;stroke-linecap:round;stroke-linejoin:round;stroke-miterlimit:10;" points="
				187.27,332.18 184.74,356.13 315.26,356.13 312.73,332.18 306.97,332.18 308.61,349.27 191.39,349.27 193.03,332.18 			"/>
			<polygon style="fill:#757575;stroke:#263238;stroke-linecap:round;stroke-linejoin:round;stroke-miterlimit:10;" points="
				314.28,361.63 185.72,361.63 184.74,356.13 315.26,356.13 			"/>
			<polygon style="fill:#757575;stroke:#263238;stroke-linecap:round;stroke-linejoin:round;stroke-miterlimit:10;" points="
				306.97,332.18 306.16,338.53 306.97,349.27 308.61,349.27 			"/>
			<polygon style="fill:#757575;stroke:#263238;stroke-linecap:round;stroke-linejoin:round;stroke-miterlimit:10;" points="
				193.03,332.18 193.84,338.53 193.03,349.27 191.39,349.27 			"/>
		</g>
		<g>
			<polygon style="fill:#FFFFFF;stroke:#263238;stroke-linecap:round;stroke-linejoin:round;stroke-miterlimit:10;" points="
				292.05,320.16 207.95,320.16 203.93,299.84 296.07,299.84 			"/>
		</g>
	</g>
</g>
<g id="Right_hand">
	<g>
		<g>
			<g>
				<defs>
					<path id="XMLID_959_" d="M255.63,123.53l-0.83-2.35c-0.46-1.3-1.74-2.27-3.26-2.47l-22.24-2.87c-1.24-0.16-2.35,0.59-2.49,1.68
						l-0.29,2.25l-17.72-2.28c-1.36-0.18-2.52,0.79-2.4,2l6.3,65.14l120.02,15.47l22.61-61.41c0.42-1.14-0.46-2.37-1.82-2.54
						L255.63,123.53z"/>
				</defs>
				<use xlink:href="#XMLID_959_"  style="overflow:visible;fill:#FFFFFF;"/>
				<clipPath id="XMLID_9_">
					<use xlink:href="#XMLID_959_"  style="overflow:visible;"/>
				</clipPath>
				<path style="opacity:0.4;clip-path:url(#XMLID_9_);fill:#92E3A9;" d="M255.63,123.53l-0.83-2.35c-0.46-1.3-1.74-2.27-3.26-2.47
					l-22.24-2.87c-1.24-0.16-2.35,0.59-2.49,1.68l-0.29,2.25l-17.72-2.28c-1.36-0.18-2.52,0.79-2.4,2l6.3,65.14l120.02,15.47
					l22.61-61.41c0.42-1.14-0.46-2.37-1.82-2.54L255.63,123.53z"/>
				
					<use xlink:href="#XMLID_959_"  style="overflow:visible;fill:none;stroke:#263238;stroke-linecap:round;stroke-linejoin:round;stroke-miterlimit:10;"/>
			</g>
			<g>
				<defs>
					<path id="XMLID_956_" d="M356.48,142.39l-20.47,55.59l-1.58,4.28c-0.62,1.68-2.51,2.7-4.51,2.44l-115.66-14.9
						c-2-0.26-3.57-1.73-3.74-3.51l-6.15-63.5c-0.11-1.21,1.05-2.17,2.41-2l98.42,12.69l49.46,6.37
						C356.02,140.03,356.9,141.26,356.48,142.39z"/>
				</defs>
				<use xlink:href="#XMLID_956_"  style="overflow:visible;fill:#FFFFFF;"/>
				<clipPath id="XMLID_10_">
					<use xlink:href="#XMLID_956_"  style="overflow:visible;"/>
				</clipPath>
				<path style="opacity:0.3;clip-path:url(#XMLID_10_);fill-opacity:0.7;" d="M356.48,142.39l-20.47,55.59
					c-14.51-3.43-15.06-12.47-17.49-17.15c-2.68-5.16-19.67-7.9-24.42-8.73c-4.75-0.84-7.64-5.64-7.64-5.64
					c-4.28-12.02,18.06-22.5,18.06-22.5c-0.44-1.65,0.21-7.06,0.68-10.48l49.46,6.37C356.02,140.03,356.9,141.26,356.48,142.39z"/>
				
					<use xlink:href="#XMLID_956_"  style="overflow:visible;fill:none;stroke:#263238;stroke-linecap:round;stroke-linejoin:round;stroke-miterlimit:10;"/>
			</g>
			<polygon style="fill:#92E3A9;stroke:#263238;stroke-linecap:round;stroke-linejoin:round;stroke-miterlimit:10;" points="
				226.12,139.9 227.7,179.2 241.95,181.04 243.62,141.88 			"/>
			<path style="fill:none;stroke:#263238;stroke-linecap:round;stroke-linejoin:round;stroke-miterlimit:10;" d="M234.81,176.31
				c0.44-1.37,0.05-2.89-0.69-4.11c-0.75-1.22-1.83-2.21-2.89-3.17c1.65,0.95,3.49,1.55,5.38,1.77c-0.02-2.05-1.97-3.47-3.71-4.54
				c0.78-0.31,1.7-0.24,2.42,0.18c0.06-0.63-0.21-1.29-0.71-1.69c0.22,0.19,0.56-0.11,0.55-0.39c-0.01-0.29-0.21-0.52-0.35-0.77
				c-0.32-0.57-0.32-1.27-0.31-1.93c0.03-2.35,0.07-4.7,0.1-7.06c0.06,0.43,0.4,0.8,0.82,0.91c-0.03-0.93-0.12-1.86-0.2-2.79
				c-0.22-2.35-0.45-4.71-0.67-7.06"/>
		</g>
		<g>
			<path style="fill:#FFFFFF;" d="M461.04,267.68c0,0-80.7-72.2-85.85-76.75c-5.14-4.55-8.9-4.35-11.67-7.12
				c-2.77-2.77-4.15-4.75-15.43-4.55c-11.27,0.2-26.31-5.93-29.67-8.11c-3.36-2.18-8.11-0.59-11.27-1.82
				c-3.16-1.23-11.27-0.15-16.22,0c-4.95,0.15-5.34-4.9-3.36-10.64c1.98-5.74,17.01-9.3,18.99-8.11c1.98,1.19,9.89-2.18,9.89-2.18
				c-1.19-4.15-0.79-14.24-0.79-14.24s-8.31-3.56-11.47-4.75s-7.52-0.79-7.52-0.79s0.99-4.54,2.57-6.22
				c1.58-1.69,9.1-3.27,16.42-8.41c7.32-5.14,11.87-6.33,13.05-5.93s9.3,2.77,11.47,2.77c2.18,0,5.34-1.98,8.51-1.38
				s8.9,5.54,11.47,6.13c2.57,0.59,3.35,1.13,6.73,1.13c1.48,0,7.52,4.41,7.52,4.41s3.56,0.59,7.32,2.37
				c3.76,1.78,7.71,10.29,9.49,13.06c1.78,2.77,1.98,9.49,1.98,9.49s4.75,2.57,6.53,6.13c1.78,3.56,67.25,38.77,67.25,38.77
				S477.33,231.42,461.04,267.68z"/>
			<g>
				<path style="opacity:0.4;fill:#92E3A9;" d="M403.54,216.25c-14.46-12.94-26.46-23.66-28.34-25.32
					c-5.15-4.55-8.9-4.35-11.67-7.12s-4.16-4.74-15.43-4.55c-11.28,0.2-26.31-5.93-29.67-8.11c-3.36-2.17-8.11-0.59-11.28-1.82
					c-3.16-1.23-11.27-0.15-16.22,0c-4.94,0.15-5.34-4.9-3.36-10.64c1.98-5.73,17.01-9.29,18.99-8.11c1.98,1.19,9.89-2.17,9.89-2.17
					c-1.19-4.16-0.79-14.25-0.79-14.25s-8.31-3.56-11.47-4.74c-3.17-1.19-7.52-0.79-7.52-0.79s0.99-4.54,2.57-6.23
					c1.58-1.69,9.1-3.27,16.42-8.41s11.87-6.33,13.05-5.94c1.19,0.4,9.3,2.77,11.48,2.77c1.65,0,3.88-1.14,6.25-1.43
					c-1.92,1.07-3.25,3.11-2.89,4.2c0.57,1.72,2.18,6.1,2.27,6.38c-0.43-0.42-10.8-10.66-17.5-10.13
					c-5.79,0.45-11.67,10.2-10.68,17.36c0.99,7.16-1.41,7.16-0.11,12.5c1.29,5.34,2.48,12.86,0.5,15.83
					c-1.98,2.96-5.93-2.31-5.93-2.31s-5.01,2.51-5.01,8.24c0,5.74,5.95,6.13,9.54,6.73c3.58,0.59,16.6,7.75,25.52,8.13
					c8.92,0.37,8.92,0.37,8.92,0.37s-5.15-7.01-2.97-7.36c2.17-0.35,8.7,0.28,13.05,6.99c4.36,6.7,7.6,8.21,15.57,11.51
					C381.32,189.73,393.74,203.14,403.54,216.25z"/>
				<path style="opacity:0.4;fill:#92E3A9;" d="M443.06,177.9c-1.21-0.57-40-18.85-41.95-21.58c-1.98-2.77-4.35-3.4-6.53-6.15
					c-2.17-2.75-9.49-4.53-10.48-8.29c-0.99-3.76-2.18-15.17-3.96-16.58c-1.78-1.42-4.74-2.9-4.74-2.9l2.94,7.33
					c0,0-6.7-9.49-8.29-9.75c-1.58-0.25,1.72,6.9,1.43,6.68c-0.19-0.14-7.55-7-13.63-12.14c0.9,0.52,1.7,0.91,2.31,1.05
					c2.58,0.59,3.36,1.13,6.73,1.13c1.48,0,7.52,4.41,7.52,4.41s3.56,0.59,7.32,2.37c3.75,1.78,7.71,10.29,9.49,13.06
					c1.78,2.77,1.98,9.49,1.98,9.49s4.75,2.57,6.53,6.13C400.78,154.27,424.17,167.48,443.06,177.9z"/>
			</g>
			<path style="opacity:0.4;fill:#92E3A9;" d="M443.09,177.91c0,0-0.01,0-0.03-0.01c0.01,0,0.02,0,0.02,0
				C443.09,177.91,443.09,177.91,443.09,177.91z"/>
			<g>
				<path style="fill:none;stroke:#263238;stroke-linecap:round;stroke-linejoin:round;stroke-miterlimit:10;" d="M461.04,267.68
					c0,0-80.7-72.2-85.85-76.75c-5.14-4.55-8.9-4.35-11.67-7.12c-2.77-2.77-4.15-4.75-15.43-4.55c-11.27,0.2-26.31-5.93-29.67-8.11
					c-3.36-2.18-8.11-0.59-11.27-1.82c-3.16-1.23-11.27-0.15-16.22,0c-4.95,0.15-5.34-4.9-3.36-10.64
					c1.98-5.74,17.01-9.3,18.99-8.11c1.98,1.19,9.89-2.18,9.89-2.18c-1.19-4.15-0.79-14.24-0.79-14.24s-8.31-3.56-11.47-4.75
					s-7.52-0.79-7.52-0.79s0.99-4.54,2.57-6.22c1.58-1.69,9.1-3.27,16.42-8.41c7.32-5.14,11.87-6.33,13.05-5.93s9.3,2.77,11.47,2.77
					c2.18,0,5.34-1.98,8.51-1.38s8.9,5.54,11.47,6.13c2.57,0.59,3.35,1.13,6.73,1.13c1.48,0,7.52,4.41,7.52,4.41
					s3.56,0.59,7.32,2.37c3.76,1.78,7.71,10.29,9.49,13.06c1.78,2.77,1.98,9.49,1.98,9.49s4.75,2.57,6.53,6.13
					c1.78,3.56,67.25,38.77,67.25,38.77"/>
				<path style="fill:none;stroke:#263238;stroke-linecap:round;stroke-linejoin:round;stroke-miterlimit:10;" d="M315.66,134.16
					c0,0,0.92-7.78,0-8.87"/>
				<path style="fill:none;stroke:#263238;stroke-linecap:round;stroke-linejoin:round;stroke-miterlimit:10;" d="M340.05,115.11
					c0,0,13.45,11.39,14.51,12.09"/>
				<path style="fill:none;stroke:#263238;stroke-linecap:round;stroke-linejoin:round;stroke-miterlimit:10;" d="M352.69,111.28
					c1.85,1.16,16.77,14.38,21.65,17.41"/>
				<path style="fill:none;stroke:#263238;stroke-linecap:round;stroke-linejoin:round;stroke-miterlimit:10;" d="M393.2,146.03
					c-1.45-0.86-5.27-2.7-5.67-4.15"/>
				<path style="fill:none;stroke:#263238;stroke-linecap:round;stroke-linejoin:round;stroke-miterlimit:10;" d="M316.45,148.41
					c0,0,0.79,3.23,0,4.81"/>
				<path style="fill:none;stroke:#263238;stroke-linecap:round;stroke-linejoin:round;stroke-miterlimit:10;" d="M304.58,158.63
					c0,0-1.85,5.14,2.51,8.57"/>
				<path style="fill:none;stroke:#263238;stroke-linecap:round;stroke-linejoin:round;stroke-miterlimit:10;" d="M322.52,109.84
					c-2.24,2.24-2.64,5.27-2.64,5.27"/>
				<path style="fill:none;stroke:#263238;stroke-linecap:round;stroke-linejoin:round;stroke-miterlimit:10;" d="M301.95,125.3
					c0,0,1.06,3.58,5.14,5.27"/>
				<path style="fill:none;stroke:#263238;stroke-linecap:round;stroke-linejoin:round;stroke-miterlimit:10;" d="M361.15,181.61
					c-2.77-4.39-8.46-10.59-8.46-10.59"/>
			</g>
		</g>
	</g>
</g>
<g id="Left_hand">
	<g>
		<path style="fill:#FFFFFF;" d="M84.49,445.31c0,0,64.6-42.46,68.56-47.94c3.96-5.48,7.12-7.97,7.12-7.97s1.85-15.82,6.59-24
			c4.75-8.18,6.59-14.24,8.7-18.46c2.11-4.22,12.13-7.38,15.03-8.97c2.9-1.58,7.91-4.75,10.81-4.75c2.9,0,6.33,1.85,6.33,1.85
			s9.76-5.01,14.24-1.85c0,0,11.08,0.53,13.71,0.26c2.64-0.26,6.59,1.58,6.59,1.58s6.59-4.73,11.08-2.89
			c4.48,1.84,6.62,2.63,6.74,5.27c0.12,2.64-1.11,11.61-1.11,11.61l-2.2,0c0,0-7.38,9.6-8.18,11.53
			c-0.79,1.92-5.01,12.47-5.01,12.47s5.54-4.22,8.97-7.38c3.43-3.16,9.49-9.23,15.82-10.81c6.33-1.58,10.81,1.96,10.81,5.73
			c0,0-7.38,5.88-8.97,7.73c-1.58,1.85-4.44,6.59-7.63,10.02c-3.19,3.43-10.57,17.67-16.9,24.53c-6.33,6.86-34.02,21.63-40.35,23.74
			c0,0-38.51,26.9-55.38,49.58C149.88,476.16,103.99,476.43,84.49,445.31z"/>
		<g>
			<path style="opacity:0.4;fill:#92E3A9;" d="M209.75,420.78c0.55,0.56,2.8,0.9,5.97,0.96c-4.66,2.39-8.54,4.2-10.46,4.84
				c0,0-25.18,17.59-43.74,36.32c6.39-10.17,18.66-22.86,23.22-25.5c6.35-3.7,18.55-15.64,18.55-15.64S207.92,418.93,209.75,420.78z
				"/>
			<path style="opacity:0.4;fill:#92E3A9;" d="M252.47,365.66c2.09-1.93,5.15-4.93,8.66-7.33c-5.04,5.28-7.84,12.08-7.84,12.08
				c-1.22,6.63-12.66,20.3-12.66,20.3c3.69-11.86,0.52-14.24,1.56-17.67c1.03-3.42,1.71-11.84,1.71-11.84s2-3.45,4.11-4.24
				c2.11-0.8,7.65-14.77,8.68-16.66c1.04-1.89-6.83-4.97-8.94-5.23c-2.11-0.27-2.9,3.42-7.12,5.23c-4.22,1.8-9.52,5.13-11.47,7.07
				c-1.88,1.88-5.34,10.52-5.56,11.05c0.15-0.6,2.54-10.23,3.16-12.15c0.52-1.6,5.59-4.55,7.47-5.6c-3.12,1.45-4.87-1.3-7.47-3.8
				c-2.79-2.68-6.95-3.53-11.5-2.14c-4.55,1.39-7.6,4.82-7.62,4.56c-0.02-0.27-6.8-1.45-8.97-0.8c-2.17,0.66-7.28,2.95-7.28,2.95
				s-4.62-2.66-12.21,4.83c-3.17,3.13-13.72,27.04-12.14,24.14c1.54-2.81,8.47-11.4,8.9-11.93c-0.49,1.12-14.48,32.54-17.34,34.49
				c-2.9,1.99-3.69,9.08-13.97,14.89c-9.78,5.51-47.5,29.22-51.24,31.57c17.86-11.86,56.62-37.85,59.65-42.06
				c3.96-5.48,7.12-7.97,7.12-7.97s1.85-15.83,6.6-24c4.75-8.18,6.59-14.25,8.7-18.47s12.13-7.38,15.03-8.96
				c2.91-1.59,7.92-4.75,10.82-4.75c2.9,0,6.33,1.85,6.33,1.85s9.76-5.02,14.24-1.85c0,0,11.08,0.53,13.71,0.26
				c2.64-0.26,6.6,1.59,6.6,1.59s6.59-4.74,11.07-2.9c4.49,1.84,6.62,2.63,6.74,5.27c0.12,2.64-1.11,11.6-1.11,11.6l-2.2,0
				c0,0-7.38,9.61-8.17,11.53c-0.79,1.92-5.01,12.47-5.01,12.47S249.04,368.82,252.47,365.66z"/>
			<path style="opacity:0.4;fill:#92E3A9;" d="M279.11,360.57c0,0-7.38,5.88-8.97,7.73c-0.95,1.11-2.36,3.27-4.04,5.56
				c1.32-4.16,1.69-8.2,1.69-8.2s2.37-3.69,6.33-5.01c1.59-0.53,3.39-0.55,4.97-0.38C279.11,360.37,279.11,360.47,279.11,360.57z"/>
		</g>
		<g>
			<path style="fill:none;stroke:#263238;stroke-linecap:round;stroke-linejoin:round;stroke-miterlimit:10;" d="M84.49,445.31
				c0,0,64.6-42.46,68.56-47.94c3.96-5.48,7.12-7.97,7.12-7.97s1.85-15.82,6.59-24c4.75-8.18,6.59-14.24,8.7-18.46
				c2.11-4.22,12.13-7.38,15.03-8.97c2.9-1.58,7.91-4.75,10.81-4.75c2.9,0,6.33,1.85,6.33,1.85s9.76-5.01,14.24-1.85
				c0,0,11.08,0.53,13.71,0.26c2.64-0.26,6.59,1.58,6.59,1.58s6.59-4.73,11.08-2.89c4.48,1.84,6.62,2.63,6.74,5.27
				c0.12,2.64-1.11,11.61-1.11,11.61l-2.2,0c0,0-7.38,9.6-8.18,11.53c-0.79,1.92-5.01,12.47-5.01,12.47s5.54-4.22,8.97-7.38
				c3.43-3.16,9.49-9.23,15.82-10.81c6.33-1.58,10.81,1.96,10.81,5.73c0,0-7.38,5.88-8.97,7.73c-1.58,1.85-4.44,6.59-7.63,10.02
				c-3.19,3.43-10.57,17.67-16.9,24.53c-6.33,6.86-34.02,21.63-40.35,23.74c0,0-38.51,26.9-55.38,49.58"/>
			<path style="fill:none;stroke:#263238;stroke-linecap:round;stroke-linejoin:round;stroke-miterlimit:10;" d="M243.51,373.04
				c0,0,1.58,7.91-1.58,15.03"/>
			<path style="fill:none;stroke:#263238;stroke-linecap:round;stroke-linejoin:round;stroke-miterlimit:10;" d="M233.22,341.13
				c0,0,4.48-1.85,8.97-6.07"/>
			<path style="fill:none;stroke:#263238;stroke-linecap:round;stroke-linejoin:round;stroke-miterlimit:10;" d="M256.69,349.04
				c0,0,1.45-2.9,1.71-5.54"/>
			<path style="fill:none;stroke:#263238;stroke-linecap:round;stroke-linejoin:round;stroke-miterlimit:10;" d="M221.88,333.22
				c0,0-5.14-0.26-8.84,3.03"/>
			<path style="fill:none;stroke:#263238;stroke-linecap:round;stroke-linejoin:round;stroke-miterlimit:10;" d="M207.64,335.07
				c0,0-7.91,3.69-10.68,3.69c-2.77,0-7.25,3.69-7.25,4.75"/>
			<path style="fill:none;stroke:#263238;stroke-linecap:round;stroke-linejoin:round;stroke-miterlimit:10;" d="M160.16,389.4
				c0,0,3.56-5.27,5.67-11.47"/>
			<path style="fill:none;stroke:#263238;stroke-linecap:round;stroke-linejoin:round;stroke-miterlimit:10;" d="M234.93,343.51
				c0,0-5.01,1.32-6.73,5.54c-1.71,4.22-9.63,18.86-9.63,18.86"/>
			<path style="fill:none;stroke:#263238;stroke-linecap:round;stroke-linejoin:round;stroke-miterlimit:10;" d="M209.75,341.13
				c-1.06,2.51-12.92,24.53-12.92,24.53"/>
		</g>
	</g>
</g>
</svg>
