<?xml version="1.0" encoding="utf-8"?>
<!-- Generator: Adobe Illustrator 23.0.1, SVG Export Plug-In . SVG Version: 6.00 Build 0)  -->
<svg version="1.1" xmlns="http://www.w3.org/2000/svg" xmlns:xlink="http://www.w3.org/1999/xlink" x="0px" y="0px"
	 viewBox="0 0 750 500" style="enable-background:new 0 0 750 500;" xml:space="preserve">
<style type="text/css">
	.st0{fill:#92E3A9;}
	.st1{opacity:0.7;fill:#FFFFFF;}
	.st2{fill:#FFFFFF;}
	.st3{fill:none;stroke:#263238;stroke-width:0.9107;stroke-linecap:round;stroke-linejoin:round;stroke-miterlimit:10;}
	.st4{fill:#263238;stroke:#263238;stroke-width:0.8042;stroke-linecap:round;stroke-linejoin:round;stroke-miterlimit:10;}
	.st5{fill:#263238;stroke:#263238;stroke-width:0.9795;stroke-linecap:round;stroke-linejoin:round;stroke-miterlimit:10;}
	.st6{fill:none;stroke:#263238;stroke-width:1.1092;stroke-linecap:round;stroke-linejoin:round;stroke-miterlimit:10;}
	.st7{fill:#263238;stroke:#263238;stroke-width:1.1092;stroke-linecap:round;stroke-linejoin:round;stroke-miterlimit:10;}
	.st8{fill:#FFFFFF;stroke:#263238;stroke-width:1.1092;stroke-linecap:round;stroke-linejoin:round;stroke-miterlimit:10;}
	.st9{fill:#A3A3A3;}
	.st10{fill:none;stroke:#FFFFFF;stroke-width:2.2184;stroke-linecap:round;stroke-linejoin:round;stroke-miterlimit:10;}
	.st11{fill:none;stroke:#FFFFFF;stroke-width:1.1092;stroke-linecap:round;stroke-linejoin:round;stroke-miterlimit:10;}
	.st12{fill:none;stroke:#263238;stroke-width:2.2184;stroke-linecap:round;stroke-linejoin:round;stroke-miterlimit:10;}
	.st13{fill:#FFFFFF;stroke:#263238;stroke-width:1.1092;stroke-miterlimit:10;}
	.st14{fill:#263238;stroke:#263238;stroke-width:1.1092;stroke-miterlimit:10;}
	.st15{fill:none;stroke:#696969;stroke-width:1.1092;stroke-linecap:round;stroke-linejoin:round;stroke-miterlimit:10;}
	.st16{fill:none;stroke:#696969;stroke-width:1.1092;stroke-miterlimit:10;}
	.st17{fill:#92E3A9;stroke:#263238;stroke-width:1.1092;stroke-miterlimit:10;}
	.st18{fill:none;stroke:#263238;stroke-width:1.1092;stroke-miterlimit:10;}
</style>
<g id="Background_Simple">
	<g>
		<path class="st0" d="M460.4,39c0,0-82.6-29.4-163.8,17.4c-81.1,46.8-122.1,139.7-157.2,214c-35.1,74.4-14.9,150.1,47,184.6
			c61.9,34.5,104-16.4,190.9-18.8c86.9-2.5,110.2,9.9,182.3-39.1c72.1-49.1,85.1-165,28.3-250.7C531.1,60.6,460.4,39,460.4,39z"/>
		<path class="st1" d="M460.4,39c0,0-82.6-29.4-163.8,17.4c-81.1,46.8-122.1,139.7-157.2,214c-35.1,74.4-14.9,150.1,47,184.6
			c61.9,34.5,104-16.4,190.9-18.8c86.9-2.5,110.2,9.9,182.3-39.1c72.1-49.1,85.1-165,28.3-250.7C531.1,60.6,460.4,39,460.4,39z"/>
	</g>
</g>
<g id="Plants">
	<g>
		<path class="st0" d="M228.1,225.7c3.3-0.8,9.2-5.5,9.3-5.5c0.1,0-4.3-3-4.6-3.1c-3.4-1.8-11.1-3.2-14.2-0.2
			c-2.2,2.2-1.7,5.7,0.6,7.6C221.6,226.4,225.3,226.4,228.1,225.7z"/>
		<path class="st0" d="M243.4,241.7c2.9-1.6,7.1-7.2,7.4-7.6c3.1,2.4,6.5,4.6,10.1,6.6c2,1.2,4.1,2.3,6.2,3.4c-1-0.4-2-0.7-2.1-0.7
			c-3.8-0.8-11.5-0.2-13.7,3.6c-1.6,2.7-0.2,5.9,2.6,7.2c2.8,1.3,6.4,0.2,8.9-1.2c2.6-1.4,6.3-6.1,7.2-7.4c0.8,0.4,1.6,0.8,2.4,1.2
			c3.9,1.9,7.8,3.9,11.6,5.9c1.3,0.7,2.6,1.4,3.9,2.2c-0.9-0.3-1.7-0.6-1.8-0.6c-3.8-0.8-11.5-0.2-13.7,3.6
			c-1.6,2.7-0.2,5.9,2.6,7.2c2.8,1.3,6.4,0.2,8.9-1.2c2.4-1.3,5.9-5.7,7.1-7.2c1.3,0.8,2.6,1.6,3.8,2.4c0.8,0.6,1.7,1.1,2.4,1.7
			c0.8,0.6,1.6,1.2,2.4,1.8c1.5,1.2,3,2.4,4.4,3.7c1,0.8,1.9,1.7,2.8,2.5c-1.3-0.7-3.9-2.1-4.2-2.2c-3.6-1.4-11.4-1.9-14.1,1.4
			c-1.9,2.4-1.1,5.8,1.4,7.5c2.6,1.7,6.3,1.2,9,0.2c3-1.1,7.8-5.8,8.4-6.4c1.5,1.4,3,2.7,4.4,4c3.7,3.4,6.8,6.6,9.2,9.1l2.3-1.7
			c-2.5-2.5-5.8-5.7-9.8-9.2c-1.5-1.4-3.2-2.8-5-4.3c0.3-0.5,1.9-3.1,3.1-5.8c3.2,0.6,9.4-0.6,10.2-0.7c0.5,2,1,3.9,1.4,5.7
			c1.1,4.8,2,9,2.6,12.4l2.5-1.9c-0.7-3.2-1.6-6.9-2.6-11.1c-0.5-2-1.1-4.2-1.8-6.3c0.8-0.4,6.9-3.3,8.9-5.7c1.9-2.2,3.6-5.5,3-8.5
			c-0.6-2.9-3.5-4.9-6.5-4c-4.1,1.4-6.3,8.8-6.3,12.7c0,0.2,0.3,2.7,0.5,4.2c-0.3-0.9-0.5-1.8-0.8-2.7c-0.5-1.8-1.1-3.6-1.8-5.5
			c-0.3-0.9-0.7-1.9-1-2.8c-0.3-0.9-0.8-1.9-1.2-2.9c-1-2.2-2-4.4-3.2-6.6c1.6-0.5,7.2-2.3,9.4-4.2c2.2-1.9,4.4-4.9,4.2-7.9
			c-0.2-3-2.8-5.4-5.8-4.9c-4.3,0.7-7.6,7.8-8.1,11.6c0,0.2-0.1,3-0.1,4.6c-0.7-1.3-1.4-2.6-2.1-3.9c-2.1-3.7-4.4-7.5-6.7-11.2
			c-0.7-1.1-1.4-2.3-2.1-3.4c0.6-0.2,7.3-2.2,9.7-4.3c2.2-1.9,4.4-4.9,4.2-7.9c-0.2-3-2.8-5.4-5.8-4.9c-4.3,0.7-7.6,7.8-8.1,11.6
			c0,0.3-0.2,4.3-0.1,5.3c-1.5-2.5-3-5-4.3-7.6c-1.9-3.5-3.5-7.1-4.9-10.6c0.3-0.1,7.3-2.1,9.8-4.3c2.2-1.9,4.4-4.9,4.2-7.9
			c-0.2-3-2.8-5.4-5.8-4.9c-4.3,0.7-7.6,7.8-8.1,11.6c0,0.3-0.2,4.6-0.1,5.4c-0.1-0.2-0.2-0.4-0.3-0.6c-1.4-3.8-2.2-7.7-2.9-11.3
			c-0.4-2.1-0.6-4.2-0.8-6.2c1.3-0.2,7.5-1.4,10-3.2c2.4-1.6,4.9-4.4,5.1-7.4c0.1-3-2.1-5.7-5.3-5.5c-4.3,0.3-8.4,6.9-9.3,10.6
			c-0.1,0.2-0.4,2.3-0.6,3.9c-0.1-0.9-0.2-1.8-0.2-2.7c-0.2-3.3-0.2-6.3-0.1-8.9c0-1.5,0.1-2.9,0.2-4.1c1.2-0.9,6-4.8,7.4-7.4
			c1.3-2.5,2.4-6.2,1.1-8.9c-1.3-2.7-4.5-4.1-7.2-2.5c-3.7,2.2-4.3,10-3.4,13.7c0.1,0.3,1.8,5.3,1.9,5.2c0,0,0.1,0,0.1-0.1
			c-0.1,1.2-0.2,2.5-0.3,4c-0.1,2.7-0.2,5.7-0.1,8.9c0.1,3.3,0.3,6.8,0.9,10.6c0.6,3.7,1.3,7.6,2.7,11.5c0,0,0,0.1,0.1,0.1
			c-0.7-1-2.9-3.8-3.1-4c-2.7-2.8-9.5-6.5-13.4-4.6c-2.8,1.4-3.4,4.9-1.8,7.4c1.6,2.6,5.2,3.7,8.1,3.9c3.2,0.3,9.9-2.1,10.4-2.3
			c1.3,3.7,2.9,7.4,4.8,11.1c1.1,2.1,2.2,4.2,3.3,6.2c-0.7-0.9-1.3-1.6-1.4-1.7c-2.7-2.8-9.5-6.5-13.4-4.6c-2.8,1.4-3.4,4.9-1.8,7.4
			c1.6,2.6,5.2,3.7,8.1,3.9c2.9,0.2,8.6-1.7,10.1-2.2c0.5,0.8,0.9,1.6,1.4,2.4c2.2,3.8,4.4,7.5,6.4,11.3c0.7,1.3,1.4,2.7,2.1,4
			c-0.6-0.8-1.1-1.4-1.2-1.5c-2.7-2.8-9.5-6.5-13.4-4.6c-2.8,1.4-3.4,4.9-1.8,7.4c1.6,2.6,5.2,3.7,8.1,3.9c2.8,0.2,8.1-1.5,9.8-2.1
			c0.6,1.4,1.3,2.8,1.8,4.1c0.4,0.9,0.8,1.8,1.1,2.8c0.3,0.9,0.7,1.9,1,2.8c0.6,1.8,1.1,3.7,1.6,5.5c0.4,1.2,0.7,2.4,1,3.6
			c-0.7-1.3-2.1-3.9-2.3-4.1c-1.5-2.1-4.7-4.9-7.9-6.1c-0.2-0.3-0.5-0.6-0.7-0.9c-2.1-2.1-5.7-2.2-7.6,0.3c-2.7,3.4-0.4,10.8,1.8,14
			c0.1,0.2,1.7,2.1,2.8,3.3c-0.7-0.6-1.4-1.2-2.1-1.8c-1.5-1.2-2.9-2.4-4.6-3.6c-0.8-0.6-1.6-1.2-2.4-1.8c-0.8-0.6-1.7-1.1-2.6-1.7
			c-2-1.3-4.1-2.5-6.3-3.7c1.1-1.3,4.8-5.9,5.5-8.7c0.8-2.8,1-6.5-0.9-8.9c-1.8-2.4-5.3-3-7.6-0.9c-3.2,3-2,10.7-0.4,14.1
			c0.1,0.2,1.6,2.6,2.4,3.9c-1.3-0.7-2.6-1.4-3.9-2.1c-3.9-1.9-7.8-3.8-11.8-5.6c-1.2-0.6-2.4-1.1-3.6-1.7c0.4-0.5,4.9-5.8,5.8-8.9
			c0.8-2.8,1-6.5-0.9-8.9c-1.8-2.4-5.3-3-7.6-0.9c-3.2,3-2,10.7-0.4,14.1c0.1,0.3,2.2,3.7,2.8,4.5c-2.6-1.3-5.3-2.6-7.8-3.9
			c-3.5-1.9-6.8-3.9-9.9-6.2c0.2-0.2,4.9-5.8,5.8-9c0.8-2.8,1-6.5-0.9-8.9c-1.8-2.4-5.3-3-7.6-0.9c-3.2,3-2,10.7-0.4,14.1
			c0.1,0.3,2.4,3.9,2.9,4.6c-0.2-0.1-0.4-0.2-0.6-0.4c-3.3-2.4-6.1-5.2-8.7-7.9c-1.5-1.6-2.8-3.2-4.1-4.7c1-0.9,5.5-5.3,6.6-8.1
			c1.1-2.7,1.7-6.4,0.1-9c-1.5-2.6-4.9-3.6-7.4-1.7c-3.5,2.6-3.2,10.4-1.9,14c0.1,0.2,1,2.1,1.7,3.5c-0.6-0.7-1.1-1.4-1.7-2.1
			c-2-2.6-3.6-5.1-5-7.4c-0.8-1.3-1.5-2.5-2.1-3.6c0.5-1.4,2.4-7.3,2.1-10.2c-0.3-2.9-1.4-6.4-4-8c-2.5-1.6-6-0.9-7.4,1.9
			c-1.9,3.9,2,10.7,4.7,13.3c0.2,0.2,4.4,3.4,4.5,3.3c0,0,0-0.1,0-0.1c0.6,1.1,1.2,2.2,2,3.5c1.4,2.3,3,4.8,4.9,7.5
			c1.9,2.7,4,5.5,6.6,8.3c2.5,2.8,5.3,5.6,8.6,8.2c0,0,0.1,0.1,0.1,0.1c-1.2-0.4-4.5-1.6-4.8-1.6c-3.8-0.8-11.5-0.2-13.7,3.6
			c-1.6,2.7-0.2,5.9,2.6,7.2C237.3,244.1,240.9,243.1,243.4,241.7z"/>
		<path class="st0" d="M290.4,181c0.1,0-1.9-4.9-2.1-5.1c-1.9-3.4-7.5-8.8-11.7-8c-3.1,0.6-4.6,3.8-3.7,6.6c0.9,2.9,4.1,4.9,6.8,5.9
			C282.9,181.6,290.4,181,290.4,181z"/>
	</g>
</g>
<g id="Device">
	<g>
		<g>
			<path class="st2" d="M512.7,71.3h-70.9l-2.9,5.5c-3.1,5.8-9.3,9.5-16.1,9.5c-6.8,0-12.9-3.6-16.1-9.5l-2.9-5.5h-70.9
				c-7.6,0-13.7,6-13.7,13.3v365.1c0,7.4,6.1,13.3,13.7,13.3h179.8c7.6,0,13.7-6,13.7-13.3V84.6C526.4,77.2,520.3,71.3,512.7,71.3z"
				/>
			<g>
				<rect x="497.9" y="76.5" class="st3" width="14.3" height="7.8"/>
				<rect x="497.9" y="76.5" class="st4" width="11.1" height="7.8"/>
				<rect x="512.1" y="78.7" class="st4" width="2" height="3.5"/>
			</g>
			<g>
				<rect x="331" y="78.9" class="st5" width="2.6" height="4.5"/>
				<rect x="335.1" y="77.4" class="st5" width="2.6" height="6.1"/>
				<rect x="339.2" y="75.5" class="st5" width="2.6" height="7.9"/>
			</g>
			<line class="st6" x1="325.5" y1="87" x2="520.1" y2="87"/>
		</g>
		<path class="st7" d="M536.5,196.7c0.8,0,1.4-0.6,1.4-1.4v-38.9c0-0.8-0.6-1.4-1.4-1.4h-3.8V80.6c0-10.3-8.4-18.7-18.7-18.7H331.6
			c-10.3,0-18.7,8.4-18.7,18.7v383.7c0,10.3,8.4,18.7,18.7,18.7h182.5c10.3,0,18.7-8.4,18.7-18.7v-234h3.8c0.8,0,1.4-0.6,1.4-1.4
			v-17.3c0-0.8-0.6-1.4-1.4-1.4h-3.8v-13.2H536.5z M526.4,449.7c0,7.4-6.1,13.3-13.7,13.3H332.9c-7.6,0-13.7-6-13.7-13.3V84.6
			c0-7.4,6.1-13.3,13.7-13.3h70.9l2.9,5.5c3.1,5.8,9.3,9.5,16.1,9.5c6.8,0,12.9-3.6,16.1-9.5l2.9-5.5h70.9c7.6,0,13.7,6,13.7,13.3
			V449.7z"/>
		<path class="st8" d="M427.7,73.4c0-2.7-2.2-4.9-4.9-4.9c-2.7,0-4.9,2.2-4.9,4.9s2.2,4.9,4.9,4.9C425.5,78.2,427.7,76,427.7,73.4z"
			/>
	</g>
</g>
<g id="Text_Balloons">
	<g>
		<g>
			<path class="st9" d="M448.5,98.1H338.4c-4.6,0-8.4,3.8-8.4,8.4v20.3v5.8v18.9l9.9-10.5h108.5c4.6,0,8.4-3.8,8.4-8.4v-26.2
				C456.9,101.8,453.1,98.1,448.5,98.1z"/>
			<g>
				<path class="st2" d="M364.3,116.5c0-6.5-5.3-11.8-11.8-11.8s-11.8,5.3-11.8,11.8c0,6.5,5.3,11.8,11.8,11.8
					S364.3,123.1,364.3,116.5z"/>
				<g>
					<path class="st8" d="M358.4,116.8c0,0,1.2-1.7,1.5,0c0.3,1.7-2.1,3.7-2.1,3.7L358.4,116.8z"/>
					<path class="st8" d="M346.6,116.8c0,0-1.2-1.7-1.5,0c-0.3,1.7,2.1,3.7,2.1,3.7L346.6,116.8z"/>
					<path class="st8" d="M352.9,108.7c0,0-4.7-0.4-5.7,2.8c-1.1,3.1-0.4,8.1,0,9.1c0.4,1,3.4,5.6,4.2,6s2.9,0.2,3.2-0.2
						c0.4-0.5,3.4-4.9,3.6-6.5c0.2-1.1,0-4.7-0.1-6.9c-0.1-1.6-1.1-3.1-2.6-3.7C354.7,108.9,353.9,108.7,352.9,108.7z"/>
					<path class="st7" d="M358.1,112.9c-0.1-1.6-1.1-3.1-2.6-3.7c-0.7-0.3-1.5-0.5-2.5-0.6c0,0-4.7-0.4-5.7,2.8
						c-0.5,1.6-0.6,3.7-0.5,5.5c0.2,0.3,1,1.1,0.9,0.1c-0.1-1.2-0.3-5,0.7-5.8c1-0.8,1.1-1.5,2.5-0.4c1.4,1.1,1.2,2.1,2.6,1.4
						c1.4-0.7,1.7-2.2,2.9-1.7c1.2,0.6,0.8,3.2,0.8,4.4s0,3.6,0.8,2.5c0.1-0.2,0.2-0.4,0.4-0.7C358.2,115.4,358.1,114,358.1,112.9z"
						/>
					<path class="st7" d="M350.9,125.7c0,0,1.5-3,2.4-1.9c0.9,1.1,1.2,2.4,1.2,2.4S352.5,127.6,350.9,125.7z"/>
					<path class="st7" d="M351.6,108.4c0,0-0.4-0.9-1.1-1.3c-0.7-0.4-0.7-0.4-0.7-0.4s1.6-0.7,2.1-0.1c0.5,0.5,0.9,1.1,0.9,1.1
						s0.3-1.9,0.9-1.2c0.7,0.7,1.2,1.1,1.2,1.1s-1.9,0.5-1.9,1.9"/>
				</g>
			</g>
			<g>
				<line class="st10" x1="371.2" y1="108.1" x2="395.7" y2="108.1"/>
				<line class="st11" x1="371.2" y1="116.6" x2="446" y2="116.6"/>
				<line class="st11" x1="371.2" y1="123.7" x2="446" y2="123.7"/>
				<line class="st11" x1="371.2" y1="131.4" x2="446" y2="131.4"/>
			</g>
		</g>
		<g>
			<g>
				<path class="st0" d="M506.8,159H396.8c-4.6,0-8.4,3.8-8.4,8.4v26.2c0,4.6,3.8,8.4,8.4,8.4h108.5l9.9,10.5v-18.9v-5.8v-20.3
					C515.2,162.7,511.5,159,506.8,159z"/>
				<g>
					<line class="st12" x1="429.6" y1="169" x2="454.1" y2="169"/>
					<line class="st6" x1="429.6" y1="177.5" x2="504.4" y2="177.5"/>
					<line class="st6" x1="429.6" y1="184.5" x2="504.4" y2="184.5"/>
					<line class="st6" x1="429.6" y1="192.3" x2="504.4" y2="192.3"/>
				</g>
			</g>
			<g>
				<path class="st2" d="M423.1,179.9c0-6.5-5.3-11.8-11.8-11.8c-6.5,0-11.8,5.3-11.8,11.8c0,6.5,5.3,11.8,11.8,11.8
					C417.9,191.7,423.1,186.4,423.1,179.9z"/>
				<g>
					<path class="st7" d="M409.9,170.9c0,0-3.9-0.5-5.6,3.8c-1.6,4.3-2.3,9.1-2.3,11.5c0,2.4,4.8,4.4,7.5,4.6
						c2.6,0.2,8.6,0.1,10.6-3.1c2-3.3-1.3-9.9-2.1-13.9C417.2,169.7,412.7,170.7,409.9,170.9z"/>
					<path class="st8" d="M417.3,179.1c0,0,1.2-1.7,1.5,0c0.3,1.7-2.1,3.7-2.1,3.7L417.3,179.1z"/>
					<path class="st8" d="M405.4,179.1c0,0-1.2-1.7-1.5,0c-0.3,1.7,2.1,3.7,2.1,3.7L405.4,179.1z"/>
					<path class="st8" d="M411.8,170.9c0,0-4.7-0.4-5.7,2.8c-1.1,3.1-0.4,8.1,0,9.1c0.4,1,3.4,5.6,4.2,6c0.8,0.4,2.9,0.2,3.2-0.2
						c0.4-0.5,3.4-4.9,3.6-6.5c0.2-1.1,0-4.7-0.1-6.9c-0.1-1.6-1.1-3.1-2.6-3.7C413.6,171.2,412.8,171,411.8,170.9z"/>
				</g>
				<path class="st7" d="M408.2,172.2c0,0,7.5,6.9,9.1,6.9c1.5,0,1.7-5.1,0.1-7.5C415.8,169.1,408,167.7,408.2,172.2z"/>
			</g>
		</g>
		<g>
			<path class="st9" d="M448.5,221.7H338.4c-4.6,0-8.4,3.8-8.4,8.4v20.3v5.8v18.9l9.9-10.5h108.5c4.6,0,8.4-3.8,8.4-8.4v-26.2
				C456.9,225.4,453.1,221.7,448.5,221.7z"/>
			<g>
				
					<ellipse transform="matrix(0.3855 -0.9227 0.9227 0.3855 -4.9523 472.8148)" class="st2" cx="352.5" cy="240.1" rx="11.8" ry="11.8"/>
				<g>
					<path class="st8" d="M358.4,240.4c0,0,1.2-1.7,1.5,0c0.3,1.7-2.1,3.7-2.1,3.7L358.4,240.4z"/>
					<path class="st8" d="M346.6,240.4c0,0-1.2-1.7-1.5,0c-0.3,1.7,2.1,3.7,2.1,3.7L346.6,240.4z"/>
					<path class="st8" d="M352.9,232.3c0,0-4.7-0.4-5.7,2.8c-1.1,3.1-0.4,8.1,0,9.1c0.4,1,3.4,5.6,4.2,6c0.8,0.4,2.9,0.2,3.2-0.2
						c0.4-0.5,3.4-4.9,3.6-6.5c0.2-1.1,0-4.7-0.1-6.9c-0.1-1.6-1.1-3.1-2.6-3.7C354.7,232.5,353.9,232.3,352.9,232.3z"/>
					<path class="st7" d="M358.1,236.5c-0.1-1.6-1.1-3.1-2.6-3.7c-0.7-0.3-1.5-0.5-2.5-0.6c0,0-4.7-0.4-5.7,2.8
						c-0.5,1.6-0.6,3.7-0.5,5.5c0.2,0.3,1,1.1,0.9,0.1c-0.1-1.2-0.3-5,0.7-5.8c1-0.8,1.1-1.5,2.5-0.4c1.4,1.1,1.2,2.1,2.6,1.4
						c1.4-0.7,1.7-2.2,2.9-1.7c1.2,0.6,0.8,3.2,0.8,4.4c0,1.2,0,3.6,0.8,2.5c0.1-0.2,0.2-0.4,0.4-0.7
						C358.2,238.9,358.1,237.6,358.1,236.5z"/>
					<path class="st7" d="M350.9,249.3c0,0,1.5-3,2.4-1.9c0.9,1.1,1.2,2.4,1.2,2.4S352.5,251.2,350.9,249.3z"/>
					<path class="st7" d="M351.6,232c0,0-0.4-0.9-1.1-1.3c-0.7-0.4-0.7-0.4-0.7-0.4s1.6-0.7,2.1-0.1c0.5,0.5,0.9,1.1,0.9,1.1
						s0.3-1.9,0.9-1.2c0.7,0.7,1.2,1.1,1.2,1.1s-1.9,0.5-1.9,1.9"/>
				</g>
			</g>
			<g>
				<line class="st10" x1="371.2" y1="231.7" x2="395.7" y2="231.7"/>
				<line class="st11" x1="371.2" y1="240.2" x2="446" y2="240.2"/>
				<line class="st11" x1="371.2" y1="247.2" x2="446" y2="247.2"/>
				<line class="st11" x1="371.2" y1="255" x2="446" y2="255"/>
			</g>
		</g>
		<g>
			<path class="st9" d="M448.5,283.2H338.4c-4.6,0-8.4,3.8-8.4,8.4v20.3v5.8v18.9l9.9-10.5h108.5c4.6,0,8.4-3.8,8.4-8.4v-26.2
				C456.9,287,453.1,283.2,448.5,283.2z"/>
			<g>
				
					<ellipse transform="matrix(0.3855 -0.9227 0.9227 0.3855 -61.7294 510.6292)" class="st2" cx="352.5" cy="301.7" rx="11.8" ry="11.8"/>
				<g>
					<path class="st8" d="M358.4,301.9c0,0,1.2-1.7,1.5,0c0.3,1.7-2.1,3.7-2.1,3.7L358.4,301.9z"/>
					<path class="st8" d="M346.6,301.9c0,0-1.2-1.7-1.5,0c-0.3,1.7,2.1,3.7,2.1,3.7L346.6,301.9z"/>
					<path class="st8" d="M352.9,293.8c0,0-4.7-0.4-5.7,2.8c-1.1,3.1-0.4,8.1,0,9.1c0.4,1,3.4,5.6,4.2,6c0.8,0.4,2.9,0.2,3.2-0.2
						c0.4-0.5,3.4-4.9,3.6-6.5c0.2-1.1,0-4.7-0.1-6.9c-0.1-1.6-1.1-3.1-2.6-3.7C354.7,294.1,353.9,293.8,352.9,293.8z"/>
					<path class="st7" d="M358.1,298.1c-0.1-1.6-1.1-3.1-2.6-3.7c-0.7-0.3-1.5-0.5-2.5-0.6c0,0-4.7-0.4-5.7,2.8
						c-0.5,1.6-0.6,3.7-0.5,5.5c0.2,0.3,1,1.1,0.9,0.1c-0.1-1.2-0.3-5,0.7-5.8c1-0.8,1.1-1.5,2.5-0.4c1.4,1.1,1.2,2.1,2.6,1.4
						c1.4-0.7,1.7-2.2,2.9-1.7c1.2,0.6,0.8,3.2,0.8,4.4s0,3.6,0.8,2.5c0.1-0.2,0.2-0.4,0.4-0.7C358.2,300.5,358.1,299.1,358.1,298.1
						z"/>
					<path class="st7" d="M350.9,310.9c0,0,1.5-3,2.4-1.9c0.9,1.1,1.2,2.4,1.2,2.4S352.5,312.7,350.9,310.9z"/>
					<path class="st7" d="M351.6,293.6c0,0-0.4-0.9-1.1-1.3c-0.7-0.4-0.7-0.4-0.7-0.4s1.6-0.7,2.1-0.1c0.5,0.5,0.9,1.1,0.9,1.1
						s0.3-1.9,0.9-1.2c0.7,0.7,1.2,1.1,1.2,1.1s-1.9,0.5-1.9,1.9"/>
				</g>
			</g>
			<g>
				<line class="st10" x1="371.2" y1="293.2" x2="395.7" y2="293.2"/>
				<line class="st11" x1="371.2" y1="301.7" x2="446" y2="301.7"/>
				<line class="st11" x1="371.2" y1="308.8" x2="446" y2="308.8"/>
				<line class="st11" x1="371.2" y1="316.6" x2="446" y2="316.6"/>
			</g>
		</g>
		<g>
			<path class="st9" d="M448.5,399.2H338.4c-4.6,0-8.4,3.8-8.4,8.4v20.3v5.8v18.9l9.9-10.5h108.5c4.6,0,8.4-3.8,8.4-8.4v-26.2
				C456.9,402.9,453.1,399.2,448.5,399.2z"/>
			<g>
				
					<ellipse transform="matrix(0.987 -0.1608 0.1608 0.987 -62.5556 62.1022)" class="st2" cx="352.5" cy="417.6" rx="11.8" ry="11.8"/>
				<g>
					<path class="st8" d="M358.4,417.9c0,0,1.2-1.7,1.5,0c0.3,1.7-2.1,3.7-2.1,3.7L358.4,417.9z"/>
					<path class="st8" d="M346.6,417.9c0,0-1.2-1.7-1.5,0c-0.3,1.7,2.1,3.7,2.1,3.7L346.6,417.9z"/>
					<path class="st8" d="M352.9,409.7c0,0-4.7-0.4-5.7,2.8c-1.1,3.1-0.4,8.1,0,9.1c0.4,1,3.4,5.6,4.2,6c0.8,0.4,2.9,0.2,3.2-0.2
						c0.4-0.5,3.4-4.9,3.6-6.5c0.2-1.1,0-4.7-0.1-6.9c-0.1-1.6-1.1-3.1-2.6-3.7C354.7,410,353.9,409.8,352.9,409.7z"/>
					<path class="st7" d="M358.1,414c-0.1-1.6-1.1-3.1-2.6-3.7c-0.7-0.3-1.5-0.5-2.5-0.6c0,0-4.7-0.4-5.7,2.8
						c-0.5,1.6-0.6,3.7-0.5,5.5c0.2,0.3,1,1.1,0.9,0.1c-0.1-1.2-0.3-5,0.7-5.8c1-0.8,1.1-1.5,2.5-0.4c1.4,1.1,1.2,2.1,2.6,1.4
						c1.4-0.7,1.7-2.2,2.9-1.7c1.2,0.6,0.8,3.2,0.8,4.4c0,1.2,0,3.6,0.8,2.5c0.1-0.2,0.2-0.4,0.4-0.7
						C358.2,416.4,358.1,415.1,358.1,414z"/>
					<path class="st7" d="M350.9,426.8c0,0,1.5-3,2.4-1.9c0.9,1.1,1.2,2.4,1.2,2.4S352.5,428.7,350.9,426.8z"/>
					<path class="st7" d="M351.6,409.5c0,0-0.4-0.9-1.1-1.3c-0.7-0.4-0.7-0.4-0.7-0.4s1.6-0.7,2.1-0.1c0.5,0.5,0.9,1.1,0.9,1.1
						s0.3-1.9,0.9-1.2c0.7,0.7,1.2,1.1,1.2,1.1s-1.9,0.5-1.9,1.9"/>
				</g>
			</g>
			<g>
				<line class="st10" x1="371.2" y1="409.2" x2="395.7" y2="409.2"/>
				<line class="st11" x1="371.2" y1="417.7" x2="446" y2="417.7"/>
				<line class="st11" x1="371.2" y1="424.7" x2="446" y2="424.7"/>
				<line class="st11" x1="371.2" y1="432.5" x2="446" y2="432.5"/>
			</g>
		</g>
		<g>
			<g>
				<path class="st0" d="M506.8,344.6H396.8c-4.6,0-8.4,3.8-8.4,8.4v26.2c0,4.6,3.8,8.4,8.4,8.4h108.5l9.9,10.5v-18.9v-5.8V353
					C515.2,348.4,511.5,344.6,506.8,344.6z"/>
				<g>
					<line class="st12" x1="429.6" y1="354.6" x2="454.1" y2="354.6"/>
					<line class="st6" x1="429.6" y1="363.1" x2="504.4" y2="363.1"/>
					<line class="st6" x1="429.6" y1="370.2" x2="504.4" y2="370.2"/>
					<line class="st6" x1="429.6" y1="378" x2="504.4" y2="378"/>
				</g>
			</g>
			<g>
				<path class="st2" d="M423.1,365.5c0-6.5-5.3-11.8-11.8-11.8c-6.5,0-11.8,5.3-11.8,11.8c0,6.5,5.3,11.8,11.8,11.8
					C417.9,377.3,423.1,372,423.1,365.5z"/>
				<g>
					<path class="st7" d="M409.9,356.6c0,0-3.9-0.5-5.6,3.8c-1.6,4.3-2.3,9.1-2.3,11.5c0,2.4,4.8,4.4,7.5,4.6
						c2.6,0.2,8.6,0.1,10.6-3.1c2-3.3-1.3-9.9-2.1-13.9C417.2,355.3,412.7,356.4,409.9,356.6z"/>
					<path class="st8" d="M417.3,364.7c0,0,1.2-1.7,1.5,0c0.3,1.7-2.1,3.7-2.1,3.7L417.3,364.7z"/>
					<path class="st8" d="M405.4,364.7c0,0-1.2-1.7-1.5,0c-0.3,1.7,2.1,3.7,2.1,3.7L405.4,364.7z"/>
					<path class="st8" d="M411.8,356.6c0,0-4.7-0.4-5.7,2.8c-1.1,3.1-0.4,8.1,0,9.1c0.4,1,3.4,5.6,4.2,6c0.8,0.4,2.9,0.2,3.2-0.2
						c0.4-0.5,3.4-4.9,3.6-6.5c0.2-1.1,0-4.7-0.1-6.9c-0.1-1.6-1.1-3.1-2.6-3.7C413.6,356.9,412.8,356.6,411.8,356.6z"/>
				</g>
				<path class="st7" d="M408.2,357.8c0,0,7.5,6.9,9.1,6.9c1.5,0,1.7-5.1,0.1-7.5C415.8,354.7,408,353.3,408.2,357.8z"/>
			</g>
		</g>
	</g>
</g>
<g id="Character_2">
	<g>
		<g>
			<g>
				<path class="st13" d="M535,458.7l-1.2,22.3c0,0,0.7,1.6,2.1,1.8c1.4,0.2,30.8,0,30.8,0s0.4-1.8-0.2-3.6
					c-0.6-1.7-1.7-2.8-3.2-3.2c-1.5-0.4-11.7-5-12.6-5.4c-0.9-0.4-1.4-6.3-1.4-6.3L535,458.7z"/>
				<path class="st13" d="M566.6,482.8c0,0,0.2-1.1,0-2.4c-6.1-0.2-26.2-0.7-32.8-0.9l-0.1,1.4c0,0,0.7,1.6,2.1,1.8
					C537.2,483.1,566.6,482.8,566.6,482.8z"/>
			</g>
			<path class="st14" d="M541.1,345.7c0,0,2.5,54.7,2.2,56.4c-0.3,1.7-9.5,57.5-9.5,57.5s8.1,4.5,12.1,5.3s9.3,1.1,9.3,1.1
				s12.9-52.5,13.5-55.6c0.6-3.1-6.5-69.6-6.5-69.6L541.1,345.7z"/>
			<g>
				<path class="st13" d="M541.5,452.8c0,0-11.5,15.8-10.1,17.4c1.4,1.6,11.3,11.1,13.8,12.2c2.5,1.1,25,0,25,0s0.4-1,0.4-2
					s-0.1-4.8-1.5-5.9c-1.4-1.1-11.6-5.9-11.9-6.6c-0.4-0.7-0.9-6.8-0.9-6.8L541.5,452.8z"/>
				<path class="st13" d="M570.2,482.3c0,0,0.4-1,0.4-2c0-0.1,0-0.3,0-0.5l-15.6,0.6c0,0-4.8,0.7-7.4-1.4
					c-2.2-1.8-11.7-10.4-14.7-13.2c-1.2,2.1-1.8,3.7-1.4,4.2c1.4,1.6,11.3,11.1,13.8,12.2C547.7,483.5,570.2,482.3,570.2,482.3z"/>
			</g>
			<path class="st14" d="M533,320.2c0,0,1.7,16.3,3.1,18.8c1.4,2.5,3.6,6.5,3.6,6.5l21.3,59.8l-21.9,48.3c0,0,16,10.4,19.4,11.5
				c3.4,1.1,4.5,1.1,4.5,1.1s25.8-60.3,25.8-64.5c0-4.2-18-64.5-18-64.5l1.1-20.8L533,320.2z"/>
			<polyline class="st15" points="554.3,325.2 566.1,330 556.3,322.2 563,325.2 			"/>
			<polyline class="st16" points="547.5,366.2 561,405.2 541.4,450.4 			"/>
			<line class="st16" x1="544.8" y1="358.3" x2="546.2" y2="362.4"/>
		</g>
		<g>
			<g>
				<path class="st13" d="M587.3,290c0,0,6.6-6.2,8-7c1.3-0.8,6.8-2.4,7.2-4.2c0.4-1.9-0.1-11-0.7-10.6c-0.5,0.4-7.6,10.4-7.6,10.4
					l-9.2,7.2L587.3,290z"/>
				<line class="st13" x1="596.7" y1="275.5" x2="595.9" y2="281.6"/>
				<line class="st13" x1="598.9" y1="272.4" x2="599.1" y2="279.8"/>
				<path class="st13" d="M601,269.8c0,0-0.1,7.8,0,8.6"/>
				<path class="st13" d="M602.8,276.6c0,0,2.3-2.8,1.7-4.6c-0.5-1.9-2.1-2.4-2.1-2.4L602.8,276.6z"/>
			</g>
			<path class="st17" d="M586.5,282.8c0.4,0.3,3.6,5.2,3.6,5.2l-4,5.3c0,0,2,3.7,0.8,4.6c-1.2,0.9-11.1,6.1-11.1,6.1l-3.3-13.4
				c0,0,7.4-4.6,7.8-4.5c0.4,0.1,1.1,0.8,1.1,0.8L586.5,282.8z"/>
			<polygon class="st14" points="590.7,281 592.1,282 606.7,261.1 605.4,260.1 			"/>
		</g>
		<path class="st17" d="M549.1,242.5c-0.8,0.4-12.4,14.4-16.7,19.9c-4.3,5.5-3.9,14.4-3.7,19.3c0.2,4.9-2,41.1-2,41.1
			s17.7-1.4,28.3-2.4s25.6-2,25.6-2s-4.3-18.7-6.3-27.1c-2-8.3-5.3-20.3-7.5-26c-2.2-5.7-5.5-11-5.5-11L549.1,242.5z"/>
		<g>
			<path class="st13" d="M570.7,243.1l-6.5,7.3l-10-12.6l5.9-6.9c0,0,3.5-3.7,5.5-3.3C567.7,228.1,570.7,243.1,570.7,243.1z"/>
			<polygon class="st14" points="563.8,235.6 567.8,246.7 570.7,243.1 			"/>
			<path class="st14" d="M563,230.7c0,0-2.4,3.9-4.5,3.1s-7.5-6.7-10-14c-2.4-7.3,6.5-8.5,7.9-11.4c1.4-2.8,2.6-3.3,4.7-13.2
				c2-10,24.8-6.1,28.3-0.8c3.5,5.3,2.8,15.9,12.4,12.4c9.6-3.5,19.9-7.1,22.2,1.4c2.2,8.5-5.1,18.9-2.4,22.6s11.2,1,10.6,4.5
				c-0.6,3.5-5.1,5.7-3.7,6.5c1.4,0.8,9.4-3.3,7.1,0.4c-2.2,3.7-6.9,7.5-7.5,5.9c-0.6-1.6,0-3.7-2.2-2.4c-2.2,1.2-9,6.1-11.8,3.5
				c-2.8-2.6,0.8-12.2-3.9-13.2c-4.7-1-16.1,2.2-19.9,2.4c-3.9,0.2-4.3-1-11.4-4.5C571.7,230.3,563,230.7,563,230.7z"/>
			<g>
				<g>
					<path class="st13" d="M564.6,225c0,0,12,0.6,19.7-1.4c7.7-2,10.4-3.3,10.4-3.3s0.2,7.9-1.8,10.2c-2,2.2-4.7,4.3-4.7,5.9
						c0,1.6,2,4.3,0.8,5.7c-1.2,1.4-4.1,1.4-4.9,1.4c-0.8,0-7.3,6.1-9.2,6.1c-1.8,0-11-12.2-11.2-14c-0.2-1.8,0-6.5,0-6.5"/>
					<path class="st18" d="M586,232.1l-2.2,2.6c0,0-2.2-0.2-3.1-2.6"/>
					<path class="st18" d="M578.4,238.3c0,0-0.2,3.3,2.4,3.7"/>
					<path class="st18" d="M583.5,228.7c0,0,3.7-1.2,5.3,1.8"/>
				</g>
				<path class="st13" d="M567.7,228.1c0,0-3.1-9-5.9-5.7c-2.8,3.3-1.2,9,1,10.2c2.2,1.2,4.3,0,4.3,0"/>
			</g>
		</g>
		<path class="st17" d="M555,234.6c0,0,13.4,13.2,13,15.1c-0.4,1.8-2.6,3.1-2.6,3.1s0.6,3.7-0.4,4.5c-1,0.8-2.2,1-2.2,1
			S550,245,548.3,242.9c-1.6-2-0.4-3.1,0.6-3.5c1-0.4,2.2-0.6,2.2-0.6S552.6,234,555,234.6z"/>
		<g>
			<path class="st17" d="M535.6,264.1c0,0-1.3,7.2-1.3,14.3c0,7.2,2.9,42.3,4.4,44.2c1.5,1.9,7.4,3.6,9.9,1.9
				c2.5-1.7,24.4-15.8,24.6-18.1s-3.4-10.7-4.8-11.4c-1.5-0.6-2.7-0.4-4.8,1.5c-2.1,1.9-7.6,5.1-7.6,5.1s-1.5-26.9-3.2-33.5
				c-1.7-6.5-2.5-7.8-3.6-8.2"/>
			<g>
				<path class="st13" d="M574.4,291.4c0,0,6-14.4,6.4-15.4c0.4-1.1,1.9-2.7,3.2-2.9c1.3-0.2,10.9-2.3,11.8-2.5
					c0.8-0.2,1.5,0.8-0.8,2.3c-2.3,1.5-8,2.1-8,2.1l-0.8,6.3c0,0,5.7-4.4,5.7-2.1c0,2.3-4.2,3.8-4.8,4c-0.6,0.2-2.3,2.9-2.9,3.4
					c-0.6,0.4-2.9,1.1-2.9,1.1s-0.4,2.5-1.3,3.4c-0.8,0.8-4.6,3.6-4.6,3.6L574.4,291.4z"/>
				<path class="st13" d="M580.8,275.9c0,0,2.4-3,2.8-3c0.4,0,4.6,3.7,4.9,3.9s-1.6,3.4-1.9,3.8c-0.3,0.5-0.4,0.9-1.2,0.6
					c-0.8-0.3-1.5-0.9-1.5-0.9"/>
				<path class="st13" d="M580.2,278.4c0,0,2.7-3,3.1-3s3.7,2.7,3.7,3.2c0,0.5-0.6,3.5-1.1,3.6c-0.5,0.1-2.1-0.2-2.1-0.2"/>
				<path class="st13" d="M580.1,281.2c0,0,1.6-1.7,2.4-2.1s2.6,1.3,3.6,2c1.1,0.7,2.4,1.1,1.8,1.8c-0.6,0.7-2.9-0.3-3.4-0.3
					c-0.5,0-1.6-0.5-1.6-0.5l-1.3,3.8"/>
			</g>
			<path class="st17" d="M567.3,295.7l7.4-5.9l3.4,6.3l-6.3,6.5C571.8,302.7,567.3,301.8,567.3,295.7z"/>
		</g>
	</g>
</g>
<g id="Character_1">
	<g>
		<g>
			<path class="st13" d="M133,469c0,0-5-1.5-8.3-4.4c-3.3-2.9-13.8-10.7-16.9-12.7c-3-2-2.7,7.2-1.6,12c1,4.8,3.2,9,5.1,11.3
				c1.9,2.3,14.5,7,15.9,7.3c1.4,0.3,7,0.4,8.1-0.1C136.4,482,134,473,133,469z"/>
			<path class="st13" d="M111.9,471.4c-2.9-3.8-4.9-15.3-5.1-19.7c-2,0.5-1.6,8.1-0.7,12.3c1,4.8,3.2,9,5.1,11.3
				c1.9,2.3,14.5,7,15.9,7.3c0.9,0.2,3.6,0.3,5.7,0.2C126,480.5,114.8,475.2,111.9,471.4z"/>
		</g>
		<path class="st17" d="M269.7,400.5c0,0-3.5,6.4-5.2,10.1c-1.7,3.7-3.3,6.4-3.3,6.4s-1.7-3.3-2.9-2.7c-1.3,0.6-2.8,0.9-2.8,0.9
			s-1.6-5.7-4-8.6c-2.4-3-4.5-1.5-6.7-3.5c-3.2-2.8-4.4-3.6-6.6-5.3c-2.6-2.1-6.6,6.8-6.7,10.1s17.1,24.3,21.3,30.1
			c4.3,5.7,8.6,9.4,11.4,5.9c2.8-3.5,4.1-6.8,6.2-18C272.6,414.6,277.7,397.6,269.7,400.5z"/>
		<g>
			<path class="st13" d="M238.2,397.8l-7.8-5.8c-0.8-1.7-2.5-5.1-3.5-7.5c-1.3-3.3-1.8-5.3-4.7-7.6c-2.9-2.3-9.7-5-10.6-5.9
				c-0.9-0.9-1.2,2.6,0.4,4.3c1.6,1.6,2.6,2,2.6,2s-11.3-1.4-11.3-0.5c0,0.9,9.6,13,13,15.8c1.4,1.2,4.7,2.3,6.5,3.7
				c1.1,0.8,1.9,1.6,2.5,2.2c-0.4,0.2-0.6,0.2-0.6,0.2c0.4,0.6,6.4,9.1,8.2,8.7C234.9,406.9,241,406.4,238.2,397.8z"/>
			<g>
				
					<rect x="210.2" y="361.3" transform="matrix(0.8265 -0.5629 0.5629 0.8265 -174.6232 183.8296)" class="st14" width="1.5" height="27.7"/>
				<g>
					<path class="st13" d="M206.9,370.6c0,0-6,6.5-5.3,7.1c0.7,0.6,3,2.8,3.6,2.6c0.6-0.3,3.8-5.5,3.9-6.1
						C209.3,373.6,206.9,370.6,206.9,370.6z"/>
					<path class="st13" d="M209.9,375c0,0-4.5,6.7-4.1,7.3c0.4,0.6,6.2,7.3,6.9,7.8c0.7,0.5,4.8-3.4,4.8-3.4L209.9,375z"/>
					<path class="st18" d="M212.3,378.8c0,0-4.2,6.7-3.8,6.7"/>
					<line class="st18" x1="215.2" y1="383.4" x2="211.2" y2="388"/>
				</g>
				<path class="st13" d="M214.7,377.3l3.6,1.7c0,0-0.9,8.9,4,12"/>
			</g>
		</g>
		<g>
			<path class="st13" d="M224.9,398.6C224.8,398.6,224.8,398.6,224.9,398.6C224.8,398.6,224.8,398.6,224.9,398.6z"/>
		</g>
		<path class="st14" d="M266.4,447.3c0,0-35.4-42.2-39.2-46.8c-3.8-4.6-12.5-6.4-17.6-4.8c-5.1,1.6-11.3,15.8-12.5,21.6
			c-1.2,5.9-11.3,31.2-13,34.5c-1.7,3.3-4.3,6.9-4.4,8.3c0,1.4,0,2.5,0,2.5l-1.8,3.9c0,0,8.1,1,11.5,0.5c3.4-0.5,8.2-4.3,9.1-6.3
			c0.9-1.9,3.4-6.8,6.3-8.9c4.3-3,11.7-23.1,11.7-23.1l14,30.6c0,0,27.7,3.9,33.9,3.2C270.6,461.9,266.4,447.3,266.4,447.3z"/>
		<path class="st14" d="M265.1,443.9c0,0-4.3,5.5-4.3,6.7c0,1.1,0,1.1,0,1.1l-23.6,2.3c0,0-24.4-0.5-28.1,0.3
			c-3.7,0.8-56.7,14.9-60.1,15.4c-3.4,0.5-5-2.3-6.4-2.4s-2.8-1.2-4.7-1.2c-2,0-3.7,2.7-4.8,3c-1.1,0.3-1.4,0.5-2.3,0.5
			c-0.8,0-0.2-2-0.8,0c-0.6,2-2.1,7.5-0.8,10.1c1.4,2.6,3.6,4,3.6,4s45.5,0,53,0.2c7.6,0.1,30.9-1.9,33.7-2.1
			c2.8-0.2,43.5,2.3,49.9,2.4c6.5,0.1,27.8,0,31.5-2.2c3.7-2.2,8.4-14.4,7.7-19.2c-0.7-4.8-39.8-18.5-39.8-18.5L265.1,443.9z"/>
		<path class="st17" d="M263.5,439.9c0,0-0.6,1.1-0.3,3.1c0.2,2,44.2,23,45.6,22.2c1.4-0.8,2.4-8.9,2.4-8.9l-47.6-18.9L263.5,439.9z
			"/>
		<path class="st17" d="M282.2,372.6c0,0-8.1,11.1-11,19.7c-3,8.6-7.8,38.3-9.5,41.9c-1.8,3.6-1.8,5.9,0.7,6.5
			c2.5,0.6,26.4,11.2,34.5,14.4c8.1,3.2,15.3,6.2,16.5,1.2c1.2-5,1.3-8.1,1.1-15.7c-0.1-7.6-0.3-43.2-0.9-53.6
			c-0.6-10.4-6.2-27.3-13.5-26.9C292.8,360.5,282.2,372.6,282.2,372.6z"/>
		<g>
			<path class="st13" d="M297.5,333.7c-0.9-6.1-3.8-11.1-8.8-14.2c2.9-3.2,6.4-1,6.4-1s0.7-2.4-1.3-3.2c-1.9-0.8-3.5,0.5-3.5,0.5
				s0.3-3.2,2.5-4.7c2.2-1.6,6.4,0.7,6.4,0.7s-0.9-8.3-6.3-6.8c-5.3,1.5-4.6,6-4.6,6s-1-3.7-4.2-4.1c-3.2-0.3-5.6,2.3-5.6,2.3
				s2.7-2.3,5.6,1.7c2.2,3.1,1.6,5.8,1.1,6.9c-0.8-0.3-1.7-0.6-2.6-0.9c-7.5-2-16.1,0.2-19.8,3.8c-2.4,0.7-5.6,1.8-8.1,3.9
				c-4,3.4-0.3,8.1,0.3,8.7c0.3,1.7,0.3,1.7,0.3,1.7s0.9,7.7,1.7,10.1c0.8,2.4,2.1,3.2,2,4.6c0,1.3-2.2,6.1-0.7,7.7
				c1.6,1.6,2.9,1.1,2.9,1.1s6.1,12.9,8.8,11.9c2.7-1,7.3-5.7,7.3-5.7l6,3.8l11.1-12.3l-2-5.4C292.6,350.9,298.7,341.9,297.5,333.7z
				"/>
			<path class="st14" d="M260.1,333.1c3.2-1.5,11.5-3.4,10.1-0.9c-1.4,2.5-1.7,6.8,0.1,7.3c1.8,0.5,5.7,3.1,7,4c1.4,0.9,3,0.3,3-1.1
				c0-1.4,1.5-4.1,4.4-2.7c3,1.4,3.1,4.2,2.4,7.4c-0.8,3.2-3.1,4.5-3.1,4.5s3.5,2.8,8.9,0.1l-0.3-0.9c0,0,6-8.9,4.9-17.2
				c-0.9-6.1-3.8-11.1-8.8-14.2c2.9-3.2,6.4-1,6.4-1s0.7-2.4-1.3-3.2c-1.9-0.8-3.5,0.5-3.5,0.5s0.3-3.2,2.5-4.7
				c2.2-1.6,6.4,0.7,6.4,0.7s-0.9-8.3-6.3-6.8c-5.3,1.5-4.6,6-4.6,6s-1-3.7-4.2-4.1c-3.2-0.3-5.6,2.3-5.6,2.3s2.7-2.3,5.6,1.7
				c2.2,3.1,1.6,5.8,1.1,6.9c-0.8-0.3-1.7-0.6-2.6-0.9c-7.5-2-16.1,0.2-19.8,3.8c-2.4,0.7-5.6,1.8-8.1,3.9c-4,3.4-0.3,8.1,0.3,8.7
				C255.1,333.3,256.9,334.6,260.1,333.1z"/>
			<path class="st18" d="M262.6,345.1l-0.1,3c0,0,3.2,1,5.8-1.3"/>
			<path class="st18" d="M259.2,342.2c0,0,2.6-3.4,6.7-1.2"/>
			<path class="st18" d="M265.1,358.9c0,0,3.9-0.2,6.3-4.7"/>
			<path class="st14" d="M272.1,364.1c-2.3,1.1-5.2-1.9-6.6-2.2c-1.1-0.2-0.9,2-0.8,2.9c1.9,3.1,4.1,6.2,5.5,5.7
				c2.7-1,7.3-5.7,7.3-5.7l0.2,0.1c0.5-0.9,1.1-2.3,1.1-3.4C278.8,359.6,274.4,363,272.1,364.1z"/>
		</g>
		<path class="st13" d="M306.4,353.5c0,0-8.4-2.7-13.2,2.5c-4.9,5.2-18.1,20.7-15.3,20.7c2.8,0.1,7.7-7.7,13.4-10.1s9-2.3,10.9,1.6
			c1.9,4,8.4,29.4,11,24.9c2.6-4.4,7.3-13.3,4.9-21.8C315.8,362.9,309.2,355.2,306.4,353.5z"/>
		<g>
			<path class="st17" d="M285.1,383.6c0,0-7,12.2-7.7,18.9c-0.7,6.7-2.9,34.7-2.9,34.7s-2.8-1.7-4.2-0.1c-1.4,1.7-2.3,5.3-2.3,5.3
				s-3.9-1.2-4.8,0.5c-0.9,1.7-1.7,2.8-1.7,2.8l-24.3,8.2c0,0,38.4,2.2,41.5,1.9c3.1-0.2,5.1-2.1,5.1-2.1s2.5,2,6.7,0.4
				c4.2-1.6,5.7-3.5,6.9-6.9c1.2-3.3,6.8-44.2,6.8-44.2"/>
			<path class="st13" d="M237.1,454c0,0,11.7,0.7,22.7,1.2c-1.6-2.6-0.8-6.3,0-8.9L237.1,454z"/>
		</g>
	</g>
</g>
<g id="Floor">
	<line class="st18" x1="99" y1="482.9" x2="619.3" y2="482.9"/>
</g>
</svg>
