<?xml version="1.0" encoding="utf-8"?>
<!-- Generator: Adobe Illustrator 23.0.1, SVG Export Plug-In . SVG Version: 6.00 Build 0)  -->
<svg version="1.1" id="Calque_1" xmlns="http://www.w3.org/2000/svg" xmlns:xlink="http://www.w3.org/1999/xlink" x="0px" y="0px"
	 viewBox="0 0 250 250" style="enable-background:new 0 0 250 250;" xml:space="preserve">
<style type="text/css">
	.st0{fill:#EDF1F4;}
	.st1{fill:url(#SVGID_1_);}
	.st2{fill:url(#SVGID_2_);}
	.st3{fill:url(#SVGID_3_);}
	.st4{fill:url(#SVGID_4_);}
	.st5{fill:url(#SVGID_5_);}
	.st6{opacity:0.3;fill:url(#SVGID_6_);enable-background:new    ;}
</style>
<rect x="0" y="0" class="st0" width="250" height="250"/>
<g>
	
		<linearGradient id="SVGID_1_" gradientUnits="userSpaceOnUse" x1="-123.1062" y1="375.2608" x2="-122.9087" y2="375.2263" gradientTransform="matrix(221.3785 0 0 -296.3765 27361.5547 111348.7656)">
		<stop  offset="0" style="stop-color:#FF6533"/>
		<stop  offset="0.157" style="stop-color:#FF5633"/>
		<stop  offset="0.434" style="stop-color:#FF4333"/>
		<stop  offset="0.714" style="stop-color:#FF3733"/>
		<stop  offset="1" style="stop-color:#FF3333"/>
	</linearGradient>
	<path class="st1" d="M187,97.3c0-9.5-2.5-18.5-6.9-26.2c-11.7-12-37.1-14.8-43.4-0.1c-6.5,15.1,10.9,31.9,18.5,30.6
		c9.7-1.7-1.7-23.8-1.7-23.8c14.8,27.8,11.4,19.3-15.3,44.9s-53.9,79.5-57.9,81.7c-0.2,0.1-0.3,0.2-0.5,0.3h104.7c1.8,0,3-2,2.2-3.6
		l-27.4-54.2c-0.6-1.2-0.2-2.6,1-3.3C176.2,134.4,187,117.1,187,97.3z"/>
	
		<linearGradient id="SVGID_2_" gradientUnits="userSpaceOnUse" x1="-123.1371" y1="375.3097" x2="-122.7832" y2="375.1046" gradientTransform="matrix(221.3785 0 0 -296.3765 27361.5547 111348.7656)">
		<stop  offset="0" style="stop-color:#BF3338"/>
		<stop  offset="1" style="stop-color:#FF3333"/>
	</linearGradient>
	<path class="st2" d="M187,97.3c0-9.5-2.5-18.5-6.9-26.2c-11.7-12-37.1-14.8-43.4-0.1c-6.5,15.1,10.9,31.9,18.5,30.6
		c9.7-1.7-1.7-23.8-1.7-23.8c14.8,27.8,11.4,19.3-15.3,44.9s-53.9,79.5-57.9,81.7c-0.2,0.1-0.3,0.2-0.5,0.3h104.7c1.8,0,3-2,2.2-3.6
		l-27.4-54.2c-0.6-1.2-0.2-2.6,1-3.3C176.2,134.4,187,117.1,187,97.3z"/>
	
		<linearGradient id="SVGID_3_" gradientUnits="userSpaceOnUse" x1="-122.8675" y1="375.3033" x2="-122.8032" y2="375.2576" gradientTransform="matrix(176.6656 0 0 -261.2723 21810.6484 98184.1016)">
		<stop  offset="0" style="stop-color:#FF6533"/>
		<stop  offset="0.157" style="stop-color:#FF5633"/>
		<stop  offset="0.434" style="stop-color:#FF4333"/>
		<stop  offset="0.714" style="stop-color:#FF3733"/>
		<stop  offset="1" style="stop-color:#FF3333"/>
	</linearGradient>
	<path class="st3" d="M80.2,204.4c4-2.3,31.2-56.2,57.9-81.8s30.1-17,15.3-44.9c0,0-56.5,79.2-76.9,118.4"/>
	
		<linearGradient id="SVGID_4_" gradientUnits="userSpaceOnUse" x1="-122.9596" y1="375.009" x2="-122.9744" y2="375.1868" gradientTransform="matrix(230.7515 0 0 -274.6874 28497.9707 103158.5234)">
		<stop  offset="0" style="stop-color:#FF6533"/>
		<stop  offset="0.157" style="stop-color:#FF5633"/>
		<stop  offset="0.434" style="stop-color:#FF4333"/>
		<stop  offset="0.714" style="stop-color:#FF3733"/>
		<stop  offset="1" style="stop-color:#FF3333"/>
	</linearGradient>
	<path class="st4" d="M88.2,133.4c38.2-70.2,43.2-77.2,63-77.2c10.4,0,21,4.7,27.8,13.1c-9.3-15-25.7-25-44.5-25.3H69.7
		c-1.4,0-2.5,1.1-2.5,2.5v130.7C71,167.1,77.6,152.9,88.2,133.4z"/>
	
		<linearGradient id="SVGID_5_" gradientUnits="userSpaceOnUse" x1="-123.032" y1="375.27" x2="-122.9653" y2="375.2345" gradientTransform="matrix(241.6525 0 0 -309.2028 29841.0859 116161.4531)">
		<stop  offset="0" style="stop-color:#FBB040"/>
		<stop  offset="1" style="stop-color:#FB8840"/>
	</linearGradient>
	<path class="st5" d="M138.2,122.6c-26.7,25.6-53.9,79.5-57.9,81.8c-4,2.3-10.6,2.6-14.2-1.4c-3.8-4.2-9.7-11.1,22.1-69.6
		c38.2-70.2,43.2-77.2,63-77.2c10.4,0,21,4.7,27.8,13.1c0.4,0.6,0.7,1.2,1.1,1.8c-11.7-12-37.1-14.8-43.4-0.1
		c-6.5,15.1,10.9,31.9,18.5,30.6c9.7-1.7-1.7-23.8-1.7-23.8C168.3,105.6,164.8,97,138.2,122.6z"/>
	
		<linearGradient id="SVGID_6_" gradientUnits="userSpaceOnUse" x1="-122.9462" y1="375.4651" x2="-123.0155" y2="374.8732" gradientTransform="matrix(237.669 0 0 -306.0284 29347.1289 114967.8516)">
		<stop  offset="0" style="stop-color:#FFFFFF"/>
		<stop  offset="1" style="stop-color:#FFFFFF;stop-opacity:0"/>
	</linearGradient>
	<path class="st6" d="M91.3,136.5c38.2-70.2,43.2-77.2,63-77.2c8.6,0,17.3,3.2,23.8,9c-6.8-7.8-16.9-12.1-27-12.1
		c-19.9,0-24.9,7.1-63,77.2c-31.8,58.5-25.9,65.3-22.1,69.6c0.5,0.6,1.2,1.1,1.8,1.5C64.5,199.7,63.1,188.4,91.3,136.5z"/>
</g>
</svg>
