<?xml version="1.0" encoding="utf-8"?>
<!-- Generator: Adobe Illustrator 23.0.1, SVG Export Plug-In . SVG Version: 6.00 Build 0)  -->
<svg version="1.1" id="Layer_1" xmlns="http://www.w3.org/2000/svg" xmlns:xlink="http://www.w3.org/1999/xlink" x="0px" y="0px"
	 viewBox="0 0 64 64" style="enable-background:new 0 0 64 64;" xml:space="preserve">
<style type="text/css">
	.st0{fill:#8ED6FB;}
	.st1{fill:#1C78C0;}
</style>
<path class="st0" d="M57.5,48.3L33.1,62.1V51.4L48.3,43L57.5,48.3z M59.2,46.8V17.9l-8.9,5.2v18.6L59.2,46.8z M6.5,48.3l24.4,13.8
	V51.4L15.7,43L6.5,48.3z M4.8,46.8V17.9l8.9,5.2v18.6L4.8,46.8z M5.9,16l25-14.2v10.4l-16.2,8.9L5.9,16z M58.1,16l-25-14.2v10.4
	l16.2,8.9L58.1,16z"/>
<path class="st1" d="M30.9,50.5l-15.9-8.8V24.3l15.9,9.2V50.5z M33.1,50.5l16-8.8V24.3l-16,9.2V50.5z M16,22.3l16-8.8l16,8.8
	l-16,9.2L16,22.3z"/>
</svg>
